<?xml version="1.0" encoding="UTF-8" standalone="no"?><svg width="1848" height="995" xmlns="http://www.w3.org/2000/svg" stroke-linejoin="round" stroke-linecap="round" fill-rule="evenodd" fill="none"><rect x="0" y="0" width="1848" height="995" fill="#FFFFFF"/><style/><defs/><g><path d=" M 0,0"/><g transform="translate(1059 482.5)"><path d=" M 0,0"/><g><path d=" M 0,0"/></g><g><path d=" M 0,0"/><path d=" M -90,30 L -90,0 L 0,0 L 0,30 L -90,30 M -240,90 L -240,-60 L -120,-60 L -120,90 L -240,90 M -150,180 L -150,120 L -120,120 L -120,180 L -150,180 M -150,-90 L -150,-150 L -120,-150 L -120,-90 L -150,-90 M -210,300 L -210,210 L -60,210 L -60,300 L -210,300 M -210,-180 L -210,-270 L -60,-270 L -60,-180 L -210,-180 M -390,300 L -390,150 L -240,150 L -240,300 L -390,300 M -30,300 L -30,150 L 120,150 L 120,300 L -30,300 M -390,-120 L -390,-270 L -240,-270 L -240,-120 L -390,-120 M -30,-120 L -30,-270 L 120,-270 L 120,-120 L -30,-120 M 0,30 L 0,0 L 30,0 L 30,30 L 0,30 M -97.5,0 L -90,0 L -90,30 L -97.5,30 L -97.5,24 L -112.5,24 L -112.5,30 L -120,30 L -120,0 L -112.5,0 L -112.5,6 L -97.5,6 L -97.5,0 M -150,97.5 L -150,90 L -120,90 L -120,97.5 L -126,97.5 L -126,112.5 L -120,112.5 L -120,120 L -150,120 L -150,112.5 L -144,112.5 L -144,97.5 L -150,97.5 M -120,-67.5 L -120,-60 L -150,-60 L -150,-67.5 L -144,-67.5 L -144,-82.5 L -150,-82.5 L -150,-90 L -120,-90 L -120,-82.5 L -126,-82.5 L -126,-67.5 L -120,-67.5 M -150,187.5 L -150,180 L -120,180 L -120,187.5 L -126,187.5 L -126,202.5 L -120,202.5 L -120,210 L -150,210 L -150,202.5 L -144,202.5 L -144,187.5 L -150,187.5 M -120,-157.5 L -120,-150 L -150,-150 L -150,-157.5 L -144,-157.5 L -144,-172.5 L -150,-172.5 L -150,-180 L -120,-180 L -120,-172.5 L -126,-172.5 L -126,-157.5 L -120,-157.5 M -217.5,210 L -210,210 L -210,240 L -217.5,240 L -217.5,234 L -232.5,234 L -232.5,240 L -240,240 L -240,210 L -232.5,210 L -232.5,216 L -217.5,216 L -217.5,210 M -60,240 L -60,210 L -30,210 L -30,240 L -60,240 M -240,-210 L -225,-210 L -225,-180 L -240,-180 L -240,-210 M -52.5,-180 L -60,-180 L -60,-210 L -52.5,-210 L -52.5,-204 L -37.5,-204 L -37.5,-210 L -30,-210 L -30,-180 L -37.5,-180 L -37.5,-186 L -52.5,-186 L -52.5,-180 M -420,240 L -420,210 L -390,210 L -390,240 L -420,240" stroke="#000000" stroke-width="4"/><path d=" M -90,30 L -90,0 L 0,0 L 0,30 L -90,30" fill="#FFFFFF"/><path d=" M -240,90 L -240,-60 L -120,-60 L -120,90 L -240,90" fill="#FFFFFF"/><path d=" M -150,180 L -150,120 L -120,120 L -120,180 L -150,180" fill="#FFFFFF"/><path d=" M -150,-90 L -150,-150 L -120,-150 L -120,-90 L -150,-90" fill="#FFFFFF"/><path d=" M -210,300 L -210,210 L -60,210 L -60,300 L -210,300" fill="#FFFFFF"/><path d=" M -210,-180 L -210,-270 L -60,-270 L -60,-180 L -210,-180" fill="#FFFFFF"/><path d=" M -390,300 L -390,150 L -240,150 L -240,300 L -390,300" fill="#FFFFFF"/><path d=" M -30,300 L -30,150 L 120,150 L 120,300 L -30,300" fill="#FFFFFF"/><path d=" M -390,-120 L -390,-270 L -240,-270 L -240,-120 L -390,-120" fill="#FFFFFF"/><path d=" M -30,-120 L -30,-270 L 120,-270 L 120,-120 L -30,-120" fill="#FFFFFF"/><path d=" M 0,30 L 0,0 L 30,0 L 30,30 L 0,30" fill="#FFFFFF"/><path d=" M -97.5,0 L -90,0 L -90,30 L -97.5,30 L -97.5,24 L -112.5,24 L -112.5,30 L -120,30 L -120,0 L -112.5,0 L -112.5,6 L -97.5,6 L -97.5,0" fill="#FFFFFF"/><path d=" M -150,97.5 L -150,90 L -120,90 L -120,97.5 L -126,97.5 L -126,112.5 L -120,112.5 L -120,120 L -150,120 L -150,112.5 L -144,112.5 L -144,97.5 L -150,97.5" fill="#FFFFFF"/><path d=" M -120,-67.5 L -120,-60 L -150,-60 L -150,-67.5 L -144,-67.5 L -144,-82.5 L -150,-82.5 L -150,-90 L -120,-90 L -120,-82.5 L -126,-82.5 L -126,-67.5 L -120,-67.5" fill="#FFFFFF"/><path d=" M -150,187.5 L -150,180 L -120,180 L -120,187.5 L -126,187.5 L -126,202.5 L -120,202.5 L -120,210 L -150,210 L -150,202.5 L -144,202.5 L -144,187.5 L -150,187.5" fill="#FFFFFF"/><path d=" M -120,-157.5 L -120,-150 L -150,-150 L -150,-157.5 L -144,-157.5 L -144,-172.5 L -150,-172.5 L -150,-180 L -120,-180 L -120,-172.5 L -126,-172.5 L -126,-157.5 L -120,-157.5" fill="#FFFFFF"/><path d=" M -217.5,210 L -210,210 L -210,240 L -217.5,240 L -217.5,234 L -232.5,234 L -232.5,240 L -240,240 L -240,210 L -232.5,210 L -232.5,216 L -217.5,216 L -217.5,210" fill="#FFFFFF"/><path d=" M -60,240 L -60,210 L -30,210 L -30,240 L -60,240" fill="#FFFFFF"/><path d=" M -240,-210 L -225,-210 L -225,-180 L -240,-180 L -240,-210" fill="#FFFFFF"/><path d=" M -52.5,-180 L -60,-180 L -60,-210 L -52.5,-210 L -52.5,-204 L -37.5,-204 L -37.5,-210 L -30,-210 L -30,-180 L -37.5,-180 L -37.5,-186 L -52.5,-186 L -52.5,-180" fill="#FFFFFF"/><path d=" M -420,240 L -420,210 L -390,210 L -390,240 L -420,240" fill="#FFFFFF"/><path d=" M 0,30 L 0,0 M -120,30 L -120,0 M -90,30 L -90,0 M -120,120 L -150,120 M -120,90 L -150,90 M -150,-90 L -120,-90 M -150,-60 L -120,-60 M -120,210 L -150,210 M -120,180 L -150,180 M -150,-180 L -120,-180 M -150,-150 L -120,-150 M -240,240 L -240,210 M -210,240 L -210,210 M -30,210 L -30,240 M -60,210 L -60,240 M -240,-180 L -240,-210 M -30,-210 L -30,-180 M -60,-210 L -60,-180 M -390,240 L -390,210" stroke="#FFFFFF" stroke-width="1" stroke-linejoin="round" stroke-linecap="butt"/></g><g><path d=" M 0,0"/><path d=" M -289.304,149 L -290.002,149 L -289.971,149.891 L -293.047,154.116 L -290.454,158.779 L -290.454,158.779 L -292.671,154.151 L -289.335,150.109 L -289.304,149" fill="#000000"/><path d=" M 75.63,149 L 75.455,149 L 75.48,150.017 L 76.84,152.282 L 76.84,152.282 L 75.606,149.983 L 75.63,149" fill="#000000"/><path d=" M 37.402,-119 L 37.615,-119 L 37.59,-120.03 L 35.418,-122.417 L 35.418,-122.417 L 37.427,-119.97 L 37.402,-119" fill="#000000"/><path d=" M -60.036,-0.411 L -59.915,10.126 L -59.915,10.126 L -60.147,20.058 L -60.04,27.19 M -60.029,27.959 L -59.998,30 M -30.1,-0.348 L -30.003,2.769 M -29.954,4.33 L -29.786,9.72 L -29.786,9.72 L -29.901,19.936 L -30.027,29.597 M -239.944,-29.964 L -229.699,-29.376 L -229.699,-29.376 L -220.063,-29.738 L -210.001,-30.001 L -200.286,-30.384 L -189.933,-30.388 L -180.484,-30.108 M -174.36,-30.232 L -170.201,-30.336 L -159.707,-30.112 L -149.48,-29.821 L -140.736,-29.733 L -130.055,-30.079 L -119.99,-29.743 M -239.892,0.322 L -230.478,-0.396 L -230.478,-0.396 L -219.919,0.553 L -216.328,0.323 M -216,0.301 L -209.405,-0.123 L -200.145,-0.539 L -190.257,-0.128 L -179.706,0.582 L -169.522,0.541 L -159.852,0.127 L -150.04,-0.468 L -140.341,-0.057 L -129.978,-0.005 L -119.281,-0.138 M -239.988,30.009 L -230.236,29.355 L -230.236,29.355 L -220.575,29.868 L -209.776,29.892 L -206.006,30.084 M -205.471,30.111 L -199.794,30.4 L -189.991,29.997 L -180.545,30.54 L -170.178,29.923 L -160.3,29.586 L -150.089,29.661 L -139.623,30.583 L -130.153,29.696 L -119.986,30.035 M -239.913,59.545 L -229.692,60.024 L -229.692,60.024 L -219.571,60.104 L -210.634,59.373 L -199.974,59.911 L -189.722,60.279 L -180.633,60.014 L -169.628,60.054 L -160.02,60.025 L -150.425,60.23 L -140.24,60.324 L -133.329,60.415 M -129.404,60.426 L -120.129,59.787 M -209.579,-59.896 L -210.04,-50.067 L -210.04,-50.067 L -209.982,-39.876 L -210.136,-29.964 L -210.131,-20.276 L -209.408,-10.248 L -209.973,0.264 L -209.992,4.728 M -210.013,9.731 L -210.015,10.212 L -209.753,19.875 L -210.225,30.08 L -209.719,40.447 L -210.291,50.131 L -209.771,60.033 L -210.022,70.016 L -210.028,80.004 L -209.644,90.672 M -180.103,-59.425 L -180.149,-50.029 L -180.149,-50.029 L -179.017,-40.116 L -179.596,-29.647 L -179.836,-20.017 L -180.077,-9.825 L -180.067,-8.61 M -180.029,-3.646 L -180,-0.022 L -179.992,10.011 L -179.488,19.651 L -179.973,29.894 L -180.032,40.005 L -179.929,50.107 L -179.995,60.004 L -180.604,69.634 L -180.379,79.996 L -180.004,89.917 M -149.797,-60.233 L -150.186,-49.481 L -150.186,-49.481 L -150.183,-39.774 L -150.11,-30.072 L -150.212,-19.991 L -150.364,-10.254 L -150.115,-0.039 L -150.109,0.998 M -150.104,1.731 L -150.055,9.771 L -150.407,19.989 L -149.975,29.997 L -150.055,40.018 L -150.531,49.684 L -149.785,59.691 L -149.89,69.81 L -149.898,79.796 L -150.284,90.061 M -149.976,149.989 L -139.922,150.106 L -139.922,150.106 L -129.565,149.78 L -119.926,150.001 M -149.977,-120.218 L -140.258,-119.747 L -140.258,-119.747 L -130.191,-119.458 L -120.182,-119.851 M -209.951,239.971 L -209.644,239.956 M -203.342,239.651 L -199.525,239.467 L -199.525,239.467 L -189.85,240.362 L -179.835,239.889 L -169.638,239.986 L -159.992,240.036 L -150.006,239.946 L -139.933,240.39 L -130.015,240.095 L -119.972,240.083 L -110.531,240.046 L -100,240.005 L -89.874,239.483 L -79.981,240.018 L -69.882,240.576 L -60.059,239.622 M -210.096,269.823 L -199.917,270.248 L -199.917,270.248 L -190.018,269.979 L -180.457,270.275 L -170,270.001 L -160.102,270.109 L -150.467,270.487 L -140.667,270.172 L -130.083,270.011 L -122.582,270.026 M -118.092,269.891 L -110.156,269.16 L -100.524,269.781 L -90.464,270.372 L -79.994,270.231 L -69.91,269.953 L -60.36,270.117 M -179.947,209.617 L -180.025,219.814 L -180.025,219.814 L -180.351,230.217 L -179.818,239.739 L -179.886,249.97 L -180.219,259.971 L -180.349,269.91 L -180.269,271.959 M -180.217,273.274 L -179.955,279.995 L -179.384,290.119 L -180.018,299.934 M -150.448,209.94 L -149.441,219.901 L -149.441,219.901 L -150.273,229.884 L -149.926,238.186 M -149.905,238.689 L -149.837,240.324 L -150.309,249.333 L -149.862,260.327 L -149.524,269.778 L -149.946,280.038 L -149.926,289.945 L -149.841,300.103 M -120.114,209.565 L -120.334,219.624 L -120.334,219.624 L -120.138,225.007 M -120.066,227.009 L -119.956,230.043 L -120.142,240.115 L -120.538,250.04 L -120.286,259.963 L -120.531,269.753 L -119.896,280.007 L -119.812,289.814 L -119.893,300.225 M -89.963,210.114 L -89.542,220.395 L -89.542,220.395 L -90.292,230.242 L -90.023,240.005 L -90.049,250.481 L -89.695,260.054 L -89.742,261.005 M -89.775,261.667 L -90.196,270.108 L -89.604,280.167 L -90.151,289.891 L -89.948,300.139 M -210.084,-240.034 L -199.548,-239.794 L -199.548,-239.794 L -189.888,-240.374 L -180.041,-239.911 L -170.041,-239.864 L -160.351,-240.022 L -150.444,-240.076 L -140,-240.001 L -129.892,-240.21 L -119.654,-239.72 L -111.896,-239.939 M -109.752,-239.992 L -99.981,-239.927 L -89.959,-240.176 L -80.026,-240.108 L -69.988,-239.871 L -60.044,-239.483 M -210.031,-210.313 L -200.014,-210.022 L -200.014,-210.022 L -190.049,-209.448 L -180.051,-209.998 L -170.29,-209.99 L -159.273,-209.43 L -150.026,-210.033 L -140.004,-209.994 L -137.601,-209.868 M -130.314,-209.488 L -130.017,-209.472 L -119.976,-210.133 L -109.662,-209.869 L -99.996,-209.998 L -90.333,-210.041 L -80.04,-210.056 L -70.093,-209.506 L -59.74,-210.236 M -179.841,-270.164 L -179.91,-260.28 L -179.91,-260.28 L -179.381,-250.054 L -180.115,-240.126 L -179.93,-229.894 L -179.766,-220.13 L -180.352,-210.045 L -180.193,-199.63 L -179.941,-190.084 L -179.996,-188.324 M -180.033,-187.129 L -180.257,-179.929 M -149.733,-270.169 L -149.635,-259.623 L -149.635,-259.623 L -150.014,-250.024 L -150.533,-239.619 L -149.995,-229.996 L -149.344,-220.276 L -149.803,-210.141 L -149.99,-199.791 L -150.596,-190.151 L -150.15,-179.869 M -119.841,-269.705 L -119.82,-259.67 L -119.82,-259.67 L -119.979,-249.982 L -119.383,-239.638 L -120.644,-230.518 L -120.681,-220.436 L -120.374,-213.967 M -120.357,-213.601 L -120.186,-210.007 L -120.064,-200.003 L -119.712,-190.655 L -120.098,-179.605 M -90.046,-269.9 L -89.897,-259.521 L -89.897,-259.521 L -89.287,-249.77 L -90.06,-239.197 L -89.933,-229.972 L -90.762,-220.531 L -90.041,-210.898 M -89.987,-208.245 L -90.132,-200.053 L -89.58,-190.99 L -90.228,-180.278 M -389.961,180.473 L -380.031,180.109 L -380.031,180.109 L -370.198,179.839 L -360.102,179.954 L -350.037,180.23 L -340.047,179.745 L -335.095,179.774 M -332.067,179.792 L -329.995,179.804 L -319.345,180.414 L -310.184,180.481 L -299.999,180.001 L -290.206,179.378 L -280.019,180.03 L -269.998,179.75 L -260.005,180.012 L -249.804,179.818 L -240.523,179.394 M -390.056,209.903 L -380.013,209.803 L -380.013,209.803 L -369.795,209.181 L -359.266,209.638 L -350.538,209.57 L -339.72,209.749 L -330.482,209.728 L -319.792,209.701 L -310.238,209.967 L -304.388,209.973 M -301.236,209.976 L -300.027,209.977 L -290.26,209.735 L -279.407,209.55 L -270.032,209.967 L -259.821,210.026 L -249.363,209.796 L -239.674,209.987 M -390.341,241.02 L -379.992,240.367 L -379.992,240.367 L -370.095,239.974 L -364.705,239.814 M -364.27,239.801 L -360.523,239.69 L -350.153,239.954 L -339.335,239.889 L -330.33,240.413 L -320.069,239.748 L -309.925,239.874 L -300.374,240.399 L -289.551,239.877 L -280.006,239.752 L -269.401,239.224 L -259.999,240.005 L -250.33,239.994 L -240.892,240.131 M -389.8,270.161 L -380.409,269.857 L -380.409,269.857 L -377.009,269.939 M -370.276,270.101 L -370.047,270.107 L -360.018,270.156 L -349.28,270 L -340.444,269.811 L -329.721,270.383 L -320,270.103 L -309.647,269.972 L -298.98,269.777 L -290.459,270.081 L -280.019,269.765 L -269.997,269.919 L -259.637,270.492 L -250.036,270.107 L -239.917,270.068 M -360.204,149.871 L -359.686,160.121 L -359.686,160.121 L -359.896,170.085 L -360.1,179.512 L -360.022,189.644 L -359.962,200.135 L -360.372,209.999 L -359.797,220.114 L -360.199,230.828 L -359.89,239.163 M -359.843,243.774 L -359.825,249.829 L -360.308,259.674 L -360.063,269.992 L -359.918,279.944 L -359.502,290.144 L -359.863,300.153 M -330.161,149.989 L -330.271,159.705 L -330.271,159.705 L -330.168,170.455 L -330.19,179.961 L -329.971,190.125 L -329.789,200.077 L -329.804,203.876 M -329.812,206.182 L -329.828,210.349 L -330.33,219.98 L -329.775,230.178 L -330.375,239.648 L -329.99,250.048 L -329.982,260.003 L -329.972,269.689 L -329.916,280.009 L -329.436,289.675 L -329.849,299.994 M -299.791,149.771 L -300.572,159.854 L -300.572,159.854 L -299.92,170.208 L -300.102,179.955 L -299.963,190.196 L -300.263,199.994 L -300.092,209.993 L -300.055,213.62 M -299.996,219.287 L -299.989,219.963 L -300.148,230.049 L -299.972,240.042 L -299.993,250.056 L -299.937,259.802 L -299.406,269.813 L -299.882,280.069 L -299.544,289.829 L -300.075,299.432 M -270.014,149.903 L -269.842,157.879 M -269.861,162.716 L -270.012,169.73 L -270.126,180.127 L -270.044,189.936 L -270.308,200.026 L -269.901,209.8 L -270.021,220.035 L -269.742,229.622 L -270.154,240.116 L -270.048,249.89 L -269.372,259.639 L -269.921,270.142 L -270.068,280.081 L -270.016,289.987 L -269.965,300.48 M -29.927,180.253 L -19.987,180.153 L -19.987,180.153 L -9.803,180.059 L -0.021,180.191 L 9.901,179.519 L 20.047,180.12 L 30.012,179.915 L 40.002,180.015 L 49.932,180.123 L 60.24,179.657 L 70.374,180.102 L 74.812,180.011 M 76.198,179.983 L 79.584,179.913 L 89.934,179.983 L 99.896,181.019 L 109.858,180.265 L 119.015,179.571 M -30.039,209.977 L -19.805,210.335 L -19.805,210.335 L -9.911,209.927 L -0.298,210.389 L 10.456,210.283 L 17.627,209.988 M 18.839,209.938 L 20.26,209.88 L 29.749,210.229 L 40.068,209.928 L 49.929,210.191 L 59.804,209.823 L 69.978,210.23 L 79.297,209.951 L 89.974,210.156 L 99.619,209.864 L 109.965,210.296 L 120.071,209.661 M -30.28,239.973 L -19.631,239.848 L -19.631,239.848 L -10.03,240.051 L -0.403,239.135 L 10.107,239.903 L 19.937,239.864 L 22.234,239.874 M 23.167,239.878 L 30.558,239.91 L 39.947,239.953 L 50.831,240.082 L 60.136,240.129 L 69.982,239.956 L 80.103,240.218 L 90.141,239.923 L 99.692,240.067 L 109.507,239.782 L 120.421,240.146 M -30.325,270.11 L -19.872,270.13 L -19.872,270.13 L -10.102,269.986 L 0.013,269.988 L 10.004,270.015 L 20.449,269.391 L 29.976,270.565 L 35.702,270.281 M 42.066,270.043 L 50.004,269.965 L 60.242,270.077 L 70.016,269.982 L 79.821,270.304 L 89.735,270.074 L 100.277,270.216 L 109.744,269.751 L 120.638,269.782 M 0.078,150.018 L 0.25,159.967 L 0.25,159.967 L 0,170.002 L 0.494,179.857 L 0.271,182.714 M -0.229,189.115 L -0.291,189.908 L -0.137,199.652 L -0.423,209.808 L -0.083,219.892 L 0.067,230.069 L 0.025,239.974 L -0.033,250.003 L -0.945,260.007 L 0.139,270.536 L 0.001,279.966 L 0.173,290.031 L 0.381,300.069 M 29.928,149.775 L 29.996,159.483 L 29.996,159.483 L 30.113,169.512 L 29.99,173.062 M 29.935,174.649 L 29.756,179.794 L 29.907,190.194 L 30.086,200.361 L 29.77,210.102 L 30.318,219.79 L 29.939,230.039 L 29.76,239.445 L 29.338,249.85 L 29.924,260.119 L 30.166,270.04 L 30.224,280.537 L 30.232,290.212 L 30.043,300.315 M 60.116,150.016 L 59.983,159.857 L 59.983,159.857 L 60.383,169.344 L 60.143,180.047 L 59.589,189.328 M 59.573,189.594 L 59.541,190.138 L 59.978,200.024 L 60.427,209.21 L 60.053,219.493 L 59.96,229.764 L 60.317,239.747 L 60.317,250.356 L 60.18,260.45 L 60.012,270.008 L 60.216,279.771 L 60.651,289.631 L 59.945,300.298 M 90.28,150.399 L 89.985,160.012 L 89.985,160.012 L 90.07,170.375 L 90.053,179.928 L 90.191,190.196 L 90.125,200.114 L 90.046,210.182 L 90.042,219.839 L 89.954,230.485 L 89.996,240.123 L 90.321,245.99 M 90.379,253.656 L 90.195,259.771 L 89.611,269.799 L 90.855,280.425 L 90.338,289.94 L 90.151,300.187 M -389.507,-239.879 L -384.267,-239.888 M -381.18,-239.894 L -380.614,-239.895 L -380.614,-239.895 L -370.433,-239.375 L -359.628,-239.751 L -350.209,-240.251 L -340.007,-240.005 L -330.271,-239.829 L -319.977,-239.831 L -310.244,-239.635 L -300.196,-240.528 L -290.234,-239.882 L -280.069,-240.227 L -270.243,-240.112 L -260.495,-240.365 L -249.787,-240.323 L -240.014,-240.06 M -390.229,-209.899 L -379.899,-209.973 L -379.899,-209.973 L -370.727,-209.976 L -361.887,-209.967 M -359.556,-209.963 L -350,-209.926 L -339.318,-210.089 L -329.784,-210.187 L -319.953,-209.903 L -309.837,-209.635 L -299.878,-209.896 L -289.941,-209.866 L -280.33,-209.778 L -269.892,-209.605 L -260.278,-209.822 L -250.677,-209.962 L -239.903,-209.95 M -389.942,-179.971 L -379.999,-180.007 L -379.999,-180.007 L -370.17,-179.855 L -360.071,-179.719 L -349.598,-179.625 L -345.58,-179.782 M -343.108,-179.88 L -339.556,-180.019 L -329.946,-180.156 L -319.987,-179.985 L -309.789,-180.136 L -299.954,-180.211 L -289.923,-180.023 L -279.884,-179.809 L -270.001,-180.249 L -260.068,-179.965 L -249.372,-179.494 L -239.896,-180.399 M -390.496,-149.845 L -380.031,-149.629 L -380.031,-149.629 L -369.777,-150.415 L -359.903,-150.077 L -349.994,-150.042 L -339.824,-149.783 L -329.881,-150.418 L -320.014,-150.25 L -309.903,-149.848 L -303.915,-149.788 M -298.43,-149.791 L -290.015,-150.037 L -279.591,-150.5 L -270.166,-149.995 L -259.725,-149.441 L -250.143,-150 L -240.177,-149.756 M -359.939,-269.874 L -359.755,-259.752 L -359.755,-259.752 L -360.358,-249.46 L -359.864,-240.272 L -359.872,-236.946 M -359.876,-235.559 L -359.89,-229.951 L -360.376,-220.181 L -360.339,-210.115 L -360,-200.009 L -359.81,-189.853 L -359.92,-179.987 L -359.944,-169.871 L -359.624,-159.818 L -359.828,-150.611 L -359.79,-140.512 L -359.758,-130.12 L -360.013,-120.003 M -330.173,-270.495 L -329.708,-259.858 L -329.708,-259.858 L -329.569,-250.223 L -329.709,-240.512 L -330.663,-231.289 M -330.613,-228.314 L -329.902,-220.328 L -330.551,-209.947 L -330.205,-200.057 L -329.831,-189.97 L -330.123,-180.089 L -330.188,-170.192 L -329.852,-160.086 L -330.031,-150.004 L -330.138,-139.852 L -330.178,-129.911 L -330.065,-119.998 M -300.056,-269.927 L -300.008,-259.934 L -300.008,-259.934 L -300.103,-249.83 L -299.99,-239.987 L -299.946,-230.099 L -299.833,-220.136 L -299.718,-209.566 L -299.713,-200.654 L -299.718,-200.553 M -299.733,-200.207 L -300.18,-190.207 L -300.185,-179.861 L -299.984,-170.05 L -299.973,-160.192 L -300.043,-149.243 L -300.332,-140.28 L -300.131,-130.43 L -299.948,-119.961 M -269.669,-270.265 L -270.26,-259.967 L -270.26,-259.967 L -269.774,-250.021 L -269.839,-247.322 M -269.908,-244.502 L -270.017,-240.008 L -269.992,-229.983 L -269.922,-220.204 L -270.305,-210.087 L -269.943,-200.307 L -269.273,-189.627 L -270.113,-179.783 L -270.03,-170.446 L -270.137,-160.356 L -269.866,-149.403 L -270.579,-139.671 L -270.237,-129.986 L -269.787,-119.861 M -30.001,-239.961 L -20.333,-239.225 L -20.333,-239.225 L -10.346,-239.251 L 0.032,-240.008 L 10.43,-239.877 L 20.028,-240.012 L 29.865,-239.941 L 40.215,-239.964 L 49.847,-239.709 L 60.007,-240.012 L 69.619,-239.859 M 71.322,-239.875 L 80.026,-240.029 L 89.327,-239.373 L 100.906,-239.987 L 109.195,-240.728 L 120.467,-239.773 M -29.808,-210.314 L -19.978,-210.034 L -19.978,-210.034 L -10.963,-209.886 M -6.505,-209.989 L 0.317,-210.225 L 9.968,-210.054 L 20.11,-209.859 L 30.5,-209.978 L 40.075,-210.19 L 49.969,-210.038 L 59.588,-209.722 L 70.367,-210.218 L 80.004,-210.07 L 89.441,-209.702 L 99.75,-210.438 L 109.868,-209.862 L 120.093,-210.322 M -30.002,-179.993 L -19.965,-179.605 L -19.965,-179.605 L -10.054,-180.142 L 0.014,-180.127 L 10,-179.996 L 20.022,-179.946 L 29.913,-179.332 L 39.412,-180.057 L 50.166,-179.976 L 60.187,-180.316 L 69.977,-180.015 L 80.901,-179.27 L 88.134,-179.771 M 88.436,-179.792 L 90.166,-179.911 L 100.294,-179.765 L 110.092,-179.603 L 119.918,-179.915 M -30.298,-150.576 L -19.751,-150.292 L -19.751,-150.292 L -9.993,-149.946 L -0.161,-149.814 L 10.179,-149.98 L 20.04,-150.014 L 29.694,-149.66 L 40.044,-150.216 L 50,-149.985 L 60.19,-149.762 L 69.77,-150.29 L 78.567,-149.284 M 82.295,-149.29 L 89.814,-150.234 L 100.363,-149.979 L 110.313,-150.124 L 120.226,-149.285 M 0.024,-269.97 L 0.313,-260.434 L 0.313,-260.434 L -0.31,-250.256 L 0.294,-239.709 L -0.082,-230.235 L 0.021,-219.86 L -0.003,-209.997 L 0.644,-200.182 L -0.181,-190.003 L -0.028,-180.045 L 0.004,-170.766 L 0.21,-160.671 M 0.106,-154.808 L -0.004,-150.038 L 0.037,-140.064 L -0.01,-130.02 L 0.943,-120.119 M 30.05,-269.573 L 29.854,-259.9 L 29.854,-259.9 L 29.656,-249.3 L 30.139,-239.865 L 30.129,-229.96 L 30.46,-220.16 L 29.548,-210.363 L 30.509,-200.13 L 30.345,-194.036 M 30.34,-193.856 L 30.223,-189.535 L 30.213,-180.162 L 30.11,-170.907 L 29.438,-160.39 L 30.703,-150.406 L 30.037,-139.63 L 29.647,-129.642 L 30.115,-119.746 M 59.969,-269.219 L 59.752,-260.528 L 59.752,-260.528 L 59.843,-250.087 L 59.854,-239.569 L 60.271,-230.487 L 59.965,-219.753 L 60.599,-209.793 L 60.126,-199.81 L 59.233,-189.915 L 59.756,-183.742 M 60.08,-179.908 L 59.937,-169.864 L 60.191,-159.416 L 60,-150.023 L 60.162,-140.375 L 60.065,-129.931 L 59.451,-120.104 M 89.962,-269.954 L 89.94,-260.022 L 89.94,-260.022 L 90.016,-257.515 M 90.154,-252.969 L 90.241,-250.111 L 90.209,-240.256 L 89.996,-229.996 L 90.056,-219.97 L 90.103,-210.501 L 89.791,-199.569 L 90.077,-189.977 L 89.856,-180.073 L 89.97,-170.017 L 90.048,-159.996 L 90.571,-149.877 L 90.186,-140.086 L 90.284,-129.769 L 90.032,-119.902 M -0.021,29.839 L -0.51,20.521 L -0.51,20.521 L -0.051,10.162 L -0.358,-0.079 M -119.879,30.057 L -119.8,20.073 L -119.8,20.073 L -119.914,10.529 L -120.478,-0.231 M -89.917,0.036 L -89.981,10.038 L -89.981,10.038 L -90.046,19.909 L -89.89,30.289 M -120.237,120.295 L -130.119,119.75 L -130.119,119.75 L -139.931,120.05 L -150.093,119.219 M -150.359,89.537 L -139.981,90.407 L -139.981,90.407 L -130.414,89.798 L -120.333,89.28 M -149.865,-90.105 L -139.981,-90.305 L -139.981,-90.305 L -129.356,-89.66 L -119.839,-90.284 M -119.789,-60.311 L -130.115,-59.66 L -130.115,-59.66 L -140.039,-59.964 L -150.113,-60.176 M -120.082,209.858 L -129.726,210.012 L -129.726,210.012 L -140.22,210.248 L -149.962,210.274 M -150.315,179.626 L -143.714,179.991 M -142.729,180.045 L -139.989,180.197 L -139.989,180.197 L -130.175,179.75 L -119.694,179.963 M -149.968,-180.06 L -139.47,-179.895 L -139.47,-179.895 L -130.398,-179.734 L -119.911,-180.695 M -119.91,-149.752 L -130.524,-150.16 L -130.524,-150.16 L -139.664,-149.869 L -149.907,-149.845 M -240.023,240.355 L -239.732,230.177 L -239.732,230.177 L -240.22,219.9 L -240.088,210.036 M -210.164,210.084 L -209.933,220.718 L -209.933,220.718 L -209.895,229.764 L -209.954,239.887 M -29.771,209.983 L -29.152,219.749 L -29.152,219.749 L -30.041,229.928 L -30.384,239.328 M -239.626,-180.203 L -240.068,-190.019 L -240.068,-190.019 L -240.188,-199.751 L -240.265,-210.094 M -30.069,-210.115 L -29.094,-199.906 L -29.094,-199.906 L -30.264,-189.549 L -29.788,-180.209 M -59.957,-179.952 L -59.672,-190.302 L -59.672,-190.302 L -59.026,-200.354 L -60.671,-210.003" stroke="#000000" stroke-width="0.3"/></g><g clip-path="url(#instance17)"><path d=" M 0,0"/><clipPath id="instance17" fill="#FFFFFF"><path d=" M 0,0"/><path d=" M -90,30 L -90,0 L 0,0 L 0,30 L -90,30" fill="#FF0000"/><path d=" M -240,90 L -240,-60 L -120,-60 L -120,90 L -240,90" fill="#FF0000"/><path d=" M -150,180 L -150,120 L -120,120 L -120,180 L -150,180" fill="#FF0000"/><path d=" M -150,-90 L -150,-150 L -120,-150 L -120,-90 L -150,-90" fill="#FF0000"/><path d=" M -210,300 L -210,210 L -60,210 L -60,300 L -210,300" fill="#FF0000"/><path d=" M -210,-180 L -210,-270 L -60,-270 L -60,-180 L -210,-180" fill="#FF0000"/><path d=" M -390,300 L -390,150 L -240,150 L -240,300 L -390,300" fill="#FF0000"/><path d=" M -30,300 L -30,150 L 120,150 L 120,300 L -30,300" fill="#FF0000"/><path d=" M -390,-120 L -390,-270 L -240,-270 L -240,-120 L -390,-120" fill="#FF0000"/><path d=" M -30,-120 L -30,-270 L 120,-270 L 120,-120 L -30,-120" fill="#FF0000"/><path d=" M 0,30 L 0,0 L 30,0 L 30,30 L 0,30" fill="#FF0000"/><path d=" M -97.5,0 L -90,0 L -90,30 L -97.5,30 L -97.5,24 L -112.5,24 L -112.5,30 L -120,30 L -120,0 L -112.5,0 L -112.5,6 L -97.5,6 L -97.5,0" fill="#FF0000"/><path d=" M -150,97.5 L -150,90 L -120,90 L -120,97.5 L -126,97.5 L -126,112.5 L -120,112.5 L -120,120 L -150,120 L -150,112.5 L -144,112.5 L -144,97.5 L -150,97.5" fill="#FF0000"/><path d=" M -120,-67.5 L -120,-60 L -150,-60 L -150,-67.5 L -144,-67.5 L -144,-82.5 L -150,-82.5 L -150,-90 L -120,-90 L -120,-82.5 L -126,-82.5 L -126,-67.5 L -120,-67.5" fill="#FF0000"/><path d=" M -150,187.5 L -150,180 L -120,180 L -120,187.5 L -126,187.5 L -126,202.5 L -120,202.5 L -120,210 L -150,210 L -150,202.5 L -144,202.5 L -144,187.5 L -150,187.5" fill="#FF0000"/><path d=" M -120,-157.5 L -120,-150 L -150,-150 L -150,-157.5 L -144,-157.5 L -144,-172.5 L -150,-172.5 L -150,-180 L -120,-180 L -120,-172.5 L -126,-172.5 L -126,-157.5 L -120,-157.5" fill="#FF0000"/><path d=" M -217.5,210 L -210,210 L -210,240 L -217.5,240 L -217.5,234 L -232.5,234 L -232.5,240 L -240,240 L -240,210 L -232.5,210 L -232.5,216 L -217.5,216 L -217.5,210" fill="#FF0000"/><path d=" M -60,240 L -60,210 L -30,210 L -30,240 L -60,240" fill="#FF0000"/><path d=" M -240,-210 L -225,-210 L -225,-180 L -240,-180 L -240,-210" fill="#FF0000"/><path d=" M -52.5,-180 L -60,-180 L -60,-210 L -52.5,-210 L -52.5,-204 L -37.5,-204 L -37.5,-210 L -30,-210 L -30,-180 L -37.5,-180 L -37.5,-186 L -52.5,-186 L -52.5,-180" fill="#FF0000"/><path d=" M -420,240 L -420,210 L -390,210 L -390,240 L -420,240" fill="#FF0000"/></clipPath></g><g><path d=" M 0,0"/><path d=" M -223.31,-58.937 L -223.185,-58.812 L -225.602,-58.625 L -230.561,-58.375 L -234.343,-57.249 L -236.948,-55.248 L -238.375,-52.37 L -238.625,-48.617 L -238.812,-46.803 L -238.937,-46.928 L -239,-49.993 L -239,-59 L -227.279,-59 L -223.31,-58.937 M -238.937,81.901 L -238.812,81.776 L -238.625,82.762 L -238.375,84.857 L -236.88,86.491 L -234.139,87.664 L -230.153,88.375 L -224.922,88.625 L -222.369,88.813 L -222.494,88.938 L -226.668,89 L -239,89 L -239,83.723 L -238.937,81.901" fill="#000000"/><path d=" M -208.937,289.641 L -208.812,289.516 L -208.625,290.878 L -208.375,293.727 L -207.116,295.926 L -204.849,297.475 L -201.574,298.375 L -197.29,298.625 L -195.21,298.813 L -195.335,298.938 L -198.798,299 L -209,299 L -209,292.028 L -208.937,289.641 M -72.494,298.938 L -72.619,298.813 L -70.902,298.625 L -67.341,298.375 L -64.608,297.425 L -62.703,295.776 L -61.625,293.427 L -61.375,290.379 L -61.187,288.917 L -61.062,289.042 L -61,291.579 L -61,299 L -69.574,299 L -72.494,298.938" fill="#000000"/><path d=" M -198.579,-268.937 L -198.454,-268.812 L -199.993,-268.625 L -203.196,-268.375 L -205.66,-267.555 L -207.387,-266.166 L -208.375,-264.207 L -208.625,-261.678 L -208.812,-260.476 L -208.937,-260.601 L -209,-262.748 L -209,-269 L -201.231,-269 L -198.579,-268.937 M -61.062,-253.462 L -61.187,-253.337 L -61.375,-255.729 L -61.625,-260.637 L -62.891,-264.381 L -65.173,-266.96 L -68.47,-268.375 L -72.783,-268.625 L -74.878,-268.812 L -74.753,-268.937 L -71.268,-269 L -61,-269 L -61,-257.393 L -61.062,-253.462" fill="#000000"/><path d=" M -373.943,151.063 L -373.818,151.188 L -376.13,151.375 L -380.878,151.625 L -384.501,153.027 L -387,155.582 L -388.375,159.289 L -388.625,164.148 L -388.812,166.515 L -388.937,166.39 L -389,162.496 L -389,151 L -377.754,151 L -373.943,151.063 M -241.062,168.91 L -241.187,169.035 L -241.375,166.248 L -241.625,160.549 L -243.206,156.212 L -246.119,153.237 L -250.363,151.625 L -255.938,151.375 L -258.663,151.188 L -258.538,151.063 L -254.107,151 L -241,151 L -241,164.385 L -241.062,168.91 M -388.937,285.414 L -388.812,285.289 L -388.625,287.356 L -388.375,291.613 L -387.16,294.869 L -384.981,297.123 L -381.837,298.375 L -377.729,298.625 L -375.737,298.813 L -375.862,298.938 L -379.194,299 L -389,299 L -389,288.858 L -388.937,285.414 M -247.92,298.938 L -248.045,298.813 L -247.09,298.625 L -245.054,298.375 L -243.464,297.549 L -242.321,296.146 L -241.625,294.167 L -241.375,291.612 L -241.187,290.397 L -241.062,290.522 L -241,292.688 L -241,299 L -246.143,299 L -247.92,298.938" fill="#000000"/><path d=" M -18.151,151.063 L -18.026,151.188 L -19.636,151.375 L -22.982,151.625 L -25.553,152.937 L -27.351,155.312 L -28.375,158.75 L -28.625,163.25 L -28.812,165.437 L -28.937,165.312 L -29,161.687 L -29,151 L -20.91,151 L -18.151,151.063 M 118.938,155.838 L 118.813,155.963 L 118.625,155.354 L 118.375,154.013 L 117.135,152.944 L 114.905,152.148 L 111.686,151.625 L 107.477,151.375 L 105.434,151.188 L 105.559,151.063 L 108.966,151 L 119,151 L 119,154.581 L 118.938,155.838 M -28.937,287.781 L -28.812,287.656 L -28.625,289.328 L -28.375,292.797 L -27.394,295.461 L -25.682,297.32 L -23.239,298.375 L -20.065,298.625 L -18.541,298.813 L -18.666,298.938 L -21.296,299 L -29,299 L -29,290.633 L -28.937,287.781 M 110.041,298.938 L 109.916,298.813 L 111.211,298.625 L 113.927,298.375 L 116.026,297.087 L 117.509,294.762 L 118.375,291.399 L 118.625,286.998 L 118.813,284.86 L 118.938,284.985 L 119,288.535 L 119,299 L 112.328,299 L 110.041,298.938" fill="#000000"/><path d=" M -379.06,-268.937 L -378.935,-268.812 L -380.394,-268.625 L -383.436,-268.375 L -385.781,-266.981 L -387.427,-264.444 L -388.375,-260.763 L -388.625,-255.939 L -388.812,-253.589 L -388.937,-253.714 L -389,-257.582 L -389,-269 L -381.592,-269 L -379.06,-268.937 M -241.062,-254.159 L -241.187,-254.034 L -241.375,-256.309 L -241.625,-260.986 L -242.534,-264.555 L -244.102,-267.018 L -246.33,-268.375 L -249.216,-268.625 L -250.597,-268.812 L -250.472,-268.937 L -248.057,-269 L -241,-269 L -241,-257.916 L -241.062,-254.159 M -388.937,-132.534 L -388.812,-132.659 L -388.625,-130.935 L -388.375,-127.361 L -387.182,-124.618 L -385.045,-122.706 L -381.965,-121.625 L -377.942,-121.375 L -375.992,-121.187 L -376.117,-121.062 L -379.385,-121 L -389,-121 L -389,-129.604 L -388.937,-132.534 M -246.116,-121.062 L -246.241,-121.187 L -245.586,-121.375 L -244.152,-121.625 L -243.013,-122.194 L -242.171,-123.081 L -241.625,-124.287 L -241.375,-125.811 L -241.187,-126.511 L -241.062,-126.386 L -241,-124.993 L -241,-121 L -244.79,-121 L -246.116,-121.062" fill="#000000"/><path d=" M -23.334,-268.937 L -23.209,-268.812 L -23.955,-268.625 L -25.573,-268.375 L -26.849,-266.781 L -27.783,-263.843 L -28.375,-259.561 L -28.625,-253.934 L -28.812,-251.184 L -28.937,-251.309 L -29,-255.778 L -29,-269 L -24.797,-269 L -23.334,-268.937 M 118.938,-255.217 L 118.813,-255.092 L 118.625,-257.191 L 118.375,-261.515 L 117.581,-264.82 L 116.243,-267.107 L 114.361,-268.375 L 111.936,-268.625 L 110.785,-268.812 L 110.91,-268.937 L 112.98,-269 L 119,-269 L 119,-258.709 L 118.938,-255.217 M -28.937,-129.216 L -28.812,-129.341 L -28.625,-128.169 L -28.375,-125.702 L -27.015,-123.788 L -24.544,-122.429 L -20.964,-121.625 L -16.273,-121.375 L -13.99,-121.187 L -14.115,-121.062 L -17.883,-121 L -29,-121 L -29,-127.115 L -28.937,-129.216 M 110.712,-121.062 L 110.587,-121.187 L 111.77,-121.375 L 114.262,-121.625 L 116.194,-122.911 L 117.565,-125.233 L 118.375,-128.592 L 118.625,-132.986 L 118.813,-135.121 L 118.938,-134.996 L 119,-131.45 L 119,-121 L 112.831,-121 L 110.712,-121.062" fill="#000000"/></g><g><path d=" M 0,0"/><path d=" M -72.197,27.605 L -71.916,27.211 L -71.406,26.828 L -70.668,26.455 L -70.087,26.359 L -69.663,26.54 L -69.398,26.998 L -69.291,27.733 L -69.377,28.297 L -69.658,28.691 L -70.133,28.915 L -70.803,28.969 L -71.349,28.906 L -71.772,28.725 L -72.072,28.427 L -72.249,28.011 L -72.197,27.605" fill="#FFFFFF" stroke="#000000" stroke-width="1"/><path d=" M -146.322,52.098 L -146.448,51.75 L -146.369,51.321 L -146.084,50.809 L -145.762,50.533 L -145.403,50.492 L -145.007,50.688 L -144.574,51.119 L -144.294,51.508 L -144.168,51.855 L -144.196,52.161 L -144.378,52.424 L -144.648,52.576 L -145.007,52.616 L -145.455,52.545 L -145.991,52.362 L -146.322,52.098" fill="#FFFFFF" stroke="#000000" stroke-width="1"/><path d=" M -128.308,-44.765 L -128.856,-45.221 L -129.143,-46.015 L -129.167,-47.146 L -128.9,-47.92 L -128.341,-48.338 L -127.49,-48.398 L -126.347,-48.102 L -125.501,-47.726 L -124.952,-47.27 L -124.701,-46.733 L -124.747,-46.117 L -125.049,-45.6 L -125.609,-45.182 L -126.424,-44.864 L -127.497,-44.646 L -128.308,-44.765" fill="#FFFFFF" stroke="#000000" stroke-width="1"/><path d=" M -151.329,-57.101 L -150.835,-57.174 L -150.286,-56.952 L -149.685,-56.436 L -149.406,-55.934 L -149.45,-55.447 L -149.816,-54.974 L -150.506,-54.516 L -151.098,-54.251 L -151.593,-54.179 L -151.99,-54.298 L -152.291,-54.611 L -152.419,-55.011 L -152.375,-55.498 L -152.159,-56.072 L -151.771,-56.734 L -151.329,-57.101" fill="#FFFFFF" stroke="#000000" stroke-width="1"/><path d=" M -148.635,-32.928 L -147.525,-32.946 L -146.382,-32.3 L -145.206,-30.99 L -144.737,-29.805 L -144.973,-28.746 L -145.916,-27.811 L -147.565,-27.002 L -148.944,-26.588 L -150.054,-26.57 L -150.894,-26.948 L -151.465,-27.722 L -151.633,-28.639 L -151.396,-29.698 L -150.756,-30.901 L -149.712,-32.246 L -148.635,-32.928" fill="#FFFFFF" stroke="#000000" stroke-width="1"/><path d=" M -127.974,127.689 L -127.402,127.824 L -126.845,128.392 L -126.303,129.392 L -126.037,130.208 L -126.049,130.841 L -126.337,131.291 L -126.903,131.556 L -127.472,131.622 L -128.044,131.486 L -128.619,131.151 L -129.198,130.615 L -129.481,130.03 L -129.47,129.397 L -129.163,128.716 L -128.561,127.986 L -127.974,127.689" fill="#FFFFFF" stroke="#000000" stroke-width="1"/><path d=" M -124.012,-146.261 L -123.668,-146.316 L -123.236,-146.132 L -122.713,-145.709 L -122.383,-145.323 L -122.246,-144.974 L -122.302,-144.663 L -122.551,-144.39 L -122.847,-144.226 L -123.19,-144.17 L -123.58,-144.223 L -124.018,-144.385 L -124.305,-144.641 L -124.442,-144.989 L -124.429,-145.431 L -124.265,-145.966 L -124.012,-146.261" fill="#FFFFFF" stroke="#000000" stroke-width="1"/><path d=" M -192.017,286.712 L -192.28,286.423 L -192.495,285.956 L -192.663,285.31 L -192.639,284.836 L -192.424,284.533 L -192.018,284.402 L -191.421,284.442 L -190.991,284.607 L -190.728,284.895 L -190.632,285.308 L -190.703,285.845 L -190.846,286.265 L -191.061,286.568 L -191.348,286.753 L -191.706,286.822 L -192.017,286.712" fill="#FFFFFF" stroke="#000000" stroke-width="1"/><path d=" M -65.761,-267.239 L -65.922,-267.58 L -65.861,-268.087 L -65.576,-268.759 L -65.273,-269.219 L -64.95,-269.467 L -64.61,-269.502 L -64.25,-269.325 L -63.989,-269.066 L -63.828,-268.725 L -63.766,-268.302 L -63.803,-267.797 L -63.983,-267.42 L -64.305,-267.173 L -64.77,-267.054 L -65.377,-267.063 L -65.761,-267.239" fill="#FFFFFF" stroke="#000000" stroke-width="1"/><path d=" M -83.636,-256.318 L -82.662,-257.561 L -80.925,-258.247 L -78.425,-258.376 L -76.694,-257.835 L -75.734,-256.625 L -75.544,-254.746 L -76.124,-252.198 L -76.901,-250.303 L -77.875,-249.059 L -79.045,-248.468 L -80.412,-248.529 L -81.576,-249.165 L -82.536,-250.375 L -83.293,-252.159 L -83.846,-254.517 L -83.636,-256.318" fill="#FFFFFF" stroke="#000000" stroke-width="1"/><path d=" M -64.589,-194.552 L -64.414,-194.898 L -63.964,-195.167 L -63.239,-195.361 L -62.675,-195.405 L -62.271,-195.3 L -62.028,-195.045 L -61.944,-194.642 L -61.99,-194.267 L -62.165,-193.921 L -62.469,-193.604 L -62.902,-193.316 L -63.321,-193.224 L -63.725,-193.33 L -64.114,-193.631 L -64.489,-194.13 L -64.589,-194.552" fill="#FFFFFF" stroke="#000000" stroke-width="1"/><path d=" M -69.087,-253.242 L -68.706,-254.144 L -67.778,-254.837 L -66.302,-255.32 L -65.178,-255.278 L -64.407,-254.709 L -63.988,-253.616 L -63.922,-251.996 L -64.079,-250.735 L -64.46,-249.833 L -65.064,-249.289 L -65.893,-249.104 L -66.692,-249.295 L -67.463,-249.863 L -68.206,-250.808 L -68.92,-252.13 L -69.087,-253.242" fill="#FFFFFF" stroke="#000000" stroke-width="1"/><path d=" M -84.889,-205.613 L -74.869,-196.679 L -83.804,-186.659 L -93.823,-195.593 L -84.889,-205.613" fill="#FFFFFF" stroke="#000000" stroke-width="1"/><path d=" M -77.847,-193.339 L -87.867,-202.273" stroke="#000000" stroke-width="1"/><path d=" M -80.825,-189.999 L -90.845,-198.933" stroke="#000000" stroke-width="1"/><path d=" M -375.716,176.13 L -374.922,176.651 L -374.132,177.622 L -373.346,179.042 L -373.115,180.173 L -373.438,181.016 L -374.315,181.571 L -375.747,181.837 L -376.859,181.709 L -377.653,181.188 L -378.128,180.274 L -378.285,178.966 L -378.201,177.891 L -377.878,177.048 L -377.316,176.437 L -376.514,176.059 L -375.716,176.13" fill="#FFFFFF" stroke="#000000" stroke-width="1"/><path d=" M -249.685,277.816 L -250.398,276.519 L -250.279,274.52 L -249.327,271.819 L -248.251,269.944 L -247.049,268.897 L -245.723,268.677 L -244.272,269.285 L -243.19,270.237 L -242.476,271.533 L -242.132,273.175 L -242.156,275.161 L -242.769,276.677 L -243.97,277.724 L -245.76,278.302 L -248.139,278.41 L -249.685,277.816" fill="#FFFFFF" stroke="#000000" stroke-width="1"/><path d=" M -305.761,221.173 L -305,225 L -305.761,228.827 L -307.929,232.071 L -311.173,234.239 L -315,235 L -318.827,234.239 L -322.071,232.071 L -324.239,228.827 L -325,225 L -324.239,221.173 L -322.071,217.929 L -318.827,215.761 L -315,215 L -311.173,215.761 L -307.929,217.929 L -305.761,221.173" fill="#FFFFFF" stroke="#000000" stroke-width="1"/><path d=" M -317.351,221.764 L -315,216 L -312.649,221.764 L -306.44,222.219 L -311.196,226.236 L -309.71,232.281 L -315,229 L -320.29,232.281 L -318.804,226.236 L -323.56,222.219 L -317.351,221.764" fill="#000000"/><path d=" M -21.186,190.395 L -21.439,190.154 L -21.553,189.695 L -21.53,189.019 L -21.42,188.521 L -21.224,188.2 L -20.941,188.057 L -20.571,188.091 L -20.26,188.229 L -20.007,188.471 L -19.814,188.816 L -19.679,189.265 L -19.709,189.65 L -19.906,189.97 L -20.268,190.227 L -20.796,190.42 L -21.186,190.395" fill="#FFFFFF" stroke="#000000" stroke-width="1"/><path d=" M 91.047,294.107 L 91.281,292.942 L 92.216,291.893 L 93.852,290.96 L 95.198,290.738 L 96.253,291.226 L 97.016,292.424 L 97.489,294.332 L 97.608,295.869 L 97.375,297.034 L 96.789,297.827 L 95.85,298.249 L 94.853,298.216 L 93.798,297.728 L 92.686,296.785 L 91.516,295.388 L 91.047,294.107" fill="#FFFFFF" stroke="#000000" stroke-width="1"/><path d=" M -16.182,286.701 L -16.364,286.402 L -16.356,285.93 L -16.16,285.284 L -15.926,284.831 L -15.654,284.572 L -15.343,284.506 L -14.995,284.634 L -14.73,284.847 L -14.549,285.145 L -14.451,285.529 L -14.436,285.997 L -14.564,286.36 L -14.837,286.62 L -15.252,286.774 L -15.812,286.824 L -16.182,286.701" fill="#FFFFFF" stroke="#000000" stroke-width="1"/><path d=" M -3.915,285.32 L -2.265,284.909 L -0.029,285.051 L 2.794,285.745 L 4.563,286.816 L 5.278,288.266 L 4.94,290.093 L 3.549,292.298 L 2.028,293.606 L 0.378,294.016 L -1.401,293.529 L -3.31,292.145 L -4.622,290.728 L -5.338,289.279 L -5.457,287.797 L -4.979,286.282 L -3.915,285.32" fill="#FFFFFF" stroke="#000000" stroke-width="1"/><path d=" M 77.8,195.528 L 78.229,195.584 L 78.633,195.897 L 79.013,196.468 L 79.128,196.952 L 78.977,197.347 L 78.561,197.654 L 77.879,197.874 L 77.324,197.956 L 76.895,197.9 L 76.592,197.707 L 76.415,197.376 L 76.402,197.013 L 76.553,196.618 L 76.868,196.19 L 77.346,195.73 L 77.8,195.528" fill="#FFFFFF" stroke="#000000" stroke-width="1"/><path d=" M 115.621,272.209 L 115.629,271.784 L 115.891,271.355 L 116.407,270.922 L 116.867,270.758 L 117.269,270.862 L 117.615,271.235 L 117.903,271.877 L 118.043,272.41 L 118.036,272.835 L 117.88,273.152 L 117.577,273.36 L 117.224,273.412 L 116.821,273.308 L 116.369,273.047 L 115.868,272.63 L 115.621,272.209" fill="#FFFFFF" stroke="#000000" stroke-width="1"/><path d=" M -27.768,155.679 L -27.423,155.623 L -26.988,155.807 L -26.464,156.232 L -26.132,156.62 L -25.995,156.969 L -26.051,157.281 L -26.3,157.556 L -26.597,157.721 L -26.942,157.777 L -27.334,157.724 L -27.773,157.561 L -28.061,157.305 L -28.199,156.956 L -28.186,156.512 L -28.022,155.975 L -27.768,155.679" fill="#FFFFFF" stroke="#000000" stroke-width="1"/><path d=" M 114.239,221.173 L 115,225 L 114.239,228.827 L 112.071,232.071 L 108.827,234.239 L 105,235 L 101.173,234.239 L 97.929,232.071 L 95.761,228.827 L 95,225 L 95.761,221.173 L 97.929,217.929 L 101.173,215.761 L 105,215 L 108.827,215.761 L 112.071,217.929 L 114.239,221.173" fill="#FFFFFF" stroke="#000000" stroke-width="1"/><path d=" M 102.649,221.764 L 105,216 L 107.351,221.764 L 113.56,222.219 L 108.804,226.236 L 110.29,232.281 L 105,229 L 99.71,232.281 L 101.196,226.236 L 96.44,222.219 L 102.649,221.764" fill="#000000"/><path d=" M -279.097,-249.727 L -279.155,-250.07 L -278.975,-250.505 L -278.555,-251.032 L -278.172,-251.365 L -277.824,-251.505 L -277.513,-251.452 L -277.237,-251.205 L -277.07,-250.91 L -277.011,-250.567 L -277.061,-250.176 L -277.219,-249.737 L -277.472,-249.447 L -277.82,-249.307 L -278.262,-249.317 L -278.799,-249.476 L -279.097,-249.727" fill="#FFFFFF" stroke="#000000" stroke-width="1"/><path d=" M -360.726,-150.066 L -359.302,-150.145 L -357.481,-149.678 L -355.263,-148.663 L -353.973,-147.503 L -353.61,-146.196 L -354.175,-144.742 L -355.668,-143.143 L -357.126,-142.303 L -358.551,-142.224 L -359.941,-142.904 L -361.298,-144.345 L -362.157,-145.718 L -362.52,-147.025 L -362.385,-148.266 L -361.754,-149.439 L -360.726,-150.066" fill="#FFFFFF" stroke="#000000" stroke-width="1"/><path d=" M -259.815,-173.559 L -259.473,-173.692 L -258.985,-173.598 L -258.352,-173.275 L -257.926,-172.949 L -257.707,-172.619 L -257.697,-172.286 L -257.893,-171.949 L -258.163,-171.714 L -258.505,-171.581 L -258.92,-171.549 L -259.408,-171.62 L -259.761,-171.82 L -259.979,-172.15 L -260.063,-172.609 L -260.012,-173.198 L -259.815,-173.559" fill="#FFFFFF" stroke="#000000" stroke-width="1"/><path d=" M -345.569,-221.218 L -345.113,-221.091 L -344.684,-220.616 L -344.281,-219.793 L -344.094,-219.128 L -344.125,-218.619 L -344.372,-218.267 L -344.835,-218.072 L -345.295,-218.039 L -345.75,-218.166 L -346.202,-218.455 L -346.65,-218.906 L -346.858,-219.385 L -346.828,-219.894 L -346.559,-220.432 L -346.051,-220.999 L -345.569,-221.218" fill="#FFFFFF" stroke="#000000" stroke-width="1"/><path d=" M -263.799,-128.198 L -263.657,-129.015 L -263.023,-129.764 L -261.896,-130.445 L -260.961,-130.625 L -260.215,-130.303 L -259.661,-129.48 L -259.297,-128.156 L -259.186,-127.085 L -259.328,-126.267 L -259.723,-125.703 L -260.371,-125.391 L -261.068,-125.397 L -261.813,-125.719 L -262.606,-126.357 L -263.449,-127.311 L -263.799,-128.198" fill="#FFFFFF" stroke="#000000" stroke-width="1"/><path d=" M -270.64,-250.346 L -269.793,-249.849 L -268.927,-248.888 L -268.042,-247.462 L -267.744,-246.305 L -268.034,-245.418 L -268.911,-244.8 L -270.376,-244.452 L -271.532,-244.526 L -272.379,-245.022 L -272.917,-245.942 L -273.146,-247.284 L -273.116,-248.399 L -272.826,-249.286 L -272.277,-249.946 L -271.468,-250.378 L -270.64,-250.346" fill="#FFFFFF" stroke="#000000" stroke-width="1"/><path d=" M 92.892,-259.764 L 93.518,-259.671 L 94.268,-259.305 L 95.142,-258.665 L 95.599,-258.045 L 95.639,-257.445 L 95.263,-256.864 L 94.471,-256.302 L 93.762,-256.067 L 93.136,-256.16 L 92.592,-256.581 L 92.131,-257.328 L 91.881,-258.002 L 91.84,-258.603 L 92.01,-259.13 L 92.389,-259.584 L 92.892,-259.764" fill="#FFFFFF" stroke="#000000" stroke-width="1"/><path d=" M -27.779,-124.15 L -27.416,-124.242 L -26.924,-124.213 L -26.302,-124.064 L -25.911,-123.83 L -25.752,-123.512 L -25.824,-123.11 L -26.128,-122.623 L -26.461,-122.333 L -26.824,-122.241 L -27.216,-122.346 L -27.638,-122.648 L -27.928,-122.959 L -28.087,-123.277 L -28.115,-123.603 L -28.012,-123.937 L -27.779,-124.15" fill="#FFFFFF" stroke="#000000" stroke-width="1"/><path d=" M -4.784,-144.29 L -4.579,-144.597 L -4.123,-144.799 L -3.416,-144.898 L -2.878,-144.875 L -2.509,-144.729 L -2.308,-144.461 L -2.276,-144.07 L -2.363,-143.722 L -2.568,-143.415 L -2.892,-143.151 L -3.334,-142.929 L -3.74,-142.891 L -4.109,-143.036 L -4.442,-143.366 L -4.738,-143.88 L -4.784,-144.29" fill="#FFFFFF" stroke="#000000" stroke-width="1"/><path d=" M -24.178,-252.938 L -25.416,-253.864 L -26.124,-255.55 L -26.303,-257.995 L -25.81,-259.7 L -24.647,-260.665 L -22.812,-260.891 L -20.306,-260.377 L -18.434,-259.657 L -17.196,-258.73 L -16.593,-257.598 L -16.624,-256.259 L -17.221,-255.106 L -18.385,-254.141 L -20.115,-253.362 L -22.411,-252.771 L -24.178,-252.938" fill="#FFFFFF" stroke="#000000" stroke-width="1"/><path d=" M 40.529,-222.851 L 40.671,-223.587 L 41.366,-224.327 L 42.613,-225.069 L 43.639,-225.45 L 44.447,-225.468 L 45.034,-225.123 L 45.402,-224.416 L 45.514,-223.695 L 45.371,-222.959 L 44.973,-222.208 L 44.32,-221.443 L 43.59,-221.052 L 42.782,-221.034 L 41.898,-221.389 L 40.938,-222.119 L 40.529,-222.851" fill="#FFFFFF" stroke="#000000" stroke-width="1"/><path d=" M 100.5,-181.5 L 97.5,-201 L 100.5,-208.5 L 109.5,-208.5 L 112.5,-201 L 109.5,-181.5 L 100.5,-181.5" fill="#FFFFFF" stroke="#000000" stroke-width="1"/><path d=" M 101.85,-185.55 L 99.75,-199.2 L 101.85,-204.45 L 108.15,-204.45 L 110.25,-199.2 L 108.15,-185.55 L 101.85,-185.55" stroke="#000000" stroke-width="1"/></g><g transform="translate(4.243 4.243)" clip-path="url(#instance21)"><path d=" M 0,0"/><clipPath id="instance21" fill="#FFFFFF" transform="translate(-4.243 -4.243)"><path d=" M 0,0"/></clipPath></g><g><path d=" M 0,0"/><path d=" M 24,27 L 24,3 M 18,24 L 18,6 M 12,21 L 12,9 M 6,18 L 6,12" stroke="#000000" stroke-width="1"/><path d=" M -145,101.25 L -125,101.25 L -125,108.75 L -145,108.75 L -145,101.25" fill="#FFFFFF" stroke="#000000" stroke-width="2"/><path d=" M -145,-78.75 L -125,-78.75 L -125,-71.25 L -145,-71.25 L -145,-78.75" fill="#FFFFFF" stroke="#000000" stroke-width="2"/><path d=" M -145,191.25 L -125,191.25 L -125,198.75 L -145,198.75 L -145,191.25" fill="#FFFFFF" stroke="#000000" stroke-width="2"/><path d=" M -145,-168.75 L -125,-168.75 L -125,-161.25 L -145,-161.25 L -145,-168.75" fill="#FFFFFF" stroke="#000000" stroke-width="2"/><path d=" M -228.75,215 L -221.25,215 L -221.25,235 L -228.75,235 L -228.75,215 M -221.25,225 L -228.75,225" fill="#FFFFFF" stroke="#000000" stroke-width="2"/><path d=" M -60,210 L -60,240 M -54,211.998 L -54,238.002 M -48,213.996 L -48,236.004 M -42,215.994 L -42,234.006 M -36,217.992 L -36,232.008 M -30,219.99 L -30,230.01" stroke="#000000" stroke-width="1"/><path d=" M -48.75,-205 L -41.25,-205 L -41.25,-185 L -48.75,-185 L -48.75,-205" fill="#FFFFFF" stroke="#000000" stroke-width="2"/><path d=" M -396,237 L -396,213 M -402,234 L -402,216 M -408,231 L -408,219 M -414,228 L -414,222" stroke="#000000" stroke-width="1"/></g></g></g></svg>