<svg width="700pt" height="700pt" version="1.1" viewBox="0 0 700 700"
  xmlns="http://www.w3.org/2000/svg"
  xmlns:xlink="http://www.w3.org/1999/xlink">
  <defs>
    <symbol id="v" overflow="visible">
      <path d="m19.719-1.1719c-1.0117 0.52344-2.0703 0.91797-3.1719 1.1875-1.1055 0.26953-2.2578 0.40625-3.4531 0.40625-3.5742 0-6.4062-1-8.5-3-2.0859-2-3.125-4.707-3.125-8.125 0-3.4375 1.0391-6.1484 3.125-8.1406 2.0938-2 4.9258-3 8.5-3 1.1953 0 2.3477 0.13672 3.4531 0.40625 1.1016 0.26172 2.1602 0.65625 3.1719 1.1875v4.4375c-1.0234-0.69531-2.0312-1.207-3.0312-1.5312-1-0.33203-2.0469-0.5-3.1406-0.5-1.9805 0-3.5391 0.63672-4.6719 1.9062-1.125 1.2617-1.6875 3.0078-1.6875 5.2344 0 2.2109 0.5625 3.9492 1.6875 5.2188 1.1328 1.2617 2.6914 1.8906 4.6719 1.8906 1.0938 0 2.1406-0.16016 3.1406-0.48438 1-0.33203 2.0078-0.84766 3.0312-1.5469z" />
    </symbol>
    <symbol id="e" overflow="visible">
      <path d="m14.438-11.719c-0.46094-0.20703-0.91406-0.35938-1.3594-0.45312-0.4375-0.10156-0.88281-0.15625-1.3281-0.15625-1.3242 0-2.3438 0.42969-3.0625 1.2812-0.71094 0.84375-1.0625 2.0547-1.0625 3.625v7.4219h-5.1562v-16.094h5.1562v2.6406c0.65625-1.0508 1.4102-1.8164 2.2656-2.2969 0.86328-0.48828 1.8945-0.73438 3.0938-0.73438 0.16406 0 0.34766 0.011719 0.54688 0.03125 0.20703 0.011719 0.50391 0.039063 0.89062 0.078125z" />
    </symbol>
    <symbol id="a" overflow="visible">
      <path d="m18.547-8.0938v1.4688h-12.031c0.125 1.2109 0.55469 2.1172 1.2969 2.7188 0.75 0.60547 1.7969 0.90625 3.1406 0.90625 1.082 0 2.1914-0.16016 3.3281-0.48438 1.1328-0.32031 2.3008-0.80469 3.5-1.4531v3.9531c-1.2188 0.46875-2.4375 0.82031-3.6562 1.0469-1.2188 0.23828-2.4336 0.35938-3.6406 0.35938-2.918 0-5.1836-0.73828-6.7969-2.2188-1.6172-1.4883-2.4219-3.5664-2.4219-6.2344 0-2.625 0.78906-4.6875 2.375-6.1875 1.582-1.5078 3.7656-2.2656 6.5469-2.2656 2.5312 0 4.5547 0.76172 6.0781 2.2812 1.5195 1.5234 2.2812 3.5586 2.2812 6.1094zm-5.2969-1.7031c0-0.97656-0.28906-1.7656-0.85938-2.3594-0.5625-0.60156-1.3086-0.90625-2.2344-0.90625-0.99219 0-1.7969 0.28125-2.4219 0.84375-0.625 0.55469-1.0156 1.3594-1.1719 2.4219z" />
    </symbol>
    <symbol id="b" overflow="visible">
      <path d="m9.6875-7.25c-1.0742 0-1.8828 0.18359-2.4219 0.54688-0.54297 0.36719-0.8125 0.90234-0.8125 1.6094 0 0.65625 0.21875 1.1719 0.65625 1.5469 0.4375 0.36719 1.0391 0.54688 1.8125 0.54688 0.96875 0 1.7812-0.34766 2.4375-1.0469 0.66406-0.69531 1-1.5664 1-2.6094v-0.59375zm7.8594-1.9375v9.1875h-5.1875v-2.3906c-0.6875 0.98047-1.4648 1.6953-2.3281 2.1406-0.86719 0.44531-1.9141 0.67188-3.1406 0.67188-1.668 0-3.0234-0.48438-4.0625-1.4531-1.043-0.97656-1.5625-2.2422-1.5625-3.7969 0-1.8828 0.64453-3.2695 1.9375-4.1562 1.3008-0.88281 3.3438-1.3281 6.125-1.3281h3.0312v-0.39062c0-0.82031-0.32422-1.4219-0.96875-1.7969-0.63672-0.375-1.6367-0.5625-3-0.5625-1.1055 0-2.1328 0.10938-3.0781 0.32812-0.94922 0.21875-1.8281 0.54688-2.6406 0.98438v-3.9219c1.1016-0.25781 2.207-0.45703 3.3125-0.59375 1.1133-0.14453 2.2266-0.21875 3.3438-0.21875 2.9062 0 5 0.57422 6.2812 1.7188 1.2891 1.1484 1.9375 3.0078 1.9375 5.5781z" />
    </symbol>
    <symbol id="d" overflow="visible">
      <path d="m8.0938-20.672v4.5781h5.2969v3.6719h-5.2969v6.8281c0 0.75 0.14453 1.2578 0.4375 1.5156 0.30078 0.26172 0.89453 0.39062 1.7812 0.39062h2.6406v3.6875h-4.4219c-2.0312 0-3.4688-0.42188-4.3125-1.2656-0.84375-0.85156-1.2656-2.2969-1.2656-4.3281v-6.8281h-2.5625v-3.6719h2.5625v-4.5781z" />
    </symbol>
    <symbol id="k" overflow="visible">
      <path d="m13.422-13.734v-8.625h5.1719v22.359h-5.1719v-2.3281c-0.71094 0.94922-1.4922 1.6484-2.3438 2.0938-0.85547 0.4375-1.8398 0.65625-2.9531 0.65625-1.9922 0-3.6211-0.78516-4.8906-2.3594-1.2734-1.582-1.9062-3.6133-1.9062-6.0938 0-2.4766 0.63281-4.5039 1.9062-6.0781 1.2695-1.582 2.8984-2.375 4.8906-2.375 1.1016 0 2.082 0.22656 2.9375 0.67188 0.86328 0.4375 1.6484 1.1328 2.3594 2.0781zm-3.3906 10.406c1.1016 0 1.9414-0.39844 2.5156-1.2031 0.58203-0.80078 0.875-1.9688 0.875-3.5s-0.29297-2.6953-0.875-3.5c-0.57422-0.8125-1.4141-1.2188-2.5156-1.2188-1.0938 0-1.9336 0.40625-2.5156 1.2188-0.57422 0.80469-0.85938 1.9688-0.85938 3.5s0.28516 2.6992 0.85938 3.5c0.58203 0.80469 1.4219 1.2031 2.5156 1.2031z" />
    </symbol>
    <symbol id="j" overflow="visible">
      <path d="m11.047-3.3281c1.0938 0 1.9297-0.39844 2.5156-1.2031 0.58203-0.80078 0.875-1.9688 0.875-3.5s-0.29297-2.6953-0.875-3.5c-0.58594-0.8125-1.4219-1.2188-2.5156-1.2188-1.1055 0-1.9531 0.40625-2.5469 1.2188-0.58594 0.80469-0.875 1.9688-0.875 3.5 0 1.5234 0.28906 2.6875 0.875 3.5 0.59375 0.80469 1.4414 1.2031 2.5469 1.2031zm-3.4219-10.406c0.70703-0.94531 1.4883-1.6406 2.3438-2.0781 0.86328-0.44531 1.8594-0.67188 2.9844-0.67188 1.9766 0 3.6016 0.79297 4.875 2.375 1.2812 1.5742 1.9219 3.6016 1.9219 6.0781 0 2.4805-0.64062 4.5117-1.9219 6.0938-1.2734 1.5742-2.8984 2.3594-4.875 2.3594-1.125 0-2.1211-0.22656-2.9844-0.67188-0.85547-0.44531-1.6367-1.1406-2.3438-2.0781v2.3281h-5.1562v-22.359h5.1562z" />
    </symbol>
    <symbol id="i" overflow="visible">
      <path d="m0.35938-16.094h5.1406l4.3281 10.922 3.6875-10.922h5.1406l-6.7656 17.625c-0.6875 1.7891-1.4844 3.0391-2.3906 3.75-0.89844 0.71875-2.0898 1.0781-3.5781 1.0781h-2.9688v-3.3906h1.6094c0.86328 0 1.4922-0.14062 1.8906-0.42188 0.40625-0.27344 0.71875-0.76562 0.9375-1.4844l0.14062-0.4375z" />
    </symbol>
    <symbol id="f" overflow="visible">
      <path d="m8.2344-17.281v13.094h1.9844c2.2578 0 3.9844-0.55469 5.1719-1.6719 1.1953-1.125 1.7969-2.7539 1.7969-4.8906 0-2.125-0.59375-3.7422-1.7812-4.8594-1.1875-1.1133-2.918-1.6719-5.1875-1.6719zm-5.5312-4.1719h5.8281c3.2578 0 5.6875 0.23438 7.2812 0.70312 1.6016 0.46094 2.9727 1.2422 4.1094 2.3438 1.0078 0.96875 1.7539 2.0898 2.2344 3.3594 0.48828 1.2617 0.73438 2.6953 0.73438 4.2969 0 1.6172-0.24609 3.0586-0.73438 4.3281-0.48047 1.2734-1.2266 2.3906-2.2344 3.3594-1.1484 1.1172-2.5273 1.9062-4.1406 2.375-1.6055 0.46094-4.0234 0.6875-7.25 0.6875h-5.8281z" />
    </symbol>
    <symbol id="h" overflow="visible">
      <path d="m18.656-9.7969v9.7969h-5.1719v-7.5c0-1.3945-0.03125-2.3516-0.09375-2.875-0.0625-0.53125-0.17188-0.92188-0.32812-1.1719-0.19922-0.33203-0.46875-0.59375-0.8125-0.78125s-0.74219-0.28125-1.1875-0.28125c-1.0742 0-1.918 0.41797-2.5312 1.25-0.60547 0.82422-0.90625 1.9688-0.90625 3.4375v7.9219h-5.1562v-16.094h5.1562v2.3594c0.76953-0.94531 1.5859-1.6406 2.4531-2.0781 0.875-0.44531 1.8438-0.67188 2.9062-0.67188 1.8516 0 3.2578 0.57422 4.2188 1.7188 0.96875 1.1367 1.4531 2.793 1.4531 4.9688z" />
    </symbol>
    <symbol id="g" overflow="visible">
      <path d="m2.4688-16.094h5.1562v16.094h-5.1562zm0-6.2656h5.1562v4.1875h-5.1562z" />
    </symbol>
    <symbol id="u" overflow="visible">
      <path d="m2.4688-22.359h5.1562v22.359h-5.1562z" />
    </symbol>
    <symbol id="t" overflow="visible">
      <path d="m2.7031-21.453h5.5312v17.266h9.7188v4.1875h-15.25z" />
    </symbol>
    <symbol id="c" overflow="visible">
      <path d="m10.141-12.812c-1.1484 0-2.0234 0.41406-2.625 1.2344-0.59375 0.82422-0.89062 2.0078-0.89062 3.5469 0 1.543 0.29688 2.7266 0.89062 3.5469 0.60156 0.8125 1.4766 1.2188 2.625 1.2188 1.1133 0 1.9688-0.40625 2.5625-1.2188 0.59375-0.82031 0.89062-2.0039 0.89062-3.5469 0-1.5391-0.29688-2.7227-0.89062-3.5469-0.59375-0.82031-1.4492-1.2344-2.5625-1.2344zm0-3.6719c2.7578 0 4.9141 0.75 6.4688 2.25 1.5625 1.4922 2.3438 3.5586 2.3438 6.2031 0 2.6484-0.78125 4.7188-2.3438 6.2188-1.5547 1.4922-3.7109 2.2344-6.4688 2.2344-2.7812 0-4.9609-0.74219-6.5312-2.2344-1.5625-1.5-2.3438-3.5703-2.3438-6.2188 0-2.6445 0.78125-4.7109 2.3438-6.2031 1.5703-1.5 3.75-2.25 6.5312-2.25z" />
    </symbol>
    <symbol id="s" overflow="visible">
      <path d="m13.062-22.359v3.375h-2.8438c-0.73047 0-1.2422 0.13281-1.5312 0.39062-0.28125 0.26172-0.42188 0.71875-0.42188 1.375v1.125h4.3906v3.6719h-4.3906v12.422h-5.1406v-12.422h-2.5625v-3.6719h2.5625v-1.125c0-1.75 0.48438-3.0391 1.4531-3.875 0.97656-0.84375 2.4922-1.2656 4.5469-1.2656z" />
    </symbol>
    <symbol id="r" overflow="visible">
      <path d="m17.391-13.422c0.65625-1 1.4297-1.7578 2.3281-2.2812 0.89453-0.51953 1.8789-0.78125 2.9531-0.78125 1.8438 0 3.25 0.57422 4.2188 1.7188 0.96875 1.1367 1.4531 2.793 1.4531 4.9688v9.7969h-5.1719v-8.3906c0.007813-0.125 0.015625-0.25391 0.015625-0.39062 0.007812-0.13281 0.015625-0.32812 0.015625-0.57812 0-1.1328-0.17188-1.957-0.51562-2.4688-0.33594-0.51953-0.87109-0.78125-1.6094-0.78125-0.98047 0-1.7344 0.40625-2.2656 1.2188-0.53125 0.80469-0.80859 1.9648-0.82812 3.4844v7.9062h-5.1719v-8.3906c0-1.7812-0.15625-2.9258-0.46875-3.4375-0.30469-0.51953-0.85156-0.78125-1.6406-0.78125-0.98047 0-1.7422 0.40625-2.2812 1.2188-0.53125 0.8125-0.79688 1.9688-0.79688 3.4688v7.9219h-5.1875v-16.094h5.1875v2.3594c0.625-0.91406 1.3477-1.6016 2.1719-2.0625 0.82031-0.45703 1.7227-0.6875 2.7031-0.6875 1.1133 0 2.0977 0.27344 2.9531 0.8125 0.85156 0.53125 1.5 1.2812 1.9375 2.25z" />
    </symbol>
    <symbol id="q" overflow="visible">
      <path d="m18.656-9.7969v9.7969h-5.1719v-7.4688c0-1.4141-0.03125-2.3828-0.09375-2.9062-0.0625-0.53125-0.17188-0.92188-0.32812-1.1719-0.19922-0.33203-0.46875-0.59375-0.8125-0.78125s-0.74219-0.28125-1.1875-0.28125c-1.0742 0-1.918 0.41797-2.5312 1.25-0.60547 0.82422-0.90625 1.9688-0.90625 3.4375v7.9219h-5.1562v-22.359h5.1562v8.625c0.76953-0.94531 1.5859-1.6406 2.4531-2.0781 0.875-0.44531 1.8438-0.67188 2.9062-0.67188 1.8516 0 3.2578 0.57422 4.2188 1.7188 0.96875 1.1367 1.4531 2.793 1.4531 4.9688z" />
    </symbol>
    <symbol id="p" overflow="visible">
      <path d="m2.7031-21.453h6.1875l7.7969 14.719v-14.719h5.25v21.453h-6.1875l-7.7969-14.719v14.719h-5.25z" />
    </symbol>
    <symbol id="o" overflow="visible">
      <path d="m2.2969-6.2656v-9.8281h5.1719v1.6094c0 0.86719-0.007812 1.9609-0.015625 3.2812v2.6406c0 1.293 0.03125 2.2266 0.09375 2.7969 0.0625 0.5625 0.17578 0.97656 0.34375 1.2344 0.20703 0.33594 0.48438 0.59375 0.82812 0.78125 0.34375 0.17969 0.73438 0.26562 1.1719 0.26562 1.0703 0 1.9141-0.41016 2.5312-1.2344 0.61328-0.82031 0.92188-1.9688 0.92188-3.4375v-7.9375h5.1406v16.094h-5.1406v-2.3281c-0.78125 0.9375-1.6055 1.6328-2.4688 2.0781-0.86719 0.44531-1.8242 0.67188-2.875 0.67188-1.8555 0-3.2734-0.56641-4.25-1.7031-0.96875-1.1445-1.4531-2.8047-1.4531-4.9844z" />
    </symbol>
    <symbol id="n" overflow="visible">
      <path d="m2.7031-21.453h9.1875c2.7266 0 4.8203 0.60547 6.2812 1.8125 1.4688 1.2109 2.2031 2.9375 2.2031 5.1875s-0.73438 3.9805-2.2031 5.1875c-1.4609 1.2109-3.5547 1.8125-6.2812 1.8125h-3.6562v7.4531h-5.5312zm5.5312 4v6h3.0625c1.0703 0 1.8984-0.25781 2.4844-0.78125 0.58203-0.51953 0.875-1.2578 0.875-2.2188 0-0.95703-0.29297-1.6953-0.875-2.2188-0.58594-0.51953-1.4141-0.78125-2.4844-0.78125z" />
    </symbol>
    <symbol id="m" overflow="visible">
      <path d="m2.4688-16.094h5.1562v15.812c0 2.1562-0.52344 3.8008-1.5625 4.9375-1.0312 1.1328-2.5312 1.7031-4.5 1.7031h-2.5469v-3.3906h0.89062c0.97656 0 1.6484-0.21875 2.0156-0.65625 0.36328-0.4375 0.54688-1.3047 0.54688-2.5938zm0-6.2656h5.1562v4.1875h-5.1562z" />
    </symbol>
    <symbol id="l" overflow="visible">
      <path d="m15.484-15.594v4.2031c-0.69922-0.47656-1.4023-0.83203-2.1094-1.0625-0.71094-0.23828-1.4375-0.35938-2.1875-0.35938-1.4375 0-2.5586 0.42188-3.3594 1.2656-0.80469 0.83594-1.2031 2.0078-1.2031 3.5156 0 1.5 0.39844 2.6719 1.2031 3.5156 0.80078 0.83594 1.9219 1.25 3.3594 1.25 0.80078 0 1.5625-0.11719 2.2812-0.35938 0.72656-0.23828 1.3984-0.59375 2.0156-1.0625v4.2188c-0.8125 0.29297-1.6367 0.50781-2.4688 0.65625-0.82422 0.15625-1.6523 0.23438-2.4844 0.23438-2.8984 0-5.168-0.74219-6.8125-2.2344-1.6367-1.4883-2.4531-3.5625-2.4531-6.2188s0.81641-4.7266 2.4531-6.2188c1.6445-1.4883 3.9141-2.2344 6.8125-2.2344 0.84375 0 1.6758 0.074219 2.5 0.21875 0.82031 0.14844 1.6406 0.37109 2.4531 0.67188z" />
    </symbol>
  </defs>
  <g>
    <path d="m602.77 124.89c-0.33203-22.875-7.5586-45.121-20.727-63.832l-30.621-43.574c-2.3477-3.3867-6.0195-5.6211-10.109-6.1445s-8.207 0.71094-11.332 3.3984-4.9648 6.5742-5.0586 10.695l-1 32.152c-0.42969 18.934-8.6523 36.852-22.73 49.523-21.527-32.684-51.09-59.285-85.855-77.258l-50.465-25.734c-10.953-5.6484-23.965-5.6484-34.918 0l-44.754 23.555c-35.059 18.762-64.996 45.809-87.207 78.789-2.9805-2.7461-5.7031-5.7617-8.1289-9.0078-8.5742-11.516-13.387-25.398-13.777-39.75l-0.94141-32.152c-0.039063-4.1562-1.8516-8.0977-4.9844-10.828-3.1328-2.7305-7.2852-3.9922-11.406-3.4648-4.125 0.52734-7.8242 2.793-10.168 6.2266l-30.621 43.457c-15.953 22.652-23.086 50.352-20.062 77.891 3.0273 27.543 16.004 53.031 36.492 71.68l20.785 18.961c-0.47266 6.3008-0.82422 12.543-0.82422 18.785v197.86c-0.019531 10.613 4.8438 20.648 13.191 27.203l102.58 81.379c3.8594 3.0977 8.6562 4.7812 13.602 4.7695 5.8281 0 11.414-2.3125 15.531-6.4336 4.1211-4.1172 6.4336-9.7031 6.4336-15.531v-50.109c-0.085938-70.098-24.008-138.08-67.836-192.79-3.2305-4.043-3.8633-9.5742-1.6289-14.242 2.2305-4.668 6.9375-7.6445 12.113-7.6641h51.113-0.003907c4.5977 11.328 5.7266 23.77 3.2422 35.742-0.39062 1.8828-0.86328 3.8477-1.4141 5.8867v0.003906c-7.582 27.391-1.4648 56.762 16.43 78.844l27.383 34.859 27.383-34.801-0.003906 0.003906c17.934-22.207 24.031-51.707 16.371-79.203v-0.35156c-3.6836-13.496-2.7734-27.832 2.5898-40.75h50.465c5.2188-0.015625 9.9766 2.9766 12.219 7.6914 2.2461 4.7109 1.5664 10.293-1.7383 14.332-43.613 54.582-67.441 122.34-67.598 192.2v50.875c0.015624 5.8203 2.332 11.398 6.4492 15.516 4.1172 4.1133 9.6914 6.4336 15.512 6.4492 4.832-0.007812 9.5273-1.6016 13.367-4.5352l106.76-82.027c8.4102-6.6758 13.332-16.816 13.367-27.559v-207.8-4.418l25.32-23.023c24.105-21.934 37.656-53.148 37.215-85.738zm-487.87 0c0.30469-19.332 6.4648-38.121 17.668-53.879l24.906-35.859 0.70703 22.965c0.5 17.938 6.5039 35.285 17.195 49.699 9.6328 13.102 22.695 23.289 37.746 29.441 5.0117 2.0078 9.2695 5.5391 12.172 10.09 2.9062 4.5508 4.3125 9.8984 4.0195 15.289-0.52734 10.598-4.1602 20.809-10.441 29.359-6.2812 8.5547-14.934 15.074-24.887 18.75l-23.141 8.5391h-1l-23.555-21.609h-0.003906c-20.391-18.559-31.82-44.98-31.387-72.547zm268.46 125.37c-13.668 19.844-17.973 44.672-11.777 67.953v0.82422c5.9297 21.934 0.95703 45.375-13.367 63.008l-13.543 17.195-13.543-17.195c-14.305-17.641-19.258-41.086-13.309-63.008 0.64844-2.2383 1.2383-4.5938 1.707-6.8906v0.003906c4.3555-20.637 0.51172-42.152-10.719-60.004l-20.02-32.27c-0.35156-0.55859-0.35156-1.2695 0-1.8281 0.30078-0.59766 0.92188-0.96484 1.5898-0.94141h111.88c0.67969-0.011719 1.3086 0.37891 1.5898 1.0039 0.39844 0.60547 0.39844 1.3906 0 2zm139.2 195.62c-0.042969 5.3047-2.5156 10.297-6.7109 13.543l-106.52 82.148c-1.293 0.98047-3.0273 1.1406-4.4766 0.41016-1.4844-0.69141-2.4297-2.1875-2.4141-3.8281v-50.992c0.097656-65.973 22.582-129.96 63.773-181.48 4.9258-6.1406 7.3438-13.918 6.7656-21.77-0.57422-7.8477-4.0977-15.191-9.8672-20.547-5.7656-5.3555-13.348-8.332-21.219-8.3281h-40.453l16.781-24.969v0.003906c2.7266-3.918 3.918-8.6992 3.3516-13.438-0.5625-4.7422-2.8477-9.1055-6.418-12.273-3.5703-3.168-8.1797-4.9141-12.949-4.9102h-111.88c-4.5938 0.035157-9.0234 1.6914-12.516 4.6758-3.4883 2.9844-5.8125 7.1055-6.5625 11.637s0.125 9.1797 2.4727 13.129l16.016 25.91h-41.219c-7.8789-0.019531-15.473 2.9492-21.242 8.3086-5.7734 5.3633-9.2969 12.715-9.8555 20.57-0.5625 7.8594 1.8828 15.637 6.8359 21.762 41.297 51.656 63.785 115.82 63.773 181.96v50.113-0.003906c0.015624 1.6406-0.92969 3.1367-2.4141 3.8281-1.4766 0.73828-3.2422 0.55469-4.5352-0.46875l-102.58-81.379c-4.1055-3.2188-6.4961-8.1523-6.4766-13.367v-197.8c0-3.5312 0-7.125 0.35156-10.777l27.793-10.188h0.003907c13.234-4.8477 24.754-13.477 33.129-24.812 8.375-11.336 13.234-24.883 13.977-38.961 0.46875-9.0586-1.9023-18.043-6.7773-25.691-4.875-7.6523-12.016-13.594-20.426-17-2.7031-1.1406-5.3398-2.4375-7.8906-3.8867 20.703-30.781 48.621-56.031 81.32-73.547l44.637-23.555h-0.003907c5.8672-3.0586 12.859-3.0586 18.727 0l50.348 25.613v0.003906c32.301 16.766 59.727 41.594 79.613 72.074-2.2383 1.1758-4.4766 2.3555-6.832 3.3555-8.4102 3.4062-15.551 9.3477-20.426 17-4.875 7.6523-7.2461 16.633-6.7773 25.691 0.73438 14.078 5.5938 27.629 13.969 38.969s19.898 19.965 33.141 24.805l22.668 8.3633v2.2969zm7.0664-226.41-23.555-8.7148c-9.9531-3.6758-18.605-10.195-24.887-18.75-6.2812-8.5508-9.9141-18.762-10.441-29.359-0.28516-5.3828 1.1133-10.719 4.0078-15.27 2.8906-4.5508 7.1289-8.082 12.125-10.109 15.828-6.4414 29.449-17.332 39.215-31.359 9.7617-14.027 15.242-30.586 15.785-47.664l0.41016-23.082 25.262 35.98v-0.003907c13.5 19.117 19.543 42.512 16.996 65.773-2.5508 23.266-13.516 44.793-30.832 60.535z" />
    <path d="m346.32 94.039c4.8789 0 8.832 4.8789 8.832 8.832v58.473c0 4.8789-3.9531 8.832-8.832 8.832-4.8789 0-8.832-4.8789-8.832-8.832v-58.473c0-4.8789 3.9531-8.832 8.832-8.832z" />
    <path d="m346.32 58.062c4.8789 0 8.832 4.8789 8.832 8.832v1.8828c0 4.8789-3.9531 8.832-8.832 8.832-4.8789 0-8.832-4.8789-8.832-8.832v-1.8828c0-4.8789 3.9531-8.832 8.832-8.832z" />
    <use x="97.234375" y="648.328125" xlink:href="#v" />
    <use x="118.84375" y="648.328125" xlink:href="#e" />
    <use x="133.363281" y="648.328125" xlink:href="#a" />
    <use x="153.332031" y="648.328125" xlink:href="#b" />
    <use x="173.199219" y="648.328125" xlink:href="#d" />
    <use x="187.273438" y="648.328125" xlink:href="#a" />
    <use x="207.242187" y="648.328125" xlink:href="#k" />
    <use x="238.566406" y="648.328125" xlink:href="#j" />
    <use x="259.644531" y="648.328125" xlink:href="#i" />
    <use x="289.085938" y="648.328125" xlink:href="#f" />
    <use x="313.527344" y="648.328125" xlink:href="#b" />
    <use x="333.394531" y="648.328125" xlink:href="#h" />
    <use x="354.355469" y="648.328125" xlink:href="#g" />
    <use x="364.445312" y="648.328125" xlink:href="#a" />
    <use x="384.414062" y="648.328125" xlink:href="#u" />
    <use x="404.757812" y="648.328125" xlink:href="#f" />
    <use x="429.199219" y="648.328125" xlink:href="#b" />
    <use x="449.066406" y="648.328125" xlink:href="#t" />
    <use x="467.828125" y="648.328125" xlink:href="#c" />
    <use x="488.054688" y="648.328125" xlink:href="#g" />
    <use x="498.148438" y="648.328125" xlink:href="#b" />
    <use x="97.234375" y="677.769531" xlink:href="#s" />
    <use x="110.042969" y="677.769531" xlink:href="#e" />
    <use x="124.5625" y="677.769531" xlink:href="#c" />
    <use x="144.792969" y="677.769531" xlink:href="#r" />
    <use x="185.722656" y="677.769531" xlink:href="#d" />
    <use x="199.796875" y="677.769531" xlink:href="#q" />
    <use x="220.753906" y="677.769531" xlink:href="#a" />
    <use x="250.976562" y="677.769531" xlink:href="#p" />
    <use x="275.617188" y="677.769531" xlink:href="#c" />
    <use x="295.84375" y="677.769531" xlink:href="#o" />
    <use x="316.804688" y="677.769531" xlink:href="#h" />
    <use x="348.015625" y="677.769531" xlink:href="#n" />
    <use x="369.59375" y="677.769531" xlink:href="#e" />
    <use x="384.113281" y="677.769531" xlink:href="#c" />
    <use x="404.339844" y="677.769531" xlink:href="#m" />
    <use x="414.433594" y="677.769531" xlink:href="#a" />
    <use x="434.402344" y="677.769531" xlink:href="#l" />
    <use x="451.855469" y="677.769531" xlink:href="#d" />
  </g>
</svg>