<?xml version="1.0" encoding="UTF-8"?>
<svg
  width="700pt"
  height="700pt"
  version="1.1"
  viewBox="0 0 700 700"
  xmlns="http://www.w3.org/2000/svg"
  xmlns:xlink="http://www.w3.org/1999/xlink"
>
  <g>
    <path
      d="m219.71 502.32c-1.1758-5.8984-1.7461-8.8359-2.2695-11.543-5.9453-31.062-9.8633-51.594-40.336-49.578-0.94141 0.066406-2.1992 0.10156-3.7969 0.11719-15.188 0.21875-29.5-4.3516-40.355-13.02-11.289-8.9883-18.816-22.176-19.941-38.758-0.050781-0.72266-0.10156-1.8125-0.11719-3.293-0.4375-31.551 10.785-45.547 20.664-57.844 5.1055-6.3516 9.6602-12.047 9.6602-20.145h-0.050782c0-9.457-5.1758-17.758-10.754-26.695-8.6172-13.828-17.961-28.797-17.961-53.172 0-106.88 61.355-175.31 139.88-205.28 30.223-11.523 62.969-17.305 95.645-17.305 32.691 0 65.418 5.7617 95.645 17.305 78.523 29.953 139.88 98.383 139.88 205.28 0 24.379-9.3398 39.363-17.941 53.172-5.5938 8.9727-10.801 17.32-10.801 26.695 0 8.0977 4.5547 13.793 9.6602 20.145 9.8633 12.297 21.102 26.293 20.664 57.844-0.015625 1.4609-0.066406 2.5703-0.10156 3.293l-0.035156 0.37109c-1.2109 16.414-8.7031 29.469-19.906 38.387-10.871 8.6523-25.168 13.238-40.355 13.02-1.5977-0.015624-2.8555-0.066406-3.7969-0.11719-30.457-2.0156-34.391 18.516-40.32 49.578-0.40234 2.1836-0.85547 4.5195-2.2695 11.543-4.7383 23.586-32.98 38.809-69.535 46.168-18.832 3.7969-39.902 5.6797-60.75 5.6797-20.848 0-41.898-1.8984-60.75-5.6797-36.559-7.3594-64.797-22.578-69.551-46.168zm138.27-46c7.5938 5.8281 14.094 6.9727 18.445 4.957 2.0156-0.94141 3.6953-2.6211 4.8555-4.8398 1.4297-2.7227 2.1328-6.2656 1.8828-10.383-0.75781-12.582-10.148-28.645-33.18-43.145-23.031 14.5-32.426 30.559-33.18 43.145-0.25391 4.1172 0.45312 7.6602 1.8828 10.383 1.1602 2.2188 2.8398 3.8984 4.8711 4.8398 4.3867 2.0312 10.938 0.875 18.598-5.0742 4.7539-3.6797 11.289-3.4766 15.809 0.11719zm29.199 28.242c-10.535 4.8906-23.656 4.7031-37.18-2.8555-13.508 7.5781-26.629 7.7461-37.18 2.8555-7.1914-3.3281-12.988-8.9883-16.816-16.281-3.543-6.7695-5.3242-14.902-4.7891-23.738 1.2773-21.066 15.926-47.191 52.332-67.586 3.7812-2.1992 8.5859-2.4023 12.668-0.11719 36.559 20.414 51.273 46.605 52.551 67.723 0.53906 8.8359-1.2422 16.969-4.7891 23.738-3.832 7.293-9.625 12.938-16.816 16.281zm60.195-224.06c-30.93 3.4766-46.418 11.258-53.645 20.512-6.332 8.1328-6.25 18.766-5.1562 28.207 1.2422 10.734 7.4102 23.906 19.188 33.484 9.2383 7.4922 22.074 12.719 38.961 12.719 16.715 0 28.156-2.3008 35.5-7.7109 6.8867-5.0742 11.055-13.875 13.625-27.184 1.8984-9.8633 2.4883-19.152 1.5625-27.402-0.97266-8.668-3.5938-16.062-8.1328-21.504-4.3516-5.2266-10.801-8.9883-19.641-10.684-6.25-1.2109-13.641-1.4102-22.277-0.4375zm-73.82 4.7539c11.09-14.23 32.039-25.891 70.996-30.258 11.258-1.2617 21.203-0.94141 29.906 0.73828 15.02 2.8906 26.375 9.7617 34.508 19.523 7.9297 9.5586 12.434 21.555 13.961 35.062 1.2109 10.836 0.50391 22.695-1.8633 35.027-3.832 19.875-11.039 33.75-23.672 43.043-12.148 8.9531-28.375 12.734-50.668 12.734-23.402 0-41.664-7.6094-55.121-18.547-17.457-14.18-26.629-34.105-28.527-50.449-1.6953-14.617-1.4766-31.516 10.484-46.871zm-118.11-30.258c38.961 4.3672 59.926 16.027 70.996 30.258 11.961 15.355 12.164 32.258 10.484 46.871-1.8984 16.348-11.07 36.273-28.527 50.449-13.473 10.938-31.719 18.547-55.121 18.547-22.277 0-38.523-3.7812-50.668-12.734-12.633-9.3086-19.824-23.168-23.672-43.043-2.3672-12.316-3.0742-24.176-1.8633-35.027 1.5273-13.508 6.0156-25.52 13.961-35.062 8.1133-9.7617 19.473-16.633 34.508-19.523 8.7031-1.6797 18.648-2 29.906-0.73828zm50.82 46.016c-7.207-9.2578-22.715-17.051-53.625-20.512-8.6367-0.95703-16.027-0.77344-22.277 0.4375-8.8359 1.6953-15.289 5.4414-19.641 10.684-4.5352 5.4414-7.1562 12.852-8.1328 21.504-0.92578 8.25-0.33594 17.539 1.5625 27.402 2.5703 13.305 6.7383 22.109 13.625 27.184 7.3594 5.4102 18.801 7.7109 35.5 7.7109 16.883 0 29.719-5.2266 38.961-12.719 11.777-9.5742 17.941-22.746 19.188-33.484 1.0938-9.4414 1.1758-20.059-5.1562-28.207zm-63.621 205c0.89062 4.6719 1.7812 9.375 2.168 11.289 2.3867 11.828 22.648 20.68 49.461 26.09 16.832 3.3945 36.172 5.0742 55.727 5.0742 19.555 0 38.891-1.6953 55.727-5.0742 26.828-5.3945 47.09-14.262 49.461-26.09l2.168-11.34c8.5-44.469 14.113-73.871 67.133-70.359 1.1602 0.085938 2 0.11719 2.4883 0.13281 9.2891 0.11719 17.824-2.5039 24.09-7.4922 5.7969-4.6211 9.6758-11.473 10.297-20.195l0.11719-2.0664c0.32031-22.359-7.8633-32.543-15.035-41.496-8.0625-10.047-15.27-19.035-15.27-36.203 0-16.816 7.0391-28.105 14.617-40.254 6.7383-10.82 14.027-22.512 14.027-39.633 0-94.449-54.078-154.86-123.31-181.27-27.234-10.398-56.852-15.59-86.504-15.59s-59.27 5.1914-86.52 15.59c-69.215 26.41-123.31 86.84-123.31 181.27 0 17.121 7.3086 28.812 14.027 39.633 7.5938 12.195 14.668 23.52 14.668 40.254h-0.050781c0 17.152-7.207 26.156-15.27 36.203-7.1914 8.9531-15.34 19.137-15.035 41.496l0.10156 1.9336c0.58984 8.8047 4.4844 15.707 10.297 20.344 6.25 4.9883 14.801 7.6289 24.074 7.4922 0.48828 0 1.3438-0.050781 2.5039-0.13281 53.02-3.5117 58.633 25.891 67.133 70.359v0.050782z"
    />
  </g>
</svg>
