<?xml version="1.0" encoding="UTF-8"?>
<svg
  width="700pt"
  height="700pt"
  version="1.1"
  viewBox="0 0 700 700"
  xmlns="http://www.w3.org/2000/svg"
  xmlns:xlink="http://www.w3.org/1999/xlink"
>
  <g>
    <path d="m217.43 508.04-14.355-8.7266 27.438-45.129 14.355 8.7266z" />
    <path d="m129.85 375.43-7.5117-15.027 27.102-13.551 7.5117 15.027z" />
    <path d="m121.14 79.922 34.527 38.266-12.473 11.254-34.527-38.266z" />
    <path d="m545.61 79.906 12.465 11.254-34.535 38.262-12.465-11.254z" />
    <path d="m323.03 51.953h16.801v46.664h-16.801z" />
    <path
      d="m493.62 293.22c-47.098 0-97.719 11.535-97.719 36.848v41.203l-44.23 51.723 48.621-174.25h100.36l-21.453 25.094 12.773 10.922 33.305-38.961 0.50781-10.258-62.484-89.754-6.9023-3.5977h-249.94l-6.8945 3.6016-62.484 89.75 0.56641 10.32 189.4 216.98 12.711-0.066406 56.133-65.656v25.129 0.003906l-0.023437 46.098c0 25.312 50.656 36.836 97.727 36.836 47.066 0 97.727-11.531 97.727-36.836l0.011719-138.28c0-25.309-50.68-36.844-97.719-36.844zm0 16.801c52.527 0 80.922 14.223 80.922 20.047 0 5.8242-28.391 20.047-80.922 20.047-52.586 0-80.922-14.223-80.922-20.047 0.003907-5.8242 28.34-20.047 80.922-20.047zm-160.5 116.93-49.469-166.61-16.105 4.7812 46.801 157.62-151.89-174.01h220.39zm169.68-195.02h-92.801l46.398-66.652zm-108.89-6.3047-46.402-66.652h92.805zm-183.07-66.648h104.5l-37.699 54.152 13.789 9.5977 39.996-57.449 46.402 66.652h-104.5l-44.379-63.75-13.789 9.5977 37.699 54.152h-92.809zm363.7 239.01v24.246 0.003906h-0.011718v0.035156c-0.11328 5.8477-28.488 20.008-80.91 20.008-10.754 0-20.496-0.61719-29.176-1.5664v16.855c9.5742 1.0078 19.434 1.5117 29.176 1.5117 30.289 0 62.094-4.7617 80.91-14.945v24.207c0 5.8125-28.359 20.035-80.926 20.035-52.566 0-80.926-14.223-80.926-20.035v-24.227c0.011719 0.003906 0.015625 0.011719 0.023438 0.015625 9.4062 5.0977 22.121 8.8477 36.23 11.312v-17.078c-23.742-4.7031-36.23-12.266-36.23-16.129v-24.246c18.762 10.246 50.566 15.008 80.922 15.008 5.1523 0 10.359-0.11328 15.512-0.44922v-16.801c-4.9297 0.28125-10.078 0.44922-15.512 0.44922-52.586 0-80.922-14.223-80.922-20.047v-24.191c18.762 10.191 50.566 14.953 80.922 14.953 30.297 0 62.105-4.7617 80.922-14.953v24.191c0 4.5352-17.305 14.223-49.895 18.258v16.855c19.539-2.1875 37.512-6.5547 49.891-13.277z"
    />
  </g>
</svg>
