<?xml version="1.0" encoding="UTF-8" standalone="no"?>
<svg width="960" height="995"
  xmlns="http://www.w3.org/2000/svg" stroke-linejoin="round" stroke-linecap="round" fill-rule="evenodd" fill="none">
  <rect x="0" y="0" width="960" height="995" fill="#F8F8F4"/>
  <style><![CDATA[@import url("https://fonts.googleapis.com/css2?family=Grenze:wght@700&display=swap");@import url("https://fonts.googleapis.com/css2?family=Neuton:ital@1&display=swap");@import url("https://fonts.googleapis.com/css2?family=Neuton&display=swap");@import url("https://fonts.googleapis.com/css2?family=Neuton:wght@800&display=swap");]]></style>
  <defs/>
  <g>
    <path d=" M 0,0"/>
    <g transform="translate(572.124 359.252) scale(1.228 1.228)">
      <path d=" M 0,0"/>
      <g>
        <path d=" M 0,0"/>
        <path d=" M 75,75 Q 75,99.853 57.426,117.426 Q 39.853,135 15,135 L 15,135 Q -9.853,135 -27.426,117.426 Q -45,99.853 -45,75 L -45,75 Q -45,50.147 -27.426,32.574 Q -9.853,15 15,15 L 15,15 Q 39.853,15 57.426,32.574 Q 75,50.147 75,75 L 75,75" fill="#FF0000" stroke="#CCCECE" stroke-width="3" stroke-opacity="0.4"/>
        <path d=" M -45,120 Q -45,126.213 -49.393,130.607 Q -53.787,135 -60,135 L -150,135 Q -156.213,135 -160.607,130.607 Q -165,126.213 -165,120 L -165,30 Q -165,23.787 -160.607,19.393 Q -156.213,15 -150,15 L -60,15 Q -53.787,15 -49.393,19.393 Q -45,23.787 -45,30 L -45,120" fill="#CCCECE" stroke="#CCCECE" stroke-width="3" stroke-opacity="0.4"/>
        <path d=" M 195,120 Q 195,126.213 190.607,130.607 Q 186.213,135 180,135 L 90,135 Q 83.787,135 79.393,130.607 Q 75,126.213 75,120 L 75,30 Q 75,23.787 79.393,19.393 Q 83.787,15 90,15 L 180,15 Q 186.213,15 190.607,19.393 Q 195,23.787 195,30 L 195,120" fill="#CCCECE" stroke="#CCCECE" stroke-width="3" stroke-opacity="0.4"/>
        <path d=" M -45,240 Q -45,246.213 -49.393,250.607 Q -53.787,255 -60,255 L -150,255 Q -156.213,255 -160.607,250.607 Q -165,246.213 -165,240 L -165,150 Q -165,143.787 -160.607,139.393 Q -156.213,135 -150,135 L -60,135 Q -53.787,135 -49.393,139.393 Q -45,143.787 -45,150 L -45,240" fill="#CCCECE" stroke="#CCCECE" stroke-width="3" stroke-opacity="0.4"/>
        <path d=" M 165,270 Q 165,276.213 160.607,280.607 Q 156.213,285 150,285 L 60,285 Q 53.787,285 49.393,280.607 Q 45,276.213 45,270 L 45,150 Q 45,143.787 49.393,139.393 Q 53.787,135 60,135 L 150,135 Q 156.213,135 160.607,139.393 Q 165,143.787 165,150 L 165,270" fill="#CCCECE" stroke="#CCCECE" stroke-width="3" stroke-opacity="0.4"/>
        <path d=" M -165,210 Q -165,216.213 -169.393,220.607 Q -173.787,225 -180,225 L -330,225 Q -336.213,225 -340.607,220.607 Q -345,216.213 -345,210 L -345,120 Q -345,113.787 -340.607,109.393 Q -336.213,105 -330,105 L -180,105 Q -173.787,105 -169.393,109.393 Q -165,113.787 -165,120 L -165,210" fill="#CCCECE" stroke="#CCCECE" stroke-width="3" stroke-opacity="0.4"/>
        <path d=" M 45,30 Q 45,36.213 40.607,40.607 Q 36.213,45 30,45 L 0,45 Q -6.213,45 -10.607,40.607 Q -15,36.213 -15,30 L -15,0 Q -15,-6.213 -10.607,-10.607 Q -6.213,-15 0,-15 L 30,-15 Q 36.213,-15 40.607,-10.607 Q 45,-6.213 45,0 L 45,30" fill="#CCCECE" stroke="#CCCECE" stroke-width="3" stroke-opacity="0.4"/>
        <path d=" M -15,90 Q -15,96.213 -19.393,100.607 Q -23.787,105 -30,105 L -60,105 Q -66.213,105 -70.607,100.607 Q -75,96.213 -75,90 L -75,60 Q -75,53.787 -70.607,49.393 Q -66.213,45 -60,45 L -30,45 Q -23.787,45 -19.393,49.393 Q -15,53.787 -15,60 L -15,90" fill="#CCCECE" stroke="#CCCECE" stroke-width="3" stroke-opacity="0.4"/>
        <path d=" M 105,90 Q 105,96.213 100.607,100.607 Q 96.213,105 90,105 L 60,105 Q 53.787,105 49.393,100.607 Q 45,96.213 45,90 L 45,60 Q 45,53.787 49.393,49.393 Q 53.787,45 60,45 L 90,45 Q 96.213,45 100.607,49.393 Q 105,53.787 105,60 L 105,90" fill="#CCCECE" stroke="#CCCECE" stroke-width="3" stroke-opacity="0.4"/>
        <path d=" M -75,150 Q -75,156.213 -79.393,160.607 Q -83.787,165 -90,165 L -120,165 Q -126.213,165 -130.607,160.607 Q -135,156.213 -135,150 L -135,120 Q -135,113.787 -130.607,109.393 Q -126.213,105 -120,105 L -90,105 Q -83.787,105 -79.393,109.393 Q -75,113.787 -75,120 L -75,150" fill="#CCCECE" stroke="#CCCECE" stroke-width="3" stroke-opacity="0.4"/>
        <path d=" M 135,150 Q 135,156.213 130.607,160.607 Q 126.213,165 120,165 L 90,165 Q 83.787,165 79.393,160.607 Q 75,156.213 75,150 L 75,120 Q 75,113.787 79.393,109.393 Q 83.787,105 90,105 L 120,105 Q 126.213,105 130.607,109.393 Q 135,113.787 135,120 L 135,150" fill="#CCCECE" stroke="#CCCECE" stroke-width="3" stroke-opacity="0.4"/>
        <path d=" M -135,180 Q -135,186.213 -139.393,190.607 Q -143.787,195 -150,195 L -180,195 Q -186.213,195 -190.607,190.607 Q -195,186.213 -195,180 L -195,150 Q -195,143.787 -190.607,139.393 Q -186.213,135 -180,135 L -150,135 Q -143.787,135 -139.393,139.393 Q -135,143.787 -135,150 L -135,180" fill="#CCCECE" stroke="#CCCECE" stroke-width="3" stroke-opacity="0.4"/>
        <path d=" M -315,180 Q -315,186.213 -319.393,190.607 Q -323.787,195 -330,195 L -360,195 Q -366.213,195 -370.607,190.607 Q -375,186.213 -375,180 L -375,150 Q -375,143.787 -370.607,139.393 Q -366.213,135 -360,135 L -330,135 Q -323.787,135 -319.393,139.393 Q -315,143.787 -315,150 L -315,180" fill="#CCCECE" stroke="#CCCECE" stroke-width="3" stroke-opacity="0.4"/>
        <path d=" M 59.432,74.183 L 57.276,57.615 M 63.73,73.306 L 61.622,57.11 M 67.684,69.793 L 65.528,53.224 M 53.853,88.21 L 47.754,76.373 M 58.051,86.806 L 50.262,71.689 M 63.213,87.272 L 53.722,68.851 M 68.331,50.027 L 51.548,59.129 M 66.124,46.247 L 50.701,54.612 M 63.905,42.474 L 48.233,50.973 M 38.518,99.814 L 52.575,85.73 M 41.94,102.578 L 53.131,91.366 M 46.112,104.591 L 57.694,92.988 M 68.719,83.182 L 57.846,97.978 M 62.006,84.929 L 51.588,99.106 M 56.875,84.523 L 48.258,96.249 M 52.311,48.762 L 46.485,33.081 M 56.195,46.655 L 50.597,31.586 M 60.08,44.548 L 54.98,30.823 M 43.821,46.766 L 36.899,32.176 M 47.324,43.943 L 39.481,27.411 M 54.014,47.838 L 43.173,24.987 M 85.719,62.952 L 69.699,56.287 M 89.289,59.699 L 71.66,52.364 M 89.641,55.106 L 72.593,48.014 M 59.231,72.639 L 63.368,70.524 M 58.419,77.967 L 71.575,71.242 M 60.423,81.856 L 72.014,75.932 M 61.282,45.512 L 76.041,42.183 M 63.57,49.481 L 76.655,46.529 M 59.287,54.932 L 78.697,50.554 M 83.711,51.844 L 73.994,42.645 M 86.857,48.797 L 76.956,39.425 M 90.158,45.898 L 78.278,34.652 M 99.997,60.89 L 83.214,71.875 M 97.35,57.394 L 80.631,68.336 M 87.18,58.821 L 82.754,61.718 M 86.807,48.75 L 96.35,44.79 M 86.277,53.707 L 99.855,48.073 M 86.275,58.444 L 100.848,52.397 M 36.236,123.41 L 19.45,114.482 M 35.501,118.064 L 20.714,110.199 M 38.334,114.615 L 23.453,106.701 M 13.73,125.116 L 26.688,118.332 M 15.265,129.25 L 31.367,120.821 M 18.912,132.279 L 36.047,123.309 M 47.182,100.014 L 35.411,122.971 M 46.434,91.883 L 35.541,113.13 M 39.781,95.269 L 31.677,111.075 M 19.494,131.975 L -0.799,121.983 M 14.572,124.675 L 0.056,117.527 M 19.373,122.162 L 2.447,113.828 M 62.045,114.368 L 51.13,99.564 M 64.952,110.939 L 54.256,96.432 M 68.513,108.397 L 59.336,95.95 M 59.88,96.688 L 67.991,88.407 M 62.51,100.255 L 72.345,90.214 M 65.14,103.822 L 74.083,94.692 M 57.285,118.427 L 37.746,118.417 M 61.813,114.054 L 39.989,114.043 M 58.586,109.677 L 42.231,109.669 M 72.795,96.007 L 78.183,85.925 M 73.004,104.899 L 81.416,89.156 M 77.365,106.021 L 84.909,91.904 M 1.025,113.992 L -14.226,113.035 M 4.42,109.822 L -13.836,108.675 M 2.752,105.333 L -12.338,104.386 M -1.668,130.65 L -14.653,118.388 M 0.994,127.147 L -13.93,113.053 M 4.836,124.758 L -7.104,113.482 M 99.222,86.085 L 76.391,89.278 M 97.719,81.877 L 83.015,83.934 M 95.609,77.755 L 79.627,79.99 M 45.083,118.42 L 34.168,129.604 M 38.973,118.417 L 34.83,122.662 M 37.173,113.998 L 33.989,117.26 M 103.048,113.233 L 84.882,103.894 M 103.408,108.498 L 86.653,99.886 M 103.163,103.454 L 91.079,97.242 M 79.936,91.926 L 95.369,87.868 M 82.895,95.671 L 96.705,92.04 M 80.083,100.935 L 92.11,97.772 M 82.552,114.726 L 78.378,104.125 M 87.649,115.732 L 81.66,100.52 M 88.403,105.705 L 85.921,99.399 M 69.685,129.409 L 75.451,113.677 M 73.996,130.361 L 81.088,111.01 M 77.923,132.36 L 85.768,110.954 M 96.659,124.541 L 88.361,105.683 M 102.35,126.613 L 94.538,108.858 M 105.479,122.86 L 100.715,112.033 M 16.123,138.399 L 5.299,127.512 M 19.314,135.404 L 12.464,128.513 M 17.962,127.838 L 14.733,124.591 M 33.727,41.282 L 15.764,42.834 M 35.28,36.757 L 15.128,38.498 M 32.421,32.612 L 18.293,33.833 M 22.994,33.427 L 33.537,20.391 M 29.044,32.904 L 37.066,22.986 M 31.275,37.103 L 41.705,24.207 M 1.933,47.102 L -16.502,44.699 M 0.879,42.552 L -15.119,40.467 M -0.252,37.993 L -15.94,35.948 M -17.089,36.885 L -23.552,54.465 M -22.009,37.589 L -27.669,52.982 M -25.556,34.556 L -31.078,49.577 M -15.936,67.478 L -30.412,72.165 M -17.053,63.241 L -30.326,67.538 M -17.11,58.661 L -35.307,64.552 M -17.937,55.49 L -34.031,61.332 M -22.877,52.629 L -37.71,58.013 M -26.282,49.211 L -38.295,53.571 M 7.714,143.208 L -6.889,131.67 M 10.236,139.625 L -4.467,128.007 M 11.189,134.803 L -1.603,124.694 M 50.056,118.423 L 51.154,136.137 M 45.673,118.421 L 46.555,132.664 M 41.516,122.076 L 42.348,135.497 M 59.793,105.397 L 69.967,128.641 M 56.891,109.676 L 58.806,114.052 M 54.029,114.05 L 55.945,118.426 M 100.978,29.218 L 94.526,45.547 M 96.434,28.812 L 89.812,45.571 M 91.923,28.323 L 86.389,42.33 M 50.934,132.581 L 62.619,128.219 M 48,138.347 L 63.508,132.557 M 47.891,143.057 L 65.633,136.433 M 42.869,147.64 L 38.725,132.838 M 47.818,149.088 L 43.12,132.308 M 50.409,142.117 L 49.226,137.889 M 84.066,115.6 L 87.289,114.818 M 82.254,120.542 L 93.679,117.769 M 80.443,125.483 L 95.469,121.837 M 44.085,161.36 L 42.86,147.608 M 48.363,160.074 L 47.182,146.817 M 52.495,157.147 L 51.132,141.847 M 36.893,126.811 L 36.766,138.067 M 32.537,125.147 L 32.392,137.924 M 28.136,127.451 L 27.989,140.39 M 66.43,154.642 L 51.98,151.373 M 71.459,151.294 L 51.572,146.795 M 70.568,146.607 L 55.111,143.11 M 49.969,171.659 L 41.139,159.829 M 52.797,168.133 L 43.59,155.798 M 58.373,168.289 L 47.838,154.175 M 50.735,158.057 L 68.003,157.68 M 53.949,162.363 L 65.384,162.113 M 57.163,166.669 L 68.217,166.427 M -27.72,71.293 L -34.617,83.408 M -30.305,66.991 L -37.548,79.713 M -33.645,64.014 L -42.411,79.412 M -35.077,64.478 L -48.757,49.633 M -35.743,57.299 L -48.233,43.746 M -34.499,52.193 L -42.045,44.005 M -23.899,95.683 L -9.876,93.3 M -25.388,100.374 L -7.069,97.26 M -22.814,104.374 L -6.018,101.519 M -23.797,107.593 L -8.042,102.859 M -22.818,111.867 L -12.479,108.761 M -24.975,117.084 L -13.359,113.593 M -20.038,134.287 L -21.825,116.137 M -15.704,133.653 L -17.1,119.479 M -11.381,132.909 L -12.622,120.306 M -32.49,79.671 L -17.141,78.643 M -35.936,84.286 L -18.162,83.096 M -31.728,88.389 L -16.956,87.4 M -36.29,102.803 L -22.634,92.222 M -33.348,106.058 L -20.833,96.361 M -29.512,108.62 L -17.037,98.954 M -56.934,44.797 L -47.732,31.95 M -52.181,45.674 L -42.58,32.27 M -46.649,45.464 L -40.228,36.499 M -48.023,50.429 L -59.001,58.376 M -47.44,44.606 L -61.739,54.957 M -52.691,43.006 L -64.552,51.593 M -35.366,67.037 L -57.101,64.919 M -36.908,62.491 L -57.399,60.495 M -41.358,57.661 L -56.039,56.231 M -28.81,43.407 L -29.762,22.982 M -24.634,39.036 L -25.266,25.475 M -20.236,39.41 L -20.952,24.064 M 123.711,37.567 L 113.257,25.099 M 126.808,34.451 L 117.097,22.87 M 130.335,31.848 L 120.02,19.546 M 101.825,40.593 L 109.115,23.783 M 105.793,42.439 L 113.294,25.143 M 110.074,43.564 L 116.437,28.892 M -40.399,66.546 L -41.997,61.995 M -35.599,67.014 L -37.196,62.463 M -32.181,63.54 L -33.078,60.986 M 4.459,31.002 L 21.621,27.43 M 8.324,34.667 L 24.759,31.246 M 6.361,39.544 L 25.216,35.619 M -1.007,37.895 L 6.892,23.924 M -0.972,46.723 L 8.377,30.187 M 8.346,39.131 L 11.21,34.066 M 7.315,116.225 L 23.978,106.98 M 12.093,118.577 L 19.462,114.489 M 16.87,120.93 L 24.066,116.937 M 87.419,78.9 L 96.498,63.18 M 92.915,78.132 L 98.919,67.736 M 95.636,82.169 L 103.176,69.113 M -56.27,60.605 L -55.292,65.096 M -61.764,55.942 L -58.683,70.084 M -66.579,54.39 L -63.059,70.553 M -60.645,23.746 L -58.027,39.358 M -65.076,23.777 L -61.883,42.814 M -69.309,24.989 L -66.735,40.336 M 108.2,122.528 L 119.299,107.315 M 112.131,124.563 L 122.001,111.033 M 116.222,126.379 L 126.904,111.736 M 75.086,141.569 L 75.57,157.657 M 70.999,151.19 L 71.265,160.033 M 66.592,150.193 L 66.818,157.706 M 62.36,172.476 L 61.269,188.666 M 58.267,168.147 L 56.776,190.271 M 53.613,172.129 L 52.416,189.892 M 87.173,146.372 L 73.075,139.819 M 92.143,143.858 L 77.214,136.918 M 93.986,139.89 L 78.286,132.592 M 81.255,133.972 L 88.252,123.588 M 85.272,135.84 L 94.558,122.058 M 89.29,137.707 L 96.687,126.728 M 104.334,138.674 L 108.491,155.297 M 99.849,138.773 L 104.133,155.905 M 95.296,138.602 L 100.422,159.099 M 52.868,183.184 L 37.066,175.398 M 53.187,178.464 L 39.779,171.858 M 53.505,173.743 L 39.997,167.088 M 98.402,151.02 L 83.712,145.302 M 97.101,145.819 L 83.339,140.462 M 95.8,140.618 L 85.461,136.594 M -2.789,30.999 L -12.067,36.453 M -5.76,27.67 L -20.383,36.267 M -6.012,22.743 L -20.613,31.328 M 63.795,137.119 L 68.35,130.278 M 63.76,145.067 L 74.542,128.872 M 68.328,146.1 L 75.506,135.318 M -31.229,98.881 L -41.447,99.413 M -25.168,94.185 L -42.194,95.071 M -27.286,89.915 L -43.603,90.763 M -17.897,110.389 L -23.955,116.777 M -20.271,106.534 L -33.489,120.473 M -24.863,105.018 L -34.253,114.921 M -32.808,113.397 L -43.319,105.147 M -29.785,110.209 L -41.224,101.23 M -30.65,103.968 L -34.199,101.182 M -36.489,110.508 L -55.886,101.896 M -34.216,106.73 L -52.369,98.67 M -40.077,99.341 L -51.899,94.092 M 76.991,158.247 L 85.997,146.192 M 79.67,161.971 L 88.938,149.565 M 84.659,162.603 L 94.459,149.485 M -67.39,36.428 L -82.683,30.822 M -68.223,31.463 L -81.64,26.545 M -69.055,26.498 L -81.128,22.072 M -41.137,90.635 L -45.529,76.337 M -36.632,90.401 L -40.85,76.67 M -33.974,84.155 L -34.349,82.936 M 3.318,30.247 L -11.248,25.822 M 5.524,26.344 L -6.121,22.807 M 4.765,21.541 L -10.603,16.873 M 61.288,209.332 L 48.593,199.414 M 62.731,204.907 L 49.409,194.499 M 64.302,200.582 L 53.943,192.49 M 75.804,196.681 L 57.857,195.548 M 72.932,192.116 L 55.493,191.015 M 72.463,187.703 L 61.381,187.003 M 53.211,203.021 L 41.214,186.294 M 56.4,199.961 L 44.926,183.963 M 59.589,196.9 L 52.601,187.157 M 52.303,216.048 L 36.053,207.775 M 52.959,211.473 L 37.88,203.796 M 57.292,208.77 L 42.19,201.081 M 91.596,29.151 L 79.778,22.142 M 93.37,25.117 L 81.186,17.89 M 95.329,21.192 L 80.834,12.594 M 107.899,20.797 L 96.324,34.33 M 103.565,19.133 L 94.191,30.093 M 100.662,15.797 L 92.919,24.849 M -52.576,75.95 L -64.106,89.166 M -57.938,75.441 L -68.549,87.603 M -60.5,71.723 L -70.137,82.768 M -39.345,109.24 L -54.895,125.159 M -43.611,107.346 L -57.901,121.975 M -47.877,105.452 L -59.034,116.874 M -55.141,101.533 L -73.793,92.415 M -56.631,95.935 L -70.401,89.203 M -53.543,92.574 L -63.033,87.935 M -57.495,115.299 L -70.742,105.087 M -54.417,112.148 L -67.574,102.005 M -51.339,108.996 L -71.213,93.676 M -42.138,92.308 L -55.802,91.47 M -41.966,87.936 L -61.963,86.709 M -43.338,83.468 L -58.333,82.548 M 116.265,165.398 L 108.472,150.017 M 120.303,163.689 L 111.453,146.221 M 124.056,161.415 L 115.946,145.407 M 113.58,150.418 L 119.604,136.483 M 118.41,150.271 L 124.152,136.988 M 120.982,155.347 L 127.194,140.979 M 87.85,38.632 L 80.308,36.573 M 89.467,34.539 L 76.464,30.988 M 91.085,30.445 L 77.473,26.728 M -57.889,132.045 L -71.014,123.358 M -56.125,127.966 L -71.372,117.874 M -57.645,121.714 L -69.141,114.104 M -69.132,119.357 L -83.076,126.825 M -68.895,114.267 L -83.464,122.07 M -66.757,108.159 L -86.476,118.72 M 118.712,12.745 L 117.745,23.643 M 114.321,12.733 L 113.201,25.357 M 109.995,11.986 L 108.906,24.265 M -99.286,117.168 L -86.17,110.908 M -98.892,121.828 L -82.803,114.149 M -98.645,126.557 L -81.021,118.147 M -80.506,140.338 L -75.467,124.625 M -77.466,145.186 L -72.113,128.494 M -73.104,145.91 L -66.772,126.165 M -80.094,139.053 L -98.744,137.363 M -78.725,134.785 L -96.119,133.208 M -77.356,130.516 L -97.419,128.697 M 139.238,163.799 L 122.283,152.336 M 142.015,160.395 L 124.05,148.249 M 142.147,155.203 L 125.817,144.163 M 152.25,144.627 L 147.316,162.457 M 148.137,143.088 L 143.17,161.036 M 143.721,142.639 L 140.544,154.12 M 131.305,147.873 L 136.653,134.727 M 135.009,150.378 L 139.856,138.464 M 138.714,152.882 L 144.029,139.817 M 128.079,26.655 L 118.424,15.988 M 131.553,23.974 L 119.213,10.341 M 135.022,21.287 L 122.086,6.995 M 140.234,25.179 L 128.742,29.948 M 138.926,20.986 L 127.309,25.805 M 132.773,18.802 L 128.483,20.582 M -35.805,22.443 L -51.008,30.662 M -40.301,19.9 L -59.545,30.304 M -39.547,14.519 L -55.742,23.274 M -63.03,35.973 L -76.828,10.173 M -65.722,21.664 L -72.017,9.892 M -61.726,19.859 L -69.246,5.797 M -72.459,34.57 L -88.904,42.966 M -78.06,32.517 L -89.32,38.267 M -78.348,27.751 L -91.504,34.47 M 146.044,177.842 L 160.44,163.988 M 150.334,179.785 L 161.844,168.708 M 152.49,183.782 L 164.761,171.973 M 168.763,160.628 L 151.14,164.997 M 166.622,156.652 L 147.619,161.362 M 165.595,152.399 L 148.958,156.523 M -30.253,47.334 L -41.054,45.08 M -28.821,43.164 L -42.897,40.226 M -29.031,38.651 L -44.794,35.361 M 122.333,131.786 L 124.375,118.626 M 126.525,133.307 L 128.794,118.678 M 130.642,135.303 L 133.344,117.887 M 90.154,18.123 L 94.528,5.414 M 93.997,20.402 L 98.309,7.87 M 99.903,16.684 L 103.258,6.934 M 101.91,10.851 L 115.513,10.846 M 100.405,15.226 L 109.708,15.223 M 103.165,19.601 L 109.32,19.598 M 153.211,37.089 L 140.86,21.957 M 155.138,32.531 L 144.165,19.088 M 158.998,30.341 L 147.895,16.739 M 163.587,42.091 L 149.271,36.868 M 166.051,38.333 L 149.211,32.189 M 164.754,33.203 L 151.84,28.491 M 151.566,121.679 L 133.899,117.245 M 153.86,117.744 L 135.21,113.064 M 152.061,112.782 L 136.548,108.889 M 138.287,128.9 L 153.845,122.472 M 137.614,133.912 L 155.02,126.72 M 134.543,139.914 L 156.923,130.668 M -54.427,142.253 L -70.598,138.097 M -56.662,137.162 L -69.26,133.924 M -51.497,133.972 L -67.922,129.75 M -47.294,117.378 L -51.294,136.308 M -53,123.219 L -55.077,133.052 M -58.186,126.602 L -59.159,131.205 M -101.649,151.619 L -102.935,134.353 M -97.273,151.471 L -98.321,137.401 M -92.859,151.827 L -93.904,137.802 M -82.335,157.314 L -92.877,151.592 M -80.306,153.437 L -93.263,146.404 M -76.208,150.684 L -93.649,141.216 M -108.166,163.993 L -125.001,154.181 M -106.392,159.963 L -121.779,150.995 M -103.399,156.644 L -119.801,147.084 M -104.642,155.702 L -97.511,148.268 M -103.082,160.397 L -93.003,149.888 M -99.84,163.337 L -90.048,153.127 M -92.918,13.708 L -76.678,10.454 M -92.044,17.994 L -74.523,14.485 M -90.394,22.126 L -72.367,18.515 M -95.506,27.557 L -97.764,9.265 M -91.257,26.266 L -92.81,13.686 M -87.433,21.533 L -87.971,17.179 M 33.773,12.311 L 25.196,24.267 M 31.748,7.627 L 16.827,28.428 M 27.271,6.362 L 17.266,20.31 M -66.136,11.613 L -47.978,10.943 M -63.84,15.906 L -40.521,15.046 M -66.409,20.379 L -49.212,19.744 M 151.947,145.724 L 141.582,137.006 M 160.808,147.461 L 146.14,135.123 M 162.252,142.959 L 150.698,133.24 M 26.831,7.109 L 15.173,-6.706 M 30.352,4.498 L 19.434,-8.441 M 33.551,1.504 L 21.787,-12.436 M 40.613,0.704 L 29.201,18.683 M 35.842,0.056 L 25.574,16.234 M 28.919,2.8 L 26.462,6.671 M 28.241,26.939 L 39.996,7.951 M 34.496,25.147 L 43.201,11.086 M 38.175,27.517 L 45.874,15.08 M 125.44,113.744 L 127.237,103.922 M 127.733,125.519 L 131.522,104.809 M 132.047,126.249 L 135.878,105.309 M 18.517,-0.544 L 4.543,-8.916 M 25.144,-1.674 L 5.347,-13.535 M 28.018,-5.052 L 10.791,-15.373 M -7.592,7.856 L 7.62,0.471 M -3.681,10.821 L 9.257,4.539 M -7.852,17.709 L 12.385,7.884 M -86.815,144.926 L -75.926,140.382 M -81.877,147.606 L -72.376,143.641 M -76.94,150.286 L -67.636,146.404 M 119.03,142.417 L 125.166,125.85 M 122.732,145.019 L 129.294,127.301 M 127.334,145.189 L 132.489,131.271 M -129.703,142.629 L -118.884,135.295 M -130.543,148.485 L -113.879,137.188 M -128.151,152.149 L -114.158,142.663 M -130.657,158.863 L -139.507,142.459 M -127.473,155.552 L -134.132,143.207 M -125.359,150.256 L -127.447,146.385 M -60.569,166.18 L -76.422,159.649 M -57.997,162.509 L -73.596,156.081 M -54.289,159.304 L -76.56,150.128 M -56.064,152.076 L -72.089,148.262 M -52.52,148.422 L -72.393,143.693 M -53.898,143.597 L -71.053,139.514 M 131.357,130.697 L 142.091,129.208 M 131.05,135.156 L 142.92,133.51 M 134.899,139.039 L 137.551,138.672 M 163.519,28.779 L 152.214,17.804 M 168.211,27.236 L 154.072,13.51 M 171.834,24.656 L 158.135,11.357 M 132.102,18.061 L 145.314,7.653 M 131.599,24.025 L 147.252,11.696 M 141.03,22.166 L 144.468,19.459 M 49.769,38.889 L 49.152,23.432 M 54.248,41.414 L 53.465,21.782 M 58.592,40.544 L 57.82,21.199 M -53.414,148.209 L -50.558,132.825 M -49.137,149.141 L -45.855,131.461 M -44.561,148.456 L -41.604,132.534 M -46.05,159.097 L -57.178,149.27 M -42.295,156.577 L -53.182,146.961 M -41.549,151.398 L -48.428,145.323 M -112.47,134.748 L -119.483,115.439 M -109.375,130.455 L -115.143,114.573 M -105.001,129.683 L -109.997,115.926 M -108.854,119.073 L -91.837,118.461 M -107.284,123.394 L -90.772,122.8 M -105.715,127.716 L -91.103,127.19 M 49.113,227.622 L 34.973,219.44 M 51.131,223.735 L 37.815,216.03 M 55.467,221.189 L 38.839,211.568 M 60.723,216.957 L 61.947,204.295 M 65.168,216.448 L 67.131,196.133 M 69.723,214.79 L 71.5,196.409 M 58.821,221.293 L 42.106,205.947 M 63.77,219.898 L 50.926,208.105 M 61.238,211.633 L 53.031,204.099 M -97.349,12.623 L -104.871,33.553 M -102.651,14.439 L -108.763,31.446 M -106.967,13.514 L -113.557,31.851 M -88.269,32.818 L -104.335,32.061 M -80.415,28.807 L -102.787,27.754 M -84.51,24.235 L -91.549,23.903 M -6.833,17.214 L -15.88,7.172 M -2.737,15.225 L -10.595,6.502 M -1.688,9.853 L -4.736,6.469 M -17.235,29.341 L -20.585,15.387 M -13.292,27.023 L -16.49,13.706 M -9.349,24.705 L -12.716,10.684 M -55.414,173.687 L -61.461,161.081 M -50.957,172.863 L -58.242,157.676 M -47.226,170.525 L -55.694,152.872 M -70.761,177.368 L -59.542,165.082 M -66.869,179.595 L -57.501,169.336 M -63.105,181.961 L -55.461,173.59 M 164.604,137.372 L 165.203,152.496 M 160.619,147.301 L 160.867,153.571 M 156.089,143.492 L 156.531,154.646 M 170.303,74.332 L 168.59,54.976 M 174.583,73.06 L 173.082,56.107 M 178.809,71.185 L 177.586,57.365 M 175.662,105.058 L 168.315,88.119 M 180.034,104.142 L 172.244,86.182 M 182.926,99.816 L 176.083,84.038 M -119.836,135.941 L -139.36,125.826 M -122.557,129.604 L -136.394,122.435 M -117.547,127.272 L -133.637,118.936 M 191.053,81.898 L 176.105,77.424 M 192.522,77.771 L 174.523,72.383 M 192.342,73.151 L 178.619,69.043 M 177.239,86.703 L 182.992,79.485 M 179.21,91.249 L 187.509,80.838 M 181.182,95.794 L 191.87,82.386 M 52.005,-10.191 L 41.568,6.469 M 46.469,-9.595 L 37.499,4.723 M 42.889,-12.122 L 35.364,-0.109 M 168.246,127.938 L 154.585,136.51 M 167.68,123.128 L 153.237,132.191 M 161.992,121.532 L 151.225,128.288 M 181.773,136.913 L 164.673,139.127 M 180.545,132.661 L 163.958,134.809 M 182.265,128.027 L 164.423,130.337 M 63.116,233.592 L 48.211,228.415 M 65.179,229.677 L 49.895,224.369 M 64.398,224.774 L 49.012,219.431 M 156.114,125.221 L 170.903,110.656 M 158.844,128.673 L 173.707,114.035 M 161.573,132.125 L 175.922,117.994 M 177.089,117.107 L 173.409,99.863 M 180.776,113.424 L 177.596,98.523 M 185.667,115.379 L 181.784,97.182 M 72.427,216.866 L 63.371,229.049 M 69.903,212.928 L 61.775,223.863 M 61.096,217.442 L 58.472,220.973 M 164.128,32.974 L 166.253,25.335 M 167.028,38.876 L 171.164,24.005 M 171.293,39.866 L 176.541,20.997 M -125.23,23.827 L -113.347,11.431 M -121.545,26.305 L -109.389,13.625 M -119.093,30.07 L -109.213,19.764 M -118.976,37.278 L -132.906,22.794 M -116.892,33.134 L -129.749,19.765 M -116.435,27.297 L -119.471,24.141 M -147.017,178.228 L -156.797,160.547 M -143.517,175.518 L -153.237,157.944 M -139.47,173.796 L -147.917,158.522 M -143.348,190.643 L -152.81,177.891 M -137.452,191.246 L -148.656,176.147 M -134.098,188.425 L -145.288,173.345 M 196.548,122.929 L 185.017,136.034 M 191.93,121.554 L 181.764,133.108 M 190.013,117.109 L 180.169,128.298 M 48.056,234.621 L 62.03,233.215 M 48.484,238.975 L 64.442,237.369 M 50.359,243.184 L 67.48,241.46 M 167.908,20.844 L 171.824,9.288 M 171.383,24.218 L 176.512,9.086 M 174.011,30.096 L 180.8,10.066 M -160.396,192.487 L -170.179,175.799 M -158.161,187.65 L -167.153,172.309 M -154.259,185.656 L -163.086,170.596 M -154.556,164.597 L -156.481,142.957 M -150.28,163.289 L -152.007,143.872 M -146.004,161.98 L -147.751,142.343 M -151.531,108.891 L -159.657,96.619 M -146.105,109.16 L -156.041,94.156 M -143.137,105.719 L -152.206,92.023 M -158.741,83.246 L -145.397,77.636 M -160.378,88.68 L -142.562,81.19 M -158.799,92.762 L -142.991,86.117 M -49.894,195.081 L -68.126,193.802 M -48.94,190.762 L -67.685,189.447 M -49.907,186.308 L -64.136,185.311 M -44.024,169.193 L -49.567,185.578 M -48.321,168.242 L -53.639,183.963 M -53.036,168.528 L -57.478,181.658 M -141.653,155.115 L -149.331,136.775 M -138.489,151.343 L -144.267,137.543 M -133.274,152.473 L -140.437,135.362 M -139.922,136.591 L -132.786,129.231 M -138.085,140.981 L -128.73,131.333 M -136.247,145.37 L -124.674,133.434 M 155.011,191.277 L 163.227,180.274 M 157.526,195.221 L 167.482,181.888 M 161.064,197.795 L 171.84,183.364 M -141.179,55.053 L -153.406,49.373 M -136.899,52.217 L -151.845,45.274 M -136.519,47.569 L -149.213,41.673 M -139.606,23.02 L -131.077,7.649 M -135.235,24.161 L -126.946,9.221 M -128.509,21.055 L -124.327,13.518 M -127.3,28.623 L -145.696,32.36 M -130.892,24.888 L -143.528,27.455 M -133.45,20.943 L -139.089,22.089 M 152.217,194.183 L 137.884,201.097 M 150.238,190.28 L 137.218,196.562 M 148.853,186.091 L 132.824,193.823 M 140.055,190.335 L 146.448,171.451 M 145.576,187.672 L 150.285,173.76 M 149.131,190.815 L 154.087,176.173 M -149.895,133.741 L -162.337,149.136 M -153.889,131.723 L -163.904,144.115 M -157.695,129.471 L -167.743,141.905 M -151.537,135.773 L -154.791,132.839 M -137.393,142.633 L -153.956,127.701 M -139.094,135.209 L -151.695,123.849 M -161.36,190.844 L -158.998,186.221 M -160.133,198.058 L -151.045,180.27 M -156.537,200.636 L -148.135,184.191 M -136.616,30.515 L -151.71,43.372 M -145.476,32.315 L -152.836,38.584 M -144.2,25.481 L -155.462,35.074 M -149.211,41.243 L -163.369,42.088 M -150.934,36.963 L -166.517,37.894 M -152.656,32.683 L -164.932,33.416 M 190.619,111.967 L 180.269,125.728 M 184.984,112.18 L 177.256,122.455 M 180.29,111.143 L 176.805,115.777 M 42.74,247.98 L 39.244,231.397 M 47.045,247.195 L 42.059,223.541 M 49.757,238.847 L 48.849,234.541 M 50.169,245.49 L 66.906,244.412 M 49.137,249.941 L 65.655,248.877 M 49.093,254.328 L 66.658,253.197 M 50.26,260.423 L 38.394,245.368 M 50.933,254.209 L 41.541,242.293 M 52.946,249.696 L 45.611,240.389 M 45.193,-19.594 L 33.253,1.152 M 41.539,-22.016 L 30.252,-2.405 M 37.857,-24.389 L 27.251,-5.961 M 74.783,261.32 L 65.555,275.923 M 70.174,260.425 L 61.131,274.735 M 67.294,256.792 L 58.209,271.169 M 83.358,274.87 L 71.935,265.827 M 85.791,271.216 L 74.285,262.108 M 88.06,267.433 L 74.193,256.454 M 48.983,258.803 L 62.594,253.458 M 49.804,263.181 L 65.546,256.999 M 50.797,267.491 L 63.746,262.406 M 41.488,269.733 L 44.759,253.444 M 45.008,274.426 L 48.315,257.956 M 50.868,267.463 L 51.893,262.361 M 137.708,212.547 L 148.474,202.353 M 138.866,217.476 L 152.609,204.462 M 141.852,220.674 L 156.103,207.18 M 163.383,191.811 L 154.604,208.599 M 158.478,191.749 L 151.066,205.924 M 154.411,190.087 L 147.527,203.25 M -48.663,156.789 L -43.827,155.223 M -51.213,162.213 L -38.986,158.254 M -49.304,166.194 L -34.365,161.357 M 189.126,106.086 L 190.661,83.902 M 193.586,105.015 L 194.761,88.037 M 197.882,106.304 L 199.025,89.779 M 184.571,110.244 L 198.104,103.098 M 190.58,112.018 L 198.941,107.603 M 184.408,120.225 L 203.341,110.228 M -159.476,196.771 L -182.983,204.044 M -160.402,192.478 L -184.315,199.877 M -169.664,190.764 L -185.617,195.7 M -173.023,181.287 L -182.473,163.83 M -169.502,178.602 L -178.81,161.405 M -165.723,176.392 L -173.991,161.117 M -180.186,194.02 L -186.646,178.572 M -175.987,192.721 L -181.119,180.448 M -171.788,191.421 L -177.435,177.917 M -156.167,21.965 L -142.999,9.424 M -152.182,24.211 L -140.64,13.219 M -151.059,29.183 L -134.024,12.959 M -160.808,33.17 L -157.72,16.735 M -156.306,32.901 L -153.834,19.742 M -151.653,31.829 L -149.794,21.937 M -183.575,161.823 L -183.015,145.026 M -179.451,169.413 L -178.668,145.94 M -174.807,161.421 L -174.373,148.403 M 52.982,283.388 L 41.507,277.977 M 55.909,279.931 L 40.609,272.717 M 59.165,276.629 L 45.828,270.341 M -13.062,-4.81 L 5.271,-9.748 M -11.7,-0.646 L 7.909,-5.928 M -9.457,3.281 L 5.375,-0.714 M -143.367,125.355 L -158.636,120.538 M -141.81,121.259 L -156.662,116.573 M -140.538,117.072 L -155.656,112.302 M -146.25,124.445 L -142.06,121.18 M -145.516,129.42 L -135.22,121.395 M -142.216,132.395 L -136.013,127.56 M -165.752,129.909 L -162.879,111.64 M -161.374,130.231 L -158.596,112.567 M -156.952,130.271 L -155.573,121.504 M 159.322,214.79 L 159.51,199.217 M 163.655,218.289 L 163.87,200.468 M 168.068,215.132 L 168.257,199.55 M 184.663,44.763 L 174.191,29.564 M 187.926,41.787 L 175.943,24.396 M 191.584,39.385 L 177.694,19.227 M 61.718,273.806 L 66.018,287.209 M 57.827,275.998 L 62.808,291.524 M 54.242,279.145 L 58.436,292.22 M -149.296,65.623 L -160.235,54.259 M -143.843,64.979 L -157.452,50.842 M -143.444,59.085 L -152.297,49.888 M -155.396,52.977 L -166.525,50.911 M -137.808,51.794 L -168.053,46.177 M -149.518,45.17 L -164.015,42.477 M 29.362,-9.63 L 23.64,-10.24 M 31.748,-13.775 L 17.26,-15.32 M 34.134,-17.921 L 18.794,-19.556 M 189.65,10.435 L 189.658,26.477 M 185.275,9.822 L 185.285,30.244 M 180.9,10.449 L 180.907,23.89 M -165.185,73.297 L -151.86,62.96 M -161.489,75.966 L -149.441,66.621 M -159.445,79.918 L -147.049,70.302 M -163.288,217.119 L -180.346,209.932 M -163.707,212.195 L -177.718,206.292 M -163.547,207.515 L -176.526,202.047 M -182.686,210.911 L -200.302,206.967 M -184.563,206.008 L -198.075,202.982 M -183.762,201.704 L -199.813,198.109 M -150.559,202.077 L -166.561,206.245 M -155.64,198.88 L -167.371,201.935 M -158.643,195.141 L -172.462,198.74 M -188.022,222.207 L -183.537,210.721 M -183.433,222.483 L -178.789,210.588 M -178.855,222.789 L -174.756,212.287 M -115.393,126.7 L -114.248,137.438 M -119.86,126.074 L -118.351,140.219 M -123.961,128.877 L -123.404,134.092 M -14.122,7.26 L -18.891,-7.115 M -9.28,7.962 L -14.618,-8.129 M -7.869,-1.678 L -9.248,-5.837 M -5.304,-6.9 L 1.847,-23.013 M 0.132,-8.364 L 5.863,-21.278 M 5.033,-8.622 L 6.821,-12.651 M -4.229,-9.322 L -17.658,-9.652 M -2.308,-13.651 L -16.921,-14.01 M -0.387,-17.98 L -18.234,-18.419 M 186.601,51.161 L 183.698,38.229 M 191.804,54.362 L 187.832,36.673 M 195.686,51.679 L 191.608,33.518 M 173.355,59.191 L 183.194,49.772 M 177.898,60.898 L 190.552,48.785 M 178.393,66.481 L 191.671,53.77 M -41.159,182.641 L -43.801,200.947 M -45.262,180.444 L -48.01,199.483 M -50.523,186.265 L -51.149,190.607 M 142.424,222.466 L 157.503,217.355 M 146.209,225.802 L 162.308,220.346 M 144.791,230.902 L 162.296,224.969 M 173.871,217.386 L 157.683,228.643 M 170.1,214.68 L 161.612,220.582 M 163.709,213.795 L 154.76,220.017 M -165.375,233.832 L -176.787,217.49 M -163.053,229.515 L -170.953,218.203 M -159.102,227.532 L -167.66,215.277 M -191.069,226.796 L -201.942,214.123 M -189.145,222.32 L -200.73,208.817 M -186.6,218.567 L -195.662,208.006 M -155.48,203.359 L -158.742,221.59 M -160.142,204.573 L -163.2,221.664 M -165.793,211.316 L -166.583,215.731 M 78.33,289.414 L 66.921,273.762 M 81.91,286.898 L 69.435,269.783 M 84.827,283.473 L 72.007,265.884 M -170.002,138.863 L -174.682,122.63 M -165.406,139.012 L -169.866,123.543 M -162.05,134.86 L -164.949,124.803 M -142.535,210.09 L -153.081,193.871 M -139.43,206.84 L -150.784,189.376 M -135.092,205.485 L -148.488,184.882 M -220.473,209.846 L -197.032,198.732 M -215.742,212.445 L -196.518,203.33 M -214.785,216.833 L -199.906,209.778 M -159.815,27.883 L -168.44,12.905 M -158.573,21.273 L -165.196,9.773 M -154.203,20.094 L -161.606,7.24 M -167.689,110.39 L -165.56,94.546 M -163.36,111.027 L -161.241,95.257 M -159.245,113.254 L -157.456,99.942 M -161.399,96.432 L -169.488,86.364 M -158.752,92.742 L -168.227,80.948 M -157.407,87.431 L -164.7,78.353 M -178.812,150.267 L -163.258,143.315 M -174.531,153.145 L -160.515,146.881 M -174.693,158.01 L -161.64,152.176 M 185.285,29.799 L 203.62,28.217 M 191.636,33.642 L 204.352,32.545 M 192.603,37.95 L 203.359,37.022 M 205.816,77.281 L 190.549,85.526 M 202.501,74.099 L 189.127,81.322 M 200.811,70.04 L 188.644,76.61 M 203.374,68.11 L 185.18,71.007 M 202.148,63.875 L 186.685,66.337 M 200.147,59.764 L 182.47,62.578 M -52.254,213.385 L -64.978,203.943 M -49.268,210.153 L -64.953,198.514 M -45.696,207.356 L -63.526,194.125 M -187.442,143.032 L -172.979,128.538 M -183.692,145.468 L -171.593,133.344 M -180.711,148.675 L -170.208,138.149 M -184.716,154.113 L -193.409,139.829 M -183.125,148.312 L -186.756,142.345 M -178.892,146.852 L -181.233,143.004 M 154.323,240.427 L 160.343,226.793 M 158.849,241.008 L 167.244,221.994 M 162.893,242.681 L 168.885,229.11 M 162.017,250.953 L 147.825,240.119 M 164.225,247.135 L 154.604,239.79 M 163.576,241.135 L 159.999,238.404 M -176.899,116.081 L -182.049,98.939 M -172.757,114.663 L -178.297,96.219 M -168.832,112.522 L -174.127,94.896 M -165.022,125.265 L -181.663,118.643 M -164.325,120.833 L -176.984,115.796 M -163.628,116.402 L -173.403,112.513 M -208.59,232.887 L -209.841,214.489 M -204.438,229.462 L -205.319,216.503 M -200.066,229.262 L -201.023,215.195 M -181.678,231.648 L -192.525,223.665 M -179.004,228.184 L -187.821,221.694 M -174.568,226.016 L -182.526,220.16 M -220.232,209.732 L -233.965,210.602 M -209.561,204.673 L -234.658,206.262 M -218.889,200.879 L -235.029,201.902 M -208.937,227.783 L -224.191,229.856 M -209.235,223.409 L -225.058,225.559 M -209.532,219.034 L -227.757,221.511 M -134.206,123.569 L -138.732,112.565 M -130.77,120.422 L -135.162,109.743 M -124.758,123.536 L -131.826,106.354 M -144.437,232.462 L -161.18,228.312 M -143.996,228.064 L -161.815,223.647 M -143.322,223.724 L -158.453,219.973 M -147.678,216.677 L -156.443,208.742 M -144.583,213.578 L -155.535,203.663 M -143.42,208.728 L -150.721,202.119 M -155.795,239.668 L -171.702,233.242 M -154.359,235.53 L -168.052,229.998 M -150.703,232.288 L -159.54,228.718 M -149.054,222.303 L -150.394,214.218 M -144.429,223.449 L -146.327,211.998 M -139.844,224.359 L -142.094,210.783 M 133.95,240.843 L 159.823,227.97 M 135.985,244.717 L 157.058,234.232 M 140.793,247.212 L 150.675,242.295 M -144.776,245.975 L -144.615,232.418 M -140.418,247.443 L -140.191,228.316 M -136.003,244.104 L -135.834,229.844 M -126.691,237.895 L -109.414,233.35 M -126.031,242.245 L -108.341,237.592 M -123.695,246.155 L -108.293,242.103 M -167.542,81.801 L -171.949,70.479 M -163.71,79.586 L -167.088,70.907 M -159.015,79.585 L -160.671,75.332 M -195.324,121.972 L -190.741,106.592 M -191.06,122.982 L -186.384,107.29 M -186.473,122.912 L -180.684,103.482 M -181.89,137.469 L -186.085,121.61 M -178.313,133.884 L -183.688,113.564 M -174.736,130.299 L -177.367,120.352 M -183.412,131.717 L -202.219,124.263 M -184.803,126.46 L -200.519,120.23 M -185.988,121.284 L -190.071,119.665 M 104.828,283.006 L 89.036,284.723 M 103.953,278.7 L 86.96,280.547 M 103.705,274.327 L 87.801,276.055 M -197.325,121.496 L -201.875,124.399 M -197.195,116.225 L -208.66,123.538 M -190.861,106.995 L -213.655,121.535 M -135.808,251.534 L -130.522,233.271 M -131.281,251.631 L -125.972,233.288 M -126.647,251.355 L -123.844,241.67 M -220.873,209.773 L -234.961,236.026 M -226.012,210.098 L -238.236,232.877 M -234.778,217.18 L -242.595,231.748 M -140.375,243.797 L -155.354,256.432 M -147.379,243.982 L -160.179,254.779 M -144.657,235.962 L -161.072,249.809 M -133.796,252.553 L -149.608,251.585 M -134.816,248.108 L -144.763,247.499 M -135.998,243.652 L -140.37,243.384 M -203.158,101.694 L -186.502,100.004 M -202.043,105.979 L -186.556,104.407 M -200.561,110.226 L -191.551,109.311 M 105.002,277.085 L 103.552,260.219 M 109.458,277.84 L 107.778,258.3 M 113.601,274.955 L 112.269,259.465 M 102.286,274.481 L 80.511,277.551 M 94.911,271.102 L 81.064,273.055 M 93.889,266.828 L 82.31,268.461 M -91.96,245.628 L -102.209,236.383 M -89.761,241.721 L -99.845,232.624 M -85.559,239.619 L -98.852,227.627 M -238.38,223.892 L -240.816,206.036 M -234.859,217.331 L -236.258,207.08 M -230.332,218.148 L -231.384,210.438 M -221.314,220.635 L -226.027,210.099 M -216.796,220.021 L -221.366,209.804 M -213.666,216.303 L -215.453,212.308 M -241.266,213.235 L -249.997,199.594 M -238.082,210.094 L -246.305,197.247 M -233.603,208.977 L -241.202,197.104 M -247.842,224.637 L -263.345,215.804 M -245.715,220.813 L -261.405,211.874 M -244.205,216.638 L -259.334,208.019 M -107.78,247.305 L -116.355,264.854 M -112.722,247.454 L -120.175,262.707 M -115.963,244.121 L -124.054,260.681 M -158.515,68.123 L -174.709,54.943 M -154.967,65.37 L -169.633,53.433 M -154.98,59.719 L -165.588,51.084 M -39.722,204.753 L -48.696,221.763 M -45.944,207.172 L -51.182,217.1 M -51.565,208.449 L -53.63,212.364 M -55.309,228.949 L -64.105,213.207 M -53,224.113 L -60.604,210.504 M -49.242,221.869 L -55.207,211.194 M 127.508,273.223 L 113.25,270.876 M 129.427,269.106 L 114.834,266.703 M 132.011,265.097 L 112.477,261.881 M -259.632,212.884 L -269.571,216.536 M -259.233,208.076 L -272.165,212.828 M -258.85,203.275 L -273.739,208.746 M -78.544,240.038 L -88.748,253.578 M -82.321,237.78 L -91.85,250.425 M -90.361,241.179 L -93.004,244.687 M -108.948,249.695 L -97.118,248.889 M -111.164,254.231 L -88.053,252.656 M -113.381,258.768 L -93.27,257.396 M -110.754,242.75 L -110.082,238.05 M -106.891,246.641 L -104.926,232.899 M -102.848,249.279 L -101.142,237.345 M -83.093,238.804 L -70.784,236.207 M -80.585,242.746 L -67.738,240.035 M -84.592,248.063 L -69.169,244.808 M -78.633,261.103 L -94.689,257.493 M -78.154,256.726 L -94.351,253.085 M -78.1,252.254 L -86.352,250.399 M -123.069,258.664 L -133.514,258.225 M -120.972,254.374 L -134.513,253.804 M -118.876,250.083 L -126.19,249.775 M -238.876,220.257 L -240.461,227.77 M -241.717,212.531 L -245.76,231.694 M -247.697,219.684 L -248.646,224.178 M -59.948,247.339 L -67.67,231.485 M -56.748,243.916 L -62.951,231.181 M -51.061,245.602 L -58.94,229.427 M -74.886,248.026 L -62.094,242.932 M -69.954,250.771 L -60.173,246.876 M -69.837,255.433 L -54.515,249.332 M 161.573,269.429 L 146.711,257.291 M 164.027,265.784 L 149.745,254.12 M 165.289,261.166 L 152.157,250.441 M 117.82,282.17 L 100.658,285.979 M 118.232,277.597 L 100.428,281.549 M 109.223,275.115 L 104.915,276.071 M -52.326,228.129 L -49.646,221.146 M -48.826,231.217 L -43.175,216.498 M -45.41,234.526 L -39.571,219.318 M -208.917,118.512 L -207.299,96.524 M -204.314,115.576 L -203.101,99.097 M -199.526,110.121 L -199.2,105.69 M 151.74,278.186 L 137.964,270.432 M 153.582,274.203 L 139.239,266.129 M 156.728,270.953 L 141.242,262.236 M 165.037,268.84 L 161.252,288.06 M 160.662,268.417 L 157.629,283.816 M 155.805,270.433 L 153.177,283.777 M 143.763,291.067 L 132.835,278.621 M 147.92,289.171 L 134.613,274.016 M 151.3,286.39 L 138.098,271.353 M -276.805,210.934 L -280.131,196.58 M -272.893,208.435 L -275.968,195.164 M -268.755,206.914 L -271.116,196.722 M -145.651,216.076 L -135.869,232.778 M -146.738,222.877 L -140.258,233.941 M -149.581,226.68 L -146.493,231.952 M -147.335,231.744 L -146.714,237.697 M -151.72,231.877 L -150.757,241.107 M -155.798,234.948 L -154.8,244.518 M 154.275,252.172 L 150.686,254.889 M 155.355,245.867 L 141.239,256.553 M 151.746,243.112 L 139.203,252.607 M -276.899,210.529 L -280.673,226.237 M -280.95,208.663 L -284.956,225.337 M -285.133,207.345 L -288.941,223.194 M -285.864,210.387 L -295.245,215.44 M -278.947,201.693 L -296.417,211.102 M -284.737,199.842 L -299.478,207.781 M -263.783,227.677 L -279.662,222.031 M -264.92,222.629 L -278.635,217.754 M -269.289,216.433 L -277.607,213.476 M 132.136,275.613 L 120.845,287.989 M 129.671,271.823 L 119.462,283.013 M 123.129,272.503 L 113.418,283.147 M -298.677,217.623 L -309.667,205.778 M -294.904,215.256 L -306.78,202.457 M -297.074,206.486 L -303.061,200.033 M 135.67,275.219 L 128.443,273.169 M 138.105,271.362 L 122.428,266.916 M 142.846,268.159 L 124.44,262.939 M -57.492,232.399 L -47.702,228.289 M -55.573,236.339 L -44.286,231.6 M -53.654,240.278 L -39.565,234.363 M -212.172,120.589 L -219.824,117.708 M -208.819,117.176 L -220.548,112.761 M -208.484,112.627 L -218.636,108.806 M -208.296,110.07 L -217.788,109.125 M -207.975,105.705 L -223.525,104.157 M -207.653,101.341 L -222.928,99.82 M -152.511,113.295 L -148.898,104.943 M -148.317,114.618 L -143.941,104.505 M -144.122,115.942 L -138.79,103.616 M -288.113,219.749 L -298.532,227.419 M -289.724,215.503 L -303.462,225.615 M -295.661,214.441 L -299.207,217.051 M -44.061,246.142 L -46.719,260.395 M -48.352,245.287 L -51.068,259.85 M -52.363,242.929 L -55.847,261.614 M -66.859,249.538 L -75.106,261.29 M -69.69,245.957 L -80.09,260.775 M -75.109,246.062 L -79.27,251.991 M -220.88,118.228 L -236.514,121.117 M -221.138,113.827 L -238.018,116.946 M -219.125,109.006 L -237.429,112.388 M 160.588,249.862 L 163.97,246.94 M 159.587,256.509 L 171.499,246.216 M 163.027,259.319 L 174.522,249.386 M -312.232,225.964 L -322.209,208.731 M -309.726,221.561 L -317.413,208.283 M -304.817,221.309 L -313.867,205.675 M -296.763,118.324 L -304.246,133.413 M -300.601,116.216 L -307.876,130.886 M -305.058,115.355 L -311.497,128.34 M -322.282,201.644 L -308.254,196.724 M -324.302,206.988 L -305.35,200.342 M -316.968,209.052 L -312.766,207.579 M -318.888,138.628 L -329.438,152.181 M -324.038,138.121 L -333.569,150.365 M -327.187,135.045 L -337.13,147.817 M 195.239,60.545 L 188.08,57.208 M 201.354,58.569 L 191.743,54.088 M 195.54,51.031 L 190.532,48.696 M -333.625,184.443 L -338.284,165.99 M -328.984,184.956 L -334.016,165.022 M -325.108,182.436 L -329.393,165.459 M -321.085,193.561 L -334.401,188.037 M -320.07,189.245 L -333.857,183.526 M -317.068,185.754 L -325.112,182.417 M -320.368,176.009 L -328.371,169.509 M -316.09,173.847 L -329.632,162.847 M -316.207,168.116 L -328.223,158.356 M -251.716,112.779 L -243.943,97.052 M -247.727,114.581 L -240.904,100.777 M -244.62,118.17 L -235.895,100.515 M -263.862,130.67 L -265.066,116.842 M -259.21,133.661 L -260.822,115.137 M -255.193,129.353 L -256.404,115.45 M -344.014,162.413 L -332.768,150.115 M -340.265,164.796 L -328.97,152.445 M -337.666,168.437 L -324.548,154.093 M -286.049,127.606 L -286.943,111.282 M -281.731,126.448 L -282.636,109.916 M -277.252,128.22 L -278.214,110.666 M -297.458,119.726 L -304.678,109.62 M -290.945,121.316 L -301.501,106.542 M -288.704,116.928 L -298.516,103.193 M -342.137,171.395 L -342.807,186.393 M -346.443,169.743 L -347.164,185.889 M -350.856,170.511 L -351.523,185.444 M -338.557,200.065 L -347.061,183.602 M -334.95,197.516 L -341.097,185.617 M -329.968,197.627 L -337.963,182.15 M -324.94,119.324 L -321.2,103.325 M -320.975,121.582 L -316.779,103.631 M -316.83,123.073 L -312.41,104.162 M -313.409,108.436 L -301.016,107.22 M -314.461,112.935 L -303.106,111.821 M -315.512,117.435 L -305.607,116.463 M -338.69,156.591 L -351.518,162.775 M -332.199,148.605 L -350.625,157.488 M -335.022,145.109 L -352.262,153.42 M -351.149,177.063 L -367.577,172.454 M -350.949,172.576 L -365.873,168.388 M -347.892,168.889 L -365.329,163.997 M -241.179,120.977 L -256.013,119.938 M -243.751,116.411 L -256.397,115.525 M -246.373,111.842 L -251.09,111.511 M -255.127,115.614 L -267.471,103.291 M -254.48,110.078 L -265.74,98.837 M -249.69,108.679 L -262.214,96.175 M -355.485,201.081 L -354.334,182.734 M -351.12,201.373 L -350.022,183.865 M -346.837,202.989 L -345.777,186.088 M -327.29,210.517 L -340.574,201.556 M -325.576,206.397 L -340.481,196.341 M -323.859,202.277 L -337.107,193.34 M -333.454,219.049 L -347.231,210.009 M -331.676,214.982 L -345.64,205.82 M -329.12,211.427 L -346.645,199.928 M -311.16,127.661 L -324.379,127.045 M -309.037,123.38 L -316.817,123.018 M -306.914,119.099 L -315.805,118.685 M -327.865,129.429 L -337.322,113.789 M -324.189,127.054 L -333.188,112.171 M -324.608,117.905 L -329.784,109.344 M -346.027,111.867 L -335.153,96.837 M -342.841,114.927 L -332.652,100.845 M -337.001,114.319 L -327.901,101.742 M -276.313,116.087 L -281.956,99.338 M -272.35,114.146 L -276.491,101.855 M -268.207,112.741 L -273.697,96.444 M -299.017,217.256 L -308.836,235.615 M -305.508,220.115 L -311.826,231.929 M -310.514,220.199 L -312.942,224.738 M -236.239,101.212 L -226.323,99.629 M -238.616,106.022 L -223.552,103.617 M -240.994,110.832 L -222.79,107.925 M -348.283,140.605 L -331.109,134.76 M -345.023,144.117 L -330.366,139.128 M -347.136,149.458 L -336.611,145.875 M -350.28,152.465 L -356.387,138.124 M -346.847,149.359 L -351.601,138.197 M -344.413,143.909 L -346.132,139.873 M -358.119,175.108 L -379.257,167.434 M -361.809,169.114 L -376.85,163.653 M -355.441,166.771 L -375.49,159.493 M -356.329,164.024 L -370.826,156.443 M -356.036,159.24 L -371.106,151.359 M -351.92,156.455 L -366.273,148.949 M -364.622,145.742 L -375.719,134.466 M -360.018,144.183 L -373.06,130.93 M -359.117,138.861 L -371.026,126.76 M -157.469,252.493 L -172.742,251.165 M -158.901,247.977 L -174.453,246.625 M -154.86,243.937 L -174.298,242.247 M -368.502,188.261 L -359.657,174.676 M -365.855,192.214 L -355.243,175.915 M -361.823,194.039 L -351.177,177.687 M -363.196,203.522 L -376.738,190.41 M -362.004,198.587 L -372.334,188.585 M -361.277,193.201 L -364.479,190.1 M -344.016,139.153 L -347.049,124.756 M -339.844,137.733 L -342.458,125.326 M -335.673,136.313 L -338.398,123.371 M -317.463,204.59 L -321.381,210.161 M -320.234,200.925 L -328.683,212.936 M -325.673,201.053 L -328.191,204.633 M -351.489,149.626 L -365.663,149.268 M -353.373,145.202 L -365.453,144.897 M -355.257,140.778 L -363.575,140.568 M -368.025,187.528 L -380.702,184.283 M -365.504,183.657 L -380.191,179.898 M -362.984,179.786 L -379.608,175.531 M -294.981,108.141 L -281.484,100.737 M -292.42,111.726 L -280.065,104.949 M -286.814,113.641 L -282.56,111.307 M -261.034,109.717 L -271.066,126.179 M -267.655,112.174 L -274.872,124.017 M -272.93,112.424 L -277.689,120.234 M -369.641,156.681 L -382.499,149.039 M -362.178,156.028 L -380.198,145.317 M -364.958,149.286 L -379.662,140.547 M -245.637,122.564 L -226.083,118.048 M -244.595,126.814 L -225.375,122.375 M -243.245,130.992 L -227.254,127.299 M 159.343,122.04 L 151.237,123.55 M 162.015,117.092 L 145.525,120.163 M 170.488,111.064 L 145.663,115.687 M -337.712,126.631 L -353.135,112.7 M -336.864,121.501 L -350.856,108.863 M -335.452,116.88 L -340.776,112.072 M -334.118,218.613 L -319.566,213.297 M -334.97,223.581 L -317.34,217.142 M -330.312,226.538 L -315.114,220.987 M -335.148,233.06 L -346.257,219.367 M -330.676,231.628 L -343.093,216.323 M -332.347,222.623 L -337.289,216.532" fill="#CCCECE" stroke="#222022" stroke-width="1"/>
      </g>
      <g>
        <path d=" M 0,0"/>
        <path d=" M 61.714,66.763 L 62.434,75 L 61.714,83.237 L 59.574,91.223 L 56.079,98.717 L 51.337,105.49 L 45.49,111.337 L 38.717,116.079 L 31.223,119.574 L 23.237,121.714 L 15,122.434 L 6.763,121.714 L -1.223,119.574 L -8.717,116.079 L -15.49,111.337 L -21.337,105.49 L -26.079,98.717 L -29.574,91.223 L -31.714,83.237 L -32.434,75 L -31.714,66.763 L -29.574,58.777 L -26.079,51.283 L -21.337,44.51 L -15.49,38.663 L -8.717,33.921 L -1.223,30.426 L 6.763,28.286 L 15,27.566 L 23.237,28.286 L 31.223,30.426 L 38.717,33.921 L 45.49,38.663 L 51.337,44.51 L 56.079,51.283 L 59.574,58.777 L 61.714,66.763 M -150,120 L -150,30 L -60,30 L -60,120 L -150,120 M 90,120 L 90,30 L 180,30 L 180,120 L 90,120 M -150,240 L -150,150 L -60,150 L -60,240 L -150,240 M 60,270 L 60,150 L 150,150 L 150,270 L 60,270 M -330,210 L -330,120 L -180,120 L -180,210 L -330,210 M 0,30 L 0,0 L 30,0 L 30,30 L 0,30 M -37.5,60 L -30,60 L -30,90 L -37.5,90 L -37.5,84 L -52.5,84 L -52.5,90 L -60,90 L -60,60 L -52.5,60 L -52.5,66 L -37.5,66 L -37.5,60 M 67.5,90 L 60,90 L 60,60 L 67.5,60 L 67.5,66 L 82.5,66 L 82.5,60 L 90,60 L 90,90 L 82.5,90 L 82.5,84 L 67.5,84 L 67.5,90 M -120,127.5 L -120,120 L -90,120 L -90,127.5 L -96,127.5 L -96,142.5 L -90,142.5 L -90,150 L -120,150 L -120,142.5 L -114,142.5 L -114,127.5 L -120,127.5 M 90,150 L 90,135 L 120,135 L 120,150 L 90,150 M -157.5,150 L -150,150 L -150,180 L -157.5,180 L -157.5,174 L -172.5,174 L -172.5,180 L -180,180 L -180,150 L -172.5,150 L -172.5,156 L -157.5,156 L -157.5,150 M -360,180 L -360,150 L -330,150 L -330,180 L -360,180" stroke="#222022" stroke-width="6"/>
        <path d=" M 61.714,66.763 L 62.434,75 L 61.714,83.237 L 59.574,91.223 L 56.079,98.717 L 51.337,105.49 L 45.49,111.337 L 38.717,116.079 L 31.223,119.574 L 23.237,121.714 L 15,122.434 L 6.763,121.714 L -1.223,119.574 L -8.717,116.079 L -15.49,111.337 L -21.337,105.49 L -26.079,98.717 L -29.574,91.223 L -31.714,83.237 L -32.434,75 L -31.714,66.763 L -29.574,58.777 L -26.079,51.283 L -21.337,44.51 L -15.49,38.663 L -8.717,33.921 L -1.223,30.426 L 6.763,28.286 L 15,27.566 L 23.237,28.286 L 31.223,30.426 L 38.717,33.921 L 45.49,38.663 L 51.337,44.51 L 56.079,51.283 L 59.574,58.777 L 61.714,66.763" fill="#F8F8F4"/>
        <path d=" M -150,120 L -150,30 L -60,30 L -60,120 L -150,120" fill="#F8F8F4"/>
        <path d=" M 90,120 L 90,30 L 180,30 L 180,120 L 90,120" fill="#F8F8F4"/>
        <path d=" M -150,240 L -150,150 L -60,150 L -60,240 L -150,240" fill="#F8F8F4"/>
        <path d=" M 60,270 L 60,150 L 150,150 L 150,270 L 60,270" fill="#F8F8F4"/>
        <path d=" M -330,210 L -330,120 L -180,120 L -180,210 L -330,210" fill="#F8F8F4"/>
        <path d=" M 0,30 L 0,0 L 30,0 L 30,30 L 0,30" fill="#F8F8F4"/>
        <path d=" M -37.5,60 L -30,60 L -30,90 L -37.5,90 L -37.5,84 L -52.5,84 L -52.5,90 L -60,90 L -60,60 L -52.5,60 L -52.5,66 L -37.5,66 L -37.5,60" fill="#F8F8F4"/>
        <path d=" M 67.5,90 L 60,90 L 60,60 L 67.5,60 L 67.5,66 L 82.5,66 L 82.5,60 L 90,60 L 90,90 L 82.5,90 L 82.5,84 L 67.5,84 L 67.5,90" fill="#F8F8F4"/>
        <path d=" M -120,127.5 L -120,120 L -90,120 L -90,127.5 L -96,127.5 L -96,142.5 L -90,142.5 L -90,150 L -120,150 L -120,142.5 L -114,142.5 L -114,127.5 L -120,127.5" fill="#F8F8F4"/>
        <path d=" M 90,150 L 90,135 L 120,135 L 120,150 L 90,150" fill="#F8F8F4"/>
        <path d=" M -157.5,150 L -150,150 L -150,180 L -157.5,180 L -157.5,174 L -172.5,174 L -172.5,180 L -180,180 L -180,150 L -172.5,150 L -172.5,156 L -157.5,156 L -157.5,150" fill="#F8F8F4"/>
        <path d=" M -360,180 L -360,150 L -330,150 L -330,180 L -360,180" fill="#F8F8F4"/>
        <path d=" M 30,30 L 0,30 M -60,90 L -60,60 M -30,90 L -30,60 M 90,60 L 90,90 M 60,60 L 60,90 M -90,150 L -120,150 M -90,120 L -120,120 M 120,150 L 90,150 M -180,180 L -180,150 M -150,180 L -150,150 M -330,180 L -330,150" stroke="#F8F8F4" stroke-width="1" stroke-linejoin="round" stroke-linecap="butt"/>
      </g>
      <g>
        <path d=" M 0,0"/>
        <path d=" M -151.5,59.908 L -151.5,62.416 L -150.472,62.346 L -146.391,65.886 L -142.469,62.228 L -138.279,64.469 L -133.598,62.263 L -128.826,63.527 L -128.826,63.527 L -133.62,61.76 L -138.202,63.411 L -142.614,60.485 L -146.325,63.34 L -149.528,59.978 L -151.5,59.908" fill="#222022"/>
        <path d=" M 151.5,225.509 L 151.5,225.418 L 149.987,225.413 L 149.203,225.891 L 149.203,225.891 L 150.013,225.513 L 151.5,225.509" fill="#222022"/>
        <path d=" M -240.386,118.5 L -241.026,118.5 L -240.965,119.994 L -240.995,123.245 L -238.728,125.584 L -238.728,125.584 L -240.731,123.151 L -240.446,120.006 L -240.386,118.5" fill="#222022"/>
      </g>
      <g clip-path="url(#instance17)">
        <path d=" M 0,0"/>
        <path d=" M -127.785,33.372 L -125.614,32.848 L -123.261,32.232 L -120.726,31.526 L -118.497,31.244 L -116.572,31.388 L -114.952,31.957 L -113.638,32.952 L -112.628,34.372 L -111.924,36.217 L -111.525,38.487 L -111.43,41.183 L -111.645,43.555 L -112.17,45.603 L -113.003,47.327 L -114.147,48.727 L -115.599,49.803 L -117.361,50.556 L -119.432,50.984 L -121.813,51.088 L -124.041,51.197 L -126.116,51.311 L -128.04,51.43 L -129.81,51.553 L -131.429,51.681 L -132.894,51.814 L -134.208,51.951 L -135.369,52.094 L -136.588,52.08 L -137.866,51.909 L -139.202,51.582 L -140.597,51.098 L -142.05,50.458 L -143.562,49.661 L -145.132,48.708 L -146.761,47.598 L -148.003,46.484 L -148.859,45.364 L -149.329,44.24 L -149.413,43.111 L -149.111,41.977 L -148.422,40.838 L -147.347,39.694 L -145.886,38.546 L -144.473,37.544 L -143.107,36.688 L -141.789,35.978 L -140.519,35.415 L -139.296,34.999 L -138.12,34.728 L -136.993,34.604 L -135.913,34.627 L -134.651,34.558 L -133.207,34.399 L -131.581,34.148 L -129.774,33.806 L -127.785,33.372" fill="#CCCECE" stroke="#222022" stroke-width="1.5"/>
        <path d=" M -126.031,38.372 L -124.217,37.642 L -124.217,37.642 L -122.274,36.796 L -120.579,36.259 L -119.13,36.031 L -117.929,36.111 L -116.975,36.5 L -116.267,37.198 L -115.807,38.204 L -115.594,39.519 L -115.628,41.142 L -115.89,42.541 L -115.923,42.621 M -123.645,46.101 L -124.08,46.061 L -125.809,45.936 L -127.413,45.854 L -128.894,45.816 L -130.251,45.822 L -131.485,45.873 L -132.596,45.967 L -133.582,46.105 L -134.445,46.286 L -135.341,46.388 L -136.27,46.411 L -136.572,46.393 M -134.979,40.282 L -134.221,40.343 L -133.177,40.302 L -132.005,40.146 L -130.704,39.875 L -129.275,39.489 L -127.717,38.988 M -126.449,43.897 L -125.173,43.051 L -125.173,43.051 L -123.822,42.067 L -122.661,41.274 L -121.839,40.767 M -134.35,45.698 L -134.011,45.783 L -133.282,45.934 L -132.53,46.059 L -131.704,46.045 L -130.803,45.893 L -129.827,45.602 L -128.776,45.172 L -127.65,44.604" stroke="#222022" stroke-width="1.5"/>
        <clipPath id="instance17" fill="#FFFFFF">
          <path d=" M 0,0"/>
          <path d=" M 61.714,66.763 L 62.434,75 L 61.714,83.237 L 59.574,91.223 L 56.079,98.717 L 51.337,105.49 L 45.49,111.337 L 38.717,116.079 L 31.223,119.574 L 23.237,121.714 L 15,122.434 L 6.763,121.714 L -1.223,119.574 L -8.717,116.079 L -15.49,111.337 L -21.337,105.49 L -26.079,98.717 L -29.574,91.223 L -31.714,83.237 L -32.434,75 L -31.714,66.763 L -29.574,58.777 L -26.079,51.283 L -21.337,44.51 L -15.49,38.663 L -8.717,33.921 L -1.223,30.426 L 6.763,28.286 L 15,27.566 L 23.237,28.286 L 31.223,30.426 L 38.717,33.921 L 45.49,38.663 L 51.337,44.51 L 56.079,51.283 L 59.574,58.777 L 61.714,66.763" fill="#FF0000"/>
          <path d=" M -150,120 L -150,30 L -60,30 L -60,120 L -150,120" fill="#FF0000"/>
          <path d=" M 90,120 L 90,30 L 180,30 L 180,120 L 90,120" fill="#FF0000"/>
          <path d=" M -150,240 L -150,150 L -60,150 L -60,240 L -150,240" fill="#FF0000"/>
          <path d=" M 60,270 L 60,150 L 150,150 L 150,270 L 60,270" fill="#FF0000"/>
          <path d=" M -330,210 L -330,120 L -180,120 L -180,210 L -330,210" fill="#FF0000"/>
          <path d=" M 0,30 L 0,0 L 30,0 L 30,30 L 0,30" fill="#FF0000"/>
          <path d=" M -37.5,60 L -30,60 L -30,90 L -37.5,90 L -37.5,84 L -52.5,84 L -52.5,90 L -60,90 L -60,60 L -52.5,60 L -52.5,66 L -37.5,66 L -37.5,60" fill="#FF0000"/>
          <path d=" M 67.5,90 L 60,90 L 60,60 L 67.5,60 L 67.5,66 L 82.5,66 L 82.5,60 L 90,60 L 90,90 L 82.5,90 L 82.5,84 L 67.5,84 L 67.5,90" fill="#FF0000"/>
          <path d=" M -120,127.5 L -120,120 L -90,120 L -90,127.5 L -96,127.5 L -96,142.5 L -90,142.5 L -90,150 L -120,150 L -120,142.5 L -114,142.5 L -114,127.5 L -120,127.5" fill="#FF0000"/>
          <path d=" M 90,150 L 90,135 L 120,135 L 120,150 L 90,150" fill="#FF0000"/>
          <path d=" M -157.5,150 L -150,150 L -150,180 L -157.5,180 L -157.5,174 L -172.5,174 L -172.5,180 L -180,180 L -180,150 L -172.5,150 L -172.5,156 L -157.5,156 L -157.5,150" fill="#FF0000"/>
          <path d=" M -360,180 L -360,150 L -330,150 L -330,180 L -360,180" fill="#FF0000"/>
        </clipPath>
      </g>
      <g>
        <path d=" M 0,0"/>
        <path d=" M -133.047,31.594 L -132.859,31.781 L -135.138,32.063 L -139.883,32.438 L -143.535,33.728 L -146.095,35.933 L -147.562,39.053 L -147.937,43.088 L -148.219,45.012 L -148.406,44.824 L -148.5,41.423 L -148.5,31.5 L -136.98,31.5 L -133.047,31.594 M -61.594,41.418 L -61.781,41.605 L -62.062,40.249 L -62.437,37.35 L -63.402,35.081 L -64.957,33.444 L -67.102,32.438 L -69.837,32.063 L -71.111,31.781 L -70.924,31.594 L -68.497,31.5 L -61.5,31.5 L -61.5,38.868 L -61.594,41.418 M -148.406,109.59 L -148.219,109.402 L -147.937,110.59 L -147.562,113.154 L -146.328,115.171 L -144.234,116.64 L -141.281,117.563 L -137.469,117.938 L -135.657,118.219 L -135.844,118.406 L -139.078,118.5 L -148.5,118.5 L -148.5,111.888 L -148.406,109.59 M -77.86,118.406 L -78.047,118.219 L -75.618,117.938 L -70.571,117.563 L -66.692,116.398 L -63.981,114.443 L -62.437,111.699 L -62.062,108.166 L -61.781,106.493 L -61.594,106.68 L -61.5,109.705 L -61.5,118.5 L -73.7,118.5 L -77.86,118.406" fill="#222022"/>
        <path d=" M 97.848,31.594 L 98.036,31.781 L 97.274,32.063 L 95.565,32.438 L 94.189,33.402 L 93.146,34.955 L 92.438,37.098 L 92.063,39.829 L 91.781,41.101 L 91.594,40.914 L 91.5,38.49 L 91.5,31.5 L 96.191,31.5 L 97.848,31.594 M 178.406,44.036 L 178.219,44.223 L 177.938,42.431 L 177.563,38.659 L 176.303,35.736 L 174.158,33.662 L 171.129,32.438 L 167.214,32.063 L 165.351,31.781 L 165.539,31.594 L 168.849,31.5 L 178.5,31.5 L 178.5,40.832 L 178.406,44.036 M 167.88,118.406 L 167.693,118.219 L 169.166,117.938 L 172.299,117.563 L 174.743,116.388 L 176.498,114.413 L 177.563,111.638 L 177.938,108.064 L 178.219,106.371 L 178.406,106.558 L 178.5,109.614 L 178.5,118.5 L 170.605,118.5 L 167.88,118.406" fill="#222022"/>
        <path d=" M -61.594,158.469 L -61.781,158.657 L -62.062,157.792 L -62.437,155.875 L -63.493,154.344 L -65.229,153.198 L -67.645,152.438 L -70.742,152.063 L -72.196,151.781 L -72.009,151.594 L -69.311,151.5 L -61.5,151.5 L -61.5,156.656 L -61.594,158.469 M -148.406,226.757 L -148.219,226.57 L -147.937,228.23 L -147.562,231.738 L -146.166,234.463 L -143.748,236.404 L -140.308,237.563 L -135.846,237.938 L -133.709,238.219 L -133.897,238.406 L -137.618,238.5 L -148.5,238.5 L -148.5,229.763 L -148.406,226.757 M -68.061,238.406 L -68.249,238.219 L -67.452,237.938 L -65.671,237.563 L -64.242,236.533 L -63.164,234.849 L -62.437,232.511 L -62.062,229.518 L -61.781,228.116 L -61.594,228.303 L -61.5,230.923 L -61.5,238.5 L -66.35,238.5 L -68.061,238.406" fill="#222022"/>
        <path d=" M 65.544,151.594 L 65.731,151.781 L 65.354,152.063 L 64.412,152.438 L 63.612,153.754 L 62.954,156.013 L 62.438,159.213 L 62.063,163.354 L 61.781,165.332 L 61.594,165.144 L 61.5,161.663 L 61.5,151.5 L 64.462,151.5 L 65.544,151.594 M 148.406,165.059 L 148.219,165.246 L 147.938,163.283 L 147.563,159.17 L 146.347,155.991 L 144.29,153.747 L 141.393,152.438 L 137.655,152.063 L 135.879,151.781 L 136.067,151.594 L 139.245,151.5 L 148.5,151.5 L 148.5,161.599 L 148.406,165.059 M 61.594,259.899 L 61.781,259.711 L 62.063,260.848 L 62.438,263.309 L 63.688,265.248 L 65.815,266.666 L 68.818,267.563 L 72.697,267.938 L 74.543,268.219 L 74.356,268.406 L 71.071,268.5 L 61.5,268.5 L 61.5,262.12 L 61.594,259.899 M 135.86,268.406 L 135.673,268.219 L 137.483,267.938 L 141.29,267.563 L 144.239,266.41 L 146.33,264.479 L 147.563,261.771 L 147.938,258.284 L 148.219,256.635 L 148.406,256.822 L 148.5,259.812 L 148.5,268.5 L 139.091,268.5 L 135.86,268.406" fill="#222022"/>
        <path d=" M -317.217,121.594 L -317.029,121.781 L -318.613,122.063 L -321.968,122.438 L -324.578,123.069 L -326.443,123.957 L -327.562,125.101 L -327.937,126.501 L -328.219,127.108 L -328.406,126.92 L -328.5,125.495 L -328.5,121.5 L -320.108,121.5 L -317.217,121.594 M -181.594,130.554 L -181.781,130.741 L -182.062,129.529 L -182.437,126.917 L -183.713,124.865 L -185.889,123.372 L -188.965,122.438 L -192.942,122.063 L -194.836,121.781 L -194.649,121.594 L -191.291,121.5 L -181.5,121.5 L -181.5,128.22 L -181.594,130.554 M -328.406,195.291 L -328.219,195.103 L -327.937,197.008 L -327.562,201.005 L -326.552,204.096 L -324.906,206.282 L -322.625,207.563 L -319.708,207.938 L -318.344,208.219 L -318.531,208.406 L -321.094,208.5 L -328.5,208.5 L -328.5,198.663 L -328.406,195.291 M -186.56,208.406 L -186.747,208.219 L -186.201,207.938 L -184.921,207.563 L -183.867,206.025 L -183.039,203.325 L -182.437,199.462 L -182.062,194.437 L -181.781,192.019 L -181.594,192.206 L -181.5,196.35 L -181.5,208.5 L -185.225,208.5 L -186.56,208.406" fill="#222022"/>
      </g>
      <g>
        <path d=" M 0,0"/>
        <path d=" M 32.884,83.14 L 34.261,82.772 L 36.224,83.23 L 38.775,84.515 L 40.441,85.796 L 41.223,87.074 L 41.119,88.348 L 40.131,89.619 L 38.949,90.439 L 37.573,90.807 L 36.002,90.724 L 34.236,90.189 L 32.963,89.283 L 32.181,88.005 L 31.892,86.356 L 32.094,84.335 L 32.884,83.14" fill="#F8F8F4" stroke="#222022" stroke-width="1.5"/>
        <path d=" M 17.132,104.768 L 17.695,104.161 L 18.801,103.779 L 20.452,103.621 L 21.667,103.735 L 22.447,104.121 L 22.79,104.78 L 22.698,105.71 L 22.371,106.478 L 21.808,107.085 L 21.01,107.53 L 19.978,107.814 L 19.072,107.762 L 18.292,107.376 L 17.64,106.655 L 17.114,105.599 L 17.132,104.768" fill="#F8F8F4" stroke="#222022" stroke-width="1.5"/>
        <path d=" M 43.614,104.049 L 43.758,103.726 L 44.154,103.419 L 44.801,103.128 L 45.308,103.007 L 45.677,103.056 L 45.907,103.275 L 45.997,103.665 L 45.97,104.021 L 45.826,104.344 L 45.564,104.634 L 45.185,104.891 L 44.811,104.995 L 44.443,104.946 L 44.079,104.743 L 43.721,104.388 L 43.614,104.049" fill="#F8F8F4" stroke="#222022" stroke-width="1.5"/>
        <path d=" M -139.337,113.444 L -138.99,113.356 L -138.591,113.525 L -138.141,113.951 L -137.897,114.355 L -137.858,114.736 L -138.024,115.096 L -138.396,115.433 L -138.756,115.646 L -139.104,115.735 L -139.439,115.698 L -139.761,115.538 L -139.942,115.266 L -139.981,114.885 L -139.878,114.392 L -139.633,113.79 L -139.337,113.444" fill="#F8F8F4" stroke="#222022" stroke-width="1.5"/>
        <path d=" M -119.29,49.843 L -118.335,48.977 L -116.784,48.842 L -114.636,49.437 L -113.179,50.308 L -112.413,51.456 L -112.336,52.879 L -112.95,54.578 L -113.735,55.86 L -114.69,56.726 L -115.815,57.175 L -117.111,57.208 L -118.143,56.651 L -118.909,55.504 L -119.411,53.767 L -119.649,51.439 L -119.29,49.843" fill="#F8F8F4" stroke="#222022" stroke-width="1.5"/>
        <path d=" M -125.593,39.182 L -125.278,38.878 L -124.753,38.816 L -124.018,38.995 L -123.515,39.275 L -123.242,39.657 L -123.201,40.139 L -123.392,40.722 L -123.644,41.165 L -123.959,41.469 L -124.337,41.633 L -124.776,41.658 L -125.132,41.48 L -125.404,41.099 L -125.593,40.515 L -125.698,39.727 L -125.593,39.182" fill="#F8F8F4" stroke="#222022" stroke-width="1.5"/>
        <path d=" M -123.69,52.847 L -123.373,54.767 L -123.814,56.662 L -124.947,58.244 L -126.6,59.272 L -128.52,59.59 L -130.415,59.148 L -131.998,58.015 L -133.026,56.363 L -133.343,54.443 L -132.902,52.547 L -131.768,50.965 L -130.116,49.937 L -128.196,49.619 L -126.3,50.061 L -124.718,51.194 L -123.69,52.847" fill="#F8F8F4" stroke="#222022" stroke-width="1.5"/>
        <path d=" M -133.343,54.443 L -123.373,54.767" stroke="#222022" stroke-width="1.5"/>
        <path d=" M -132.594,51.972 L -123.96,52.252" stroke="#222022" stroke-width="1.5"/>
        <path d=" M -132.756,56.957 L -124.122,57.238" stroke="#222022" stroke-width="1.5"/>
        <path d=" M 103.1,114.749 L 102.843,114.51 L 102.681,114.041 L 102.615,113.341 L 102.664,112.826 L 102.828,112.496 L 103.107,112.35 L 103.502,112.39 L 103.827,112.529 L 104.084,112.768 L 104.273,113.106 L 104.392,113.544 L 104.37,113.928 L 104.206,114.258 L 103.9,114.534 L 103.452,114.757 L 103.1,114.749" fill="#F8F8F4" stroke="#222022" stroke-width="1.5"/>
        <path d=" M 111.037,110.653 L 111.108,110.288 L 111.443,109.99 L 112.042,109.757 L 112.529,109.707 L 112.903,109.84 L 113.166,110.156 L 113.317,110.654 L 113.357,111.085 L 113.286,111.45 L 113.103,111.748 L 112.809,111.979 L 112.475,112.028 L 112.1,111.895 L 111.685,111.58 L 111.229,111.084 L 111.037,110.653" fill="#F8F8F4" stroke="#222022" stroke-width="1.5"/>
        <path d=" M -79.087,224.607 L -79.234,224.285 L -79.14,223.868 L -78.805,223.356 L -78.456,223.047 L -78.092,222.942 L -77.713,223.04 L -77.32,223.342 L -77.05,223.654 L -76.902,223.976 L -76.879,224.308 L -76.978,224.65 L -77.209,224.874 L -77.573,224.979 L -78.07,224.966 L -78.699,224.834 L -79.087,224.607" fill="#F8F8F4" stroke="#222022" stroke-width="1.5"/>
        <path d=" M 69.613,167.256 L 69.961,166.516 L 70.838,166.058 L 72.242,165.883 L 73.309,166.039 L 74.038,166.524 L 74.43,167.34 L 74.484,168.485 L 74.337,169.428 L 73.989,170.169 L 73.438,170.707 L 72.686,171.042 L 71.946,170.967 L 71.217,170.482 L 70.499,169.586 L 69.792,168.28 L 69.613,167.256" fill="#F8F8F4" stroke="#222022" stroke-width="1.5"/>
        <path d=" M 145.125,261 L 143.531,261.375 L 142.594,262.125 L 141.938,263.25 L 141.563,264.75 L 140.906,265.875 L 139.969,266.625 L 138.75,267 L 137.25,267 L 136.031,266.625 L 135.094,265.875 L 134.438,264.75 L 134.063,263.25 L 133.406,262.125 L 132.469,261.375 L 131.25,261 L 129.75,261 L 128.531,261.375 L 127.594,262.125 L 126.938,263.25 L 126.563,264.75 L 125.906,265.875 L 124.969,266.625 L 123.75,267 L 122.25,267 L 121.031,266.625 L 120.094,265.875 L 119.438,264.75 L 119.063,263.25 L 118.406,262.125 L 117.469,261.375 L 116.25,261 L 114.75,261 L 113.531,261.375 L 112.594,262.125 L 111.938,263.25 L 111.563,264.75 L 110.906,265.875 L 109.969,266.625 L 108.75,267 L 107.25,267 L 106.031,266.625 L 105.094,265.875 L 104.438,264.75 L 104.063,263.25 L 103.406,262.125 L 102.469,261.375 L 101.25,261 L 99.75,261 L 98.531,261.375 L 97.594,262.125 L 96.938,263.25 L 96.563,264.75 L 95.906,265.875 L 94.969,266.625 L 93.75,267 L 92.25,267 L 91.031,266.625 L 90.094,265.875 L 89.438,264.75 L 89.063,263.25 L 88.406,262.125 L 87.469,261.375 L 86.25,261 L 84.75,261 L 83.531,261.375 L 82.594,262.125 L 81.938,263.25 L 81.563,264.75 L 80.906,265.875 L 79.969,266.625 L 78.75,267 L 77.25,267 L 76.031,266.625 L 75.094,265.875 L 74.438,264.75 L 74.063,263.25 L 73.406,262.125 L 72.469,261.375 L 71.25,261 L 69.75,261 L 68.531,261.375 L 67.594,262.125 L 66.844,263.625" stroke="#222022" stroke-width="1.5"/>
        <path d=" M -200.917,201.659 L -200.475,201.567 L -199.983,201.802 L -199.442,202.362 L -199.157,202.883 L -199.129,203.365 L -199.358,203.808 L -199.845,204.211 L -200.309,204.458 L -200.75,204.55 L -201.169,204.486 L -201.566,204.266 L -201.778,203.915 L -201.806,203.433 L -201.649,202.821 L -201.308,202.077 L -200.917,201.659" fill="#F8F8F4" stroke="#222022" stroke-width="1.5"/>
        <path d=" M -223.961,134.4 L -223.601,132.856 L -222.283,131.438 L -220.008,130.148 L -218.065,129.57 L -216.454,129.705 L -215.176,130.553 L -214.23,132.113 L -213.937,133.665 L -214.297,135.21 L -215.311,136.746 L -216.978,138.274 L -218.616,138.971 L -220.227,138.836 L -221.809,137.869 L -223.364,136.071 L -223.961,134.4" fill="#F8F8F4" stroke="#222022" stroke-width="1.5"/>
        <path d=" M -185.216,197.136 L -184.658,196.695 L -183.799,196.566 L -182.64,196.749 L -181.796,197.089 L -181.269,197.587 L -181.057,198.242 L -181.161,199.054 L -181.492,199.681 L -182.051,200.122 L -182.836,200.378 L -183.848,200.448 L -184.618,200.234 L -185.146,199.737 L -185.431,198.955 L -185.474,197.889 L -185.216,197.136" fill="#F8F8F4" stroke="#222022" stroke-width="1.5"/>
        <path d=" M -330,210 L -330,120 L -321.221,120.865 L -312.779,123.425 L -304.999,127.584 L -298.18,133.18 L -292.584,139.999 L -288.425,147.779 L -285.865,156.221 L -285,165 L -285.865,173.779 L -288.425,182.221 L -292.584,190.001 L -298.18,196.82 L -304.999,202.416 L -312.779,206.575 L -321.221,209.135 L -330,210" fill="#F8F8F4"/>
        <path d=" M -330,120 L -321.221,120.865 L -312.779,123.425 L -304.999,127.584 L -298.18,133.18 L -292.584,139.999 L -288.425,147.779 L -285.865,156.221 L -285,165 L -285.865,173.779 L -288.425,182.221 L -292.584,190.001 L -298.18,196.82 L -304.999,202.416 L -312.779,206.575 L -321.221,209.135 L -330,210" stroke="#222022" stroke-width="1.5"/>
        <path d=" M -330,127.5 L -322.684,128.221 L -315.649,130.355 L -309.166,133.82 L -303.483,138.483 L -298.82,144.166 L -295.355,150.649 L -293.221,157.684 L -292.5,165 L -293.221,172.316 L -295.355,179.351 L -298.82,185.834 L -303.483,191.517 L -309.166,196.18 L -315.649,199.645 L -322.684,201.779 L -330,202.5" stroke="#222022" stroke-width="1.5"/>
      </g>
      <g transform="translate(4.243 4.243)" style="mix-blend-mode: multiply" clip-path="url(#instance21)">
        <path d=" M 0,0"/>
        <path d=" M 61.714,66.763 L 62.434,75 L 61.714,83.237 L 59.574,91.223 L 56.079,98.717 L 51.337,105.49 L 45.49,111.337 L 38.717,116.079 L 31.223,119.574 L 23.237,121.714 L 15,122.434 L 6.763,121.714 L -1.223,119.574 L -8.717,116.079 L -15.49,111.337 L -21.337,105.49 L -26.079,98.717 L -29.574,91.223 L -31.714,83.237 L -32.434,75 L -31.714,66.763 L -29.574,58.777 L -26.079,51.283 L -21.337,44.51 L -15.49,38.663 L -8.717,33.921 L -1.223,30.426 L 6.763,28.286 L 15,27.566 L 23.237,28.286 L 31.223,30.426 L 38.717,33.921 L 45.49,38.663 L 51.337,44.51 L 56.079,51.283 L 59.574,58.777 L 61.714,66.763 M -150,120 L -150,30 L -60,30 L -60,120 L -150,120 M 90,120 L 90,30 L 180,30 L 180,120 L 90,120 M -150,240 L -150,150 L -60,150 L -60,240 L -150,240 M 60,270 L 60,150 L 150,150 L 150,270 L 60,270 M -330,210 L -330,120 L -180,120 L -180,210 L -330,210 M 0,30 L 0,0 L 30,0 L 30,30 L 0,30 M -37.5,60 L -30,60 L -30,90 L -37.5,90 L -37.5,84 L -52.5,84 L -52.5,90 L -60,90 L -60,60 L -52.5,60 L -52.5,66 L -37.5,66 L -37.5,60 M 67.5,90 L 60,90 L 60,60 L 67.5,60 L 67.5,66 L 82.5,66 L 82.5,60 L 90,60 L 90,90 L 82.5,90 L 82.5,84 L 67.5,84 L 67.5,90 M -120,127.5 L -120,120 L -90,120 L -90,127.5 L -96,127.5 L -96,142.5 L -90,142.5 L -90,150 L -120,150 L -120,142.5 L -114,142.5 L -114,127.5 L -120,127.5 M 90,150 L 90,135 L 120,135 L 120,150 L 90,150 M -157.5,150 L -150,150 L -150,180 L -157.5,180 L -157.5,174 L -172.5,174 L -172.5,180 L -180,180 L -180,150 L -172.5,150 L -172.5,156 L -157.5,156 L -157.5,150 M -360,180 L -360,150 L -330,150 L -330,180 L -360,180" stroke="#CCCCCC" stroke-width="13.2"/>
        <path d=" M 61.714,66.763 L 62.434,75 L 61.714,83.237 L 59.574,91.223 L 56.079,98.717 L 51.337,105.49 L 45.49,111.337 L 38.717,116.079 L 31.223,119.574 L 23.237,121.714 L 15,122.434 L 6.763,121.714 L -1.223,119.574 L -8.717,116.079 L -15.49,111.337 L -21.337,105.49 L -26.079,98.717 L -29.574,91.223 L -31.714,83.237 L -32.434,75 L -31.714,66.763 L -29.574,58.777 L -26.079,51.283 L -21.337,44.51 L -15.49,38.663 L -8.717,33.921 L -1.223,30.426 L 6.763,28.286 L 15,27.566 L 23.237,28.286 L 31.223,30.426 L 38.717,33.921 L 45.49,38.663 L 51.337,44.51 L 56.079,51.283 L 59.574,58.777 L 61.714,66.763" fill="#FFFFFF"/>
        <path d=" M -150,120 L -150,30 L -60,30 L -60,120 L -150,120" fill="#FFFFFF"/>
        <path d=" M 90,120 L 90,30 L 180,30 L 180,120 L 90,120" fill="#FFFFFF"/>
        <path d=" M -150,240 L -150,150 L -60,150 L -60,240 L -150,240" fill="#FFFFFF"/>
        <path d=" M 60,270 L 60,150 L 150,150 L 150,270 L 60,270" fill="#FFFFFF"/>
        <path d=" M -330,210 L -330,120 L -180,120 L -180,210 L -330,210" fill="#FFFFFF"/>
        <path d=" M 0,30 L 0,0 L 30,0 L 30,30 L 0,30" fill="#FFFFFF"/>
        <path d=" M -37.5,60 L -30,60 L -30,90 L -37.5,90 L -37.5,84 L -52.5,84 L -52.5,90 L -60,90 L -60,60 L -52.5,60 L -52.5,66 L -37.5,66 L -37.5,60" fill="#FFFFFF"/>
        <path d=" M 67.5,90 L 60,90 L 60,60 L 67.5,60 L 67.5,66 L 82.5,66 L 82.5,60 L 90,60 L 90,90 L 82.5,90 L 82.5,84 L 67.5,84 L 67.5,90" fill="#FFFFFF"/>
        <path d=" M -120,127.5 L -120,120 L -90,120 L -90,127.5 L -96,127.5 L -96,142.5 L -90,142.5 L -90,150 L -120,150 L -120,142.5 L -114,142.5 L -114,127.5 L -120,127.5" fill="#FFFFFF"/>
        <path d=" M 90,150 L 90,135 L 120,135 L 120,150 L 90,150" fill="#FFFFFF"/>
        <path d=" M -157.5,150 L -150,150 L -150,180 L -157.5,180 L -157.5,174 L -172.5,174 L -172.5,180 L -180,180 L -180,150 L -172.5,150 L -172.5,156 L -157.5,156 L -157.5,150" fill="#FFFFFF"/>
        <path d=" M -360,180 L -360,150 L -330,150 L -330,180 L -360,180" fill="#FFFFFF"/>
        <clipPath id="instance21" fill="#FFFFFF" transform="translate(-4.243 -4.243)">
          <path d=" M 0,0"/>
          <path d=" M 61.714,66.763 L 62.434,75 L 61.714,83.237 L 59.574,91.223 L 56.079,98.717 L 51.337,105.49 L 45.49,111.337 L 38.717,116.079 L 31.223,119.574 L 23.237,121.714 L 15,122.434 L 6.763,121.714 L -1.223,119.574 L -8.717,116.079 L -15.49,111.337 L -21.337,105.49 L -26.079,98.717 L -29.574,91.223 L -31.714,83.237 L -32.434,75 L -31.714,66.763 L -29.574,58.777 L -26.079,51.283 L -21.337,44.51 L -15.49,38.663 L -8.717,33.921 L -1.223,30.426 L 6.763,28.286 L 15,27.566 L 23.237,28.286 L 31.223,30.426 L 38.717,33.921 L 45.49,38.663 L 51.337,44.51 L 56.079,51.283 L 59.574,58.777 L 61.714,66.763" fill="#FF0000"/>
          <path d=" M -150,120 L -150,30 L -60,30 L -60,120 L -150,120" fill="#FF0000"/>
          <path d=" M 90,120 L 90,30 L 180,30 L 180,120 L 90,120" fill="#FF0000"/>
          <path d=" M -150,240 L -150,150 L -60,150 L -60,240 L -150,240" fill="#FF0000"/>
          <path d=" M 60,270 L 60,150 L 150,150 L 150,270 L 60,270" fill="#FF0000"/>
          <path d=" M -330,210 L -330,120 L -180,120 L -180,210 L -330,210" fill="#FF0000"/>
          <path d=" M 0,30 L 0,0 L 30,0 L 30,30 L 0,30" fill="#FF0000"/>
          <path d=" M -37.5,60 L -30,60 L -30,90 L -37.5,90 L -37.5,84 L -52.5,84 L -52.5,90 L -60,90 L -60,60 L -52.5,60 L -52.5,66 L -37.5,66 L -37.5,60" fill="#FF0000"/>
          <path d=" M 67.5,90 L 60,90 L 60,60 L 67.5,60 L 67.5,66 L 82.5,66 L 82.5,60 L 90,60 L 90,90 L 82.5,90 L 82.5,84 L 67.5,84 L 67.5,90" fill="#FF0000"/>
          <path d=" M -120,127.5 L -120,120 L -90,120 L -90,127.5 L -96,127.5 L -96,142.5 L -90,142.5 L -90,150 L -120,150 L -120,142.5 L -114,142.5 L -114,127.5 L -120,127.5" fill="#FF0000"/>
          <path d=" M 90,150 L 90,135 L 120,135 L 120,150 L 90,150" fill="#FF0000"/>
          <path d=" M -157.5,150 L -150,150 L -150,180 L -157.5,180 L -157.5,174 L -172.5,174 L -172.5,180 L -180,180 L -180,150 L -172.5,150 L -172.5,156 L -157.5,156 L -157.5,150" fill="#FF0000"/>
          <path d=" M -360,180 L -360,150 L -330,150 L -330,180 L -360,180" fill="#FF0000"/>
        </clipPath>
      </g>
      <g>
        <path d=" M 0,0"/>
        <path d=" M 3,6 L 27,6 M 6,12 L 24,12 M 9,18 L 21,18 M 12,24 L 18,24" stroke="#222022" stroke-width="1.5"/>
        <path d=" M -48.75,64.5 L -41.25,64.5 L -41.25,85.5 L -48.75,85.5 L -48.75,64.5" fill="#F8F8F4" stroke="#222022" stroke-width="3"/>
        <path d=" M 71.25,64.5 L 78.75,64.5 L 78.75,85.5 L 71.25,85.5 L 71.25,64.5" fill="#F8F8F4" stroke="#222022" stroke-width="3"/>
        <path d=" M -115.5,131.25 L -94.5,131.25 L -94.5,138.75 L -115.5,138.75 L -115.5,131.25" fill="#F8F8F4" stroke="#222022" stroke-width="3"/>
        <path d=" M -168.75,154.5 L -161.25,154.5 L -161.25,175.5 L -168.75,175.5 L -168.75,154.5 M -161.25,165 L -168.75,165" fill="#F8F8F4" stroke="#222022" stroke-width="3"/>
        <path d=" M -336,177 L -336,153 M -342,174 L -342,156 M -348,171 L -348,159 M -354,168 L -354,162" stroke="#222022" stroke-width="1.5"/>
      </g>
    </g>
    <text dominant-baseline="text-before-edge" style="font: bold 48px &#039;Grenze&#039;" fill="#222022" transform="translate(326.883 2)">Blightfist Chapel</text>
    <text dominant-baseline="text-before-edge" style="font: italic 24px &#039;Neuton&#039;" fill="#222022" transform="translate(130 76)">
      <tspan x="3" y="2">For many years the chapel was considered lost. Recently a terryfying man-eating wasp </tspan>
      <tspan x="6" y="33">has made its home here. It is said that Ekethteri, a legendary compass, is hidden here.</tspan>
    </text>
    <g transform="translate(431.509 316.496)">
      <path d=" M 0,0"/>
      <path d=" M 90,33 Q 90,35.071 88.536,36.536 Q 87.071,38 85,38 L -85,38 Q -87.071,38 -88.536,36.536 Q -90,35.071 -90,33 L -90,-33 Q -90,-35.071 -88.536,-36.536 Q -87.071,-38 -85,-38 L 85,-38 Q 87.071,-38 88.536,-36.536 Q 90,-35.071 90,-33 L 90,33" fill="#F8F8F4" stroke="#222022" stroke-width="3"/>
      <path d=" M 90,33 Q 90,35.071 88.536,36.536 Q 87.071,38 85,38 L -85,38 Q -87.071,38 -88.536,36.536 Q -90,35.071 -90,33 L -90,-33 Q -90,-35.071 -88.536,-36.536 Q -87.071,-38 -85,-38 L 85,-38 Q 87.071,-38 88.536,-36.536 Q 90,-35.071 90,-33 L 90,33" fill="#F8F8F4"/>
      <text dominant-baseline="text-before-edge" style="font: 20px &#039;Neuton&#039;" fill="#222022" transform="translate(-80 -28)">
        <tspan x="2" y="2">1. A magic tome at </tspan>
        <tspan x="2" y="28">the bottom of a pool.</tspan>
      </text>
      <text dominant-baseline="text-before-edge" style="font: 30px &#039;Neuton&#039;" fill="#222022" transform="translate(5.1 115.88)">1</text>
    </g>
    <g transform="translate(498.381 763.626)">
      <path d=" M 0,0"/>
      <path d=" M 110,46 Q 110,48.071 108.536,49.536 Q 107.071,51 105,51 L -105,51 Q -107.071,51 -108.536,49.536 Q -110,48.071 -110,46 L -110,-46 Q -110,-48.071 -108.536,-49.536 Q -107.071,-51 -105,-51 L 105,-51 Q 107.071,-51 108.536,-49.536 Q 110,-48.071 110,-46 L 110,46" fill="#F8F8F4" stroke="#222022" stroke-width="3"/>
      <path d=" M 110,46 Q 110,48.071 108.536,49.536 Q 107.071,51 105,51 L -105,51 Q -107.071,51 -108.536,49.536 Q -110,48.071 -110,46 L -110,-46 Q -110,-48.071 -108.536,-49.536 Q -107.071,-51 -105,-51 L 105,-51 Q 107.071,-51 108.536,-49.536 Q 110,-48.071 110,-46 L 110,46" fill="#F8F8F4"/>
      <text dominant-baseline="text-before-edge" style="font: 20px &#039;Neuton&#039;" fill="#222022" transform="translate(-100 -41)">
        <tspan x="2" y="2">2. A mouth-shaped double </tspan>
        <tspan x="2" y="28">door on the western wall </tspan>
        <tspan x="2" y="54">of the small chamber.</tspan>
      </text>
      <text dominant-baseline="text-before-edge" style="font: 30px &#039;Neuton&#039;" fill="#222022" transform="translate(-62.914 -183.851)">2</text>
    </g>
    <g transform="translate(762.673 301.173)">
      <path d=" M 0,0"/>
      <path d=" M 104,46 Q 104,48.071 102.536,49.536 Q 101.071,51 99,51 L -99,51 Q -101.071,51 -102.536,49.536 Q -104,48.071 -104,46 L -104,-46 Q -104,-48.071 -102.536,-49.536 Q -101.071,-51 -99,-51 L 99,-51 Q 101.071,-51 102.536,-49.536 Q 104,-48.071 104,-46 L 104,46" fill="#F8F8F4" stroke="#222022" stroke-width="3"/>
      <path d=" M 104,46 Q 104,48.071 102.536,49.536 Q 101.071,51 99,51 L -99,51 Q -101.071,51 -102.536,49.536 Q -104,48.071 -104,46 L -104,-46 Q -104,-48.071 -102.536,-49.536 Q -101.071,-51 -99,-51 L 99,-51 Q 101.071,-51 102.536,-49.536 Q 104,-48.071 104,-46 L 104,46" fill="#F8F8F4"/>
      <text dominant-baseline="text-before-edge" style="font: 20px &#039;Neuton&#039;" fill="#222022" transform="translate(-94 -41)">
        <tspan x="2" y="2">3. A crystalized body of a </tspan>
        <tspan x="2" y="28">gnoll, an enchanted </tspan>
        <tspan x="2" y="54">sword and a rope nearby.</tspan>
      </text>
      <text dominant-baseline="text-before-edge" style="font: 30px &#039;Neuton&#039;" fill="#222022" transform="translate(-32.459 131.203)">3</text>
    </g>
    <g transform="translate(747.169 783.642)">
      <path d=" M 0,0"/>
      <path d=" M 102,33 Q 102,35.071 100.536,36.536 Q 99.071,38 97,38 L -97,38 Q -99.071,38 -100.536,36.536 Q -102,35.071 -102,33 L -102,-33 Q -102,-35.071 -100.536,-36.536 Q -99.071,-38 -97,-38 L 97,-38 Q 99.071,-38 100.536,-36.536 Q 102,-35.071 102,-33 L 102,33" fill="#F8F8F4" stroke="#222022" stroke-width="3"/>
      <path d=" M 102,33 Q 102,35.071 100.536,36.536 Q 99.071,38 97,38 L -97,38 Q -99.071,38 -100.536,36.536 Q -102,35.071 -102,33 L -102,-33 Q -102,-35.071 -100.536,-36.536 Q -99.071,-38 -97,-38 L 97,-38 Q 99.071,-38 100.536,-36.536 Q 102,-35.071 102,-33 L 102,33" fill="#F8F8F4"/>
      <text dominant-baseline="text-before-edge" style="font: 20px &#039;Neuton&#039;" fill="#222022" transform="translate(-92 -28)">
        <tspan x="2" y="2">4. An old friend. Would </tspan>
        <tspan x="2" y="28">like to hire you for a job.</tspan>
      </text>
      <text dominant-baseline="text-before-edge" style="font: 30px &#039;Neuton&#039;" fill="#222022" transform="translate(-54.93 -185.442)">4</text>
    </g>
  </g>
</svg>