<?xml version="1.0" encoding="UTF-8" standalone="no"?><svg width="2356" height="1237" xmlns="http://www.w3.org/2000/svg" stroke-linejoin="round" stroke-linecap="round" fill-rule="evenodd" fill="none"><rect x="0" y="0" width="2356" height="1237" fill="#FFFFFF"/><style/><defs/><g><path d=" M 0,0"/><g transform="translate(1392.589 546.97) scale(1.59 1.59)"><path d=" M 0,0"/><g><path d=" M 0,0"/></g><g><path d=" M 0,0"/><path d=" M -60,90 L -60,30 L 90,30 L 90,90 L -60,90 M -270,120 L -270,-30 L -90,-30 L -90,120 L -270,120 M -270,-60 L -270,-150 L -120,-150 L -120,-60 L -270,-60 M -270,240 L -270,150 L -120,150 L -120,240 L -270,240 M -360,-30 L -360,-120 L -300,-120 L -300,-30 L -360,-30 M -360,210 L -360,120 L -300,120 L -300,210 L -360,210 M 0,30 L 0,0 L 30,0 L 30,30 L 0,30 M -67.5,30 L -60,30 L -60,60 L -67.5,60 L -67.5,54 L -82.5,54 L -82.5,60 L -90,60 L -90,30 L -82.5,30 L -82.5,36 L -67.5,36 L -67.5,30 M -180,-37.5 L -180,-30 L -210,-30 L -210,-37.5 L -204,-37.5 L -204,-52.5 L -210,-52.5 L -210,-60 L -180,-60 L -180,-52.5 L -186,-52.5 L -186,-37.5 L -180,-37.5 M -210,127.5 L -210,120 L -180,120 L -180,127.5 L -186,127.5 L -186,142.5 L -180,142.5 L -180,150 L -210,150 L -210,142.5 L -204,142.5 L -204,127.5 L -210,127.5 M -300,-60 L -300,-90 L -270,-90 L -270,-60 L -300,-60 M -300,180 L -300,150 L -270,150 L -270,180 L -300,180 M -390,180 L -390,150 L -360,150 L -360,180 L -390,180" stroke="#000000" stroke-width="4"/><path d=" M -60,90 L -60,30 L 90,30 L 90,90 L -60,90" fill="#FFFFFF"/><path d=" M -270,120 L -270,-30 L -90,-30 L -90,120 L -270,120" fill="#FFFFFF"/><path d=" M -270,-60 L -270,-150 L -120,-150 L -120,-60 L -270,-60" fill="#FFFFFF"/><path d=" M -270,240 L -270,150 L -120,150 L -120,240 L -270,240" fill="#FFFFFF"/><path d=" M -360,-30 L -360,-120 L -300,-120 L -300,-30 L -360,-30" fill="#FFFFFF"/><path d=" M -360,210 L -360,120 L -300,120 L -300,210 L -360,210" fill="#FFFFFF"/><path d=" M 0,30 L 0,0 L 30,0 L 30,30 L 0,30" fill="#FFFFFF"/><path d=" M -67.5,30 L -60,30 L -60,60 L -67.5,60 L -67.5,54 L -82.5,54 L -82.5,60 L -90,60 L -90,30 L -82.5,30 L -82.5,36 L -67.5,36 L -67.5,30" fill="#FFFFFF"/><path d=" M -180,-37.5 L -180,-30 L -210,-30 L -210,-37.5 L -204,-37.5 L -204,-52.5 L -210,-52.5 L -210,-60 L -180,-60 L -180,-52.5 L -186,-52.5 L -186,-37.5 L -180,-37.5" fill="#FFFFFF"/><path d=" M -210,127.5 L -210,120 L -180,120 L -180,127.5 L -186,127.5 L -186,142.5 L -180,142.5 L -180,150 L -210,150 L -210,142.5 L -204,142.5 L -204,127.5 L -210,127.5" fill="#FFFFFF"/><path d=" M -300,-60 L -300,-90 L -270,-90 L -270,-60 L -300,-60" fill="#FFFFFF"/><path d=" M -300,180 L -300,150 L -270,150 L -270,180 L -300,180" fill="#FFFFFF"/><path d=" M -390,180 L -390,150 L -360,150 L -360,180 L -390,180" fill="#FFFFFF"/><path d=" M 30,30 L 0,30 M -90,60 L -90,30 M -60,60 L -60,30 M -210,-60 L -180,-60 M -210,-30 L -180,-30 M -180,150 L -210,150 M -180,120 L -210,120 M -300,-60 L -300,-90 M -270,-60 L -270,-90 M -300,180 L -300,150 M -270,180 L -270,150 M -360,180 L -360,150" stroke="#FFFFFF" stroke-width="1" stroke-linejoin="round" stroke-linecap="butt"/></g><g><path d=" M 0,0"/><path d=" M -152.919,-151 L -154.209,-151 L -154.178,-150.144 L -156.225,-145.676 L -154.073,-141.246 L -155.783,-136.824 L -155.51,-131.957 L -155.51,-131.957 L -155.474,-136.765 L -153.404,-141.253 L -155.207,-145.656 L -152.951,-149.856 L -152.919,-151" fill="#000000"/><path d=" M -60.542,59.871 L -50.407,60.201 L -50.407,60.201 L -40.184,60.118 L -30.001,60.006 L -20.17,59.924 L -9.832,59.938 L -0.092,59.821 L 9.608,60.48 L 20.181,60.327 L 30.306,59.3 L 40.121,59.965 L 50.038,60.001 L 58.674,59.948 M 62.445,59.933 L 69.945,59.915 L 79.952,59.733 L 89.806,59.872 M -30.127,29.722 L -30.042,40.657 L -30.042,40.657 L -30.123,50.124 L -29.809,59.594 L -29.955,69.908 L -29.717,80.407 L -30.008,90.022 M 0.294,29.22 L 0.563,40.376 L 0.563,40.376 L -0.031,50.002 L -0.358,59.783 L 0.084,70.068 L -0.291,79.945 L -0.225,86.011 M 29.997,29.975 L 29.731,40.349 L 29.731,40.349 L 30.163,50.396 L 29.667,59.916 L 29.932,69.851 L 30.076,79.948 L 29.367,90.175 M 60.035,30.061 L 60.02,39.959 L 60.02,39.959 L 59.565,49.405 L 59.887,60.472 L 60.219,69.094 L 59.953,80.023 L 60.477,89.522 M -270.229,0.231 L -259.956,-0.074 L -259.956,-0.074 L -249.746,0.094 L -239.865,-0.015 L -231.043,0.01 M -229.278,-0.038 L -219.673,-0.683 L -209.887,-0.041 L -199.954,0.508 L -189.929,-0.175 L -179.526,-0.354 L -169.937,-0.078 L -159.968,0.011 L -150.045,-0.19 L -139.967,0.291 L -130.32,-0.095 L -119.767,0.057 L -109.381,0.425 L -99.988,0.003 L -90.236,-0.064 M -269.733,30.164 L -260.186,29.391 L -260.186,29.391 L -249.809,29.791 L -240.031,30.054 L -230.21,29.773 L -225.882,29.963 M -218.263,30.166 L -210.372,29.672 L -199.891,29.707 L -190.529,30.167 L -179.733,29.859 L -170.109,30.094 L -160.057,30.287 L -150.033,30.206 L -140.369,30.036 L -129.555,29.564 L -120.028,30.24 L -109.963,29.824 L -99.977,30.225 L -89.874,29.918 M -269.684,60.088 L -260.075,59.973 L -260.075,59.973 L -249.833,60.111 L -246.172,60.148 M -242.78,60.183 L -240.273,60.208 L -230.481,60.194 L -219.946,59.893 L -210.256,59.573 L -200.304,60.275 L -190,60.01 L -180.193,60.207 L -169.974,60.119 L -160.053,59.613 L -149.593,60.454 L -140.183,60.359 L -130.118,61.044 L -120.224,60.214 L -110.066,60.277 L -99.711,59.726 L -89.745,60.041 M -270.429,90.016 L -259.831,89.867 L -259.831,89.867 L -250.374,90.015 L -240.103,89.965 L -229.876,89.955 L -220.357,90.061 L -209.984,90.085 L -200.209,89.642 L -190.265,90.318 L -185.02,90.151 M -178.792,89.974 L -170.41,90.136 L -160.096,89.949 L -150.279,90.143 L -139.843,89.984 L -129.894,89.335 L -119.14,89.7 L -110.22,90.092 L -99.524,90.014 L -90.259,90.428 M -240.23,-29.992 L -240.218,-20.227 L -240.218,-20.227 L -240.229,-10.32 L -239.455,-0.36 L -240.016,9.561 L -239.832,20.223 L -240.025,30.052 L -240.798,40.356 L -240.296,50.045 L -240.004,60.002 L -240.05,70.037 L -239.778,76.598 M -239.752,77.215 L -239.594,81.032 L -239.919,89.929 L -240.004,99.941 L -239.736,110.031 L -239.493,120.395 M -210.24,-30.13 L -209.876,-20.155 L -209.876,-20.155 L -210.158,-10.226 L -210.214,0.535 L -210.034,9.912 L -209.829,19.844 L -210.267,29.945 L -209.992,39.836 L -209.998,42.773 M -210,43.507 L -210.014,50.212 L -210.071,59.969 L -210.019,70.232 L -210.295,79.727 L -210.194,89.899 L -209.796,100.371 L -210.149,110.046 L -210.274,119.82 M -180.083,-29.79 L -179.999,-19.994 L -179.999,-19.994 L -179.826,-9.647 L -179.999,-0.001 L -179.994,4.552 M -179.994,4.882 L -179.989,9.735 L -180.656,20.246 L -180.089,30.24 L -180.153,40.435 L -179.926,49.996 L -178.961,59.75 L -179.796,69.7 L -180.54,79.334 L -179.521,90.622 L -179.671,99.603 L -179.371,110.347 L -179.579,119.847 M -150.124,-30.325 L -149.93,-20.046 L -149.93,-20.046 L -150.035,-10.019 L -149.692,0.292 L -149.747,3.07 M -149.854,8.539 L -149.869,9.287 L -150.003,19.995 L -150.055,30.034 L -150.342,39.394 L -149.863,50.025 L -149.894,59.931 L -150.066,69.957 L -150.299,80.891 L -150.144,90.216 L -150.095,100.04 L -149.392,110.038 L -149.929,120.394 M -120.357,-29.841 L -120.122,-19.961 L -120.122,-19.961 L -120.15,-10.522 L -120.294,0.066 L -120.726,9.978 L -120.01,20.004 L -120.043,30.018 L -120.07,39.511 L -119.947,49.877 L -119.795,60.037 L -120.036,64.336 M -120.099,65.461 L -120.342,69.808 L -119.911,80.074 L -120.345,90.473 L -120.206,100.122 L -120.166,109.775 L -120.243,119.624 M -269.592,-120.093 L -260.348,-120.191 L -260.348,-120.191 L -250.274,-120.145 L -239.997,-120.255 L -229.897,-120.104 L -219.69,-119.132 L -209.325,-119.95 L -199.737,-119.809 L -192.63,-120.221 M -191.548,-120.283 L -190.209,-120.361 L -179.47,-119.454 L -170.011,-120.009 L -160.206,-120.666 L -150.626,-119.356 L -139.891,-120.031 L -130.053,-120.102 L -119.875,-120.197 M -270.405,-90.16 L -260.138,-90.072 L -260.138,-90.072 L -249.937,-90.052 L -240.187,-90.032 L -234.103,-90.034 M -231.85,-90.035 L -229.829,-90.036 L -219.924,-90.125 L -210.236,-90.193 L -200.022,-90.005 L -190.057,-90.231 L -180.752,-90.245 L -170.474,-89.929 L -160.008,-90.206 L -149.789,-90.009 L -140.246,-90.183 L -130.286,-90.245 L -119.514,-89.716 M -239.964,-149.93 L -240.006,-140.024 L -240.006,-140.024 L -239.929,-130.022 L -240.113,-120.176 L -239.961,-109.999 L -240.107,-99.836 L -239.977,-89.949 L -239.526,-80.302 L -239.985,-69.775 L -240.059,-59.947 M -210.174,-150.118 L -210.064,-139.875 L -210.064,-139.875 L -209.896,-129.588 L -209.567,-119.911 L -210.448,-110.131 L -209.703,-99.923 L -210.159,-90.135 L -209.548,-79.572 L -209.895,-71.712 M -209.987,-68.704 L -209.998,-60.025 M -180.043,-149.488 L -180.197,-139.736 L -180.197,-139.736 L -180.021,-130.538 L -179.905,-120.077 L -179.732,-110.135 L -179.767,-100.043 L -179.798,-97.784 M -179.828,-95.507 L -179.905,-89.809 L -180.653,-79.721 L -180.226,-70.96 L -179.958,-59.359 M -149.636,-149.2 L -150.542,-140.372 L -150.542,-140.372 L -150.15,-129.839 L -149.944,-120.021 L -150.248,-110.067 L -149.934,-100.136 L -150.004,-90.004 L -149.567,-79.603 L -149.949,-70.448 L -149.531,-59.675 M -270.465,179.034 L -260.064,180 L -260.064,180 L -249.971,179.743 L -239.983,180.632 L -230.21,180.056 L -220.239,180.226 L -210.186,180.123 L -199.573,180.075 L -189.183,179.886 L -182.519,179.527 M -180.538,179.42 L -180.509,179.418 L -170.06,180.034 L -159.671,180.767 L -150.072,180.511 L -139.99,179.997 L -130.055,179.953 L -119.911,180.037 M -269.976,209.998 L -259.699,209.769 L -259.699,209.769 L -250.665,209.975 L -240.031,209.819 L -229.931,209.931 L -219.958,210.044 L -209.793,210.144 L -200.395,209.911 L -189.944,210.053 L -182.241,210.492 M -177.135,210.556 L -169.537,210.263 L -160.175,210.376 L -149.728,210.334 L -140.081,209.989 L -130.248,209.752 L -120.076,210.451 M -240.038,149.947 L -240.044,160.257 L -240.044,160.257 L -240.027,170.409 L -239.989,172.448 M -239.932,175.557 L -239.845,180.259 L -240.614,189.327 L -239.87,200.108 L -239.474,209.829 L -239.699,220.823 L -239.734,229.813 L -240.122,239.98 M -210,149.997 L -209.929,160.007 L -209.929,160.007 L -210.057,170.085 L -210.098,179.716 L -210.06,189.182 M -210.119,193.199 L -210.251,200.46 L -209.95,210.068 L -210.432,220.156 L -210.361,230.597 L -210.211,240.037 M -179.96,149.908 L -180.362,159.726 L -180.362,159.726 L -179.337,169.194 L -180.151,180.057 L -180.1,181.09 M -179.86,185.988 L -179.691,189.447 L -179.956,200.108 L -179.691,209.724 L -179.903,219.881 L -179.607,230.049 L -179.997,240.02 M -150.056,149.987 L -150.073,159.646 L -150.073,159.646 L -150.233,170.01 L -150.023,179.984 L -149.8,190.395 L -150.473,200.393 L -150.112,209.676 L -150.348,219.919 L -149.565,229.898 L -149.994,240.03 M -360.116,-89.941 L -350.332,-90.031 L -350.332,-90.031 L -340.143,-90.009 L -329.981,-89.884 L -320.544,-90.403 L -309.851,-89.962 L -305.586,-89.835 M -301.856,-89.724 L -299.657,-89.659 M -359.952,-59.743 L -350.21,-60.343 L -350.21,-60.343 L -340.097,-60.477 L -329.962,-60.26 L -320.001,-60.012 L -310.931,-60.1 M -309.185,-60.083 L -299.744,-59.789 M -329.37,-120.178 L -330.213,-109.63 L -330.213,-109.63 L -330.157,-100.222 L -329.421,-89.693 L -330.439,-80.602 L -330.466,-69.889 L -329.893,-59.976 L -329.95,-58.296 M -330.04,-55.644 L -330.23,-50.003 L -330.082,-40.145 L -330.001,-29.989 M -360.263,150.201 L -350.586,150.033 L -350.586,150.033 L -339.969,150.02 L -330.227,149.807 L -319.964,149.905 L -309.954,149.958 L -299.701,149.397 M -360.32,180.59 L -350.203,179.82 L -350.203,179.82 L -339.844,180.319 L -330.153,180.407 L -320.677,180.025 L -309.706,180.037 L -300.788,179.674 M -329.997,120.004 L -329.893,130.296 L -329.893,130.296 L -330.624,139.917 L -330.24,150.026 L -330.265,159.645 L -329.485,169.606 L -329.533,179.935 L -330.026,189.938 L -329.927,199.952 L -330.279,207.831 M 29.966,29.839 L 20.074,29.975 L 20.074,29.975 L 9.43,29.628 L 0.184,29.884 M -90.818,60.667 L -89.991,49.984 L -89.991,49.984 L -89.847,39.796 L -90.06,34.16 M -90.072,33.844 L -90.207,30.28 M -60.035,29.846 L -59.987,40.277 L -59.987,40.277 L -60.085,49.225 M -60.089,50.713 L -60.046,60.146 M -209.733,-60.055 L -199.986,-60.664 L -199.986,-60.664 L -190.109,-60.023 L -179.778,-59.896 M -180.074,-29.848 L -189.684,-29.99 L -189.684,-29.99 L -199.973,-29.972 L -210.047,-29.731 M -179.367,150.039 L -189.196,149.933 L -189.196,149.933 L -200.088,149.803 L -209.906,150.176 M -209.957,119.876 L -200.01,120.013 L -200.01,120.013 L -189.905,120.859 L -183.304,119.868 M -299.583,-59.708 L -299.985,-68.639 M -299.959,-72.317 L -299.639,-79.502 L -300.482,-89.856 M -269.208,-89.912 L -270.137,-80.208 L -270.137,-80.208 L -269.949,-69.903 L -270.073,-60.103 M -299.998,179.768 L -299.945,171.356 M -299.897,164.393 L -299.867,160.145 L -299.836,150.093 M -270.233,150.128 L -269.945,160.174 L -269.945,160.174 L -269.958,170.193 L -270.425,179.595" stroke="#000000" stroke-width="0.3"/></g><g clip-path="url(#instance397)"><path d=" M 0,0"/><clipPath id="instance397" fill="#FFFFFF"><path d=" M 0,0"/><path d=" M -60,90 L -60,30 L 90,30 L 90,90 L -60,90" fill="#FF0000"/><path d=" M -270,120 L -270,-30 L -90,-30 L -90,120 L -270,120" fill="#FF0000"/><path d=" M -270,-60 L -270,-150 L -120,-150 L -120,-60 L -270,-60" fill="#FF0000"/><path d=" M -270,240 L -270,150 L -120,150 L -120,240 L -270,240" fill="#FF0000"/><path d=" M -360,-30 L -360,-120 L -300,-120 L -300,-30 L -360,-30" fill="#FF0000"/><path d=" M -360,210 L -360,120 L -300,120 L -300,210 L -360,210" fill="#FF0000"/><path d=" M 0,30 L 0,0 L 30,0 L 30,30 L 0,30" fill="#FF0000"/><path d=" M -67.5,30 L -60,30 L -60,60 L -67.5,60 L -67.5,54 L -82.5,54 L -82.5,60 L -90,60 L -90,30 L -82.5,30 L -82.5,36 L -67.5,36 L -67.5,30" fill="#FF0000"/><path d=" M -180,-37.5 L -180,-30 L -210,-30 L -210,-37.5 L -204,-37.5 L -204,-52.5 L -210,-52.5 L -210,-60 L -180,-60 L -180,-52.5 L -186,-52.5 L -186,-37.5 L -180,-37.5" fill="#FF0000"/><path d=" M -210,127.5 L -210,120 L -180,120 L -180,127.5 L -186,127.5 L -186,142.5 L -180,142.5 L -180,150 L -210,150 L -210,142.5 L -204,142.5 L -204,127.5 L -210,127.5" fill="#FF0000"/><path d=" M -300,-60 L -300,-90 L -270,-90 L -270,-60 L -300,-60" fill="#FF0000"/><path d=" M -300,180 L -300,150 L -270,150 L -270,180 L -300,180" fill="#FF0000"/><path d=" M -390,180 L -390,150 L -360,150 L -360,180 L -390,180" fill="#FF0000"/></clipPath></g><g><path d=" M 0,0"/><path d=" M 88.938,38.479 L 88.813,38.604 L 88.625,37.555 L 88.375,35.333 L 87.318,33.604 L 85.455,32.368 L 82.785,31.625 L 79.308,31.375 L 77.632,31.188 L 77.757,31.063 L 80.615,31 L 89,31 L 89,36.562 L 88.938,38.479 M -58.937,74.817 L -58.812,74.692 L -58.625,76.858 L -58.375,81.315 L -57.229,84.72 L -55.187,87.073 L -52.248,88.375 L -48.414,88.625 L -46.559,88.813 L -46.684,88.938 L -49.81,89 L -59,89 L -59,78.41 L -58.937,74.817 M 71.735,88.938 L 71.61,88.813 L 74.29,88.625 L 79.774,88.375 L 83.949,86.638 L 86.816,83.415 L 88.375,78.704 L 88.625,72.507 L 88.813,69.471 L 88.938,69.596 L 89,74.494 L 89,89 L 76.098,89 L 71.735,88.938" fill="#000000"/><path d=" M -258.234,-28.937 L -258.109,-28.812 L -259.706,-28.625 L -263.023,-28.375 L -265.574,-27.34 L -267.358,-25.52 L -268.375,-22.914 L -268.625,-19.523 L -268.812,-17.891 L -268.937,-18.016 L -269,-20.809 L -269,-29 L -260.972,-29 L -258.234,-28.937 M -91.062,-12.663 L -91.187,-12.538 L -91.375,-15.063 L -91.625,-20.238 L -93.031,-24.181 L -95.593,-26.894 L -99.312,-28.375 L -104.186,-28.625 L -106.561,-28.812 L -106.436,-28.937 L -102.53,-29 L -91,-29 L -91,-16.794 L -91.062,-12.663 M -268.937,110.843 L -268.812,110.718 L -268.625,111.88 L -268.375,114.328 L -267.171,116.226 L -265.013,117.575 L -261.9,118.375 L -257.834,118.625 L -255.863,118.813 L -255.988,118.938 L -259.288,119 L -269,119 L -269,112.929 L -268.937,110.843 M -102.704,118.938 L -102.829,118.813 L -101.076,118.625 L -97.446,118.375 L -94.66,116.937 L -92.72,114.311 L -91.625,110.496 L -91.375,105.494 L -91.187,103.055 L -91.062,103.18 L -91,107.182 L -91,119 L -99.731,119 L -102.704,118.938" fill="#000000"/><path d=" M -255.083,-148.937 L -254.958,-148.812 L -257.08,-148.625 L -261.448,-148.375 L -264.786,-147.301 L -267.095,-145.404 L -268.375,-142.682 L -268.625,-139.137 L -268.812,-137.427 L -268.937,-137.552 L -269,-140.461 L -269,-149 L -258.609,-149 L -255.083,-148.937 M -121.062,-139.506 L -121.187,-139.381 L -121.375,-140.766 L -121.625,-143.659 L -122.329,-145.892 L -123.488,-147.464 L -125.1,-148.375 L -127.167,-148.625 L -128.138,-148.812 L -128.013,-148.937 L -126.213,-149 L -121,-149 L -121,-141.927 L -121.062,-139.506 M -139.174,-61.062 L -139.299,-61.187 L -136.468,-61.375 L -130.681,-61.625 L -126.278,-62.988 L -123.259,-65.463 L -121.625,-69.05 L -121.375,-73.751 L -121.187,-76.038 L -121.062,-75.913 L -121,-72.138 L -121,-61 L -134.584,-61 L -139.174,-61.062" fill="#000000"/><path d=" M -121.062,158.761 L -121.187,158.886 L -121.375,157.791 L -121.625,155.474 L -122.592,153.675 L -124.276,152.392 L -126.676,151.625 L -129.794,151.375 L -131.29,151.188 L -131.165,151.063 L -128.577,151 L -121,151 L -121,156.774 L -121.062,158.761 M -268.937,222.833 L -268.812,222.708 L -268.625,225.205 L -268.375,230.323 L -267.002,234.224 L -264.507,236.908 L -260.89,238.375 L -256.15,238.625 L -253.842,238.813 L -253.967,238.938 L -257.772,239 L -269,239 L -269,226.922 L -268.937,222.833 M -128.823,238.938 L -128.948,238.813 L -127.842,238.625 L -125.505,238.375 L -123.69,236.865 L -122.397,234.096 L -121.625,230.067 L -121.375,224.779 L -121.187,222.197 L -121.062,222.322 L -121,226.539 L -121,239 L -126.82,239 L -128.823,238.938" fill="#000000"/><path d=" M -352.058,-118.937 L -351.933,-118.812 L -352.892,-118.625 L -354.935,-118.375 L -356.53,-117.302 L -357.677,-115.407 L -358.375,-112.688 L -358.625,-109.147 L -358.812,-107.439 L -358.937,-107.564 L -359,-110.47 L -359,-119 L -353.841,-119 L -352.058,-118.937 M -301.062,-111.553 L -301.187,-111.428 L -301.375,-112.471 L -301.625,-114.683 L -302.685,-116.404 L -304.555,-117.635 L -307.235,-118.375 L -310.725,-118.625 L -312.408,-118.812 L -312.283,-118.937 L -309.415,-119 L -301,-119 L -301,-113.462 L -301.062,-111.553 M -358.937,-45.721 L -358.812,-45.846 L -358.625,-43.591 L -358.375,-38.954 L -356.953,-35.415 L -354.36,-32.972 L -350.594,-31.625 L -345.657,-31.375 L -343.251,-31.187 L -343.376,-31.062 L -347.329,-31 L -359,-31 L -359,-41.994 L -358.937,-45.721 M -317.408,-31.062 L -317.533,-31.187 L -314.996,-31.375 L -309.798,-31.625 L -305.836,-32.649 L -303.112,-34.446 L -301.625,-37.017 L -301.375,-40.362 L -301.187,-41.972 L -301.062,-41.847 L -301,-39.089 L -301,-31 L -313.259,-31 L -317.408,-31.062" fill="#000000"/><path d=" M -348.287,121.063 L -348.162,121.188 L -349.749,121.375 L -353.05,121.625 L -355.587,122.406 L -357.362,123.719 L -358.375,125.562 L -358.625,127.937 L -358.812,129.062 L -358.937,128.937 L -359,126.906 L -359,121 L -351.012,121 L -348.287,121.063 M -301.062,139.295 L -301.187,139.42 L -301.375,136.569 L -301.625,130.741 L -302.736,126.308 L -304.707,123.269 L -307.539,121.625 L -311.232,121.375 L -313.016,121.188 L -312.891,121.063 L -309.871,121 L -301,121 L -301,134.674 L -301.062,139.295 M -358.937,199.496 L -358.812,199.371 L -358.625,200.757 L -358.375,203.654 L -357.77,205.89 L -356.81,207.463 L -355.495,208.375 L -353.826,208.625 L -353.053,208.813 L -353.178,208.938 L -354.681,209 L -359,209 L -359,201.919 L -358.937,199.496 M -313.247,208.938 L -313.372,208.813 L -311.529,208.625 L -307.717,208.375 L -304.796,207.186 L -302.765,205.058 L -301.625,201.99 L -301.375,197.983 L -301.187,196.043 L -301.062,196.168 L -301,199.423 L -301,209 L -310.138,209 L -313.247,208.938" fill="#000000"/></g><g><path d=" M 0,0"/><path d=" M 56.521,84.28 L 56.614,83.623 L 56.993,83.077 L 57.659,82.643 L 58.289,82.574 L 58.882,82.868 L 59.439,83.526 L 59.958,84.548 L 60.172,85.387 L 60.079,86.044 L 59.681,86.519 L 58.976,86.812 L 58.327,86.811 L 57.734,86.517 L 57.196,85.93 L 56.715,85.049 L 56.521,84.28" fill="#FFFFFF" stroke="#000000" stroke-width="1"/><path d=" M -97.821,-25.362 L -97.501,-25.605 L -96.991,-25.723 L -96.292,-25.718 L -95.783,-25.594 L -95.462,-25.351 L -95.33,-24.988 L -95.388,-24.506 L -95.576,-24.144 L -95.897,-23.902 L -96.35,-23.779 L -96.934,-23.776 L -97.387,-23.897 L -97.707,-24.14 L -97.896,-24.507 L -97.953,-24.996 L -97.821,-25.362" fill="#FFFFFF" stroke="#000000" stroke-width="1"/><path d=" M -229.849,1.532 L -229.187,1.1 L -228.401,1.013 L -227.49,1.27 L -226.935,1.78 L -226.734,2.542 L -226.887,3.556 L -227.396,4.823 L -227.981,5.672 L -228.643,6.104 L -229.381,6.118 L -230.195,5.716 L -230.703,5.134 L -230.904,4.372 L -230.799,3.43 L -230.386,2.309 L -229.849,1.532" fill="#FFFFFF" stroke="#000000" stroke-width="1"/><path d=" M -258.858,-13.461 L -259.982,-14.422 L -260.552,-15.788 L -260.569,-17.559 L -259.946,-18.826 L -258.684,-19.588 L -256.781,-19.845 L -254.239,-19.597 L -252.406,-18.993 L -251.282,-18.032 L -250.868,-16.714 L -251.162,-15.039 L -251.941,-13.821 L -253.204,-13.059 L -254.95,-12.754 L -257.181,-12.905 L -258.858,-13.461" fill="#FFFFFF" stroke="#000000" stroke-width="1"/><path d=" M -93.721,0.648 L -93.406,0.26 L -92.826,-0.036 L -91.981,-0.239 L -91.328,-0.242 L -90.868,-0.044 L -90.6,0.354 L -90.525,0.953 L -90.645,1.447 L -90.959,1.836 L -91.469,2.12 L -92.174,2.298 L -92.757,2.289 L -93.217,2.091 L -93.555,1.705 L -93.771,1.13 L -93.721,0.648" fill="#FFFFFF" stroke="#000000" stroke-width="1"/><path d=" M -129.091,-66.325 L -129.295,-66.639 L -129.336,-67.012 L -129.212,-67.444 L -128.97,-67.707 L -128.608,-67.802 L -128.127,-67.728 L -127.527,-67.485 L -127.125,-67.206 L -126.921,-66.892 L -126.915,-66.541 L -127.107,-66.155 L -127.384,-65.915 L -127.745,-65.821 L -128.192,-65.872 L -128.723,-66.069 L -129.091,-66.325" fill="#FFFFFF" stroke="#000000" stroke-width="1"/><path d=" M -176.953,-73.97 L -175.397,-74.529 L -173.754,-74.326 L -172.025,-73.361 L -171.14,-72.054 L -171.099,-70.405 L -171.904,-68.415 L -173.553,-66.083 L -175.156,-64.638 L -176.712,-64.079 L -178.222,-64.407 L -179.685,-65.621 L -180.437,-67.052 L -180.477,-68.701 L -179.806,-70.566 L -178.423,-72.649 L -176.953,-73.97" fill="#FFFFFF" stroke="#000000" stroke-width="1"/><path d=" M -144.261,-68.972 L -143.366,-68.983 L -142.295,-68.522 L -141.049,-67.59 L -140.299,-66.693 L -140.046,-65.833 L -140.289,-65.008 L -141.028,-64.22 L -141.846,-63.821 L -142.741,-63.81 L -143.715,-64.188 L -144.767,-64.955 L -145.42,-65.769 L -145.673,-66.629 L -145.527,-67.536 L -144.982,-68.49 L -144.261,-68.972" fill="#FFFFFF" stroke="#000000" stroke-width="1"/><path d=" M -175.327,-66.445 L -174.755,-66.668 L -174.062,-66.673 L -173.248,-66.459 L -172.738,-66.059 L -172.532,-65.473 L -172.63,-64.701 L -173.033,-63.743 L -173.52,-63.153 L -174.092,-62.929 L -174.749,-63.073 L -175.49,-63.585 L -175.964,-64.133 L -176.169,-64.719 L -176.107,-65.342 L -175.778,-66.003 L -175.327,-66.445" fill="#FFFFFF" stroke="#000000" stroke-width="1"/><path d=" M -125.735,-142.092 L -125.367,-141.91 L -125.026,-141.498 L -124.713,-140.858 L -124.594,-140.336 L -124.67,-139.932 L -124.941,-139.647 L -125.407,-139.479 L -125.824,-139.487 L -126.191,-139.669 L -126.51,-140.027 L -126.779,-140.559 L -126.875,-141.027 L -126.799,-141.431 L -126.55,-141.77 L -126.129,-142.046 L -125.735,-142.092" fill="#FFFFFF" stroke="#000000" stroke-width="1"/><path d=" M -133.613,-139.698 L -133.196,-139.598 L -132.869,-139.32 L -132.632,-138.865 L -132.626,-138.456 L -132.851,-138.093 L -133.309,-137.776 L -133.998,-137.506 L -134.55,-137.421 L -134.967,-137.521 L -135.247,-137.807 L -135.392,-138.278 L -135.351,-138.695 L -135.125,-139.058 L -134.715,-139.366 L -134.119,-139.621 L -133.613,-139.698" fill="#FFFFFF" stroke="#000000" stroke-width="1"/><path d=" M -253.804,150.886 L -253.337,150.851 L -252.904,151.03 L -252.504,151.423 L -252.361,151.847 L -252.473,152.3 L -252.843,152.783 L -253.468,153.296 L -254.015,153.57 L -254.482,153.606 L -254.869,153.403 L -255.178,152.961 L -255.275,152.514 L -255.163,152.061 L -254.839,151.602 L -254.305,151.137 L -253.804,150.886" fill="#FFFFFF" stroke="#000000" stroke-width="1"/><path d=" M -134.431,228.098 L -133.227,227.382 L -131.669,227.113 L -129.757,227.291 L -128.46,228 L -127.778,229.242 L -127.711,231.016 L -128.26,233.322 L -129.136,234.832 L -130.34,235.548 L -131.871,235.469 L -133.73,234.596 L -135.001,233.538 L -135.683,232.296 L -135.776,230.871 L -135.281,229.261 L -134.431,228.098" fill="#FFFFFF" stroke="#000000" stroke-width="1"/><path d=" M -311.172,-48.449 L -311.145,-48.823 L -310.952,-49.145 L -310.592,-49.415 L -310.24,-49.479 L -309.894,-49.335 L -309.556,-48.986 L -309.224,-48.429 L -309.071,-47.964 L -309.098,-47.59 L -309.305,-47.307 L -309.691,-47.115 L -310.057,-47.091 L -310.403,-47.234 L -310.728,-47.544 L -311.033,-48.023 L -311.172,-48.449" fill="#FFFFFF" stroke="#000000" stroke-width="1"/><path d=" M -319.526,132.539 L -320.058,131.458 L -320.184,130.103 L -319.902,128.475 L -319.205,127.411 L -318.094,126.91 L -316.568,126.972 L -314.627,127.599 L -313.39,128.453 L -312.857,129.534 L -313.029,130.842 L -313.904,132.378 L -314.897,133.396 L -316.009,133.897 L -317.238,133.881 L -318.586,133.347 L -319.526,132.539" fill="#FFFFFF" stroke="#000000" stroke-width="1"/><path d=" M -319.129,143.447 L -319.105,142.132 L -318.489,140.968 L -317.283,139.955 L -316.061,139.666 L -314.824,140.102 L -313.572,141.263 L -312.304,143.148 L -311.682,144.748 L -311.707,146.063 L -312.377,147.093 L -313.693,147.838 L -314.97,147.992 L -316.207,147.556 L -317.405,146.529 L -318.562,144.913 L -319.129,143.447" fill="#FFFFFF" stroke="#000000" stroke-width="1"/><path d=" M -360,210 L -360,120 L -351.221,120.865 L -342.779,123.425 L -334.999,127.584 L -328.18,133.18 L -322.584,139.999 L -318.425,147.779 L -315.865,156.221 L -315,165 L -315.865,173.779 L -318.425,182.221 L -322.584,190.001 L -328.18,196.82 L -334.999,202.416 L -342.779,206.575 L -351.221,209.135 L -360,210" fill="#FFFFFF"/><path d=" M -360,120 L -351.221,120.865 L -342.779,123.425 L -334.999,127.584 L -328.18,133.18 L -322.584,139.999 L -318.425,147.779 L -315.865,156.221 L -315,165 L -315.865,173.779 L -318.425,182.221 L -322.584,190.001 L -328.18,196.82 L -334.999,202.416 L -342.779,206.575 L -351.221,209.135 L -360,210" stroke="#000000" stroke-width="1"/><path d=" M -360,127.5 L -352.684,128.221 L -345.649,130.355 L -339.166,133.82 L -333.483,138.483 L -328.82,144.166 L -325.355,150.649 L -323.221,157.684 L -322.5,165 L -323.221,172.316 L -325.355,179.351 L -328.82,185.834 L -333.483,191.517 L -339.166,196.18 L -345.649,199.645 L -352.684,201.779 L -360,202.5" stroke="#000000" stroke-width="1"/></g><g transform="translate(4.243 4.243)" clip-path="url(#instance401)"><path d=" M 0,0"/><clipPath id="instance401" fill="#FFFFFF" transform="translate(-4.243 -4.243)"><path d=" M 0,0"/></clipPath></g><g><path d=" M 0,0"/><path d=" M 3,6 L 27,6 M 6,12 L 24,12 M 9,18 L 21,18 M 12,24 L 18,24" stroke="#000000" stroke-width="1"/><path d=" M -78.75,35 L -71.25,35 L -71.25,55 L -78.75,55 L -78.75,35 M -71.25,45 L -78.75,45" fill="#FFFFFF" stroke="#000000" stroke-width="2"/><path d=" M -205,-48.75 L -185,-48.75 L -185,-41.25 L -205,-41.25 L -205,-48.75" fill="#FFFFFF" stroke="#000000" stroke-width="2"/><path d=" M -205,131.25 L -185,131.25 L -185,138.75 L -205,138.75 L -205,131.25" fill="#FFFFFF" stroke="#000000" stroke-width="2"/><path d=" M -366,177 L -366,153 M -372,174 L -372,156 M -378,171 L -378,159 M -384,168 L -384,162" stroke="#000000" stroke-width="1"/></g></g></g></svg>