<?xml version="1.0" encoding="UTF-8" standalone="no"?><svg width="1848" height="995" xmlns="http://www.w3.org/2000/svg" stroke-linejoin="round" stroke-linecap="round" fill-rule="evenodd" fill="none"><rect x="0" y="0" width="1848" height="995" fill="#FFFFFF"/><style/><defs/><g><path d=" M 0,0"/><g transform="translate(909 632.5)"><path d=" M 0,0"/><g><path d=" M 0,0"/></g><g><path d=" M 0,0"/><path d=" M -90,0 L -90,-210 L 120,-210 L 120,0 L -90,0 M -270,-60 L -270,-210 L -120,-210 L -120,-60 L -270,-60 M 150,-60 L 150,-210 L 300,-210 L 300,-60 L 150,-60 M -150,-240 L -150,-270 L -120,-270 L -120,-240 L -150,-240 M 150,0 L 150,-30 L 180,-30 L 180,0 L 150,0 M -210,-240 L -210,-270 L -180,-270 L -180,-240 L -210,-240 M -90,-240 L -90,-270 L -30,-270 L -30,-240 L -90,-240 M 210,0 L 210,-30 L 240,-30 L 240,0 L 210,0 M -210,-300 L -210,-330 L -180,-330 L -180,-300 L -210,-300 M 210,60 L 210,30 L 240,30 L 240,60 L 210,60 M -150,-300 L -150,-330 L -120,-330 L -120,-300 L -150,-300 M -300,-300 L -300,-330 L -240,-330 L -240,-300 L -300,-300 M 150,60 L 150,30 L 180,30 L 180,60 L 150,60 M 270,60 L 270,30 L 330,30 L 330,60 L 270,60 M -210,-360 L -210,-480 L -60,-480 L -60,-360 L -210,-360 M -510,-210 L -510,-420 L -330,-420 L -330,-210 L -510,-210 M 90,210 L 90,90 L 240,90 L 240,210 L 90,210 M 360,150 L 360,-60 L 540,-60 L 540,150 L 360,150 M 0,30 L 0,0 L 30,0 L 30,30 L 0,30 M -97.5,-150 L -90,-150 L -90,-120 L -97.5,-120 L -97.5,-126 L -112.5,-126 L -112.5,-120 L -120,-120 L -120,-150 L -112.5,-150 L -112.5,-144 L -97.5,-144 L -97.5,-150 M 120,-120 L 120,-150 L 150,-150 L 150,-120 L 120,-120 M -120,-217.5 L -120,-210 L -150,-210 L -150,-217.5 L -144,-217.5 L -144,-232.5 L -150,-232.5 L -150,-240 L -120,-240 L -120,-232.5 L -126,-232.5 L -126,-217.5 L -120,-217.5 M 150,-52.5 L 150,-60 L 180,-60 L 180,-52.5 L 174,-52.5 L 174,-37.5 L 180,-37.5 L 180,-30 L 150,-30 L 150,-37.5 L 156,-37.5 L 156,-52.5 L 150,-52.5 M -180,-240 L -180,-270 L -150,-270 L -150,-240 L -180,-240 M -120,-240 L -120,-270 L -90,-270 L -90,-240 L -120,-240 M 180,0 L 180,-30 L 210,-30 L 210,0 L 180,0 M -210,-270 L -210,-300 L -180,-300 L -180,-270 L -210,-270 M 210,30 L 210,0 L 240,0 L 240,30 L 210,30 M -180,-300 L -180,-330 L -150,-330 L -150,-300 L -180,-300 M -240,-300 L -240,-330 L -210,-330 L -210,-300 L -240,-300 M 180,30 L 195,30 L 195,60 L 180,60 L 180,30 M 240,60 L 240,30 L 270,30 L 270,60 L 240,60 M -150,-330 L -150,-360 L -120,-360 L -120,-330 L -150,-330 M -330,-300 L -330,-330 L -300,-330 L -300,-300 L -330,-300 M 150,90 L 150,60 L 180,60 L 180,90 L 150,90 M 330,60 L 330,30 L 360,30 L 360,60 L 330,60 M -30,-217.5 L -30,-210 L -60,-210 L -60,-217.5 L -54,-217.5 L -54,-232.5 L -60,-232.5 L -60,-240 L -30,-240 L -30,-232.5 L -36,-232.5 L -36,-217.5 L -30,-217.5" stroke="#000000" stroke-width="4"/><path d=" M -90,0 L -90,-210 L 120,-210 L 120,0 L -90,0" fill="#FFFFFF"/><path d=" M -270,-60 L -270,-210 L -120,-210 L -120,-60 L -270,-60" fill="#FFFFFF"/><path d=" M 150,-60 L 150,-210 L 300,-210 L 300,-60 L 150,-60" fill="#FFFFFF"/><path d=" M -150,-240 L -150,-270 L -120,-270 L -120,-240 L -150,-240" fill="#FFFFFF"/><path d=" M 150,0 L 150,-30 L 180,-30 L 180,0 L 150,0" fill="#FFFFFF"/><path d=" M -210,-240 L -210,-270 L -180,-270 L -180,-240 L -210,-240" fill="#FFFFFF"/><path d=" M -90,-240 L -90,-270 L -30,-270 L -30,-240 L -90,-240" fill="#FFFFFF"/><path d=" M 210,0 L 210,-30 L 240,-30 L 240,0 L 210,0" fill="#FFFFFF"/><path d=" M -210,-300 L -210,-330 L -180,-330 L -180,-300 L -210,-300" fill="#FFFFFF"/><path d=" M 210,60 L 210,30 L 240,30 L 240,60 L 210,60" fill="#FFFFFF"/><path d=" M -150,-300 L -150,-330 L -120,-330 L -120,-300 L -150,-300" fill="#FFFFFF"/><path d=" M -300,-300 L -300,-330 L -240,-330 L -240,-300 L -300,-300" fill="#FFFFFF"/><path d=" M 150,60 L 150,30 L 180,30 L 180,60 L 150,60" fill="#FFFFFF"/><path d=" M 270,60 L 270,30 L 330,30 L 330,60 L 270,60" fill="#FFFFFF"/><path d=" M -210,-360 L -210,-480 L -60,-480 L -60,-360 L -210,-360" fill="#FFFFFF"/><path d=" M -510,-210 L -510,-420 L -330,-420 L -330,-210 L -510,-210" fill="#FFFFFF"/><path d=" M 90,210 L 90,90 L 240,90 L 240,210 L 90,210" fill="#FFFFFF"/><path d=" M 360,150 L 360,-60 L 540,-60 L 540,150 L 360,150" fill="#FFFFFF"/><path d=" M 0,30 L 0,0 L 30,0 L 30,30 L 0,30" fill="#FFFFFF"/><path d=" M -97.5,-150 L -90,-150 L -90,-120 L -97.5,-120 L -97.5,-126 L -112.5,-126 L -112.5,-120 L -120,-120 L -120,-150 L -112.5,-150 L -112.5,-144 L -97.5,-144 L -97.5,-150" fill="#FFFFFF"/><path d=" M 120,-120 L 120,-150 L 150,-150 L 150,-120 L 120,-120" fill="#FFFFFF"/><path d=" M -120,-217.5 L -120,-210 L -150,-210 L -150,-217.5 L -144,-217.5 L -144,-232.5 L -150,-232.5 L -150,-240 L -120,-240 L -120,-232.5 L -126,-232.5 L -126,-217.5 L -120,-217.5" fill="#FFFFFF"/><path d=" M 150,-52.5 L 150,-60 L 180,-60 L 180,-52.5 L 174,-52.5 L 174,-37.5 L 180,-37.5 L 180,-30 L 150,-30 L 150,-37.5 L 156,-37.5 L 156,-52.5 L 150,-52.5" fill="#FFFFFF"/><path d=" M -180,-240 L -180,-270 L -150,-270 L -150,-240 L -180,-240" fill="#FFFFFF"/><path d=" M -120,-240 L -120,-270 L -90,-270 L -90,-240 L -120,-240" fill="#FFFFFF"/><path d=" M 180,0 L 180,-30 L 210,-30 L 210,0 L 180,0" fill="#FFFFFF"/><path d=" M -210,-270 L -210,-300 L -180,-300 L -180,-270 L -210,-270" fill="#FFFFFF"/><path d=" M 210,30 L 210,0 L 240,0 L 240,30 L 210,30" fill="#FFFFFF"/><path d=" M -180,-300 L -180,-330 L -150,-330 L -150,-300 L -180,-300" fill="#FFFFFF"/><path d=" M -240,-300 L -240,-330 L -210,-330 L -210,-300 L -240,-300" fill="#FFFFFF"/><path d=" M 180,30 L 195,30 L 195,60 L 180,60 L 180,30" fill="#FFFFFF"/><path d=" M 240,60 L 240,30 L 270,30 L 270,60 L 240,60" fill="#FFFFFF"/><path d=" M -150,-330 L -150,-360 L -120,-360 L -120,-330 L -150,-330" fill="#FFFFFF"/><path d=" M -330,-300 L -330,-330 L -300,-330 L -300,-300 L -330,-300" fill="#FFFFFF"/><path d=" M 150,90 L 150,60 L 180,60 L 180,90 L 150,90" fill="#FFFFFF"/><path d=" M 330,60 L 330,30 L 360,30 L 360,60 L 330,60" fill="#FFFFFF"/><path d=" M -30,-217.5 L -30,-210 L -60,-210 L -60,-217.5 L -54,-217.5 L -54,-232.5 L -60,-232.5 L -60,-240 L -30,-240 L -30,-232.5 L -36,-232.5 L -36,-217.5 L -30,-217.5" fill="#FFFFFF"/><path d=" M 0,0 L 30,0 M -120,-120 L -120,-150 M -90,-120 L -90,-150 M 150,-150 L 150,-120 M 120,-150 L 120,-120 M -150,-240 L -120,-240 M -150,-210 L -120,-210 M 180,-30 L 150,-30 M 180,-60 L 150,-60 M -180,-240 L -180,-270 M -150,-240 L -150,-270 M -90,-270 L -90,-240 M -120,-270 L -120,-240 M 210,-30 L 210,0 M 180,-30 L 180,0 M -210,-300 L -180,-300 M -210,-270 L -180,-270 M 240,30 L 210,30 M 240,0 L 210,0 M -150,-330 L -150,-300 M -180,-330 L -180,-300 M -240,-300 L -240,-330 M -210,-300 L -210,-330 M 180,60 L 180,30 M 270,30 L 270,60 M 240,30 L 240,60 M -150,-360 L -120,-360 M -150,-330 L -120,-330 M -330,-300 L -330,-330 M -300,-300 L -300,-330 M 180,90 L 150,90 M 180,60 L 150,60 M 360,30 L 360,60 M 330,30 L 330,60 M -60,-240 L -30,-240 M -60,-210 L -30,-210" stroke="#FFFFFF" stroke-width="1" stroke-linejoin="round" stroke-linecap="butt"/></g><g><path d=" M 0,0"/><path d=" M -112.071,-481 L -113.972,-481 L -113.94,-480.038 L -114.247,-474.123 L -111.027,-469.634 L -114.617,-465.516 L -113.149,-459.883 L -116.077,-455.079 L -116.077,-455.079 L -112.756,-459.812 L -113.814,-465.299 L -109.626,-469.521 L -112.741,-474.513 L -112.104,-479.962 L -112.071,-481" fill="#000000"/><path d=" M -511,-341.397 L -511,-339.897 L -509.888,-339.929 L -504.621,-341.805 L -499.078,-340.681 L -494.753,-344.422 L -489.297,-343.444 L -489.297,-343.444 L -494.846,-344.809 L -499.257,-341.461 L -504.665,-342.922 L -510.112,-341.365 L -511,-341.397" fill="#000000"/><path d=" M -511,-388.304 L -511,-387.797 L -509.956,-387.826 L -506.494,-389.366 L -503.411,-387.239 L -503.411,-387.239 L -506.462,-389.622 L -510.044,-388.275 L -511,-388.304" fill="#000000"/><path d=" M 89,146.142 L 89,147.629 L 89.744,147.597 L 94.127,150.983 L 99.828,150.403 L 105.269,151.811 L 109.208,147.712 L 109.208,147.712 L 105.169,151.411 L 99.905,149.683 L 94.478,149.888 L 90.256,146.173 L 89,146.142" fill="#000000"/><path d=" M 541,51.963 L 541,51.099 L 540.073,51.13 L 536.011,49.734 L 531.654,49.911 L 527.356,49.576 L 527.356,49.576 L 531.641,50.179 L 535.916,50.269 L 539.927,51.932 L 541,51.963" fill="#000000"/><path d=" M -89.811,-180.169 L -80.104,-180.021 L -80.104,-180.021 L -70.012,-180.412 L -59.857,-179.918 L -49.852,-179.914 L -39.685,-179.99 L -29.987,-179.964 L -28.645,-179.927 M -27.456,-179.895 L -19.118,-179.67 L -10.311,-179.566 L -0.396,-180.137 L 10.257,-180.408 L 20.157,-180.091 L 30.087,-179.949 L 39.494,-180.298 L 49.865,-180.52 L 59.944,-179.932 L 69.831,-180.019 L 80.035,-179.887 L 89.989,-179.999 L 94.192,-179.993 M 95.288,-179.992 L 100.154,-179.984 L 110.292,-180.079 L 120.133,-179.695 M -89.929,-150.124 L -88.748,-150.122 M -78.077,-150.104 L -69.952,-150.1 L -59.833,-149.994 L -49.748,-150.412 L -39.429,-149.998 L -30.072,-150.674 L -20.195,-149.603 L -9.666,-149.969 L -0.346,-150.758 L 9.882,-149.305 L 20.263,-149.787 L 29.9,-150.394 L 39.755,-149.993 L 50.595,-150.054 L 60.454,-149.993 L 70.192,-149.896 L 80.022,-150.035 L 89.967,-149.837 L 100.211,-150.21 L 109.424,-149.793 L 119.72,-149.804 M -89.908,-120.107 L -89.546,-120.089 M -86.281,-119.925 L -79.48,-119.583 L -79.48,-119.583 L -69.623,-119.109 L -59.888,-119.986 L -50.728,-120.05 L -41.017,-119.938 L -30.463,-119.941 L -20.22,-119.628 L -10.179,-120.201 L 0.487,-120.15 L 10.92,-120.559 L 19.991,-120.009 L 30.006,-120.335 L 39.655,-120.115 L 50.11,-119.957 L 59.868,-119.606 L 69.814,-120.01 L 80.301,-120.33 L 90.05,-119.182 L 99.89,-120.149 L 110.444,-119.799 L 120.199,-120.072 M -89.818,-90.359 L -80.268,-89.778 L -80.268,-89.778 L -70.376,-89.875 L -60.303,-89.821 L -49.985,-89.988 L -40.004,-89.918 L -29.532,-90.625 L -20.421,-90.333 L -10.496,-89.601 L 0.275,-89.905 L 3.259,-89.925 M 6.296,-89.946 L 10.219,-89.973 L 19.783,-89.926 L 29.863,-89.796 L 40.054,-89.957 L 50.469,-90.181 L 59.996,-89.937 L 69.556,-89.957 L 80.511,-90.02 L 89.969,-90.008 L 100.012,-90.025 L 109.852,-89.859 L 120.299,-90.085 M -90.524,-60.142 L -85.173,-60.158 M -79.378,-60.17 L -69.927,-60.144 L -59.985,-60.573 L -49.94,-60.075 L -40.694,-60.47 L -29.59,-59.925 L -19.948,-59.976 L -10.046,-60.278 L -0.135,-59.945 L 9.821,-60.135 L 19.649,-59.982 L 30.137,-60.005 L 39.718,-59.463 L 49.547,-60.338 L 60.011,-59.658 L 70.154,-59.902 L 79.829,-59.856 L 89.789,-59.908 L 95.845,-59.953 M 98.449,-59.972 L 100.031,-59.983 L 103.799,-60.046 M 109.593,-60.144 L 109.89,-60.149 L 120.066,-60.007 M -90.054,-30.085 L -80.524,-30.05 M -73.546,-30.14 L -70.449,-30.187 L -60.07,-29.957 L -49.853,-30.184 L -39.07,-30.212 L -29.904,-30.068 L -20.222,-30.166 L -9.23,-29.476 L 0.02,-29.995 L 9.972,-29.607 L 19.995,-30.227 L 30.577,-29.963 L 40.165,-30.06 L 50.021,-29.512 L 60.032,-29.697 L 69.562,-29.871 L 79.715,-29.5 L 90.008,-29.988 L 99.968,-30.127 L 109.905,-29.528 L 120.134,-30.533 M -59.961,-209.991 L -60.069,-200.015 L -60.069,-200.015 L -59.689,-189.941 L -60.813,-180.197 L -60.194,-171.919 M -60.043,-167.075 L -60.008,-159.806 L -60.203,-149.694 L -59.543,-140.18 L -59.971,-129.98 L -60.033,-120.025 L -60.017,-110.048 L -60.105,-99.95 L -60.572,-90.157 L -59.919,-80.03 L -60.767,-70.242 L -60.201,-60.237 L -59.984,-49.875 L -60.835,-40.414 L -59.619,-29.842 L -60.007,-19.983 L -60.094,-10.253 L -60.234,-0.028 M -30.034,-210.049 L -29.871,-200.22 L -29.871,-200.22 L -29.613,-189.761 L -29.938,-179.578 L -29.774,-169.696 L -30.097,-160.541 L -29.866,-153.678 M -29.707,-148.868 L -29.419,-139.207 L -30.445,-130.045 L -29.391,-120.478 L -30.063,-110.02 L -30.438,-99.827 L -29.956,-90.011 L -29.924,-79.961 L -30.019,-70.013 L -29.984,-59.699 L -30.126,-49.87 L -29.811,-39.9 L -30.069,-30.008 L -30.592,-20.243 L -29.12,-10.09 L -30.102,-0.017 M 0.006,-210.021 L 0.125,-199.866 L 0.125,-199.866 L 0.317,-190.79 L 0.468,-179.664 L 0.792,-170.242 L 0.772,-169.96 M 0.635,-168.012 L 0.061,-159.871 L 0.143,-150.251 L -0.008,-139.994 L 0.351,-129.577 L -0.256,-119.833 L -0.143,-110.103 L 0.303,-99.538 L -0.158,-90.374 L -0.286,-80.271 L 0.189,-70.053 L 0.086,-60.315 L -0.167,-49.508 L 0.117,-40.638 L -0.355,-30.173 L -0.416,-19.927 L -0.399,-10.065 L 0.66,0.063 M 29.538,-210.278 L 29.987,-199.93 L 29.987,-199.93 L 29.997,-190.16 L 29.507,-179.596 L 30.205,-170.498 L 29.986,-160.052 L 29.994,-152.847 M 29.996,-148.422 L 29.986,-139.957 L 29.079,-130.132 L 30.105,-120.278 L 29.84,-109.686 L 29.778,-100.044 L 30.248,-89.8 L 30.01,-80.666 L 30.009,-69.485 L 29.795,-60.039 L 30.069,-49.888 L 30.23,-40.035 L 30.225,-29.994 L 29.959,-22.467 M 29.954,-22.334 L 29.86,-19.666 L 30.026,-10.453 L 30.475,-0.006 M 59.999,-210 L 59.823,-200.147 L 59.823,-200.147 L 60.008,-190.011 L 60.298,-180.461 L 60.446,-169.901 L 60.325,-160.264 L 60.031,-150.089 L 60.196,-139.875 L 60.133,-130.152 L 60.15,-122.145 M 60.119,-119.137 L 59.869,-109.513 L 60.091,-100.2 L 59.849,-89.45 L 60.011,-79.644 L 60.713,-70.391 L 60.107,-60.42 L 60.474,-50.281 L 59.748,-39.601 L 59.914,-30.079 L 59.637,-20.206 L 59.754,-10.271 L 59.83,0.059 M 90.178,-209.993 L 90.636,-200.469 L 90.636,-200.469 L 89.968,-189.945 L 89.3,-180.095 L 89.809,-170.017 L 90.308,-160.348 L 90.264,-149.68 L 89.959,-139.981 L 89.984,-130.028 L 89.967,-119.895 L 90.183,-109.984 L 89.936,-100.177 L 90.047,-92.326 M 90.079,-90.051 L 90.088,-89.454 L 89.953,-80.056 L 90.743,-70.416 L 89.414,-59.856 L 89.928,-50.462 L 89.927,-40.113 L 90.061,-29.982 L 90.09,-20.037 L 89.998,-10.003 L 90.09,0.124 M -269.831,-179.854 L -267.686,-179.879 M -264.338,-179.917 L -260.096,-179.965 L -260.096,-179.965 L -249.84,-180.513 L -240.177,-179.572 L -230.163,-180.014 L -219.754,-180.927 L -209.642,-179.75 L -200.318,-179.614 L -190.058,-180.251 L -180.082,-179.786 L -170.426,-179.74 L -159.895,-180.273 L -149.763,-180.045 L -140.331,-179.931 L -130.075,-179.783 L -127.138,-179.672 M -123.47,-179.533 L -121.326,-179.452 M -270.179,-149.911 L -262.28,-150.153 M -260.338,-150.212 L -259.58,-150.235 L -259.58,-150.235 L -249.92,-149.977 L -239.378,-149.909 L -229.91,-150.239 L -220.439,-150.347 L -210.192,-150.14 L -199.925,-150.391 L -190.086,-150.073 L -180.014,-149.883 L -170.317,-150.507 L -160.172,-150.165 L -149.6,-150.313 L -139.618,-150.112 L -129.973,-149.87 L -120.174,-150.078 M -270.943,-120.232 L -259.971,-119.831 L -259.971,-119.831 L -249.875,-120.058 L -239.621,-120.335 L -230.397,-120.134 L -219.934,-119.948 L -209.951,-120.082 L -199.959,-120.15 L -189.699,-119.985 L -180.16,-119.831 L -176.793,-119.724 M -170.599,-119.527 L -169.424,-119.489 L -159.613,-120.213 L -149.991,-120.107 L -139.82,-120.058 L -129.857,-119.911 L -119.912,-119.377 M -269.92,-90.118 L -260.048,-89.794 L -260.048,-89.794 L -249.759,-90.162 L -240.132,-89.839 L -231.237,-89.978 M -227.04,-90.012 L -219.954,-90.049 L -209.999,-89.98 L -200.165,-90.76 L -190.111,-90.053 L -180.52,-89.333 L -170.226,-89.868 L -160.286,-89.88 L -150.361,-90.374 L -140.009,-89.999 L -129.799,-89.917 L -120.156,-90.196 M -240.579,-209.849 L -240.121,-199.709 L -240.121,-199.709 L -239.819,-189.999 L -239.896,-179.935 L -239.843,-169.895 L -239.79,-160.209 L -240.136,-150.04 L -239.732,-140.033 L -239.86,-130.531 L -239.509,-120.281 L -240.025,-109.782 L -239.787,-100.24 L -240.042,-97.098 M -240.113,-96.223 L -240.623,-89.948 L -239.882,-80.018 L -240.116,-69.883 L -239.713,-59.85 M -210.089,-209.849 L -209.565,-199.828 L -209.565,-199.828 L -209.647,-189.871 L -209.828,-180.339 L -210.428,-169.998 L -209.716,-161.026 M -209.741,-156.583 L -209.998,-150.013 L -210.06,-140.091 L -210.004,-129.775 L -210.004,-119.947 L -210.05,-109.992 L -210.647,-99.921 L -209.959,-90.17 L -210.035,-80.079 L -209.616,-69.735 L -209.887,-59.308 M -180.589,-210.052 L -180.037,-200.927 L -180.037,-200.927 L -179.944,-190.66 L -179.501,-179.819 L -179.972,-169.81 L -180.54,-160.107 L -180.276,-154.778 M -179.984,-148.571 L -179.63,-140.216 L -180.139,-129.91 L -180.229,-119.711 L -180.358,-110.065 L -180.328,-100.079 L -180.042,-90.118 L -179.984,-80.008 L -179.842,-70.07 L -179.52,-59.902 M -149.92,-209.991 L -149.677,-199.643 L -149.677,-199.643 L -149.375,-190.626 L -150.267,-179.867 L -150.152,-169.988 L -150.092,-166.478 M -150.084,-166.015 L -149.979,-159.974 L -149.911,-150.008 L -150.145,-139.778 L -150.314,-130.038 L -150.625,-119.82 L -150.275,-110.404 L -150.279,-100.179 L -150.025,-89.962 L -149.534,-79.779 L -149.293,-69.728 L -150,-59.998 M 149.858,-180.314 L 160.027,-179.968 L 160.027,-179.968 L 170.073,-180.14 L 180.106,-179.924 L 190.08,-179.988 L 200.795,-179.946 L 205.726,-179.872 M 209.12,-179.822 L 210.252,-179.805 L 220.352,-179.97 L 230.891,-180.27 L 239.215,-179.787 L 250.201,-180.193 L 260.014,-179.397 L 270.02,-180.002 L 280.172,-179.707 L 290.478,-180.014 L 299.971,-179.855 M 150.283,-150.126 L 160.18,-149.993 L 160.18,-149.993 L 160.798,-149.996 M 163.561,-150.008 L 169.912,-150.035 L 180.345,-149.965 L 189.923,-149.949 L 200.078,-150.244 L 210.361,-150.539 L 220.022,-149.93 L 229.774,-150.336 L 239.986,-149.929 L 249.681,-150.53 L 260.021,-150.464 L 269.706,-149.743 L 279.986,-149.869 L 289.798,-149.866 L 300.091,-150.122 M 150.337,-119.563 L 160.274,-119.467 L 160.274,-119.467 L 170.04,-120.186 L 180.168,-120.254 L 189.971,-120.023 L 200.475,-120.128 L 209.618,-119.895 L 219.682,-120.187 L 230.237,-120.104 L 240.167,-119.551 L 241.593,-119.632 M 242.968,-119.709 L 249.921,-120.102 L 259.89,-119.636 L 270.029,-120.01 L 280.111,-120.079 L 290.142,-119.182 L 299.366,-120.64 M 150.379,-89.954 L 159.743,-89.849 L 159.743,-89.849 L 171.096,-90.025 L 179.656,-90.475 L 190.004,-90.007 L 200.079,-89.865 L 209.687,-90.246 L 211.219,-90.165 M 214.366,-90 L 220.544,-89.676 L 229.902,-89.986 L 239.965,-90.052 L 249.963,-89.736 L 259.593,-90.156 L 270.21,-89.465 L 279.941,-90.132 L 290.144,-89.878 L 299.84,-89.723 M 180.013,-210.031 L 180.168,-199.847 L 180.168,-199.847 L 180.161,-190.159 L 180.65,-179.967 L 180.512,-170.08 L 179.833,-159.911 L 179.558,-150.647 L 179.988,-139.995 L 180.417,-130.384 L 179.918,-120.054 L 179.354,-110.239 L 179.868,-103.791 M 180.102,-100.86 L 180.138,-100.41 L 179.83,-89.757 L 179.93,-79.912 L 180.08,-69.917 L 179.931,-59.919 M 209.793,-210.364 L 209.822,-199.562 L 209.822,-199.562 L 210.203,-189.927 L 209.973,-180.121 L 209.943,-171.971 M 209.945,-169.324 L 210.049,-159.974 L 209.757,-150.501 L 209.748,-140.179 L 209.904,-130.763 L 209.473,-119.559 L 209.695,-109.766 L 209.922,-100.108 L 209.872,-89.737 L 210.049,-80.159 L 209.994,-70.049 L 209.931,-60.362 M 239.646,-210.052 L 239.585,-200.056 L 239.585,-200.056 L 240.005,-189.958 L 239.844,-179.857 L 240.116,-173.385 M 240.207,-169.107 L 239.653,-160.163 L 239.961,-149.735 L 240.18,-139.976 L 240.082,-129.621 L 239.937,-119.894 L 240.459,-109.044 L 240.107,-100.096 L 240.007,-89.987 L 240.029,-80.091 L 240.277,-69.978 L 240.313,-59.94 M 270.205,-210.625 L 269.78,-199.71 L 269.78,-199.71 L 270.294,-190.376 L 269.922,-179.979 L 270.114,-175.181 M 270.12,-175.03 L 270.307,-170.364 L 269.463,-160.167 L 269.873,-149.775 L 269.08,-139.461 L 270.609,-129.96 L 270.163,-119.898 L 270.223,-110.045 L 270.004,-99.991 L 270.032,-89.887 L 270.551,-79.991 L 269.983,-70.001 L 269.802,-60.135 M -59.721,-270.121 L -59.939,-260.177 L -59.939,-260.177 L -59.989,-249.776 L -59.857,-240.058 M -270.47,-329.467 L -270.103,-320.221 L -270.103,-320.221 L -269.98,-310.064 L -270.116,-299.962 M 300.463,30.24 L 299.635,39.387 L 299.635,39.387 L 299.88,49.498 L 299.986,51.746 M 300.046,53.027 L 300.385,60.237 M -210.318,-449.577 L -200.395,-449.985 L -200.395,-449.985 L -189.782,-448.99 L -179.492,-449.65 L -169.98,-449.998 L -160.228,-450.072 L -149.995,-449.99 L -141.223,-449.981 M -131.4,-449.484 L -129.893,-449.396 L -119.835,-449.459 L -110.006,-450.006 L -100.143,-451.015 L -90.095,-450.133 L -80.208,-449.937 L -69.897,-449.876 L -60.248,-449.991 M -210.028,-419.987 L -199.981,-420.285 L -199.981,-420.285 L -190.13,-420.01 L -180.004,-420 L -169.708,-419.928 L -160.065,-419.852 L -149.732,-419.69 L -139.985,-420.081 L -131.413,-419.842 M -128.147,-419.856 L -120.173,-420.231 L -110.574,-420.093 L -100.26,-420.1 L -90.023,-419.898 L -80.664,-419.281 L -70.173,-420.077 L -60.259,-420.07 M -209.656,-389.425 L -200.135,-390.04 L -200.135,-390.04 L -190.635,-389.685 L -180.329,-390.686 L -169.663,-390.045 L -160.187,-390.241 L -150.195,-389.998 L -139.752,-390.02 L -129.854,-390.291 L -122.234,-389.941 M -120.058,-389.841 L -119.959,-389.837 L -110.066,-389.961 L -100.695,-389.675 L -90.08,-390.333 L -79.69,-389.934 L -70.055,-389.983 L -59.477,-389.663 M -179.711,-479.451 L -180.057,-470.038 L -180.057,-470.038 L -179.848,-459.207 L -179.836,-450.137 L -180.33,-440.028 L -179.735,-430.18 L -180.25,-420.1 L -180.166,-410.299 L -180.178,-409.003 M -180.179,-408.853 L -180.256,-399.945 L -180.382,-389.929 L -180.116,-380.071 L -179.726,-369.833 L -180.644,-360.607 M -150.077,-479.941 L -150.062,-477.73 M -150.048,-475.619 L -150.01,-469.98 L -150.01,-469.98 L -149.808,-459.756 L -150.007,-450.043 L -149.954,-439.698 L -150.423,-430.418 L -149.486,-419.655 L -150.279,-410.037 L -150.064,-400.122 L -150.143,-390.209 L -149.928,-380 L -149.68,-369.784 L -149.818,-359.711 M -120.268,-479.745 L -119.923,-469.96 L -119.923,-469.96 L -120.15,-461.374 M -120.163,-460.896 L -120.192,-459.806 L -119.981,-449.999 L -119.916,-439.974 L -120.057,-430.034 L -119.783,-419.952 L -120.02,-409.968 L -120.359,-400.257 L -120.44,-390.367 L -120.294,-379.855 L -119.955,-369.996 L -120.26,-359.955 M -89.595,-479.86 L -89.975,-470.032 L -89.975,-470.032 L -90.036,-460.079 L -89.643,-449.876 L -89.996,-439.989 L -90.057,-430.133 L -89.523,-420.064 L -90.009,-409.282 L -90.13,-399.622 L -90.158,-389.561 L -89.694,-380.095 L -89.712,-379.566 M -89.918,-373.514 L -90.042,-369.856 L -89.984,-359.959 M -510.283,-390.153 L -500.054,-390.153 L -500.054,-390.153 L -490.385,-390.118 L -480.216,-389.972 L -469.996,-389.883 L -459.933,-390.077 L -450.103,-390.088 L -439.607,-390.055 L -429.894,-390.251 L -426.744,-390.166 M -419.521,-389.975 L -409.958,-389.824 L -400.084,-389.991 L -389.97,-390.012 L -380.066,-390.103 L -370.053,-389.984 L -359.987,-390.469 L -350.059,-389.7 L -339.99,-389.941 L -329.758,-390.424 M -510.073,-360.017 L -499.893,-359.874 L -499.893,-359.874 L -490.343,-359.693 L -479.195,-359.791 L -469.765,-360.243 L -460.29,-360.448 L -450.479,-360.051 M -442.284,-359.719 L -439.876,-359.621 L -429.876,-359.883 L -420.701,-360.221 L -410.453,-360.028 L -400.761,-360.141 L -389.831,-359.707 L -379.995,-360.003 L -369.918,-359.397 L -359.45,-360.37 L -350.328,-360.446 L -339.814,-360.049 L -330.252,-359.715 M -509.739,-330.749 L -500.288,-330.381 L -500.288,-330.381 L -490.118,-329.933 L -480.548,-330.87 L -470.849,-329.999 L -460.155,-329.797 L -451.055,-329.84 L -440.245,-330.68 L -429.731,-330.519 L -422.671,-330.348 M -417.607,-330.202 L -409.667,-329.935 L -399.172,-329.429 L -389.61,-329.542 L -379.856,-329.411 L -370.161,-329.705 L -360.28,-329.683 L -350.064,-330.085 L -339.822,-330.268 L -329.784,-330.087 M -509.525,-299.324 L -500.763,-299.839 L -500.763,-299.839 L -490.224,-299.869 L -479.739,-299.668 L -469.434,-300.319 L -460.444,-300.07 L -449.77,-299.958 L -439.917,-300.048 L -430.074,-299.89 L -419.403,-300.606 L -410.143,-299.982 L -399.883,-300.08 L -394.34,-300.004 M -390.067,-299.946 L -389.93,-299.944 L -380.228,-299.534 L -370.03,-299.925 L -360.262,-300.422 L -350.12,-300.074 L -339.945,-299.97 L -330.477,-300.218 M -509.819,-270.117 L -500.054,-269.89 L -500.054,-269.89 L -490.098,-270.022 L -479.589,-270.153 L -470.004,-269.998 L -460.073,-269.915 L -449.617,-269.586 L -439.539,-270.375 L -430.025,-270.065 L -420.358,-270.11 L -415.534,-270.122 M -409.534,-270.138 L -400.009,-270.16 L -390.511,-270.25 L -379.735,-270.067 L -370.174,-270.017 L -359.994,-270.009 L -350.04,-270.149 L -340.001,-269.996 L -330.194,-269.408 M -510.579,-240.224 L -505.145,-239.825 M -502.923,-239.663 L -500.388,-239.477 L -500.388,-239.477 L -490.653,-240.302 L -479.53,-239.92 L -469.988,-239.958 L -459.786,-240.212 L -449.628,-239.557 L -439.891,-240.063 L -430.108,-240.162 L -419.636,-239.755 L -410.126,-239.968 L -400.173,-239.93 L -390.643,-240.03 L -380.072,-240.011 L -369.997,-240.005 L -360.316,-240.263 L -350.343,-240.189 L -346.821,-240.159 M -346.586,-240.157 L -341.137,-240.111 M -338.91,-240.098 L -330.09,-240.068 M -480.176,-420.097 L -480.071,-409.966 L -480.071,-409.966 L -480.088,-406.779 M -480.126,-399.983 L -480.127,-399.799 L -479.645,-390.099 L -479.824,-380.047 L -480.057,-369.585 L -480.127,-360.212 L -479.949,-350.269 L -480.46,-339.955 L -480.277,-329.656 L -479.79,-319.869 L -479.694,-309.848 L -479.814,-299.662 L -480.215,-290.128 L -480.922,-279.888 L -479.807,-269.543 L -479.784,-260.121 L -480.027,-249.932 L -479.895,-240.002 L -480.086,-230.24 L -480.042,-220.082 L -479.984,-217.049 M -479.972,-216.409 L -479.852,-210.133 M -450.196,-420.448 L -450.088,-409.739 L -450.088,-409.739 L -450.493,-399.986 L -449.981,-389.954 L -449.614,-379.874 L -450.189,-369.98 L -450.051,-362.545 M -450.021,-360.941 L -450.003,-360.005 L -450.154,-350.071 L -450.137,-339.962 L -450.075,-330.002 L -450.223,-319.906 L -449.73,-310.259 L -449.558,-300.691 L -450.145,-289.846 L -450.129,-279.825 L -450.099,-269.859 L -450.309,-259.95 L -450.156,-250.186 L -450.066,-240.168 L -450.128,-229.949 L -450.11,-219.978 L -450.088,-209.951 M -420.071,-419.976 L -420.19,-410.173 L -420.19,-410.173 L -420.018,-399.827 L -420.288,-390.081 L -419.629,-380.114 L -419.391,-369.594 L -420.237,-360.068 L -419.918,-350.594 L -420.319,-343.46 M -420.337,-343.143 L -420.509,-340.093 L -420.014,-329.882 L -419.751,-320.498 L -419.97,-310.027 L -419.72,-300.273 L -419.997,-290.083 L -420.252,-279.431 L -420.024,-270.074 L -420.244,-259.764 L -420.049,-249.962 L -419.787,-239.894 L -419.951,-229.837 L -419.837,-220.121 L -419.99,-209.984 M -390.011,-420.022 L -390.119,-410.031 L -390.119,-410.031 L -389.87,-400.066 L -390.088,-389.659 L -389.978,-380.001 L -389.999,-370 L -390.199,-359.897 L -389.675,-350.412 L -389.807,-339.915 L -390.715,-330.416 L -389.807,-320.012 L -389.742,-315.334 M -389.692,-311.768 L -389.665,-309.815 L -389.956,-299.91 L -389.451,-289.867 L -389.955,-280.107 L -390.043,-270.063 L -390.174,-259.761 L -390.016,-250.571 L -389.793,-239.673 L -390.899,-230.27 L -389.932,-219.942 L -389.756,-210.096 M -360.499,-420.201 L -359.997,-409.992 L -359.997,-409.992 L -360.13,-399.944 L -360.064,-390.174 L -359.946,-380.086 L -359.631,-369.853 L -359.968,-359.808 L -359.997,-351.723 M -359.923,-348.5 L -359.468,-339.996 L -359.977,-329.918 L -359.918,-319.826 L -360.054,-310.076 L -360.382,-299.74 L -360.009,-290.003 L -359.885,-279.928 L -360.124,-270.363 L -360.226,-260.21 L -360.333,-249.936 L -359.577,-239.862 L -360.201,-229.929 L -360.17,-226.609 M -360.12,-221.351 L -360.105,-219.709 L -359.979,-210.484 M 90.123,119.315 L 99.943,119.668 L 99.943,119.668 L 109.977,119.961 L 119.718,120.019 L 130.27,119.383 L 140.002,119.97 L 150.1,120.148 L 160.334,119.448 L 170.573,120.133 L 180.609,119.309 L 190.021,120.024 L 200.008,119.954 L 203.665,119.981 M 204.388,119.987 L 210.005,120.028 L 220.033,119.935 L 229.962,120.119 L 239.91,119.871 M 90.674,150.066 L 90.999,150.057 M 93.992,149.971 L 99.987,149.798 L 99.987,149.798 L 110.699,149.699 L 120.378,150.613 L 129.915,149.883 L 139.862,150.238 L 149.643,149.963 L 159.885,148.997 L 169.916,150.032 L 180.323,149.887 L 190.336,149.499 L 200.289,150.461 L 210.045,150.012 L 220.071,149.875 L 229.94,149.593 L 240.029,149.79 M 89.752,180.097 L 100.165,179.805 L 100.165,179.805 L 109.641,179.523 L 120.803,179.526 L 129.996,180.022 L 139.995,180.011 L 149.879,180.017 L 159.638,180.052 L 169.977,180.002 L 179.93,179.884 L 190.582,180.75 L 199.963,179.742 L 204.69,179.703 M 209.46,179.664 L 209.826,179.661 L 220.106,180.057 L 229.984,180.39 L 239.41,180.052 M 120.487,90 L 119.855,99.326 L 119.855,99.326 L 120.123,110.264 L 120.334,119.628 L 120.099,130.071 L 120.041,140.024 L 120.01,141.763 M 119.923,146.747 L 119.857,150.512 L 120.1,160.144 L 119.989,169.677 L 119.946,179.941 L 120.335,189.621 L 120.611,199.285 L 119.958,210.143 M 150.248,89.961 L 150.123,100.11 L 150.123,100.11 L 150.006,107.54 M 150.063,113.056 L 150.258,120.162 L 150.104,130.01 L 150.376,139.693 L 149.789,150.376 L 149.581,159.916 L 150.046,169.886 L 149.85,179.949 L 150.061,190.07 L 150.092,200.064 L 150.201,210.098 M 180.027,89.934 L 180.284,99.962 L 180.284,99.962 L 179.993,109.997 L 179.57,120.047 L 179.75,129.465 L 180.204,139.993 L 179.49,150.021 L 179.869,160.094 L 179.485,170.299 L 180.111,179.918 L 179.982,189.99 L 179.932,196.878 M 180.229,204.863 L 180.554,209.599 M 210.442,90.628 L 209.576,99.765 L 209.576,99.765 L 210.071,109.78 L 210.492,119.791 L 209.102,129.926 L 210.031,140.06 L 209.895,150.295 L 209.711,159.447 L 210.012,169.992 L 210.127,180.386 L 209.626,189.812 L 209.951,199.793 L 210.109,207.833 M 360.008,-30.118 L 369.873,-29.891 L 369.873,-29.891 L 379.637,-29.817 L 389.474,-29.422 L 399.42,-30.26 L 410.203,-29.85 L 420.098,-30.12 L 429.927,-30.155 L 440.005,-30.003 L 449.986,-29.994 L 459.812,-29.872 L 469.529,-29.698 L 471.282,-29.887 M 473.113,-30.084 L 480.384,-30.866 L 490.485,-29.841 L 500.354,-30.315 L 510.049,-29.755 L 520.006,-29.846 L 529.778,-30.148 L 539.97,-30.097 M 359.866,-0.109 L 369.94,0.575 L 369.94,0.575 L 380.024,-0.03 L 390.03,-0.213 L 399.813,0.091 L 409.995,-0.025 L 420.091,0.16 L 429.954,0.246 L 439.96,0.156 L 449.943,-0.151 L 459.65,-0.583 L 465.511,-0.136 M 467.161,-0.01 L 470.043,0.21 L 479.997,-0.003 L 490.951,-0.504 L 499.903,0.074 L 509.887,-0.012 L 519.587,-0.424 L 529.921,-0.279 L 539.873,-0.153 M 359.775,29.885 L 370.036,29.396 L 370.036,29.396 L 380.204,30.311 L 390.892,30.339 L 400.066,29.619 L 405.046,30.023 M 405.99,30.1 L 410.549,30.471 L 419.758,29.888 L 429.049,30.164 L 440.306,30.033 L 449.411,29.811 L 460.04,30.269 L 470.167,30.047 L 480.077,30.084 L 489.944,30.114 L 499.869,29.915 L 509.247,30.226 L 520.253,30.289 L 530.322,30.073 L 540.129,30.126 M 360.176,59.864 L 370.262,59.706 L 370.262,59.706 L 379.545,60.145 L 389.935,58.999 L 399.958,59.939 L 409.978,60.128 L 419.787,60.109 L 429.8,59.502 L 440.131,59.698 L 450,59.938 L 459.537,59.894 L 467.942,60.312 M 474.849,60.236 L 479.959,60.063 L 489.989,60.049 L 500.163,60.444 L 510.136,59.799 L 520.019,60.025 L 530.372,60.187 L 539.278,60.44 M 360.207,89.877 L 364.234,90.002 M 366.727,90.08 L 370.015,90.182 L 370.015,90.182 L 380.07,90.012 L 390.152,90.21 L 400.115,89.819 L 409.697,89.957 L 420.048,90.027 L 429.949,90.469 L 439.448,89.643 L 449.918,89.996 L 459.632,89.645 L 469.934,90.121 L 479.739,90.331 L 489.868,89.794 L 499.941,90.319 L 510.002,90.009 L 520.21,89.967 L 530.427,89.787 L 539.715,89.764 M 359.696,120.385 L 369.974,120.049 L 369.974,120.049 L 379.927,119.716 L 389.912,119.89 L 399.978,120.084 L 410.084,120.036 L 420.319,119.38 L 429.852,119.95 L 440.505,120.072 L 443.269,120.095 M 443.998,120.101 L 450.203,120.154 L 460.647,120.774 L 470.265,120.022 L 480.025,120.285 L 489.804,120.178 L 499.56,120.324 L 509.657,119.963 L 519.825,120.063 L 530.13,120.162 L 539.873,120.069 M 389.977,-59.905 L 389.998,-49.146 L 389.998,-49.146 L 389.365,-40.288 L 390.005,-30.026 L 389.983,-24.741 M 389.97,-21.63 L 389.963,-19.979 L 389.546,-9.938 L 390.7,0.403 L 390.036,10.111 L 390.166,19.875 L 389.822,29.69 L 389.421,40.575 L 390.246,50.361 L 390.17,59.135 L 389.918,70.064 L 390.001,79.999 L 390.005,89.899 L 389.91,99.718 L 389.793,109.918 L 389.891,120.156 L 389.911,130.344 L 390.083,139.989 L 389.775,150.41 M 419.445,-59.876 L 420.051,-50.023 L 420.051,-50.023 L 419.986,-40.676 L 420.187,-29.937 L 420.269,-20.059 L 419.414,-9.751 L 419.669,-0.098 L 419.866,9.946 L 420.056,12.526 M 420.565,19.426 L 420.61,20.041 L 419.425,29.324 L 420.845,40.322 L 419.848,49.957 L 420.148,59.722 L 420.187,70.116 L 420.497,79.833 L 420.318,90.158 L 419.879,100.592 L 419.745,109.557 L 419.517,120.118 L 420.527,129.842 L 419.536,139.847 L 420.138,150.002 M 450.148,-59.983 L 449.465,-50.048 L 449.465,-50.048 L 450.144,-39.821 L 450.479,-29.861 L 450.008,-20.006 L 449.971,-10.267 L 450.04,0.053 L 450.128,9.643 L 449.544,20.152 L 450.287,29.672 L 450.094,36.621 M 450.001,40.339 L 450.026,49.773 L 449.915,60.064 L 450.251,70.103 L 449.904,80 L 449.478,90.27 L 450.101,99.819 L 450.688,110.227 L 450.439,119.714 L 450.103,129.975 L 449.498,139.807 L 450.453,150.616 M 479.779,-60.14 L 480.055,-50.168 L 480.055,-50.168 L 480.845,-39.995 L 479.05,-29.946 L 480.048,-19.657 L 480.061,-15.711 M 480.08,-8.44 L 480.071,0.345 L 480.257,10.04 L 480.068,19.772 L 480.113,29.408 L 479.741,39.665 L 480.373,50.336 L 479.965,59.286 L 479.978,69.811 L 480.667,80.188 L 479.893,90.627 L 480.359,100.219 L 480.503,109.969 L 480.353,120.473 L 479.902,130.09 L 479.488,140.508 L 480.035,149.99 M 509.67,-59.668 L 509.961,-50.019 L 509.961,-50.019 L 509.901,-46.551 M 509.84,-43.101 L 509.789,-40.214 L 509.91,-29.927 L 509.93,-20.084 L 510.064,-9.977 L 510.113,0.147 L 510.035,10.006 L 509.401,20.587 L 510.602,29.883 L 510.248,39.894 L 509.657,49.591 L 510.411,59.26 L 509.701,69.597 L 510.094,79.842 L 509.791,90.035 L 510.109,100.122 L 509.738,109.108 L 510.51,119.383 L 510.218,129.471 L 510.242,140.16 L 510.221,140.711 M 510.083,144.335 L 509.89,149.421 M -0.057,0.137 L 10.003,0.294 L 10.003,0.294 L 19.969,-0.074 L 22,-0.061 M 26.523,-0.032 L 30.296,-0.007 M -119.045,-120.292 L -119.724,-127.011 M -120.016,-132.65 L -120.015,-139.992 L -120.01,-150.014 M -89.745,-150.495 L -89.908,-140.173 L -89.908,-140.173 L -89.819,-137.504 M -89.671,-133.069 L -89.555,-129.611 L -90.271,-120.047 M 149.941,-149.835 L 149.79,-141.27 M 149.767,-139.041 L 149.789,-130.012 L 150.29,-120.222 M 120.081,-119.979 L 119.904,-129.983 L 119.904,-129.983 L 120.042,-140.492 L 120.031,-149.828 M -150.024,-239.947 L -139.981,-240.029 L -139.981,-240.029 L -129.971,-239.986 L -119.998,-239.975 M -120.081,-209.982 L -129.803,-209.779 L -129.803,-209.779 L -139.862,-210.131 L -149.7,-209.968 M 180.472,-30.756 L 170.567,-30.326 L 170.567,-30.326 L 159.807,-29.944 L 150.363,-29.873 M 150.632,-60.309 L 160.441,-59.97 L 160.441,-59.97 L 169.993,-60.191 L 180.491,-60.26 M -180.03,-239.971 L -179.993,-242.07 M -179.905,-247.116 L -179.855,-249.953 L -179.855,-249.953 L -179.818,-260.639 L -179.782,-269.494 M -89.893,-270.086 L -89.316,-259.857 L -89.316,-259.857 L -90.04,-250.15 L -89.979,-240.031 M 209.159,-30.245 L 209.488,-19.57 L 209.488,-19.57 L 209.711,-16.319 M 209.924,-13.22 L 210.159,-9.801 L 209.626,-0.155 M -209.832,-300.671 L -200,-300.001 L -200,-300.001 L -190.039,-299.903 L -183.899,-299.979 M 239.927,29.845 L 229.712,30.592 L 229.712,30.592 L 219.798,29.772 L 209.978,30.555 M -149.969,-330.26 L -150.254,-320.312 L -150.254,-320.312 L -150.131,-309.928 L -149.096,-300.581 M -239.693,-300.287 L -239.974,-310.052 L -239.974,-310.052 L -240.077,-319.824 L -239.72,-329.97 M 179.824,60.056 L 180.16,50.296 L 180.16,50.296 L 180.415,39.615 L 180.031,30.099 M 270.419,29.588 L 269.727,39.719 L 269.727,39.719 L 269.953,49.474 L 269.971,59.813 M 240.343,60.374 L 240.139,49.743 L 240.139,49.743 L 240.15,40.086 L 240.4,30.949 M -149.409,-359.82 L -140.524,-360.405 L -140.524,-360.405 L -129.838,-359.79 L -119.905,-359.804 M -330.113,-299.754 L -329.993,-310.035 L -329.993,-310.035 L -329.811,-319.932 L -329.993,-329.997 M 179.958,89.888 L 169.374,90.12 L 169.374,90.12 L 160.696,89.414 L 149.939,90.211 M 360.02,29.728 L 359.552,40.272 L 359.552,40.272 L 359.827,50.241 L 360.046,59.926 M 329.601,60.083 L 329.77,53.161 M 329.791,52.306 L 329.847,50.014 L 329.847,50.014 L 329.393,39.908 L 329.369,29.95 M -60.046,-240.078 L -49.994,-239.989 L -49.994,-239.989 L -39.998,-240.075 L -30.094,-240.117 M -29.607,-210.011 L -39.774,-210.567 L -39.774,-210.567 L -49.751,-209.727 L -60.792,-210.37" stroke="#000000" stroke-width="0.3"/></g><g clip-path="url(#instance17)"><path d=" M 0,0"/><clipPath id="instance17" fill="#FFFFFF"><path d=" M 0,0"/><path d=" M -90,0 L -90,-210 L 120,-210 L 120,0 L -90,0" fill="#FF0000"/><path d=" M -270,-60 L -270,-210 L -120,-210 L -120,-60 L -270,-60" fill="#FF0000"/><path d=" M 150,-60 L 150,-210 L 300,-210 L 300,-60 L 150,-60" fill="#FF0000"/><path d=" M -150,-240 L -150,-270 L -120,-270 L -120,-240 L -150,-240" fill="#FF0000"/><path d=" M 150,0 L 150,-30 L 180,-30 L 180,0 L 150,0" fill="#FF0000"/><path d=" M -210,-240 L -210,-270 L -180,-270 L -180,-240 L -210,-240" fill="#FF0000"/><path d=" M -90,-240 L -90,-270 L -30,-270 L -30,-240 L -90,-240" fill="#FF0000"/><path d=" M 210,0 L 210,-30 L 240,-30 L 240,0 L 210,0" fill="#FF0000"/><path d=" M -210,-300 L -210,-330 L -180,-330 L -180,-300 L -210,-300" fill="#FF0000"/><path d=" M 210,60 L 210,30 L 240,30 L 240,60 L 210,60" fill="#FF0000"/><path d=" M -150,-300 L -150,-330 L -120,-330 L -120,-300 L -150,-300" fill="#FF0000"/><path d=" M -300,-300 L -300,-330 L -240,-330 L -240,-300 L -300,-300" fill="#FF0000"/><path d=" M 150,60 L 150,30 L 180,30 L 180,60 L 150,60" fill="#FF0000"/><path d=" M 270,60 L 270,30 L 330,30 L 330,60 L 270,60" fill="#FF0000"/><path d=" M -210,-360 L -210,-480 L -60,-480 L -60,-360 L -210,-360" fill="#FF0000"/><path d=" M -510,-210 L -510,-420 L -330,-420 L -330,-210 L -510,-210" fill="#FF0000"/><path d=" M 90,210 L 90,90 L 240,90 L 240,210 L 90,210" fill="#FF0000"/><path d=" M 360,150 L 360,-60 L 540,-60 L 540,150 L 360,150" fill="#FF0000"/><path d=" M 0,30 L 0,0 L 30,0 L 30,30 L 0,30" fill="#FF0000"/><path d=" M -97.5,-150 L -90,-150 L -90,-120 L -97.5,-120 L -97.5,-126 L -112.5,-126 L -112.5,-120 L -120,-120 L -120,-150 L -112.5,-150 L -112.5,-144 L -97.5,-144 L -97.5,-150" fill="#FF0000"/><path d=" M 120,-120 L 120,-150 L 150,-150 L 150,-120 L 120,-120" fill="#FF0000"/><path d=" M -120,-217.5 L -120,-210 L -150,-210 L -150,-217.5 L -144,-217.5 L -144,-232.5 L -150,-232.5 L -150,-240 L -120,-240 L -120,-232.5 L -126,-232.5 L -126,-217.5 L -120,-217.5" fill="#FF0000"/><path d=" M 150,-52.5 L 150,-60 L 180,-60 L 180,-52.5 L 174,-52.5 L 174,-37.5 L 180,-37.5 L 180,-30 L 150,-30 L 150,-37.5 L 156,-37.5 L 156,-52.5 L 150,-52.5" fill="#FF0000"/><path d=" M -180,-240 L -180,-270 L -150,-270 L -150,-240 L -180,-240" fill="#FF0000"/><path d=" M -120,-240 L -120,-270 L -90,-270 L -90,-240 L -120,-240" fill="#FF0000"/><path d=" M 180,0 L 180,-30 L 210,-30 L 210,0 L 180,0" fill="#FF0000"/><path d=" M -210,-270 L -210,-300 L -180,-300 L -180,-270 L -210,-270" fill="#FF0000"/><path d=" M 210,30 L 210,0 L 240,0 L 240,30 L 210,30" fill="#FF0000"/><path d=" M -180,-300 L -180,-330 L -150,-330 L -150,-300 L -180,-300" fill="#FF0000"/><path d=" M -240,-300 L -240,-330 L -210,-330 L -210,-300 L -240,-300" fill="#FF0000"/><path d=" M 180,30 L 195,30 L 195,60 L 180,60 L 180,30" fill="#FF0000"/><path d=" M 240,60 L 240,30 L 270,30 L 270,60 L 240,60" fill="#FF0000"/><path d=" M -150,-330 L -150,-360 L -120,-360 L -120,-330 L -150,-330" fill="#FF0000"/><path d=" M -330,-300 L -330,-330 L -300,-330 L -300,-300 L -330,-300" fill="#FF0000"/><path d=" M 150,90 L 150,60 L 180,60 L 180,90 L 150,90" fill="#FF0000"/><path d=" M 330,60 L 330,30 L 360,30 L 360,60 L 330,60" fill="#FF0000"/><path d=" M -30,-217.5 L -30,-210 L -60,-210 L -60,-217.5 L -54,-217.5 L -54,-232.5 L -60,-232.5 L -60,-240 L -30,-240 L -30,-232.5 L -36,-232.5 L -36,-217.5 L -30,-217.5" fill="#FF0000"/></clipPath></g><g><path d=" M 0,0"/><path d=" M -74.174,-208.937 L -74.049,-208.812 L -76.322,-208.625 L -80.993,-208.375 L -84.559,-207.606 L -87.02,-206.318 L -88.375,-204.511 L -88.625,-202.185 L -88.812,-201.084 L -88.937,-201.209 L -89,-203.204 L -89,-209 L -77.927,-209 L -74.174,-208.937 M 118.938,-197.077 L 118.813,-196.952 L 118.625,-198.741 L 118.375,-202.445 L 117.514,-205.285 L 116.043,-207.262 L 113.961,-208.375 L 111.268,-208.625 L 109.984,-208.812 L 110.109,-208.937 L 112.379,-209 L 119,-209 L 119,-200.104 L 118.938,-197.077 M -88.937,-13.969 L -88.812,-14.094 L -88.625,-12.13 L -88.375,-8.078 L -87.639,-4.977 L -86.417,-2.826 L -84.71,-1.625 L -82.516,-1.375 L -81.482,-1.187 L -81.607,-1.062 L -83.502,-1 L -89,-1 L -89,-10.68 L -88.937,-13.969 M 105.409,-1.062 L 105.284,-1.187 L 107.351,-1.375 L 111.611,-1.625 L 114.868,-3.225 L 117.123,-6.176 L 118.375,-10.478 L 118.625,-16.129 L 118.813,-18.893 L 118.938,-18.768 L 119,-14.279 L 119,-1 L 108.854,-1 L 105.409,-1.062" fill="#000000"/><path d=" M -256.163,-208.937 L -256.038,-208.812 L -257.98,-208.625 L -261.988,-208.375 L -265.056,-207.184 L -267.185,-205.052 L -268.375,-201.979 L -268.625,-197.966 L -268.812,-196.021 L -268.937,-196.146 L -269,-199.407 L -269,-209 L -259.419,-209 L -256.163,-208.937 M -268.937,-65.076 L -268.812,-65.201 L -268.625,-64.72 L -268.375,-63.632 L -267.204,-62.753 L -265.113,-62.084 L -262.102,-61.625 L -258.17,-61.375 L -256.266,-61.187 L -256.391,-61.062 L -259.59,-61 L -269,-61 L -269,-64.01 L -268.937,-65.076 M -135.104,-61.062 L -135.229,-61.187 L -133.076,-61.375 L -128.646,-61.625 L -125.26,-62.818 L -122.92,-64.954 L -121.625,-68.033 L -121.375,-72.056 L -121.187,-74.004 L -121.062,-73.879 L -121,-70.612 L -121,-61 L -131.531,-61 L -135.104,-61.062" fill="#000000"/><path d=" M 163.277,-208.937 L 163.402,-208.812 L 161.554,-208.625 L 157.732,-208.375 L 154.804,-207.559 L 152.768,-206.176 L 151.625,-204.227 L 151.375,-201.712 L 151.188,-200.517 L 151.063,-200.642 L 151,-202.778 L 151,-209 L 160.161,-209 L 163.277,-208.937 M 298.938,-202.976 L 298.813,-202.851 L 298.625,-203.657 L 298.375,-205.394 L 297.486,-206.76 L 295.959,-207.753 L 293.792,-208.375 L 290.987,-208.625 L 289.647,-208.812 L 289.772,-208.937 L 292.126,-209 L 299,-209 L 299,-204.529 L 298.938,-202.976 M 293.389,-61.062 L 293.264,-61.187 L 294.001,-61.375 L 295.601,-61.625 L 296.863,-62.336 L 297.788,-63.509 L 298.375,-65.142 L 298.625,-67.237 L 298.813,-68.222 L 298.938,-68.097 L 299,-66.276 L 299,-61 L 294.839,-61 L 293.389,-61.062" fill="#000000"/><path d=" M 151.063,-15.584 L 151.188,-15.709 L 151.375,-13.476 L 151.625,-8.886 L 152.556,-5.38 L 154.169,-2.96 L 156.462,-1.625 L 159.437,-1.375 L 160.862,-1.187 L 160.737,-1.062 L 158.256,-1 L 151,-1 L 151,-11.891 L 151.063,-15.584" fill="#000000"/><path d=" M -208.937,-251.323 L -208.812,-251.448 L -208.625,-249.925 L -208.375,-246.755 L -207.314,-244.315 L -205.441,-242.605 L -202.757,-241.625 L -199.261,-241.375 L -197.576,-241.187 L -197.701,-241.062 L -200.572,-241 L -209,-241 L -209,-248.695 L -208.937,-251.323" fill="#000000"/><path d=" M -31.062,-258.44 L -31.187,-258.315 L -31.375,-259.877 L -31.625,-263.126 L -32.514,-265.626 L -34.041,-267.375 L -36.207,-268.375 L -39.012,-268.625 L -40.352,-268.812 L -40.227,-268.937 L -37.874,-269 L -31,-269 L -31,-261.127 L -31.062,-258.44" fill="#000000"/><path d=" M 238.938,-15.865 L 238.813,-15.74 L 238.625,-17.731 L 238.375,-21.839 L 237.328,-24.982 L 235.484,-27.161 L 232.844,-28.375 L 229.406,-28.625 L 227.75,-28.812 L 227.875,-28.937 L 230.703,-29 L 239,-29 L 239,-19.196 L 238.938,-15.865" fill="#000000"/><path d=" M -127.376,-301.062 L -127.501,-301.187 L -126.636,-301.375 L -124.782,-301.625 L -123.328,-302.867 L -122.276,-305.1 L -121.625,-308.325 L -121.375,-312.542 L -121.187,-314.587 L -121.062,-314.462 L -121,-311.05 L -121,-301 L -125.735,-301 L -127.376,-301.062" fill="#000000"/><path d=" M 162.358,31.063 L 162.483,31.188 L 160.788,31.375 L 157.273,31.625 L 154.574,32.826 L 152.691,34.979 L 151.625,38.083 L 151.375,42.139 L 151.188,44.104 L 151.063,43.979 L 151,40.688 L 151,31 L 159.472,31 L 162.358,31.063" fill="#000000"/><path d=" M -200.206,-478.937 L -200.081,-478.812 L -201.349,-478.625 L -204.009,-478.375 L -206.067,-477.621 L -207.522,-476.363 L -208.375,-474.601 L -208.625,-472.336 L -208.812,-471.265 L -208.937,-471.39 L -209,-473.34 L -209,-479 L -202.452,-479 L -200.206,-478.937 M -61.062,-467.833 L -61.187,-467.708 L -61.375,-469.372 L -61.625,-472.823 L -62.897,-475.474 L -65.191,-477.325 L -68.506,-478.375 L -72.844,-478.625 L -74.95,-478.812 L -74.825,-478.937 L -71.322,-479 L -61,-479 L -61,-470.672 L -61.062,-467.833 M -208.937,-371.463 L -208.812,-371.588 L -208.625,-370.042 L -208.375,-366.825 L -207.02,-364.35 L -204.561,-362.617 L -200.996,-361.625 L -196.327,-361.375 L -194.055,-361.187 L -194.18,-361.062 L -197.932,-361 L -209,-361 L -209,-368.8 L -208.937,-371.463 M -72.863,-361.062 L -72.988,-361.187 L -71.209,-361.375 L -67.525,-361.625 L -64.7,-362.511 L -62.733,-364.034 L -61.625,-366.193 L -61.375,-368.989 L -61.187,-370.324 L -61.062,-370.199 L -61,-367.853 L -61,-361 L -69.85,-361 L -72.863,-361.062" fill="#000000"/><path d=" M -493.125,-418.937 L -493,-418.812 L -495.448,-418.625 L -500.469,-418.375 L -504.297,-417.028 L -506.932,-414.584 L -508.375,-411.043 L -508.625,-406.405 L -508.812,-404.149 L -508.937,-404.274 L -509,-408.002 L -509,-419 L -497.141,-419 L -493.125,-418.937 M -331.062,-408.45 L -331.187,-408.325 L -331.375,-409.885 L -331.625,-413.131 L -333.101,-415.628 L -335.804,-417.376 L -339.733,-418.375 L -344.889,-418.625 L -347.404,-418.812 L -347.279,-418.937 L -343.163,-419 L -331,-419 L -331,-411.134 L -331.062,-408.45 M -508.937,-223.964 L -508.812,-224.089 L -508.625,-222.127 L -508.375,-218.076 L -507.616,-214.975 L -506.347,-212.825 L -504.569,-211.625 L -502.281,-211.375 L -501.2,-211.187 L -501.325,-211.062 L -503.291,-211 L -509,-211 L -509,-220.676 L -508.937,-223.964 M -346.275,-211.062 L -346.4,-211.187 L -344.052,-211.375 L -339.231,-211.625 L -335.553,-212.283 L -333.018,-213.348 L -331.625,-214.822 L -331.375,-216.703 L -331.187,-217.581 L -331.062,-217.456 L -331,-215.795 L -331,-211 L -342.41,-211 L -346.275,-211.062" fill="#000000"/><path d=" M 102.017,91.063 L 102.142,91.188 L 100.504,91.375 L 97.102,91.625 L 94.489,92.442 L 92.663,93.826 L 91.625,95.776 L 91.375,98.294 L 91.188,99.49 L 91.063,99.365 L 91,97.227 L 91,91 L 99.216,91 L 102.017,91.063 M 238.938,105.657 L 238.813,105.782 L 238.625,103.537 L 238.375,98.922 L 237.697,95.399 L 236.59,92.966 L 235.055,91.625 L 233.092,91.375 L 232.173,91.188 L 232.298,91.063 L 234.02,91 L 239,91 L 239,101.946 L 238.938,105.657 M 91.063,195.626 L 91.188,195.501 L 91.375,197.532 L 91.625,201.719 L 92.722,204.922 L 94.667,207.141 L 97.458,208.375 L 101.097,208.625 L 102.854,208.813 L 102.729,208.938 L 99.75,209 L 91,209 L 91,199.016 L 91.063,195.626 M 230.478,208.938 L 230.353,208.813 L 231.575,208.625 L 234.145,208.375 L 236.135,206.998 L 237.545,204.494 L 238.375,200.863 L 238.625,196.105 L 238.813,193.788 L 238.938,193.913 L 239,197.732 L 239,209 L 232.655,209 L 230.478,208.938" fill="#000000"/><path d=" M 369.779,-58.937 L 369.904,-58.812 L 368.638,-58.625 L 365.983,-58.375 L 363.929,-57.232 L 362.476,-55.197 L 361.625,-52.269 L 361.375,-48.449 L 361.188,-46.601 L 361.063,-46.726 L 361,-49.841 L 361,-59 L 367.537,-59 L 369.779,-58.937 M 538.938,-44.431 L 538.813,-44.306 L 538.625,-46.536 L 538.375,-51.122 L 537.41,-54.623 L 535.729,-57.041 L 533.333,-58.375 L 530.222,-58.625 L 528.729,-58.812 L 528.854,-58.937 L 531.438,-59 L 539,-59 L 539,-48.12 L 538.938,-44.431 M 361.063,133.554 L 361.188,133.429 L 361.375,135.806 L 361.625,140.683 L 362.353,144.404 L 363.559,146.968 L 365.243,148.375 L 367.405,148.625 L 368.424,148.813 L 368.299,148.938 L 366.427,149 L 361,149 L 361,137.462 L 361.063,133.554 M 520.082,148.938 L 519.957,148.813 L 522.912,148.625 L 528.947,148.375 L 533.536,147.397 L 536.679,145.692 L 538.375,143.258 L 538.625,140.097 L 538.813,138.579 L 538.938,138.704 L 539,141.325 L 539,149 L 524.858,149 L 520.082,148.938" fill="#000000"/></g><g><path d=" M 0,0"/><path d=" M -45.448,-200.686 L -45.105,-200.849 L -44.78,-200.854 L -44.471,-200.703 L -44.271,-200.444 L -44.181,-200.078 L -44.201,-199.603 L -44.33,-199.021 L -44.567,-198.649 L -44.91,-198.486 L -45.359,-198.534 L -45.916,-198.791 L -46.239,-199.103 L -46.329,-199.469 L -46.185,-199.891 L -45.808,-200.367 L -45.448,-200.686" fill="#FFFFFF" stroke="#000000" stroke-width="1"/><path d=" M -49.868,-199.592 L -49.502,-199.619 L -49.207,-199.511 L -48.981,-199.267 L -48.891,-198.965 L -48.938,-198.603 L -49.12,-198.182 L -49.439,-197.703 L -49.781,-197.45 L -50.146,-197.422 L -50.535,-197.621 L -50.947,-198.046 L -51.13,-198.439 L -51.084,-198.801 L -50.808,-199.131 L -50.303,-199.429 L -49.868,-199.592" fill="#FFFFFF" stroke="#000000" stroke-width="1"/><path d=" M 102.33,-16.874 L 103.093,-17.926 L 104.063,-18.479 L 105.239,-18.533 L 106.264,-18.083 L 107.137,-17.13 L 107.858,-15.672 L 108.427,-13.712 L 108.33,-12.205 L 107.568,-11.153 L 106.139,-10.555 L 104.045,-10.412 L 102.561,-10.817 L 101.688,-11.77 L 101.426,-13.272 L 101.775,-15.323 L 102.33,-16.874" fill="#FFFFFF" stroke="#000000" stroke-width="1"/><path d=" M 60.653,-177.074 L 60.446,-177.394 L 60.397,-177.718 L 60.507,-178.045 L 60.738,-178.278 L 61.091,-178.416 L 61.566,-178.46 L 62.162,-178.409 L 62.564,-178.223 L 62.771,-177.903 L 62.784,-177.449 L 62.602,-176.861 L 62.335,-176.498 L 61.982,-176.36 L 61.543,-176.447 L 61.019,-176.759 L 60.653,-177.074" fill="#FFFFFF" stroke="#000000" stroke-width="1"/><path d=" M 87.408,-26.583 L 87.362,-27.219 L 87.551,-27.734 L 87.977,-28.126 L 88.504,-28.281 L 89.133,-28.198 L 89.864,-27.879 L 90.698,-27.322 L 91.137,-26.725 L 91.183,-26.089 L 90.836,-25.413 L 90.094,-24.697 L 89.409,-24.38 L 88.779,-24.463 L 88.206,-24.944 L 87.689,-25.825 L 87.408,-26.583" fill="#FFFFFF" stroke="#000000" stroke-width="1"/><path d=" M -49.232,-43.726 L -48.804,-43.764 L -48.456,-43.642 L -48.187,-43.36 L -48.077,-43.006 L -48.126,-42.582 L -48.333,-42.086 L -48.699,-41.518 L -49.096,-41.216 L -49.524,-41.178 L -49.983,-41.405 L -50.473,-41.897 L -50.694,-42.355 L -50.645,-42.779 L -50.327,-43.171 L -49.74,-43.528 L -49.232,-43.726" fill="#FFFFFF" stroke="#000000" stroke-width="1"/><path d=" M 35.639,-15.212 L 36.856,-14.974 L 37.723,-14.357 L 38.242,-13.36 L 38.264,-12.292 L 37.789,-11.155 L 36.817,-9.946 L 35.349,-8.667 L 34.007,-8.147 L 32.79,-8.385 L 31.7,-9.381 L 30.736,-11.135 L 30.491,-12.582 L 30.966,-13.719 L 32.16,-14.549 L 34.074,-15.07 L 35.639,-15.212" fill="#FFFFFF" stroke="#000000" stroke-width="1"/><path d=" M -56.331,-168.773 L -56.131,-169.082 L -55.865,-169.253 L -55.533,-169.286 L -55.236,-169.174 L -54.975,-168.917 L -54.75,-168.515 L -54.559,-167.969 L -54.564,-167.542 L -54.764,-167.233 L -55.159,-167.042 L -55.75,-166.97 L -56.175,-167.063 L -56.437,-167.32 L -56.533,-167.741 L -56.465,-168.326 L -56.331,-168.773" fill="#FFFFFF" stroke="#000000" stroke-width="1"/><path d=" M 77.269,-200.663 L 77.048,-200.97 L 77.031,-201.41 L 77.22,-201.984 L 77.485,-202.366 L 77.826,-202.555 L 78.243,-202.552 L 78.736,-202.356 L 79.094,-202.105 L 79.315,-201.799 L 79.4,-201.437 L 79.35,-201.02 L 79.154,-200.717 L 78.813,-200.528 L 78.327,-200.453 L 77.695,-200.491 L 77.269,-200.663" fill="#FFFFFF" stroke="#000000" stroke-width="1"/><path d=" M -71.786,-165.423 L -71.278,-165.383 L -70.811,-165.015 L -70.386,-164.32 L -70.225,-163.714 L -70.329,-163.199 L -70.696,-162.773 L -71.328,-162.437 L -71.899,-162.289 L -72.407,-162.329 L -72.853,-162.557 L -73.237,-162.973 L -73.377,-163.439 L -73.274,-163.955 L -72.927,-164.52 L -72.336,-165.136 L -71.786,-165.423" fill="#FFFFFF" stroke="#000000" stroke-width="1"/><path d=" M -135.755,-80.962 L -135.911,-81.964 L -135.678,-82.804 L -135.056,-83.481 L -134.241,-83.795 L -133.234,-83.747 L -132.033,-83.337 L -130.64,-82.564 L -129.866,-81.676 L -129.709,-80.675 L -130.172,-79.558 L -131.252,-78.327 L -132.297,-77.736 L -133.304,-77.784 L -134.275,-78.471 L -135.21,-79.798 L -135.755,-80.962" fill="#FFFFFF" stroke="#000000" stroke-width="1"/><path d=" M -253.816,-206.358 L -253.948,-206.712 L -253.889,-207.077 L -253.638,-207.452 L -253.323,-207.654 L -252.946,-207.681 L -252.505,-207.536 L -252.001,-207.217 L -251.682,-206.88 L -251.55,-206.525 L -251.604,-206.152 L -251.843,-205.761 L -252.152,-205.552 L -252.529,-205.524 L -252.976,-205.678 L -253.492,-206.013 L -253.816,-206.358" fill="#FFFFFF" stroke="#000000" stroke-width="1"/><path d=" M -254.426,-63.9 L -254.672,-64.189 L -254.722,-64.629 L -254.577,-65.219 L -254.342,-65.622 L -254.015,-65.838 L -253.597,-65.867 L -253.087,-65.709 L -252.71,-65.485 L -252.464,-65.196 L -252.351,-64.84 L -252.369,-64.418 L -252.542,-64.1 L -252.869,-63.884 L -253.35,-63.77 L -253.986,-63.76 L -254.426,-63.9" fill="#FFFFFF" stroke="#000000" stroke-width="1"/><path d=" M -225.881,-197.264 L -226.483,-198.807 L -226.248,-200.406 L -225.175,-202.062 L -223.814,-202.963 L -222.165,-203.11 L -220.227,-202.502 L -218.001,-201.14 L -216.587,-199.688 L -215.985,-198.145 L -216.195,-196.511 L -217.217,-194.787 L -218.552,-193.852 L -220.202,-193.705 L -222.165,-194.347 L -224.442,-195.777 L -225.881,-197.264" fill="#FFFFFF" stroke="#000000" stroke-width="1"/><path d=" M 165.454,-64.884 L 165.46,-65.7 L 165.754,-66.336 L 166.336,-66.792 L 167.024,-66.936 L 167.818,-66.767 L 168.717,-66.285 L 169.722,-65.49 L 170.222,-64.685 L 170.216,-63.87 L 169.704,-63.044 L 168.686,-62.207 L 167.78,-61.873 L 166.986,-62.042 L 166.305,-62.714 L 165.736,-63.889 L 165.454,-64.884" fill="#FFFFFF" stroke="#000000" stroke-width="1"/><path d=" M 279.343,-196.075 L 279.743,-196.27 L 280.126,-196.281 L 280.49,-196.107 L 280.728,-195.806 L 280.837,-195.377 L 280.82,-194.82 L 280.676,-194.135 L 280.403,-193.695 L 280.003,-193.5 L 279.474,-193.55 L 278.818,-193.845 L 278.435,-194.207 L 278.325,-194.636 L 278.488,-195.133 L 278.925,-195.696 L 279.343,-196.075" fill="#FFFFFF" stroke="#000000" stroke-width="1"/><path d=" M 274.574,-200.49 L 275.026,-200.683 L 275.503,-200.629 L 276.004,-200.326 L 276.285,-199.931 L 276.344,-199.443 L 276.182,-198.862 L 275.799,-198.188 L 275.381,-197.755 L 274.929,-197.562 L 274.442,-197.609 L 273.921,-197.896 L 273.631,-198.283 L 273.572,-198.771 L 273.744,-199.36 L 274.146,-200.049 L 274.574,-200.49" fill="#FFFFFF" stroke="#000000" stroke-width="1"/><path d=" M 285,-123 L 285,-147 L 297,-147 L 297,-123 L 285,-123" fill="#FFFFFF" stroke="#000000" stroke-width="1"/><path d=" M 291.15,-141.26 L 291.3,-141 L 291.15,-140.74 L 290.85,-140.74 L 290.7,-141 L 290.85,-141.26 L 291.15,-141.26" fill="#FFFFFF" stroke="#000000" stroke-width="1"/><path d=" M 291.15,-129.26 L 291.3,-129 L 291.15,-128.74 L 290.85,-128.74 L 290.7,-129 L 290.85,-129.26 L 291.15,-129.26" fill="#FFFFFF" stroke="#000000" stroke-width="1"/><path d=" M -147.038,-246.596 L -146.57,-247.445 L -145.764,-247.938 L -144.618,-248.077 L -143.702,-247.804 L -143.018,-247.118 L -142.564,-246.019 L -142.342,-244.508 L -142.464,-243.328 L -142.932,-242.479 L -143.745,-241.961 L -144.902,-241.774 L -145.823,-242.023 L -146.508,-242.709 L -146.955,-243.832 L -147.166,-245.391 L -147.038,-246.596" fill="#FFFFFF" stroke="#000000" stroke-width="1"/><path d=" M 174.856,-29.273 L 175.41,-29.179 L 175.887,-28.729 L 176.286,-27.923 L 176.403,-27.242 L 176.239,-26.686 L 175.793,-26.254 L 175.065,-25.946 L 174.424,-25.84 L 173.87,-25.934 L 173.402,-26.228 L 173.021,-26.723 L 172.912,-27.249 L 173.076,-27.806 L 173.514,-28.393 L 174.223,-29.011 L 174.856,-29.273" fill="#FFFFFF" stroke="#000000" stroke-width="1"/><path d=" M -194.49,-261.336 L -194.993,-262.965 L -194.631,-264.588 L -193.406,-266.206 L -191.942,-267.029 L -190.239,-267.056 L -188.296,-266.287 L -186.114,-264.722 L -184.772,-263.126 L -184.27,-261.497 L -184.608,-259.837 L -185.786,-258.145 L -187.227,-257.285 L -188.93,-257.259 L -190.896,-258.064 L -193.125,-259.703 L -194.49,-261.336" fill="#FFFFFF" stroke="#000000" stroke-width="1"/><path d=" M -54.365,-253.918 L -53.686,-255.332 L -52.426,-256.203 L -50.586,-256.53 L -49.082,-256.17 L -47.914,-255.122 L -47.082,-253.387 L -46.587,-250.965 L -46.679,-249.046 L -47.359,-247.632 L -48.626,-246.722 L -50.48,-246.315 L -51.992,-246.636 L -53.16,-247.683 L -53.984,-249.458 L -54.465,-251.96 L -54.365,-253.918" fill="#FFFFFF" stroke="#000000" stroke-width="1"/><path d=" M 212.926,-26.941 L 213.499,-27.299 L 214.287,-27.276 L 215.289,-26.87 L 215.939,-26.351 L 216.235,-25.72 L 216.18,-24.976 L 215.771,-24.119 L 215.28,-23.511 L 214.707,-23.153 L 214.052,-23.044 L 213.313,-23.184 L 212.796,-23.57 L 212.499,-24.201 L 212.423,-25.078 L 212.567,-26.201 L 212.926,-26.941" fill="#FFFFFF" stroke="#000000" stroke-width="1"/><path d=" M -185.004,-304.653 L -184.459,-304.35 L -184.127,-303.703 L -184.008,-302.713 L -184.138,-301.958 L -184.515,-301.437 L -185.141,-301.15 L -186.015,-301.098 L -186.725,-301.224 L -187.269,-301.527 L -187.649,-302.008 L -187.865,-302.667 L -187.784,-303.257 L -187.406,-303.777 L -186.732,-304.23 L -185.761,-304.613 L -185.004,-304.653" fill="#FFFFFF" stroke="#000000" stroke-width="1"/><path d=" M 213.688,55.863 L 212.643,54.914 L 212.161,53.801 L 212.243,52.523 L 212.851,51.47 L 213.985,50.64 L 215.645,50.035 L 217.831,49.654 L 219.446,49.939 L 220.492,50.888 L 220.967,52.502 L 220.873,54.781 L 220.258,56.335 L 219.124,57.165 L 217.471,57.269 L 215.298,56.648 L 213.688,55.863" fill="#FFFFFF" stroke="#000000" stroke-width="1"/><path d=" M -145.028,-323.187 L -144.373,-324.508 L -143.179,-325.311 L -141.447,-325.597 L -140.038,-325.241 L -138.953,-324.243 L -138.192,-322.604 L -137.755,-320.322 L -137.864,-318.522 L -138.519,-317.201 L -139.72,-316.36 L -141.467,-316 L -142.883,-316.319 L -143.968,-317.317 L -144.721,-318.993 L -145.144,-321.349 L -145.028,-323.187" fill="#FFFFFF" stroke="#000000" stroke-width="1"/><path d=" M -245.321,-322.87 L -245.285,-323.331 L -244.952,-323.755 L -244.321,-324.141 L -243.772,-324.288 L -243.304,-324.195 L -242.917,-323.861 L -242.612,-323.288 L -242.477,-322.771 L -242.513,-322.31 L -242.719,-321.905 L -243.097,-321.556 L -243.519,-321.428 L -243.987,-321.521 L -244.501,-321.836 L -245.059,-322.372 L -245.321,-322.87" fill="#FFFFFF" stroke="#000000" stroke-width="1"/><path d=" M 152.334,48.283 L 152.31,47.457 L 152.822,46.642 L 153.868,45.837 L 154.816,45.473 L 155.665,45.55 L 156.415,46.068 L 157.066,47.028 L 157.403,47.921 L 157.426,48.747 L 157.136,49.505 L 156.532,50.196 L 155.805,50.503 L 154.957,50.426 L 153.985,49.964 L 152.892,49.118 L 152.334,48.283" fill="#FFFFFF" stroke="#000000" stroke-width="1"/><path d=" M 319.29,54.149 L 318.992,53.936 L 318.833,53.664 L 318.815,53.333 L 318.939,53.042 L 319.206,52.794 L 319.615,52.587 L 320.166,52.421 L 320.591,52.444 L 320.89,52.657 L 321.062,53.058 L 321.108,53.648 L 320.998,54.068 L 320.731,54.317 L 320.308,54.394 L 319.729,54.301 L 319.29,54.149" fill="#FFFFFF" stroke="#000000" stroke-width="1"/><path d=" M -199.642,-465.963 L -200.345,-467.309 L -200.418,-468.612 L -199.86,-469.872 L -198.855,-470.709 L -197.402,-471.125 L -195.502,-471.12 L -193.153,-470.693 L -191.628,-469.806 L -190.925,-468.459 L -191.044,-466.653 L -191.986,-464.387 L -193.184,-463.045 L -194.637,-462.629 L -196.345,-463.138 L -198.308,-464.572 L -199.642,-465.963" fill="#FFFFFF" stroke="#000000" stroke-width="1"/><path d=" M -78.992,-369.367 L -77.916,-369.036 L -77.088,-368.02 L -76.506,-366.318 L -76.45,-364.936 L -76.921,-363.875 L -77.918,-363.134 L -79.441,-362.713 L -80.74,-362.669 L -81.815,-362.999 L -82.667,-363.705 L -83.294,-364.786 L -83.373,-365.858 L -82.902,-366.919 L -81.883,-367.97 L -80.314,-369.011 L -78.992,-369.367" fill="#FFFFFF" stroke="#000000" stroke-width="1"/><path d=" M -193.897,-456.626 L -192.797,-457.442 L -191.469,-457.602 L -189.914,-457.107 L -188.898,-456.217 L -188.422,-454.932 L -188.485,-453.253 L -189.087,-451.18 L -189.939,-449.735 L -191.039,-448.918 L -192.389,-448.73 L -193.987,-449.171 L -195.025,-450.033 L -195.501,-451.318 L -195.416,-453.024 L -194.77,-455.153 L -193.897,-456.626" fill="#FFFFFF" stroke="#000000" stroke-width="1"/><path d=" M -193.724,-468.34 L -192.887,-468.245 L -192.265,-467.873 L -191.86,-467.226 L -191.787,-466.503 L -192.047,-465.706 L -192.64,-464.834 L -193.567,-463.887 L -194.449,-463.462 L -195.286,-463.557 L -196.08,-464.174 L -196.828,-465.311 L -197.073,-466.278 L -196.812,-467.075 L -196.047,-467.703 L -194.778,-468.159 L -193.724,-468.34" fill="#FFFFFF" stroke="#000000" stroke-width="1"/><path d=" M -480.433,-223.874 L -480.976,-224.491 L -481.103,-225.44 L -480.813,-226.722 L -480.319,-227.603 L -479.62,-228.083 L -478.716,-228.163 L -477.608,-227.841 L -476.783,-227.372 L -476.24,-226.755 L -475.98,-225.99 L -476.004,-225.077 L -476.365,-224.381 L -477.064,-223.9 L -478.1,-223.636 L -479.475,-223.589 L -480.433,-223.874" fill="#FFFFFF" stroke="#000000" stroke-width="1"/><path d=" M -444.696,-379.362 L -444.558,-380.478 L -443.902,-381.358 L -442.726,-382.002 L -441.622,-382.102 L -440.589,-381.658 L -439.627,-380.669 L -438.735,-379.137 L -438.358,-377.813 L -438.496,-376.696 L -439.148,-375.788 L -440.315,-375.087 L -441.415,-374.958 L -442.449,-375.403 L -443.415,-376.419 L -444.315,-378.009 L -444.696,-379.362" fill="#FFFFFF" stroke="#000000" stroke-width="1"/><path d=" M -378.586,-409.462 L -378.838,-409.798 L -378.89,-410.205 L -378.741,-410.682 L -378.47,-410.995 L -378.077,-411.143 L -377.563,-411.127 L -376.926,-410.946 L -376.482,-410.687 L -376.23,-410.352 L -376.17,-409.939 L -376.302,-409.448 L -376.564,-409.129 L -376.957,-408.98 L -377.48,-409.003 L -378.133,-409.197 L -378.586,-409.462" fill="#FFFFFF" stroke="#000000" stroke-width="1"/><path d=" M -478.39,-248.581 L -479.091,-249.108 L -479.43,-249.893 L -479.409,-250.937 L -479.047,-251.722 L -478.346,-252.247 L -477.304,-252.514 L -475.923,-252.521 L -474.882,-252.261 L -474.181,-251.734 L -473.821,-250.94 L -473.8,-249.88 L -474.141,-249.087 L -474.842,-248.561 L -475.905,-248.303 L -477.328,-248.313 L -478.39,-248.581" fill="#FFFFFF" stroke="#000000" stroke-width="1"/><path d=" M -482.404,-247.573 L -481.287,-248.198 L -479.8,-248.08 L -477.944,-247.22 L -476.765,-246.18 L -476.262,-244.959 L -476.436,-243.557 L -477.288,-241.975 L -478.272,-240.872 L -479.389,-240.248 L -480.638,-240.103 L -482.02,-240.437 L -482.963,-241.214 L -483.465,-242.435 L -483.528,-244.1 L -483.151,-246.207 L -482.404,-247.573" fill="#FFFFFF" stroke="#000000" stroke-width="1"/><path d=" M -468.519,-399.751 L -467.557,-399.228 L -466.964,-398.098 L -466.738,-396.363 L -466.952,-395.034 L -467.606,-394.113 L -468.7,-393.599 L -470.233,-393.493 L -471.481,-393.701 L -472.442,-394.224 L -473.118,-395.062 L -473.507,-396.215 L -473.375,-397.251 L -472.721,-398.172 L -471.545,-398.978 L -469.848,-399.667 L -468.519,-399.751" fill="#FFFFFF" stroke="#000000" stroke-width="1"/><path d=" M -510,-270 L -510,-360 L -501.221,-359.135 L -492.779,-356.575 L -484.999,-352.416 L -478.18,-346.82 L -472.584,-340.001 L -468.425,-332.221 L -465.865,-323.779 L -465,-315 L -465.865,-306.221 L -468.425,-297.779 L -472.584,-289.999 L -478.18,-283.18 L -484.999,-277.584 L -492.779,-273.425 L -501.221,-270.865 L -510,-270" fill="#FFFFFF"/><path d=" M -510,-360 L -501.221,-359.135 L -492.779,-356.575 L -484.999,-352.416 L -478.18,-346.82 L -472.584,-340.001 L -468.425,-332.221 L -465.865,-323.779 L -465,-315 L -465.865,-306.221 L -468.425,-297.779 L -472.584,-289.999 L -478.18,-283.18 L -484.999,-277.584 L -492.779,-273.425 L -501.221,-270.865 L -510,-270" stroke="#000000" stroke-width="1"/><path d=" M -510,-352.5 L -502.684,-351.779 L -495.649,-349.645 L -489.166,-346.18 L -483.483,-341.517 L -478.82,-335.834 L -475.355,-329.351 L -473.221,-322.316 L -472.5,-315 L -473.221,-307.684 L -475.355,-300.649 L -478.82,-294.166 L -483.483,-288.483 L -489.166,-283.82 L -495.649,-280.355 L -502.684,-278.221 L -510,-277.5" stroke="#000000" stroke-width="1"/><path d=" M -495,-327 L -495,-303 L -507,-303 L -507,-327 L -495,-327" fill="#FFFFFF" stroke="#000000" stroke-width="1"/><path d=" M -501.15,-308.74 L -501.3,-309 L -501.15,-309.26 L -500.85,-309.26 L -500.7,-309 L -500.85,-308.74 L -501.15,-308.74" fill="#FFFFFF" stroke="#000000" stroke-width="1"/><path d=" M -501.15,-320.74 L -501.3,-321 L -501.15,-321.26 L -500.85,-321.26 L -500.7,-321 L -500.85,-320.74 L -501.15,-320.74" fill="#FFFFFF" stroke="#000000" stroke-width="1"/><path d=" M 232.078,102.731 L 232.03,102.044 L 232.321,101.438 L 232.951,100.912 L 233.603,100.722 L 234.276,100.868 L 234.971,101.348 L 235.687,102.164 L 236.069,102.915 L 236.118,103.602 L 235.833,104.225 L 235.214,104.784 L 234.568,104.991 L 233.895,104.845 L 233.194,104.348 L 232.467,103.499 L 232.078,102.731" fill="#FFFFFF" stroke="#000000" stroke-width="1"/><path d=" M 518.493,-27.566 L 518.503,-27.95 L 518.761,-28.316 L 519.267,-28.665 L 519.717,-28.81 L 520.109,-28.753 L 520.445,-28.494 L 520.723,-28.032 L 520.858,-27.608 L 520.848,-27.224 L 520.695,-26.879 L 520.397,-26.573 L 520.052,-26.448 L 519.659,-26.505 L 519.219,-26.744 L 518.732,-27.164 L 518.493,-27.566" fill="#FFFFFF" stroke="#000000" stroke-width="1"/><path d=" M 399.883,-56.52 L 400.312,-56.674 L 400.827,-56.545 L 401.429,-56.135 L 401.782,-55.7 L 401.887,-55.242 L 401.744,-54.76 L 401.352,-54.254 L 400.942,-53.924 L 400.513,-53.77 L 400.066,-53.793 L 399.6,-53.991 L 399.314,-54.319 L 399.209,-54.777 L 399.285,-55.366 L 399.541,-56.084 L 399.883,-56.52" fill="#FFFFFF" stroke="#000000" stroke-width="1"/><path d=" M 522.653,-52.832 L 522.98,-53.008 L 523.411,-52.967 L 523.946,-52.709 L 524.284,-52.402 L 524.424,-52.045 L 524.367,-51.639 L 524.113,-51.184 L 523.822,-50.868 L 523.495,-50.692 L 523.132,-50.655 L 522.732,-50.758 L 522.462,-50.988 L 522.322,-51.345 L 522.311,-51.828 L 522.43,-52.439 L 522.653,-52.832" fill="#FFFFFF" stroke="#000000" stroke-width="1"/><path d=" M 508.913,-15.094 L 509.518,-14.877 L 509.964,-14.275 L 510.25,-13.289 L 510.245,-12.499 L 509.949,-11.906 L 509.36,-11.51 L 508.48,-11.311 L 507.738,-11.32 L 507.133,-11.537 L 506.666,-11.962 L 506.337,-12.596 L 506.321,-13.209 L 506.617,-13.802 L 507.227,-14.375 L 508.15,-14.927 L 508.913,-15.094" fill="#FFFFFF" stroke="#000000" stroke-width="1"/><path d=" M 365.232,-24.144 L 364.849,-25.515 L 365.036,-26.724 L 365.792,-27.77 L 366.876,-28.342 L 368.289,-28.441 L 370.03,-28.066 L 372.1,-27.218 L 373.326,-26.108 L 373.708,-24.737 L 373.247,-23.104 L 371.943,-21.211 L 370.584,-20.214 L 369.172,-20.115 L 367.705,-20.914 L 366.184,-22.61 L 365.232,-24.144" fill="#FFFFFF" stroke="#000000" stroke-width="1"/><path d=" M 534.322,-28.485 L 534.596,-28.841 L 535.093,-29.008 L 535.812,-28.987 L 536.337,-28.814 L 536.668,-28.489 L 536.806,-28.012 L 536.75,-27.383 L 536.584,-26.89 L 536.309,-26.534 L 535.926,-26.314 L 535.433,-26.231 L 535.021,-26.352 L 534.689,-26.677 L 534.439,-27.206 L 534.269,-27.94 L 534.322,-28.485" fill="#FFFFFF" stroke="#000000" stroke-width="1"/></g><g transform="translate(4.243 4.243)" clip-path="url(#instance21)"><path d=" M 0,0"/><clipPath id="instance21" fill="#FFFFFF" transform="translate(-4.243 -4.243)"><path d=" M 0,0"/></clipPath></g><g><path d=" M 0,0"/><path d=" M 27,24 L 3,24 M 24,18 L 6,18 M 21,12 L 9,12 M 18,6 L 12,6" stroke="#000000" stroke-width="1"/><path d=" M -108.75,-145 L -101.25,-145 L -101.25,-125 L -108.75,-125 L -108.75,-145 M -101.25,-135 L -108.75,-135" fill="#FFFFFF" stroke="#000000" stroke-width="2"/><path d=" M -145,-228.75 L -125,-228.75 L -125,-221.25 L -145,-221.25 L -145,-228.75" fill="#FFFFFF" stroke="#000000" stroke-width="2"/><path d=" M 155,-48.75 L 175,-48.75 L 175,-41.25 L 155,-41.25 L 155,-48.75" fill="#FFFFFF" stroke="#000000" stroke-width="2"/><path d=" M -150,-240 L -150,-270 M -156,-241.998 L -156,-268.002 M -162,-243.996 L -162,-266.004 M -168,-245.994 L -168,-264.006 M -174,-247.992 L -174,-262.008 M -180,-249.99 L -180,-260.01" stroke="#000000" stroke-width="1"/><path d=" M -120,-270 L -120,-240 M -114,-268.002 L -114,-241.998 M -108,-266.004 L -108,-243.996 M -102,-264.006 L -102,-245.994 M -96,-262.008 L -96,-247.992 M -90,-260.01 L -90,-249.99" stroke="#000000" stroke-width="1"/><path d=" M 180,-30 L 180,0 M 186,-28.002 L 186,-1.998 M 192,-26.004 L 192,-3.996 M 198,-24.006 L 198,-5.994 M 204,-22.008 L 204,-7.992 M 210,-20.01 L 210,-9.99" stroke="#000000" stroke-width="1"/><path d=" M -180,-270 L -210,-270 M -181.998,-276 L -208.002,-276 M -183.996,-282 L -206.004,-282 M -185.994,-288 L -204.006,-288 M -187.992,-294 L -202.008,-294 M -189.99,-300 L -200.01,-300" stroke="#000000" stroke-width="1"/><path d=" M 210,0 L 240,0 M 211.998,6 L 238.002,6 M 213.996,12 L 236.004,12 M 215.994,18 L 234.006,18 M 217.992,24 L 232.008,24 M 219.99,30 L 230.01,30" stroke="#000000" stroke-width="1"/><path d=" M -180,-330 L -180,-300 M -174,-328.002 L -174,-301.998 M -168,-326.004 L -168,-303.996 M -162,-324.006 L -162,-305.994 M -156,-322.008 L -156,-307.992 M -150,-320.01 L -150,-309.99" stroke="#000000" stroke-width="1"/><path d=" M -210,-300 L -210,-330 M -216,-301.998 L -216,-328.002 M -222,-303.996 L -222,-326.004 M -228,-305.994 L -228,-324.006 M -234,-307.992 L -234,-322.008 M -240,-309.99 L -240,-320.01" stroke="#000000" stroke-width="1"/><path d=" M -120,-330 L -150,-330 M -121.998,-336 L -148.002,-336 M -123.996,-342 L -146.004,-342 M -125.994,-348 L -144.006,-348 M -127.992,-354 L -142.008,-354 M -129.99,-360 L -140.01,-360" stroke="#000000" stroke-width="1"/><path d=" M -300,-300 L -300,-330 M -306,-301.998 L -306,-328.002 M -312,-303.996 L -312,-326.004 M -318,-305.994 L -318,-324.006 M -324,-307.992 L -324,-322.008 M -330,-309.99 L -330,-320.01" stroke="#000000" stroke-width="1"/><path d=" M 150,60 L 180,60 M 151.998,66 L 178.002,66 M 153.996,72 L 176.004,72 M 155.994,78 L 174.006,78 M 157.992,84 L 172.008,84 M 159.99,90 L 170.01,90" stroke="#000000" stroke-width="1"/><path d=" M -38,-225 Q -38,-224.586 -38.293,-224.293 Q -38.586,-224 -39,-224 L -39,-224 Q -39.414,-224 -39.707,-224.293 Q -40,-224.586 -40,-225 L -40,-225 Q -40,-225.414 -39.707,-225.707 Q -39.414,-226 -39,-226 L -39,-226 Q -38.586,-226 -38.293,-225.707 Q -38,-225.414 -38,-225 L -38,-225 M -44,-225 Q -44,-224.586 -44.293,-224.293 Q -44.586,-224 -45,-224 L -45,-224 Q -45.414,-224 -45.707,-224.293 Q -46,-224.586 -46,-225 L -46,-225 Q -46,-225.414 -45.707,-225.707 Q -45.414,-226 -45,-226 L -45,-226 Q -44.586,-226 -44.293,-225.707 Q -44,-225.414 -44,-225 L -44,-225 M -50,-225 Q -50,-224.586 -50.293,-224.293 Q -50.586,-224 -51,-224 L -51,-224 Q -51.414,-224 -51.707,-224.293 Q -52,-224.586 -52,-225 L -52,-225 Q -52,-225.414 -51.707,-225.707 Q -51.414,-226 -51,-226 L -51,-226 Q -50.586,-226 -50.293,-225.707 Q -50,-225.414 -50,-225 L -50,-225" fill="#000000"/></g></g></g></svg>