<?xml version="1.0" encoding="UTF-8" standalone="no"?><svg width="875.11" height="768" xmlns="http://www.w3.org/2000/svg" stroke-linejoin="round" stroke-linecap="round" fill-rule="evenodd" fill="none"><rect x="0" y="0" width="875.11" height="768" fill="#FFFFFF"/><style><![CDATA[@import url("https://fonts.googleapis.com/css2?family=Neuton&display=swap");@import url("https://fonts.googleapis.com/css2?family=Neuton:ital@1&display=swap");]]></style><defs/><g><path d=" M 0,0"/><g transform="translate(482.555 554.5)"><path d=" M 0,0"/><g><path d=" M 0,0"/></g><g><path d=" M 0,0"/><path d=" M -30,0 L -30,-60 L 60,-60 L 60,0 L -30,0 M -180,30 L -180,-60 L -60,-60 L -60,30 L -180,30 M 90,30 L 90,-60 L 210,-60 L 210,30 L 90,30 M -120,-90 L -120,-300 L -30,-300 L -30,-90 L -120,-90 M 60,-90 L 60,-300 L 150,-300 L 150,-90 L 60,-90 M -300,-180 L -300,-270 L -150,-270 L -150,-180 L -300,-180 M 0,30 L 0,0 L 30,0 L 30,30 L 0,30 M -37.5,-30 L -30,-30 L -30,0 L -37.5,0 L -37.5,-6 L -52.5,-6 L -52.5,0 L -60,0 L -60,-30 L -52.5,-30 L -52.5,-24 L -37.5,-24 L -37.5,-30 M 67.5,0 L 60,0 L 60,-30 L 67.5,-30 L 67.5,-24 L 82.5,-24 L 82.5,-30 L 90,-30 L 90,0 L 82.5,0 L 82.5,-6 L 67.5,-6 L 67.5,0 M -60,-67.5 L -60,-60 L -90,-60 L -90,-67.5 L -84,-67.5 L -84,-82.5 L -90,-82.5 L -90,-90 L -60,-90 L -60,-82.5 L -66,-82.5 L -66,-67.5 L -60,-67.5 M 120,-67.5 L 120,-60 L 90,-60 L 90,-67.5 L 96,-67.5 L 96,-82.5 L 90,-82.5 L 90,-90 L 120,-90 L 120,-82.5 L 114,-82.5 L 114,-67.5 L 120,-67.5 M -127.5,-240 L -120,-240 L -120,-210 L -127.5,-210 L -127.5,-216 L -142.5,-216 L -142.5,-210 L -150,-210 L -150,-240 L -142.5,-240 L -142.5,-234 L -127.5,-234 L -127.5,-240" stroke="#000000" stroke-width="4"/><path d=" M -30,0 L -30,-60 L 60,-60 L 60,0 L -30,0" fill="#FFFFFF"/><path d=" M -180,30 L -180,-60 L -60,-60 L -60,30 L -180,30" fill="#FFFFFF"/><path d=" M 90,30 L 90,-60 L 210,-60 L 210,30 L 90,30" fill="#FFFFFF"/><path d=" M -120,-90 L -120,-300 L -30,-300 L -30,-90 L -120,-90" fill="#FFFFFF"/><path d=" M 60,-90 L 60,-300 L 150,-300 L 150,-90 L 60,-90" fill="#FFFFFF"/><path d=" M -300,-180 L -300,-270 L -150,-270 L -150,-180 L -300,-180" fill="#FFFFFF"/><path d=" M 0,30 L 0,0 L 30,0 L 30,30 L 0,30" fill="#FFFFFF"/><path d=" M -37.5,-30 L -30,-30 L -30,0 L -37.5,0 L -37.5,-6 L -52.5,-6 L -52.5,0 L -60,0 L -60,-30 L -52.5,-30 L -52.5,-24 L -37.5,-24 L -37.5,-30" fill="#FFFFFF"/><path d=" M 67.5,0 L 60,0 L 60,-30 L 67.5,-30 L 67.5,-24 L 82.5,-24 L 82.5,-30 L 90,-30 L 90,0 L 82.5,0 L 82.5,-6 L 67.5,-6 L 67.5,0" fill="#FFFFFF"/><path d=" M -60,-67.5 L -60,-60 L -90,-60 L -90,-67.5 L -84,-67.5 L -84,-82.5 L -90,-82.5 L -90,-90 L -60,-90 L -60,-82.5 L -66,-82.5 L -66,-67.5 L -60,-67.5" fill="#FFFFFF"/><path d=" M 120,-67.5 L 120,-60 L 90,-60 L 90,-67.5 L 96,-67.5 L 96,-82.5 L 90,-82.5 L 90,-90 L 120,-90 L 120,-82.5 L 114,-82.5 L 114,-67.5 L 120,-67.5" fill="#FFFFFF"/><path d=" M -127.5,-240 L -120,-240 L -120,-210 L -127.5,-210 L -127.5,-216 L -142.5,-216 L -142.5,-210 L -150,-210 L -150,-240 L -142.5,-240 L -142.5,-234 L -127.5,-234 L -127.5,-240" fill="#FFFFFF"/><path d=" M 0,0 L 30,0 M -60,0 L -60,-30 M -30,0 L -30,-30 M 90,-30 L 90,0 M 60,-30 L 60,0 M -90,-90 L -60,-90 M -90,-60 L -60,-60 M 90,-90 L 120,-90 M 90,-60 L 120,-60 M -150,-210 L -150,-240 M -120,-210 L -120,-240" stroke="#FFFFFF" stroke-width="1" stroke-linejoin="round" stroke-linecap="butt"/></g><g><path d=" M 0,0"/><path d=" M -73.351,-301 L -73.783,-301 L -73.755,-300.048 L -75.215,-297.164 L -74.278,-294.021 L -74.278,-294.021 L -75.015,-297.14 L -73.38,-299.952 L -73.351,-301" fill="#000000"/><path d=" M 151,-186.435 L 151,-188.009 L 149.932,-187.977 L 144.346,-186.772 L 139.675,-190.272 L 133.922,-188.57 L 129.295,-192.083 L 129.295,-192.083 L 133.833,-188.157 L 139.499,-189.445 L 144.04,-185.566 L 150.068,-186.467 L 151,-186.435" fill="#000000"/><path d=" M -29.34,-30.034 L -19.926,-29.803 L -19.926,-29.803 L -19.194,-29.802 M -19.155,-29.802 L -10.467,-29.788 L 0.709,-29.552 L 9.909,-29.876 L 20.025,-30.253 L 29.972,-29.717 L 40.133,-30.11 L 49.843,-30.179 L 59.793,-30.148 M 0.009,-60.057 L -0.041,-49.889 L -0.041,-49.889 L -0.283,-40.3 L -0.007,-32.537 M 0.049,-30.994 L 0.095,-29.686 L 0.32,-19.943 L -0.273,-10.112 L -0.757,0.412 M 29.981,-59.86 L 30.048,-49.971 L 30.048,-49.971 L 29.325,-39.796 L 29.237,-30.02 L 30.16,-19.865 L 29.631,-10.24 L 30.081,0.225 M -180.064,-29.756 L -170.151,-30.589 M -167.495,-30.497 L -160.044,-30.174 L -149.875,-29.728 L -139.984,-30.009 L -129.708,-30.163 L -119.962,-29.802 L -110.143,-29.712 L -100.14,-29.911 L -90.567,-30.079 L -79.731,-30.596 L -69.903,-30.151 L -59.816,-29.977 M -180.539,0.531 L -170.158,-0.192 L -170.158,-0.192 L -159.877,-0.083 L -150.236,0.069 L -139.8,-0.642 L -130.278,0.114 L -120.368,0.08 L -110.383,-0.045 L -102.934,-0.026 M -97.501,-0.064 L -89.918,-0.203 L -79.863,-0.035 L -69.715,0.288 L -59.925,0.017 M -149.793,-60.619 L -150.004,-50.207 L -150.004,-50.207 L -149.279,-39.872 L -150.472,-30.56 L -149.972,-19.775 L -150.063,-10.089 L -148.924,-0.178 L -149.796,10.034 L -150.111,20.265 L -150.232,27.928 M -119.985,-60.289 L -119.009,-50.002 L -119.009,-50.002 L -119.782,-40.098 L -120.717,-30.483 L -119.889,-20.573 L -120.283,-9.189 L -119.989,-0.36 L -119.934,9.914 L -119.626,19.83 L -120.051,29.723 M -89.94,-60.654 L -89.981,-49.856 L -89.981,-49.856 L -89.706,-39.59 L -89.724,-30.943 L -89.986,-20.074 L -89.853,-10.28 L -89.994,-4.57 M -90.131,3.461 L -90.182,10.03 L -89.912,20.162 L -90.007,30.034 M 89.588,-29.098 L 99.837,-29.39 L 99.837,-29.39 L 109.814,-29.64 L 119.577,-30.013 L 130.149,-29.858 L 140.028,-29.794 L 150.145,-29.975 L 160.211,-29.955 L 169.724,-30.434 L 179.834,-29.923 L 190.033,-29.976 L 193.585,-30.165 M 194.445,-30.211 L 200.143,-30.514 L 209.923,-29.816 M 90.003,-0.001 L 99.998,0.008 L 99.998,0.008 L 108.208,0.163 M 111.464,0.17 L 119.735,0.099 L 130.107,0.003 L 140.047,-0.062 L 150.779,-0.626 L 159.163,-0.286 L 169.918,0.159 L 180.125,-0.137 L 190.078,-0.061 L 200.207,-0.405 L 210.141,-0.011 M 119.995,-59.98 L 119.713,-50.003 L 119.713,-50.003 L 119.595,-39.69 L 119.18,-30.38 L 120.186,-20.193 L 119.81,-9.762 L 120.198,0.345 L 120.243,10.07 L 119.807,19.726 L 119.67,29.742 M 150.374,-60.054 L 149.949,-55.484 M 149.786,-53.731 L 149.455,-50.161 L 149.455,-50.161 L 149.912,-40.066 L 149.363,-29.948 L 149.756,-20.085 L 150.154,-9.988 L 150.469,0.126 L 149.439,9.617 L 150.102,20.294 L 149.672,30.314 M 179.938,-60.084 L 179.99,-49.976 L 179.99,-49.976 L 179.703,-40.095 L 180.284,-29.806 L 180.449,-21.564 M 180.458,-21.124 L 180.497,-19.171 L 179.667,-9.413 L 179.977,-0.01 L 180.756,10.125 L 180.092,19.243 L 180.069,30.308 M -119.535,-270.25 L -110.451,-269.67 L -110.451,-269.67 L -99.486,-270.454 L -90.156,-270.173 L -79.791,-270.207 L -70.323,-269.773 L -59.956,-269.839 L -57.056,-269.74 M -53.313,-269.613 L -49.97,-269.499 L -39.754,-270.302 L -29.973,-270.179 M -119.777,-239.783 L -110.014,-240.414 L -110.014,-240.414 L -100.331,-239.891 L -90.7,-240.312 M -88.913,-240.218 L -79.851,-239.487 L -69.631,-239.433 L -59.982,-240.245 L -49.92,-240.018 L -39.678,-239.634 L -30.763,-240.119 M -120.177,-210.066 L -109.602,-210.096 L -109.602,-210.096 L -100.004,-209.997 L -89.997,-210.093 L -79.895,-210.173 L -69.635,-209.722 L -60.138,-210.115 L -50.156,-210.391 L -42.005,-210.138 M -41.094,-210.11 L -40.133,-210.08 L -30.146,-210.197 M -120.242,-180.53 L -110.356,-179.897 L -110.356,-179.897 L -100.236,-180.111 L -94.99,-180.071 M -94.936,-180.071 L -90.034,-180.034 L -79.752,-179.904 L -69.963,-179.964 L -60.074,-179.967 L -49.822,-179.991 L -39.901,-179.65 L -30.123,-179.675 M -120.23,-149.978 L -110.275,-149.838 L -110.275,-149.838 L -99.867,-149.77 L -90.052,-149.985 L -80.249,-150.264 L -69.986,-150.086 L -59.874,-150.114 L -49.562,-150.192 L -40.526,-150.227 L -29.931,-149.391 M -120.012,-120.243 L -109.864,-120.023 L -109.864,-120.023 L -99.54,-119.25 L -97.694,-119.46 M -96.687,-119.574 L -90.478,-120.279 L -80.193,-120.051 L -69.666,-120.528 L -59.407,-119.536 L -50.554,-120.115 L -39.401,-119.364 L -29.807,-120.461 M -90.003,-300.013 L -89.659,-290.211 L -89.659,-290.211 L -89.824,-279.952 L -90.006,-270.043 L -89.891,-259.912 L -90.153,-250.005 L -89.675,-240.624 L -89.693,-238.907 M -89.695,-238.767 L -89.791,-229.872 L -90.316,-220.146 L -90.008,-210.048 L -90.045,-200.056 L -89.966,-190.013 L -90.093,-179.643 L -90.244,-170.046 L -89.994,-159.991 L -90.346,-150.109 L -90.102,-140.532 L -90.036,-130.014 L -90.788,-119.283 L -89.73,-110.021 L -90.184,-100.259 L -89.736,-90.541 M -59.952,-299.937 L -59.846,-289.463 L -59.846,-289.463 L -59.942,-279.759 L -60.096,-270.102 L -60.007,-260.616 L -59.755,-249.932 L -60.012,-240.293 L -59.805,-230.366 L -60.53,-220.925 M -60.411,-218.288 L -59.843,-209.416 L -60.009,-199.826 L -59.739,-189.927 L -59.799,-180.191 L -59.506,-169.962 L -60.04,-159.991 L -60.392,-149.714 L -59.977,-140.034 L -59.801,-129.915 L -60.049,-120.02 L -60.122,-110.165 L -60.048,-100.092 L -59.523,-90.063 M 60.102,-270.256 L 69.802,-270.285 L 69.802,-270.285 L 79.674,-269.988 L 90.088,-270.21 L 99.595,-270.935 L 110.519,-270.235 L 115.999,-270.162 M 123.293,-270.079 L 130.101,-270.016 L 140.06,-269.897 L 149.514,-270.059 M 60.348,-239.685 L 69.859,-239.77 L 69.859,-239.77 L 79.759,-240.681 L 89.933,-240.278 L 99.883,-240.358 L 110.588,-240.46 L 120.073,-239.675 L 130.018,-240.022 L 140.137,-240.436 L 149.483,-240.06 M 60.424,-209.839 L 69.808,-209.791 L 69.808,-209.791 L 79.684,-209.799 L 89.852,-210.304 L 100.179,-209.773 L 110.122,-209.801 L 120.248,-210.092 L 130.601,-209.999 L 135.071,-209.923 M 136.839,-209.893 L 140.266,-209.834 L 150.103,-209.784 M 59.87,-179.79 L 70.287,-179.709 L 70.287,-179.709 L 79.511,-179.802 L 89.92,-180.105 L 99.812,-179.976 L 109.847,-180.158 L 120.094,-179.813 L 129.6,-180.288 L 139.626,-180.573 L 150.086,-179.855 M 59.748,-150.22 L 70.586,-149.679 L 70.586,-149.679 L 80.067,-150.205 L 90.444,-150.212 L 100.014,-149.973 L 103.051,-149.974 M 103.646,-149.974 L 110.011,-149.976 L 119.21,-150.166 L 129.641,-150.255 L 140.142,-150.287 L 150.096,-149.996 M 59.638,-120.315 L 69.972,-120.028 L 69.972,-120.028 L 79.842,-119.838 L 89.536,-120.04 L 99.732,-119.761 L 110.335,-119.886 L 119.923,-119.934 L 130.152,-120.464 L 140.044,-120.17 L 150.088,-120.002 M 89.893,-300.084 L 89.999,-289.999 L 89.999,-289.999 L 89.649,-280.374 L 90.244,-270.043 L 89.951,-260.37 L 89.778,-249.379 L 90.648,-240.144 L 89.789,-229.639 L 89.985,-220.473 L 90.291,-213.784 M 90.318,-213.184 L 90.459,-210.094 L 89.705,-199.748 L 90.494,-189.935 L 89.716,-179.304 L 89.91,-169.865 L 89.991,-160.003 L 90.221,-149.44 L 90.109,-140.15 L 90.004,-130.001 L 89.962,-120.116 L 89.837,-110.538 L 90.042,-100.059 L 90.051,-90.053 M 120.123,-299.97 L 120.108,-290.004 L 120.108,-290.004 L 120.035,-280 L 120.272,-270.318 L 119.632,-259.855 L 120.384,-249.933 L 119.77,-239.982 L 120.479,-229.469 L 120.123,-219.742 L 119.479,-210.159 L 119.79,-205.013 M 120.167,-196.396 L 120.277,-190.434 L 119.689,-179.791 L 120.066,-169.934 L 120.144,-160.569 L 120.042,-149.963 L 120.352,-139.969 L 119.634,-130.16 L 119.593,-119.641 L 120.734,-109.884 L 119.852,-100.038 L 119.919,-89.851 M -301.183,-239.992 L -290.326,-240.13 L -290.326,-240.13 L -290.319,-240.13 M -289.863,-240.122 L -279.994,-239.949 L -269.943,-240.275 L -260.215,-240.272 L -250.47,-240.369 L -239.986,-239.736 L -230.002,-239.992 L -220.101,-240.138 L -209.841,-240.102 L -200.002,-239.995 L -189.669,-240.029 L -180.049,-240.235 L -169.384,-240.491 L -160.338,-239.495 L -150.288,-240.089 M -299.659,-209.664 L -290.125,-209.853 L -290.125,-209.853 L -279.967,-209.975 L -269.936,-210.436 L -259.976,-210.281 L -249.863,-210.195 L -240.329,-209.84 L -229.602,-209.754 L -219.937,-210.222 L -210.224,-209.905 L -200.121,-210.05 L -189.887,-210.035 L -182.389,-209.855 M -181.786,-209.84 L -180.915,-209.82 L -169.203,-210.383 L -159.771,-210.618 L -150.038,-209.896 M -269.823,-270.152 L -269.835,-268.816 M -269.891,-262.282 L -269.915,-259.488 L -269.915,-259.488 L -269.78,-250.119 L -270.418,-240.674 L -270.073,-230.468 L -270.289,-219.936 L -269.864,-210.174 L -269.785,-199.994 L -269.914,-189.515 L -270.262,-180.077 M -240.059,-270.404 L -239.988,-260.002 L -239.988,-260.002 L -239.668,-249.637 L -239.867,-242.796 M -239.942,-237.277 L -239.928,-230.076 L -240.128,-219.968 L -240.796,-209.976 L -239.991,-199.962 L -240.503,-190.48 L -239.716,-180.122 M -210.081,-270.06 L -209.944,-259.94 L -209.944,-259.94 L -209.884,-249.852 L -210.098,-240.05 L -210.129,-230.006 L -209.87,-219.842 L -210.277,-210.107 L -209.884,-199.798 L -209.329,-189.425 L -209.631,-184.842 M -179.966,-270.053 L -180.488,-260.695 L -180.488,-260.695 L -180.073,-250.059 L -180.284,-239.542 L -179.947,-232.97 M -179.844,-230.96 L -179.798,-230.058 L -180.64,-219.408 L -179.909,-210.044 L -179.928,-199.993 L -180.041,-190.223 L -179.919,-179.337 M -0.049,-0.069 L 9.975,0.111 L 9.975,0.111 L 20.037,-0.061 L 30.143,0.279 M -60.337,-0.65 L -60.7,-10.824 L -60.7,-10.824 L -59.707,-19.993 L -59.891,-30.528 M -30.501,-29.524 L -29.809,-20.072 L -29.809,-20.072 L -29.585,-10.357 L -29.787,-5.128 M -29.937,-1.265 L -30.002,0.406 M 89.988,-30.281 L 89.751,-20.55 L 89.751,-20.55 L 89.787,-19.389 M 89.79,-19.279 L 90.077,-10.091 L 90.697,0.037 M 59.263,-0.025 L 59.999,-9.994 L 59.999,-9.994 L 60.35,-20.585 L 60.089,-30.033 M -90.173,-89.866 L -80,-90 L -80,-90 L -69.972,-89.984 L -60.504,-89.835 M -60.354,-59.784 L -70.383,-59.788 L -70.383,-59.788 L -80.095,-59.836 L -90.069,-59.62 M 90.26,-90.043 L 99.25,-90.279 L 99.25,-90.279 L 105.713,-90.161 M 111.617,-90.049 L 119.955,-89.862 M 119.665,-60.388 L 109.761,-60.968 L 109.761,-60.968 L 100.086,-59.795 L 90.107,-60.134 M -150.295,-210.101 L -149.551,-220.249 L -149.551,-220.249 L -150.011,-229.251 L -149.137,-239.61 M -119.406,-240.209 L -120.223,-229.684 L -120.223,-229.684 L -119.837,-220.149 L -120.117,-209.943" stroke="#000000" stroke-width="0.3"/></g><g clip-path="url(#instance371)"><path d=" M 0,0"/><path d=" M -65.277,-202.249 L -63.451,-203.291 L -61.558,-204.562 L -59.597,-206.062 L -57.651,-207.34 L -55.718,-208.396 L -53.799,-209.231 L -51.895,-209.843 L -50.004,-210.234 L -48.128,-210.404 L -46.266,-210.351 L -44.418,-210.077 L -42.568,-209.677 L -40.717,-209.152 L -38.863,-208.502 L -37.009,-207.726 L -35.152,-206.825 L -33.294,-205.799 L -31.434,-204.647 L -29.572,-203.37 L -27.749,-202.255 L -25.965,-201.302 L -24.219,-200.511 L -22.512,-199.882 L -20.844,-199.414 L -19.214,-199.109 L -17.623,-198.966 L -16.071,-198.984 L -14.408,-198.975 L -12.637,-198.937 L -10.755,-198.871 L -8.765,-198.776 L -6.664,-198.654 L -4.454,-198.503 L -2.134,-198.324 L 0.295,-198.117 L 2.409,-197.655 L 4.209,-196.94 L 5.695,-195.97 L 6.866,-194.746 L 7.722,-193.268 L 8.264,-191.536 L 8.491,-189.55 L 8.403,-187.309 L 8.105,-185.123 L 7.595,-182.991 L 6.875,-180.913 L 5.944,-178.89 L 4.802,-176.921 L 3.449,-175.006 L 1.885,-173.145 L 0.111,-171.338 L -1.479,-169.524 L -2.884,-167.701 L -4.104,-165.87 L -5.138,-164.031 L -5.988,-162.184 L -6.653,-160.328 L -7.132,-158.465 L -7.427,-156.593 L -7.447,-154.714 L -7.194,-152.828 L -6.666,-150.935 L -5.863,-149.035 L -4.787,-147.127 L -3.436,-145.212 L -1.811,-143.29 L 0.088,-141.361 L 1.773,-139.428 L 3.246,-137.491 L 4.505,-135.55 L 5.552,-133.606 L 6.384,-131.657 L 7.004,-129.705 L 7.41,-127.748 L 7.604,-125.788 L 7.502,-123.891 L 7.105,-122.058 L 6.414,-120.287 L 5.428,-118.58 L 4.147,-116.937 L 2.572,-115.356 L 0.701,-113.839 L -1.464,-112.385 L -3.47,-110.988 L -5.315,-109.648 L -7.001,-108.364 L -8.527,-107.137 L -9.894,-105.967 L -11.1,-104.854 L -12.147,-103.797 L -13.034,-102.797 L -13.885,-101.636 L -14.702,-100.314 L -15.483,-98.831 L -16.229,-97.186 L -16.94,-95.38 L -17.616,-93.413 L -18.256,-91.285 L -18.861,-88.995 L -19.537,-86.897 L -20.283,-84.99 L -21.1,-83.274 L -21.988,-81.749 L -22.946,-80.415 L -23.975,-79.272 L -25.075,-78.321 L -26.245,-77.561 L -27.508,-76.821 L -28.864,-76.102 L -30.312,-75.403 L -31.854,-74.726 L -33.487,-74.068 L -35.214,-73.432 L -37.033,-72.816 L -38.946,-72.22 L -40.771,-71.67 L -42.511,-71.164 L -44.165,-70.702 L -45.732,-70.286 L -47.214,-69.914 L -48.609,-69.587 L -49.918,-69.305 L -51.141,-69.067 L -52.418,-68.634 L -53.751,-68.006 L -55.139,-67.184 L -56.581,-66.166 L -58.079,-64.953 L -59.631,-63.545 L -61.238,-61.942 L -62.901,-60.144 L -64.654,-58.563 L -66.499,-57.2 L -68.435,-56.054 L -70.462,-55.125 L -72.58,-54.413 L -74.79,-53.919 L -77.091,-53.642 L -79.483,-53.582 L -81.475,-53.855 L -83.069,-54.46 L -84.263,-55.399 L -85.058,-56.67 L -85.454,-58.273 L -85.45,-60.21 L -85.047,-62.479 L -84.245,-65.081 L -83.584,-67.558 L -83.065,-69.912 L -82.688,-72.141 L -82.453,-74.247 L -82.359,-76.228 L -82.407,-78.085 L -82.596,-79.818 L -82.928,-81.427 L -83.42,-83.098 L -84.074,-84.832 L -84.89,-86.627 L -85.867,-88.485 L -87.006,-90.405 L -88.306,-92.386 L -89.768,-94.431 L -91.391,-96.537 L -92.691,-98.664 L -93.669,-100.811 L -94.323,-102.979 L -94.654,-105.167 L -94.662,-107.376 L -94.348,-109.605 L -93.71,-111.855 L -92.749,-114.125 L -91.582,-115.961 L -90.207,-117.362 L -88.626,-118.328 L -86.837,-118.86 L -84.842,-118.957 L -82.639,-118.62 L -80.23,-117.848 L -77.614,-116.641 L -75.07,-115.723 L -72.6,-115.092 L -70.202,-114.75 L -67.878,-114.695 L -65.626,-114.928 L -63.447,-115.45 L -61.341,-116.259 L -59.308,-117.357 L -57.741,-118.548 L -56.639,-119.832 L -56.003,-121.21 L -55.832,-122.681 L -56.127,-124.246 L -56.888,-125.904 L -58.114,-127.656 L -59.806,-129.502 L -61.447,-131.182 L -63.039,-132.698 L -64.58,-134.05 L -66.072,-135.237 L -67.513,-136.259 L -68.904,-137.116 L -70.245,-137.809 L -71.536,-138.338 L -72.703,-139.09 L -73.746,-140.066 L -74.665,-141.267 L -75.461,-142.691 L -76.133,-144.339 L -76.681,-146.211 L -77.105,-148.307 L -77.406,-150.627 L -77.718,-152.811 L -78.041,-154.858 L -78.375,-156.768 L -78.72,-158.541 L -79.077,-160.178 L -79.444,-161.679 L -79.823,-163.042 L -80.214,-164.27 L -80.774,-165.576 L -81.506,-166.963 L -82.408,-168.429 L -83.482,-169.976 L -84.726,-171.602 L -86.14,-173.307 L -87.726,-175.093 L -89.482,-176.958 L -90.973,-178.831 L -92.2,-180.713 L -93.162,-182.602 L -93.86,-184.5 L -94.293,-186.406 L -94.462,-188.32 L -94.365,-190.242 L -94.005,-192.172 L -93.486,-193.908 L -92.811,-195.451 L -91.978,-196.799 L -90.989,-197.953 L -89.841,-198.914 L -88.537,-199.68 L -87.075,-200.253 L -85.456,-200.632 L -83.862,-200.922 L -82.292,-201.123 L -80.747,-201.236 L -79.227,-201.26 L -77.732,-201.195 L -76.262,-201.042 L -74.816,-200.8 L -73.395,-200.47 L -71.906,-200.368 L -70.35,-200.495 L -68.727,-200.851 L -67.036,-201.436 L -65.277,-202.249" fill="#EEEEEE" stroke="#000000" stroke-width="1"/><path d=" M -61.56,-197.602 L -59.651,-198.874 L -59.651,-198.874 L -57.706,-200.368 L -55.837,-201.645 L -54.604,-202.373 M -38.337,-201.859 L -37.216,-201.259 L -35.465,-200.229 L -34.464,-199.592 M -20.628,-193.354 L -18.915,-193.177 L -17.138,-193.15 L -15.343,-193.13 L -13.53,-193.115 L -11.699,-193.107 L -9.85,-193.106 L -8.86,-193.108 M -6.943,-193.116 L -6.095,-193.121 L -4.191,-193.138 L -2.268,-193.161 L -0.614,-193.006 L 0.771,-192.671 L 1.888,-192.158 L 2.736,-191.465 L 3.315,-190.594 L 3.626,-189.543 L 3.667,-188.314 L 3.44,-186.905 L 3.023,-185.454 L 2.528,-184.233 M 0.459,-180.602 L -0.544,-179.219 L -1.911,-177.552 L -2.537,-176.866 M -8.041,-170.487 L -8.179,-170.294 L -9.395,-168.25 L -10.435,-166.108 L -11.297,-163.869 L -11.983,-161.533 L -12.492,-159.099 L -12.824,-156.568 L -12.872,-154.169 M -12.204,-149.74 L -12.124,-149.378 L -11.325,-147.116 L -10.243,-144.922 L -8.879,-142.794 L -7.232,-140.734 L -5.303,-138.741 L -3.848,-137.131 M 2.214,-127.17 L 2.369,-126.233 L 2.315,-125.267 M -10.116,-113.354 L -11.145,-112.573 L -12.688,-111.313 L -13.365,-110.716 M -16.783,-107.361 L -17.752,-106.237 L -18.786,-104.844 L -19.753,-103.333 L -20.655,-101.703 L -21.33,-100.29 M -27.369,-84.181 L -27.496,-83.988 L -28.256,-83.094 L -29.049,-82.422 L -29.873,-81.971 L -30.819,-81.506 L -30.866,-81.485 M -45.363,-76.558 L -46.022,-76.369 L -47.655,-75.916 L -49.245,-75.488 L -50.793,-75.087 L -52.298,-74.711 L -53.761,-74.362 L -55.233,-73.839 L -56.623,-73.188 M -58.281,-72.227 L -59.711,-71.239 L -61.223,-70.027 L -62.745,-68.643 L -64.278,-67.086 L -65.82,-65.357 L -67.35,-63.801 L -68.868,-62.418 L -70.373,-61.209 L -71.449,-60.462 M -75.138,-58.504 L -76.271,-58.102 L -77.715,-57.758 L -78.864,-57.722 L -79.719,-57.994 L -79.76,-58.037 M -78.741,-65.921 L -78.665,-66.097 L -77.919,-68.208 L -77.338,-70.309 L -76.923,-72.4 L -76.674,-74.481 L -76.59,-76.552 L -76.672,-78.614 L -76.919,-80.665 L -77.332,-82.707 L -77.37,-82.847 M -78.747,-87.115 L -79.42,-88.702 L -80.399,-90.658 L -81.519,-92.591 L -82.782,-94.504 L -84.186,-96.395 L -85.731,-98.264 L -86.956,-99.978 M -89.254,-111.076 L -89.192,-111.283 L -88.515,-112.388 L -88.204,-112.648 M -71.541,-109.379 L -69.482,-109.287 L -67.367,-109.501 M -62.754,-110.747 L -61.557,-111.197 L -58.813,-112.583 L -56.017,-114.344 L -55.418,-114.849 M -53.562,-129.878 L -55.096,-131.84 L -56.373,-133.377 M -68.185,-142.773 L -68.829,-143.324 L -69.601,-144.302 L -70.262,-145.505 L -70.813,-146.931 L -71.253,-148.581 L -71.582,-150.455 L -71.801,-152.553 L -71.935,-153.608 M -72.196,-155.508 L -72.349,-156.528 L -72.677,-158.406 L -73.042,-160.21 L -73.443,-161.942 L -73.88,-163.6 L -74.354,-165.184 L -74.864,-166.696 L -75.519,-168.23 L -76.319,-169.788 L -77.264,-171.369 L -77.786,-172.138 M -80.315,-175.471 L -80.966,-176.25 L -82.489,-177.923 L -83.552,-179.003 M -88.477,-185.803 L -88.947,-187.139 L -89.194,-188.45 L -89.205,-189.698 L -88.979,-190.881 L -88.648,-191.931 L -88.213,-192.847 L -87.674,-193.631 L -87.03,-194.281 L -86.281,-194.798 L -85.429,-195.181 L -84.472,-195.431 L -83.41,-195.548 L -82.274,-195.614 L -81.065,-195.63 L -79.781,-195.594 L -79.231,-195.559 M -74.77,-195.075 L -73.904,-194.945 L -72.25,-194.655 L -70.56,-194.589 L -68.832,-194.746 L -67.069,-195.125 L -65.269,-195.728 L -63.433,-196.554 M -59.669,-191.913 L -57.744,-193.185 L -57.744,-193.185 L -56.565,-194.096 M -27.401,-188.965 L -26.148,-188.526 L -24.416,-188.058 M -7.358,-187.793 L -6.248,-187.952 L -4.831,-188.206 L -3.638,-188.357 L -2.667,-188.403 L -1.919,-188.346 L -1.394,-188.184 L -1.092,-187.919 L -1.013,-187.551 L -1.08,-187.328 M -16.86,-145.441 L -16.787,-145.198 L -15.813,-142.974 M -7.5,-132.671 L -7.428,-132.593 L -6.122,-131.12 L -5.034,-129.842 L -4.399,-129.051 M -66.593,-72.981 L -67.317,-72.23 L -68.739,-70.57 L -69.108,-70.138 M -71.359,-82.101 L -71.736,-83.986 L -72.038,-85.147 M -80.114,-100.042 L -81.367,-101.496 L -82.491,-102.872 L -83.444,-104.12 L -84.225,-105.241 L -84.442,-105.594 M -47.279,-117.465 L -46.406,-119.179 L -46.234,-119.917 M -49.127,-132.389 L -50.387,-134.179 L -51.925,-136.249" stroke="#000000" stroke-width="1"/><clipPath id="instance371" fill="#FFFFFF"><path d=" M 0,0"/><path d=" M -30,0 L -30,-60 L 60,-60 L 60,0 L -30,0" fill="#FF0000"/><path d=" M -180,30 L -180,-60 L -60,-60 L -60,30 L -180,30" fill="#FF0000"/><path d=" M 90,30 L 90,-60 L 210,-60 L 210,30 L 90,30" fill="#FF0000"/><path d=" M -120,-90 L -120,-300 L -30,-300 L -30,-90 L -120,-90" fill="#FF0000"/><path d=" M 60,-90 L 60,-300 L 150,-300 L 150,-90 L 60,-90" fill="#FF0000"/><path d=" M -300,-180 L -300,-270 L -150,-270 L -150,-180 L -300,-180" fill="#FF0000"/><path d=" M 0,30 L 0,0 L 30,0 L 30,30 L 0,30" fill="#FF0000"/><path d=" M -37.5,-30 L -30,-30 L -30,0 L -37.5,0 L -37.5,-6 L -52.5,-6 L -52.5,0 L -60,0 L -60,-30 L -52.5,-30 L -52.5,-24 L -37.5,-24 L -37.5,-30" fill="#FF0000"/><path d=" M 67.5,0 L 60,0 L 60,-30 L 67.5,-30 L 67.5,-24 L 82.5,-24 L 82.5,-30 L 90,-30 L 90,0 L 82.5,0 L 82.5,-6 L 67.5,-6 L 67.5,0" fill="#FF0000"/><path d=" M -60,-67.5 L -60,-60 L -90,-60 L -90,-67.5 L -84,-67.5 L -84,-82.5 L -90,-82.5 L -90,-90 L -60,-90 L -60,-82.5 L -66,-82.5 L -66,-67.5 L -60,-67.5" fill="#FF0000"/><path d=" M 120,-67.5 L 120,-60 L 90,-60 L 90,-67.5 L 96,-67.5 L 96,-82.5 L 90,-82.5 L 90,-90 L 120,-90 L 120,-82.5 L 114,-82.5 L 114,-67.5 L 120,-67.5" fill="#FF0000"/><path d=" M -127.5,-240 L -120,-240 L -120,-210 L -127.5,-210 L -127.5,-216 L -142.5,-216 L -142.5,-210 L -150,-210 L -150,-240 L -142.5,-240 L -142.5,-234 L -127.5,-234 L -127.5,-240" fill="#FF0000"/></clipPath></g><g><path d=" M 0,0"/><path d=" M -15.284,-58.937 L -15.159,-58.812 L -17.247,-58.625 L -21.548,-58.375 L -24.837,-57.265 L -27.112,-55.296 L -28.375,-52.468 L -28.625,-48.779 L -28.812,-46.998 L -28.937,-47.123 L -29,-50.139 L -29,-59 L -18.76,-59 L -15.284,-58.937 M 58.938,-42.365 L 58.813,-42.24 L 58.625,-44.814 L 58.375,-50.089 L 57.101,-54.107 L 54.802,-56.869 L 51.48,-58.375 L 47.133,-58.625 L 45.022,-58.812 L 45.147,-58.937 L 48.657,-59 L 59,-59 L 59,-46.57 L 58.938,-42.365" fill="#000000"/><path d=" M -173.022,-58.937 L -172.897,-58.812 L -173.695,-58.625 L -175.417,-58.375 L -176.771,-57.256 L -177.757,-55.268 L -178.375,-52.411 L -178.625,-48.684 L -178.812,-46.884 L -178.937,-47.009 L -179,-50.053 L -179,-59 L -174.563,-59 L -173.022,-58.937 M -178.937,11.135 L -178.812,11.01 L -178.625,13.789 L -178.375,19.474 L -177.455,23.799 L -175.864,26.766 L -173.602,28.375 L -170.67,28.625 L -169.267,28.813 L -169.392,28.938 L -171.841,29 L -179,29 L -179,15.648 L -178.937,11.135 M -68.355,28.938 L -68.48,28.813 L -67.452,28.625 L -65.271,28.375 L -63.573,26.858 L -62.358,24.075 L -61.625,20.025 L -61.375,14.708 L -61.187,12.113 L -61.062,12.238 L -61,16.475 L -61,29 L -66.47,29 L -68.355,28.938" fill="#000000"/><path d=" M 208.938,-50.789 L 208.813,-50.664 L 208.625,-51.834 L 208.375,-54.301 L 207.381,-56.213 L 205.642,-57.571 L 203.158,-58.375 L 199.93,-58.625 L 198.379,-58.812 L 198.504,-58.937 L 201.175,-59 L 209,-59 L 209,-52.888 L 208.938,-50.789 M 91.063,13.81 L 91.188,13.685 L 91.375,16.019 L 91.625,20.811 L 93.112,24.468 L 95.837,26.989 L 99.8,28.375 L 104.999,28.625 L 107.537,28.813 L 107.412,28.938 L 103.262,29 L 91,29 L 91,17.654 L 91.063,13.81 M 205.421,28.938 L 205.296,28.813 L 205.695,28.625 L 206.617,28.375 L 207.371,26.635 L 207.957,23.404 L 208.375,18.684 L 208.625,12.473 L 208.813,9.43 L 208.938,9.555 L 209,14.463 L 209,29 L 206.363,29 L 205.421,28.938" fill="#000000"/><path d=" M -112.182,-298.937 L -112.057,-298.812 L -112.995,-298.625 L -114.997,-298.375 L -116.561,-297.235 L -117.687,-295.206 L -118.375,-292.287 L -118.625,-288.478 L -118.812,-286.636 L -118.937,-286.761 L -119,-289.868 L -119,-299 L -113.933,-299 L -112.182,-298.937 M -31.062,-291.427 L -31.187,-291.302 L -31.375,-292.366 L -31.625,-294.62 L -32.858,-296.372 L -35.074,-297.624 L -38.273,-298.375 L -42.456,-298.625 L -44.484,-298.812 L -44.359,-298.937 L -40.973,-299 L -31,-299 L -31,-293.367 L -31.062,-291.427 M -118.937,-99.008 L -118.812,-99.133 L -118.625,-97.996 L -118.375,-95.598 L -117.687,-93.736 L -116.56,-92.412 L -114.994,-91.625 L -112.991,-91.375 L -112.051,-91.187 L -112.176,-91.062 L -113.929,-91 L -119,-91 L -119,-96.959 L -118.937,-99.008 M -39.901,-91.062 L -40.026,-91.187 L -38.74,-91.375 L -36.044,-91.625 L -33.96,-92.926 L -32.487,-95.279 L -31.625,-98.683 L -31.375,-103.139 L -31.187,-105.304 L -31.062,-105.179 L -31,-101.588 L -31,-91 L -37.629,-91 L -39.901,-91.062" fill="#000000"/><path d=" M 71.907,-298.937 L 72.032,-298.812 L 70.412,-298.625 L 67.047,-298.375 L 64.461,-297.301 L 62.654,-295.402 L 61.625,-292.679 L 61.375,-289.132 L 61.188,-287.421 L 61.063,-287.546 L 61,-290.456 L 61,-299 L 69.133,-299 L 71.907,-298.937 M 148.938,-290.784 L 148.813,-290.659 L 148.625,-291.83 L 148.375,-294.298 L 146.861,-296.212 L 144.084,-297.571 L 140.043,-298.375 L 134.739,-298.625 L 132.149,-298.812 L 132.274,-298.937 L 136.502,-299 L 149,-299 L 149,-292.885 L 148.938,-290.784 M 61.063,-104.579 L 61.188,-104.704 L 61.375,-102.639 L 61.625,-98.383 L 62.576,-95.129 L 64.229,-92.876 L 66.583,-91.625 L 69.638,-91.375 L 71.103,-91.187 L 70.978,-91.062 L 68.436,-91 L 61,-91 L 61,-101.137 L 61.063,-104.579 M 139.594,-91.062 L 139.469,-91.187 L 140.839,-91.375 L 143.703,-91.625 L 145.914,-92.535 L 147.471,-94.104 L 148.375,-96.332 L 148.625,-99.221 L 148.813,-100.602 L 148.938,-100.477 L 149,-98.061 L 149,-91 L 141.993,-91 L 139.594,-91.062" fill="#000000"/><path d=" M -293.432,-268.937 L -293.307,-268.812 L -294.037,-268.625 L -295.622,-268.375 L -296.874,-267.112 L -297.791,-264.837 L -298.375,-261.55 L -298.625,-257.25 L -298.812,-255.162 L -298.937,-255.287 L -299,-258.762 L -299,-269 L -294.871,-269 L -293.432,-268.937 M -151.062,-255.615 L -151.187,-255.49 L -151.375,-257.523 L -151.625,-261.714 L -152.816,-264.919 L -154.947,-267.14 L -158.019,-268.375 L -162.032,-268.625 L -163.975,-268.812 L -163.85,-268.937 L -160.591,-269 L -151,-269 L -151,-259.008 L -151.062,-255.615 M -298.937,-191.201 L -298.812,-191.326 L -298.625,-189.823 L -298.375,-186.694 L -297.581,-184.285 L -296.242,-182.595 L -294.359,-181.625 L -291.932,-181.375 L -290.78,-181.187 L -290.905,-181.062 L -292.976,-181 L -299,-181 L -299,-188.604 L -298.937,-191.201 M -154.398,-181.062 L -154.523,-181.187 L -154.155,-181.375 L -153.293,-181.625 L -152.584,-182.852 L -152.028,-185.057 L -151.625,-188.24 L -151.375,-192.4 L -151.187,-194.417 L -151.062,-194.292 L -151,-190.922 L -151,-181 L -153.502,-181 L -154.398,-181.062" fill="#000000"/></g><g><path d=" M 0,0"/><path d=" M -22.954,-43.348 L -22.085,-44.301 L -20.847,-44.782 L -19.241,-44.789 L -18.166,-44.225 L -17.623,-43.088 L -17.611,-41.38 L -18.131,-39.099 L -18.825,-37.483 L -19.694,-36.53 L -20.738,-36.24 L -21.956,-36.615 L -22.837,-37.37 L -23.38,-38.506 L -23.586,-40.024 L -23.454,-41.922 L -22.954,-43.348" fill="#FFFFFF" stroke="#000000" stroke-width="1"/><path d=" M -65.331,28.134 L -65.545,27.774 L -65.578,27.207 L -65.429,26.432 L -65.234,25.863 L -64.991,25.501 L -64.701,25.345 L -64.364,25.396 L -64.088,25.601 L -63.874,25.961 L -63.721,26.476 L -63.63,27.145 L -63.706,27.661 L -63.949,28.023 L -64.358,28.232 L -64.935,28.287 L -65.331,28.134" fill="#FFFFFF" stroke="#000000" stroke-width="1"/><path d=" M -67.829,-56.811 L -68.1,-57.098 L -68.218,-57.487 L -68.183,-57.977 L -67.986,-58.292 L -67.626,-58.432 L -67.105,-58.396 L -66.421,-58.184 L -65.944,-57.935 L -65.673,-57.648 L -65.609,-57.323 L -65.751,-56.96 L -66.002,-56.708 L -66.361,-56.569 L -66.829,-56.541 L -67.405,-56.625 L -67.829,-56.811" fill="#FFFFFF" stroke="#000000" stroke-width="1"/><path d=" M -75.585,-56.749 L -75.331,-57.138 L -74.86,-57.326 L -74.171,-57.312 L -73.639,-57.158 L -73.264,-56.867 L -73.045,-56.436 L -72.983,-55.867 L -73.079,-55.387 L -73.333,-54.998 L -73.744,-54.698 L -74.314,-54.487 L -74.786,-54.528 L -75.161,-54.82 L -75.44,-55.363 L -75.621,-56.157 L -75.585,-56.749" fill="#FFFFFF" stroke="#000000" stroke-width="1"/><path d=" M -163.336,-56.282 L -162.627,-56.625 L -161.778,-56.485 L -160.792,-55.86 L -160.154,-55.171 L -159.865,-54.419 L -159.925,-53.602 L -160.334,-52.722 L -160.894,-52.11 L -161.604,-51.767 L -162.464,-51.693 L -163.474,-51.887 L -164.124,-52.36 L -164.412,-53.112 L -164.34,-54.144 L -163.908,-55.455 L -163.336,-56.282" fill="#FFFFFF" stroke="#000000" stroke-width="1"/><path d=" M -87.769,-55.195 L -86.724,-54.842 L -85.686,-53.762 L -84.656,-51.957 L -84.073,-50.484 L -83.939,-49.344 L -84.252,-48.535 L -85.013,-48.059 L -85.916,-47.997 L -86.961,-48.351 L -88.149,-49.12 L -89.479,-50.303 L -90.211,-51.466 L -90.345,-52.606 L -89.882,-53.726 L -88.822,-54.823 L -87.769,-55.195" fill="#FFFFFF" stroke="#000000" stroke-width="1"/><path d=" M -169.494,-56.541 L -169.775,-56.776 L -169.877,-57.162 L -169.8,-57.699 L -169.63,-58.1 L -169.367,-58.366 L -169.01,-58.496 L -168.559,-58.49 L -168.193,-58.37 L -167.913,-58.135 L -167.717,-57.785 L -167.607,-57.32 L -167.683,-56.955 L -167.947,-56.689 L -168.398,-56.523 L -169.035,-56.456 L -169.494,-56.541" fill="#FFFFFF" stroke="#000000" stroke-width="1"/><path d=" M 104.974,14.914 L 105.343,14.853 L 105.711,14.966 L 106.079,15.253 L 106.222,15.575 L 106.142,15.931 L 105.837,16.322 L 105.309,16.748 L 104.861,16.992 L 104.492,17.053 L 104.202,16.931 L 103.992,16.627 L 103.927,16.297 L 104.007,15.941 L 104.233,15.558 L 104.604,15.149 L 104.974,14.914" fill="#FFFFFF" stroke="#000000" stroke-width="1"/><path d=" M -50.16,-97.933 L -49.697,-98.584 L -48.874,-98.874 L -47.693,-98.801 L -46.79,-98.5 L -46.166,-97.973 L -45.821,-97.218 L -45.754,-96.236 L -45.953,-95.42 L -46.416,-94.768 L -47.143,-94.282 L -48.136,-93.961 L -48.944,-94.064 L -49.568,-94.591 L -50.008,-95.543 L -50.263,-96.919 L -50.16,-97.933" fill="#FFFFFF" stroke="#000000" stroke-width="1"/><path d=" M -113.719,-292.783 L -114.162,-293.11 L -114.42,-293.614 L -114.493,-294.295 L -114.301,-294.776 L -113.843,-295.057 L -113.118,-295.137 L -112.128,-295.016 L -111.411,-294.793 L -110.968,-294.466 L -110.8,-294.035 L -110.905,-293.502 L -111.187,-293.095 L -111.645,-292.815 L -112.28,-292.661 L -113.092,-292.633 L -113.719,-292.783" fill="#FFFFFF" stroke="#000000" stroke-width="1"/><path d=" M -43.621,-275.943 L -44.613,-276.813 L -44.949,-278.211 L -44.631,-280.139 L -43.987,-281.571 L -43.016,-282.507 L -41.719,-282.947 L -40.096,-282.892 L -38.788,-282.429 L -37.796,-281.559 L -37.12,-280.283 L -36.759,-278.6 L -37.064,-277.29 L -38.035,-276.354 L -39.671,-275.792 L -41.974,-275.603 L -43.621,-275.943" fill="#FFFFFF" stroke="#000000" stroke-width="1"/><path d=" M 143.662,-125.252 L 144.024,-125.317 L 144.501,-125.169 L 145.093,-124.807 L 145.5,-124.471 L 145.723,-124.159 L 145.762,-123.873 L 145.616,-123.611 L 145.362,-123.448 L 145,-123.383 L 144.529,-123.416 L 143.95,-123.547 L 143.549,-123.769 L 143.326,-124.08 L 143.281,-124.482 L 143.414,-124.973 L 143.662,-125.252" fill="#FFFFFF" stroke="#000000" stroke-width="1"/><path d=" M 87.83,-297.77 L 88.016,-298.371 L 88.462,-298.84 L 89.17,-299.177 L 89.761,-299.151 L 90.237,-298.762 L 90.597,-298.011 L 90.841,-296.896 L 90.871,-296.038 L 90.685,-295.437 L 90.284,-295.093 L 89.669,-295.005 L 89.123,-295.155 L 88.647,-295.544 L 88.241,-296.171 L 87.905,-297.037 L 87.83,-297.77" fill="#FFFFFF" stroke="#000000" stroke-width="1"/><path d=" M 144.154,-150.202 L 144.599,-150.303 L 145.198,-150.146 L 145.951,-149.732 L 146.475,-149.339 L 146.768,-148.965 L 146.832,-148.613 L 146.667,-148.28 L 146.362,-148.064 L 145.917,-147.963 L 145.332,-147.978 L 144.608,-148.108 L 144.099,-148.36 L 143.805,-148.733 L 143.727,-149.227 L 143.864,-149.843 L 144.154,-150.202" fill="#FFFFFF" stroke="#000000" stroke-width="1"/><path d=" M 141.429,-158.6 L 141.617,-159.054 L 142.071,-159.34 L 142.79,-159.458 L 143.373,-159.402 L 143.819,-159.171 L 144.13,-158.766 L 144.304,-158.186 L 144.297,-157.669 L 144.109,-157.215 L 143.739,-156.823 L 143.188,-156.494 L 142.689,-156.445 L 142.242,-156.676 L 141.848,-157.187 L 141.506,-157.977 L 141.429,-158.6" fill="#FFFFFF" stroke="#000000" stroke-width="1"/><path d=" M 132.245,-278.236 L 133.028,-279.854 L 134.983,-281.314 L 138.111,-282.614 L 140.61,-283.257 L 142.482,-283.244 L 143.726,-282.574 L 144.342,-281.247 L 144.258,-279.774 L 143.475,-278.155 L 141.991,-276.391 L 139.808,-274.481 L 137.781,-273.532 L 135.909,-273.546 L 134.193,-274.521 L 132.633,-276.458 L 132.245,-278.236" fill="#FFFFFF" stroke="#000000" stroke-width="1"/><path d=" M -171.993,-183.626 L -171.648,-184.254 L -170.841,-184.794 L -169.57,-185.248 L -168.563,-185.453 L -167.819,-185.409 L -167.338,-185.117 L -167.12,-184.577 L -167.183,-183.993 L -167.528,-183.365 L -168.153,-182.694 L -169.061,-181.978 L -169.886,-181.642 L -170.631,-181.686 L -171.293,-182.109 L -171.874,-182.911 L -171.993,-183.626" fill="#FFFFFF" stroke="#000000" stroke-width="1"/><path d=" M -297.508,-250.293 L -297.131,-250.347 L -296.759,-250.224 L -296.391,-249.923 L -296.252,-249.592 L -296.342,-249.231 L -296.661,-248.839 L -297.208,-248.417 L -297.671,-248.179 L -298.048,-248.126 L -298.34,-248.256 L -298.548,-248.57 L -298.606,-248.908 L -298.516,-249.27 L -298.278,-249.654 L -297.891,-250.062 L -297.508,-250.293" fill="#FFFFFF" stroke="#000000" stroke-width="1"/><path d=" M -300,-180 L -300,-270 L -291.221,-269.135 L -282.779,-266.575 L -274.999,-262.416 L -268.18,-256.82 L -262.584,-250.001 L -258.425,-242.221 L -255.865,-233.779 L -255,-225 L -255.865,-216.221 L -258.425,-207.779 L -262.584,-199.999 L -268.18,-193.18 L -274.999,-187.584 L -282.779,-183.425 L -291.221,-180.865 L -300,-180" fill="#FFFFFF"/><path d=" M -300,-270 L -291.221,-269.135 L -282.779,-266.575 L -274.999,-262.416 L -268.18,-256.82 L -262.584,-250.001 L -258.425,-242.221 L -255.865,-233.779 L -255,-225 L -255.865,-216.221 L -258.425,-207.779 L -262.584,-199.999 L -268.18,-193.18 L -274.999,-187.584 L -282.779,-183.425 L -291.221,-180.865 L -300,-180" stroke="#000000" stroke-width="1"/><path d=" M -300,-262.5 L -292.684,-261.779 L -285.649,-259.645 L -279.166,-256.18 L -273.483,-251.517 L -268.82,-245.834 L -265.355,-239.351 L -263.221,-232.316 L -262.5,-225 L -263.221,-217.684 L -265.355,-210.649 L -268.82,-204.166 L -273.483,-198.483 L -279.166,-193.82 L -285.649,-190.355 L -292.684,-188.221 L -300,-187.5" stroke="#000000" stroke-width="1"/><path d=" M -279,-232.5 L -279,-217.5 L -291,-217.5 L -291,-232.5 L -279,-232.5" fill="#FFFFFF" stroke="#000000" stroke-width="1"/><path d=" M -277.5,-229.5 L -277.5,-220.5 L -286.5,-220.5 L -286.5,-229.5 L -277.5,-229.5" fill="#FFFFFF" stroke="#000000" stroke-width="1"/></g><g transform="translate(4.243 4.243)" clip-path="url(#instance375)"><path d=" M 0,0"/><clipPath id="instance375" fill="#FFFFFF" transform="translate(-4.243 -4.243)"><path d=" M 0,0"/></clipPath></g><g><path d=" M 0,0"/><path d=" M 27,24 L 3,24 M 24,18 L 6,18 M 21,12 L 9,12 M 18,6 L 12,6" stroke="#000000" stroke-width="1"/><path d=" M -85,-78.75 L -65,-78.75 L -65,-71.25 L -85,-71.25 L -85,-78.75" fill="#FFFFFF" stroke="#000000" stroke-width="2"/><path d=" M 95,-78.75 L 115,-78.75 L 115,-71.25 L 95,-71.25 L 95,-78.75" fill="#FFFFFF" stroke="#000000" stroke-width="2"/><path d=" M -138.75,-235 L -131.25,-235 L -131.25,-215 L -138.75,-215 L -138.75,-235 M -131.25,-225 L -138.75,-225" fill="#FFFFFF" stroke="#000000" stroke-width="2"/></g></g><text dominant-baseline="text-before-edge" style="font: bold 48px &#039;Neuton&#039;" fill="#000000" transform="translate(207.313 2)">House of the Storm Lord</text><text dominant-baseline="text-before-edge" style="font: italic 20px &#039;Neuton&#039;" fill="#000000" transform="translate(228.555 65)"><tspan x="4" y="2">For decades the house of the Storm Lord was considered lost. </tspan><tspan x="15" y="28">Recently a fearsome intelligent goat has made its lair here.</tspan></text><g transform="translate(186.796 552.491)"><path d=" M 0,0"/><path d=" M 84,53 Q 84,55.071 82.536,56.536 Q 81.071,58 79,58 L -79,58 Q -81.071,58 -82.536,56.536 Q -84,55.071 -84,53 L -84,-53 Q -84,-55.071 -82.536,-56.536 Q -81.071,-58 -79,-58 L 79,-58 Q 81.071,-58 82.536,-56.536 Q 84,-55.071 84,-53 L 84,53" fill="#FFFFFF" stroke="#000000" stroke-width="2"/><path d=" M 84,53 Q 84,55.071 82.536,56.536 Q 81.071,58 79,58 L -79,58 Q -81.071,58 -82.536,56.536 Q -84,55.071 -84,53 L -84,-53 Q -84,-55.071 -82.536,-56.536 Q -81.071,-58 -79,-58 L 79,-58 Q 81.071,-58 82.536,-56.536 Q 84,-55.071 84,-53 L 84,53" fill="#FFFFFF"/><text dominant-baseline="text-before-edge" style="font: 18px &#039;Neuton&#039;" fill="#000000" transform="translate(-74 -48)"><tspan x="2" y="2">1. A strange, made of </tspan><tspan x="2" y="25">an unknown material </tspan><tspan x="2" y="48">long sword tucked </tspan><tspan x="2" y="71">under some debris.</tspan></text><text dominant-baseline="text-before-edge" style="font: bold 30px &#039;Neuton&#039;" fill="#000000" transform="translate(168.25 -31.991)">1</text></g><g transform="translate(387.139 187.318)"><path d=" M 0,0"/><path d=" M 82,30 Q 82,32.071 80.536,33.536 Q 79.071,35 77,35 L -77,35 Q -79.071,35 -80.536,33.536 Q -82,32.071 -82,30 L -82,-30 Q -82,-32.071 -80.536,-33.536 Q -79.071,-35 -77,-35 L 77,-35 Q 79.071,-35 80.536,-33.536 Q 82,-32.071 82,-30 L 82,30" fill="#FFFFFF" stroke="#000000" stroke-width="2"/><path d=" M 82,30 Q 82,32.071 80.536,33.536 Q 79.071,35 77,35 L -77,35 Q -79.071,35 -80.536,33.536 Q -82,32.071 -82,30 L -82,-30 Q -82,-32.071 -80.536,-33.536 Q -79.071,-35 -77,-35 L 77,-35 Q 79.071,-35 80.536,-33.536 Q 82,-32.071 82,-30 L 82,30" fill="#FFFFFF"/><text dominant-baseline="text-before-edge" style="font: 18px &#039;Neuton&#039;" fill="#000000" transform="translate(-72 -25)"><tspan x="2" y="2">2. A large door with a </tspan><tspan x="2" y="25">keyhole to the west.</tspan></text><text dominant-baseline="text-before-edge" style="font: bold 30px &#039;Neuton&#039;" fill="#000000" transform="translate(12.908 153.182)">2</text></g><g transform="translate(630.535 649.668)"><path d=" M 0,0"/><path d=" M 94,30 Q 94,32.071 92.536,33.536 Q 91.071,35 89,35 L -89,35 Q -91.071,35 -92.536,33.536 Q -94,32.071 -94,30 L -94,-30 Q -94,-32.071 -92.536,-33.536 Q -91.071,-35 -89,-35 L 89,-35 Q 91.071,-35 92.536,-33.536 Q 94,-32.071 94,-30 L 94,30" fill="#FFFFFF" stroke="#000000" stroke-width="2"/><path d=" M 94,30 Q 94,32.071 92.536,33.536 Q 91.071,35 89,35 L -89,35 Q -91.071,35 -92.536,33.536 Q -94,32.071 -94,30 L -94,-30 Q -94,-32.071 -92.536,-33.536 Q -91.071,-35 -89,-35 L 89,-35 Q 91.071,-35 92.536,-33.536 Q 94,-32.071 94,-30 L 94,30" fill="#FFFFFF"/><text dominant-baseline="text-before-edge" style="font: 18px &#039;Neuton&#039;" fill="#000000" transform="translate(-84 -25)"><tspan x="2" y="2">3. A graffiti on the wall, </tspan><tspan x="2" y="25">totally destroyed by fire.</tspan></text><text dominant-baseline="text-before-edge" style="font: bold 30px &#039;Neuton&#039;" fill="#000000" transform="translate(-5.488 -129.168)">3</text></g><g transform="translate(599.705 182.154)"><path d=" M 0,0"/><path d=" M 94,30 Q 94,32.071 92.536,33.536 Q 91.071,35 89,35 L -89,35 Q -91.071,35 -92.536,33.536 Q -94,32.071 -94,30 L -94,-30 Q -94,-32.071 -92.536,-33.536 Q -91.071,-35 -89,-35 L 89,-35 Q 91.071,-35 92.536,-33.536 Q 94,-32.071 94,-30 L 94,30" fill="#FFFFFF" stroke="#000000" stroke-width="2"/><path d=" M 94,30 Q 94,32.071 92.536,33.536 Q 91.071,35 89,35 L -89,35 Q -91.071,35 -92.536,33.536 Q -94,32.071 -94,30 L -94,-30 Q -94,-32.071 -92.536,-33.536 Q -91.071,-35 -89,-35 L 89,-35 Q 91.071,-35 92.536,-33.536 Q 94,-32.071 94,-30 L 94,30" fill="#FFFFFF"/><text dominant-baseline="text-before-edge" style="font: 18px &#039;Neuton&#039;" fill="#000000" transform="translate(-84 -25)"><tspan x="2" y="2">4. A battered locker </tspan><tspan x="2" y="25">holds a skull-shaped key.</tspan></text><text dominant-baseline="text-before-edge" style="font: bold 30px &#039;Neuton&#039;" fill="#000000" transform="translate(-19.658 158.346)">4</text></g></g></svg>