<?xml version="1.0" encoding="UTF-8" standalone="no"?><svg width="1848" height="995" xmlns="http://www.w3.org/2000/svg" stroke-linejoin="round" stroke-linecap="round" fill-rule="evenodd" fill="none"><rect x="0" y="0" width="1848" height="995" fill="#FFFFFF"/><style/><defs/><g><path d=" M 0,0"/><g transform="translate(831.868 234.265) scale(0.877 0.877)"><path d=" M 0,0"/><g><path d=" M 0,0"/></g><g><path d=" M 0,0"/><path d=" M -60,150 L -60,30 L 90,30 L 90,150 L -60,150 M -240,120 L -240,-30 L -90,-30 L -90,120 L -240,120 M 120,120 L 120,-30 L 270,-30 L 270,120 L 120,120 M -60,360 L -60,180 L 90,180 L 90,360 L -60,360 M -180,-60 L -180,-180 L -30,-180 L -30,-60 L -180,-60 M 60,-60 L 60,-180 L 210,-180 L 210,-60 L 60,-60 M 0,450 L 0,390 L 30,390 L 30,450 L 0,450 M 0,510 L 0,480 L 30,480 L 30,510 L 0,510 M -150,540 L -150,450 L -30,450 L -30,540 L -150,540 M 60,540 L 60,450 L 180,450 L 180,540 L 60,540 M 210,510 L 210,480 L 300,480 L 300,510 L 210,510 M 330,510 L 330,480 L 360,480 L 360,510 L 330,510 M 330,450 L 330,420 L 360,420 L 360,450 L 330,450 M 330,570 L 330,540 L 360,540 L 360,570 L 330,570 M 270,450 L 270,420 L 300,420 L 300,450 L 270,450 M 390,450 L 390,420 L 420,420 L 420,450 L 390,450 M 390,570 L 390,540 L 420,540 L 420,570 L 390,570 M 240,390 L 240,210 L 330,210 L 330,390 L 240,390 M 360,390 L 360,210 L 450,210 L 450,390 L 360,390 M 360,780 L 360,600 L 450,600 L 450,780 L 360,780 M 0,30 L 0,0 L 30,0 L 30,30 L 0,30 M -67.5,30 L -60,30 L -60,60 L -67.5,60 L -67.5,54 L -82.5,54 L -82.5,60 L -90,60 L -90,30 L -82.5,30 L -82.5,36 L -67.5,36 L -67.5,30 M 97.5,60 L 90,60 L 90,30 L 97.5,30 L 97.5,36 L 112.5,36 L 112.5,30 L 120,30 L 120,60 L 112.5,60 L 112.5,54 L 97.5,54 L 97.5,60 M 0,157.5 L 0,150 L 30,150 L 30,157.5 L 24,157.5 L 24,172.5 L 30,172.5 L 30,180 L 0,180 L 0,172.5 L 6,172.5 L 6,157.5 L 0,157.5 M -120,-30 L -120,-60 L -90,-60 L -90,-30 L -120,-30 M 120,-30 L 120,-60 L 150,-60 L 150,-30 L 120,-30 M 0,367.5 L 0,360 L 30,360 L 30,367.5 L 24,367.5 L 24,382.5 L 30,382.5 L 30,390 L 0,390 L 0,382.5 L 6,382.5 L 6,367.5 L 0,367.5 M 0,480 L 0,450 L 30,450 L 30,480 L 0,480 M -7.5,480 L 0,480 L 0,510 L -7.5,510 L -7.5,504 L -22.5,504 L -22.5,510 L -30,510 L -30,480 L -22.5,480 L -22.5,486 L -7.5,486 L -7.5,480 M 37.5,510 L 30,510 L 30,480 L 37.5,480 L 37.5,486 L 52.5,486 L 52.5,480 L 60,480 L 60,510 L 52.5,510 L 52.5,504 L 37.5,504 L 37.5,510 M 187.5,510 L 180,510 L 180,480 L 187.5,480 L 187.5,486 L 202.5,486 L 202.5,480 L 210,480 L 210,510 L 202.5,510 L 202.5,504 L 187.5,504 L 187.5,510 M 300,510 L 300,480 L 330,480 L 330,510 L 300,510 M 330,480 L 330,450 L 360,450 L 360,480 L 330,480 M 330,540 L 330,510 L 360,510 L 360,540 L 330,540 M 300,450 L 300,420 L 330,420 L 330,450 L 300,450 M 360,450 L 360,420 L 390,420 L 390,450 L 360,450 M 360,570 L 360,540 L 390,540 L 390,570 L 360,570 M 300,412.5 L 300,420 L 270,420 L 270,412.5 L 276,412.5 L 276,397.5 L 270,397.5 L 270,390 L 300,390 L 300,397.5 L 294,397.5 L 294,412.5 L 300,412.5 M 420,412.5 L 420,420 L 390,420 L 390,412.5 L 396,412.5 L 396,397.5 L 390,397.5 L 390,390 L 420,390 L 420,397.5 L 414,397.5 L 414,412.5 L 420,412.5 M 390,577.5 L 390,570 L 420,570 L 420,577.5 L 414,577.5 L 414,592.5 L 420,592.5 L 420,600 L 390,600 L 390,592.5 L 396,592.5 L 396,577.5 L 390,577.5 M 270,210 L 270,180 L 300,180 L 300,210 L 270,210 M 337.5,240 L 330,240 L 330,210 L 337.5,210 L 337.5,216 L 352.5,216 L 352.5,210 L 360,210 L 360,240 L 352.5,240 L 352.5,234 L 337.5,234 L 337.5,240" stroke="#000000" stroke-width="4"/><path d=" M -60,150 L -60,30 L 90,30 L 90,150 L -60,150" fill="#FFFFFF"/><path d=" M -240,120 L -240,-30 L -90,-30 L -90,120 L -240,120" fill="#FFFFFF"/><path d=" M 120,120 L 120,-30 L 270,-30 L 270,120 L 120,120" fill="#FFFFFF"/><path d=" M -60,360 L -60,180 L 90,180 L 90,360 L -60,360" fill="#FFFFFF"/><path d=" M -180,-60 L -180,-180 L -30,-180 L -30,-60 L -180,-60" fill="#FFFFFF"/><path d=" M 60,-60 L 60,-180 L 210,-180 L 210,-60 L 60,-60" fill="#FFFFFF"/><path d=" M 0,450 L 0,390 L 30,390 L 30,450 L 0,450" fill="#FFFFFF"/><path d=" M 0,510 L 0,480 L 30,480 L 30,510 L 0,510" fill="#FFFFFF"/><path d=" M -150,540 L -150,450 L -30,450 L -30,540 L -150,540" fill="#FFFFFF"/><path d=" M 60,540 L 60,450 L 180,450 L 180,540 L 60,540" fill="#FFFFFF"/><path d=" M 210,510 L 210,480 L 300,480 L 300,510 L 210,510" fill="#FFFFFF"/><path d=" M 330,510 L 330,480 L 360,480 L 360,510 L 330,510" fill="#FFFFFF"/><path d=" M 330,450 L 330,420 L 360,420 L 360,450 L 330,450" fill="#FFFFFF"/><path d=" M 330,570 L 330,540 L 360,540 L 360,570 L 330,570" fill="#FFFFFF"/><path d=" M 270,450 L 270,420 L 300,420 L 300,450 L 270,450" fill="#FFFFFF"/><path d=" M 390,450 L 390,420 L 420,420 L 420,450 L 390,450" fill="#FFFFFF"/><path d=" M 390,570 L 390,540 L 420,540 L 420,570 L 390,570" fill="#FFFFFF"/><path d=" M 240,390 L 240,210 L 330,210 L 330,390 L 240,390" fill="#FFFFFF"/><path d=" M 360,390 L 360,210 L 450,210 L 450,390 L 360,390" fill="#FFFFFF"/><path d=" M 360,780 L 360,600 L 450,600 L 450,780 L 360,780" fill="#FFFFFF"/><path d=" M 0,30 L 0,0 L 30,0 L 30,30 L 0,30" fill="#FFFFFF"/><path d=" M -67.5,30 L -60,30 L -60,60 L -67.5,60 L -67.5,54 L -82.5,54 L -82.5,60 L -90,60 L -90,30 L -82.5,30 L -82.5,36 L -67.5,36 L -67.5,30" fill="#FFFFFF"/><path d=" M 97.5,60 L 90,60 L 90,30 L 97.5,30 L 97.5,36 L 112.5,36 L 112.5,30 L 120,30 L 120,60 L 112.5,60 L 112.5,54 L 97.5,54 L 97.5,60" fill="#FFFFFF"/><path d=" M 0,157.5 L 0,150 L 30,150 L 30,157.5 L 24,157.5 L 24,172.5 L 30,172.5 L 30,180 L 0,180 L 0,172.5 L 6,172.5 L 6,157.5 L 0,157.5" fill="#FFFFFF"/><path d=" M -120,-30 L -120,-60 L -90,-60 L -90,-30 L -120,-30" fill="#FFFFFF"/><path d=" M 120,-30 L 120,-60 L 150,-60 L 150,-30 L 120,-30" fill="#FFFFFF"/><path d=" M 0,367.5 L 0,360 L 30,360 L 30,367.5 L 24,367.5 L 24,382.5 L 30,382.5 L 30,390 L 0,390 L 0,382.5 L 6,382.5 L 6,367.5 L 0,367.5" fill="#FFFFFF"/><path d=" M 0,480 L 0,450 L 30,450 L 30,480 L 0,480" fill="#FFFFFF"/><path d=" M -7.5,480 L 0,480 L 0,510 L -7.5,510 L -7.5,504 L -22.5,504 L -22.5,510 L -30,510 L -30,480 L -22.5,480 L -22.5,486 L -7.5,486 L -7.5,480" fill="#FFFFFF"/><path d=" M 37.5,510 L 30,510 L 30,480 L 37.5,480 L 37.5,486 L 52.5,486 L 52.5,480 L 60,480 L 60,510 L 52.5,510 L 52.5,504 L 37.5,504 L 37.5,510" fill="#FFFFFF"/><path d=" M 187.5,510 L 180,510 L 180,480 L 187.5,480 L 187.5,486 L 202.5,486 L 202.5,480 L 210,480 L 210,510 L 202.5,510 L 202.5,504 L 187.5,504 L 187.5,510" fill="#FFFFFF"/><path d=" M 300,510 L 300,480 L 330,480 L 330,510 L 300,510" fill="#FFFFFF"/><path d=" M 330,480 L 330,450 L 360,450 L 360,480 L 330,480" fill="#FFFFFF"/><path d=" M 330,540 L 330,510 L 360,510 L 360,540 L 330,540" fill="#FFFFFF"/><path d=" M 300,450 L 300,420 L 330,420 L 330,450 L 300,450" fill="#FFFFFF"/><path d=" M 360,450 L 360,420 L 390,420 L 390,450 L 360,450" fill="#FFFFFF"/><path d=" M 360,570 L 360,540 L 390,540 L 390,570 L 360,570" fill="#FFFFFF"/><path d=" M 300,412.5 L 300,420 L 270,420 L 270,412.5 L 276,412.5 L 276,397.5 L 270,397.5 L 270,390 L 300,390 L 300,397.5 L 294,397.5 L 294,412.5 L 300,412.5" fill="#FFFFFF"/><path d=" M 420,412.5 L 420,420 L 390,420 L 390,412.5 L 396,412.5 L 396,397.5 L 390,397.5 L 390,390 L 420,390 L 420,397.5 L 414,397.5 L 414,412.5 L 420,412.5" fill="#FFFFFF"/><path d=" M 390,577.5 L 390,570 L 420,570 L 420,577.5 L 414,577.5 L 414,592.5 L 420,592.5 L 420,600 L 390,600 L 390,592.5 L 396,592.5 L 396,577.5 L 390,577.5" fill="#FFFFFF"/><path d=" M 270,210 L 270,180 L 300,180 L 300,210 L 270,210" fill="#FFFFFF"/><path d=" M 337.5,240 L 330,240 L 330,210 L 337.5,210 L 337.5,216 L 352.5,216 L 352.5,210 L 360,210 L 360,240 L 352.5,240 L 352.5,234 L 337.5,234 L 337.5,240" fill="#FFFFFF"/><path d=" M 30,30 L 0,30 M -90,60 L -90,30 M -60,60 L -60,30 M 120,30 L 120,60 M 90,30 L 90,60 M 30,180 L 0,180 M 30,150 L 0,150 M -120,-60 L -90,-60 M -120,-30 L -90,-30 M 120,-60 L 150,-60 M 120,-30 L 150,-30 M 30,390 L 0,390 M 30,360 L 0,360 M 30,480 L 0,480 M 30,450 L 0,450 M -30,510 L -30,480 M 0,510 L 0,480 M 60,480 L 60,510 M 30,480 L 30,510 M 210,480 L 210,510 M 180,480 L 180,510 M 330,480 L 330,510 M 300,480 L 300,510 M 330,450 L 360,450 M 330,480 L 360,480 M 360,540 L 330,540 M 360,510 L 330,510 M 300,450 L 300,420 M 330,450 L 330,420 M 390,420 L 390,450 M 360,420 L 360,450 M 390,540 L 390,570 M 360,540 L 360,570 M 270,390 L 300,390 M 270,420 L 300,420 M 390,390 L 420,390 M 390,420 L 420,420 M 420,600 L 390,600 M 420,570 L 390,570 M 270,210 L 300,210 M 360,210 L 360,240 M 330,210 L 330,240" stroke="#FFFFFF" stroke-width="1" stroke-linejoin="round" stroke-linecap="butt"/></g><g><path d=" M 0,0"/><path d=" M -241,34.33 L -241,35.592 L -240.097,35.56 L -235.526,36.914 L -230.962,35.608 L -226.76,37.707 L -222.598,35.287 L -222.598,35.287 L -226.76,37.366 L -230.883,34.97 L -235.492,35.979 L -239.903,34.362 L -241,34.33" fill="#000000"/><path d=" M 271,75.155 L 271,74.63 L 269.928,74.66 L 266.746,76.972 L 263.355,75.123 L 263.355,75.123 L 266.755,77.247 L 270.072,75.125 L 271,75.155" fill="#000000"/><path d=" M -61,232.438 L -61,233.305 L -60.061,233.274 L -55.89,234.422 L -51.578,234.027 L -48.288,236.767 L -48.288,236.767 L -51.483,233.752 L -55.825,233.88 L -59.939,232.469 L -61,232.438" fill="#000000"/><path d=" M -86.962,-181 L -88.145,-181 L -88.113,-179.911 L -86.124,-174.401 L -88.423,-168.997 L -85.008,-164.041 L -85.008,-164.041 L -87.998,-169.027 L -85.324,-174.353 L -86.994,-180.089 L -86.962,-181" fill="#000000"/><path d=" M -59.828,59.923 L -50.75,60.127 L -50.75,60.127 L -39.587,59.41 L -29.778,59.927 L -20.273,59.565 L -10.62,60.181 L -0.009,60.073 L 9.91,59.95 L 19.882,60.225 L 29.368,59.791 M 36.196,59.832 L 39.837,59.881 L 50.255,59.991 L 60.4,59.884 L 69.796,59.955 L 79.964,60.004 L 90.133,60.016 M -60.319,90.029 L -49.642,90.349 L -49.642,90.349 L -40.156,89.565 L -29.864,89.927 L -20.089,90.011 L -10.031,89.89 L -0.177,90.268 L 10.011,90.016 L 10.514,90.021 M 16.303,90.085 L 20.063,90.127 L 30.239,90.475 L 39.595,89.495 L 50.433,89.319 L 60.037,89.892 L 70.698,90.362 L 80.115,90.239 L 90.213,89.907 M -60.085,120.258 L -49.992,119.961 L -49.992,119.961 L -40.318,119.806 L -30.463,120.484 L -20.074,120.061 L -18.207,120.041 M -16.424,120.022 L -9.746,119.951 L -0.711,120.188 L 9.715,119.591 L 20.541,119.902 L 30.161,119.142 L 39.858,120.292 L 50.108,119.6 L 60.053,119.869 L 70.235,120.01 L 79.324,120.384 L 90.052,120.475 M -30.216,29.743 L -29.967,40.034 L -29.967,40.034 L -29.972,40.434 M -30.019,44.304 L -30.087,49.867 L -29.951,60.013 L -30.003,69.998 L -29.618,80.439 L -30.468,89.897 L -30.012,99.917 L -29.912,110.22 L -30.049,120.116 L -29.521,130.175 L -30.016,139.498 L -29.626,150.406 M 0.459,29.972 L -0.328,40.018 L -0.328,40.018 L -0.331,41.69 M -0.332,42.117 L -0.349,50.417 L 0.014,59.893 L 0.262,70.057 L 0.187,80.258 L 0.096,90.081 L 0.26,100.286 L 0.111,110.14 L -0.373,119.589 L -0.233,130.214 L -0.1,140.868 L 0.184,149.947 M 29.916,30.106 L 29.975,31.089 M 30.185,34.634 L 30.491,39.802 L 30.491,39.802 L 30.526,50.003 L 30.589,60.145 L 29.415,69.654 L 30.064,80.133 L 29.767,89.814 L 29.668,100.003 L 29.976,110.004 L 30.508,119.819 L 30.091,130.079 L 30.007,139.96 L 29.979,150.105 M 60.045,30.105 L 60.196,39.817 L 60.196,39.817 L 60.243,49.972 L 60.584,60.257 L 60.051,69.654 L 60.251,79.807 L 60.081,89.924 L 59.385,99.488 M 59.456,101.756 L 59.938,110.502 L 60,119.982 L 60.321,129.811 L 60.255,139.713 L 59.959,149.614 M -239.917,-0.214 L -229.953,-0.375 L -229.953,-0.375 L -219.615,-0.114 L -209.953,0.296 L -200.39,0.721 L -190.01,-0.018 L -180.366,0.152 L -170.125,0.025 L -159.982,-0.115 L -150.22,0.411 L -140.288,-0.272 L -130.428,0.556 L -128.752,0.381 M -125.798,0.074 L -119.354,-0.596 L -109.854,0.054 L -99.728,0.076 L -90.019,-0.041 M -240.073,30 L -229.565,29.861 L -229.565,29.861 L -220.45,29.609 L -209.875,29.869 L -200.883,30.421 L -190.086,29.914 L -179.95,30.809 L -176.035,30.504 M -168.374,30.037 L -159.81,30.046 L -149.74,30.132 L -140.593,29.654 L -130.151,30.525 L -120.004,29.969 L -109.802,29.865 L -99.732,29.92 L -89.911,29.842 M -240.057,60.075 L -229.609,59.873 L -229.609,59.873 L -219.81,60.036 L -210.148,60.29 L -199.965,59.932 L -190.859,60.034 L -183.74,60.189 M -181.589,60.236 L -180.312,60.264 L -170.186,59.871 L -159.899,60.168 L -149.607,60.15 L -140,60.135 L -129.973,60.221 L -119.508,59.87 L -109.975,60.029 L -100.092,59.411 L -90.121,60.301 M -240.28,89.44 L -229.951,89.764 L -229.951,89.764 L -220.205,89.873 L -210.299,90.336 L -200.575,90.15 L -190.176,89.208 L -180.202,90.178 L -169.973,90.103 L -159.919,90.15 L -156.733,90.273 M -154.973,90.341 L -149.862,90.538 L -140.191,89.838 L -130.218,89.725 L -119.763,89.868 L -110.037,89.815 L -99.757,89.481 L -90.178,89.883 M -209.699,-30.076 L -209.688,-20.108 L -209.688,-20.108 L -210.551,-9.569 L -210.234,0.055 L -210.104,8.059 M -210.079,10.187 L -210.277,19.798 L -210.11,29.839 L -209.694,39.572 L -210.053,49.971 L -209.903,59.923 L -209.921,69.946 L -209.533,79.943 L -210.006,90.005 L -209.983,100.019 L -209.485,109.441 L -209.729,120.076 M -180.217,-29.953 L -179.904,-20.03 L -179.904,-20.03 L -180.035,-10.006 L -179.879,-0.093 L -179.839,9.953 L -180.009,15.39 M -180.03,16.07 L -180.149,19.869 L -180.595,30.426 L -180.213,39.756 L -179.915,49.952 L -180.038,60.046 L -179.58,70.336 L -180.043,80.696 L -180.475,90.187 L -180.251,100.334 L -179.426,109.996 L -179.76,120.207 M -149.758,-29.646 L -149.839,-19.742 L -149.839,-19.742 L -149.765,-9.914 L -149.851,0.034 L -150.054,10.229 L -150.394,20.28 L -149.949,30.123 L -149.942,39.691 L -150,50.113 L -149.982,60.009 L -149.233,70.053 L -150.023,79.788 L -150.014,79.969 M -149.702,85.795 L -149.455,90.427 L -150.295,99.69 L -150.012,109.949 L -149.931,120.559 M -119.985,-29.731 L -120.353,-19.824 L -120.353,-19.824 L -119.978,-9.822 L -119.959,-0.051 L -120.022,10.007 L -120.101,20.111 L -119.663,26.051 M -119.582,27.148 L -119.392,29.725 L -120.268,39.762 L -119.661,50.623 L -120.268,59.036 L -119.674,70.122 L -120.289,79.765 L -119.855,89.43 L -120.075,100.009 L -120.148,110.203 L -120.334,120.396 M 119.566,-0.206 L 129.264,-0.164 L 129.264,-0.164 L 140.399,0.139 L 150.026,0.562 L 160.159,0.127 L 160.746,0.099 M 163.439,-0.031 L 169.932,-0.345 L 179.937,0.13 L 189.747,-0.178 L 199.52,0.181 L 209.965,0.318 L 219.958,0.031 L 229.996,-0.189 L 240.114,0.508 L 250.047,0.029 L 259.822,-0.323 L 270.405,0.144 M 120.016,29.461 L 121.619,29.561 M 123.14,29.655 L 130.304,30.101 L 130.304,30.101 L 139.88,30.419 L 149.823,29.609 L 160.008,29.998 L 170,30.195 L 180.191,29.85 L 189.697,30.179 L 200.293,30.106 L 210.152,30.187 L 219.571,30.092 L 230.259,29.587 L 240.244,30.123 L 250.075,29.618 L 260.572,29.858 L 264.369,30.014 M 264.649,30.026 L 266.254,30.092 M 267.777,30.154 L 269.83,30.239 M 120.15,60.684 L 125.618,59.726 M 129.005,59.133 L 129.8,58.993 L 129.8,58.993 L 139.874,59.726 L 150.011,59.991 L 160.409,59.974 L 170.451,59.963 L 180.21,60.229 L 189.543,59.939 L 199.43,60.356 L 210.662,59.771 L 220.001,60.557 L 230.36,59.61 L 239.815,59.735 L 249.264,60.501 L 259.624,60.224 L 261.75,60.18 M 266.006,60.092 L 269.952,60.01 M 119.999,90.33 L 125.821,90.362 M 126.106,90.364 L 129.404,90.381 L 129.404,90.381 L 139.921,90.195 L 149.811,90.122 L 159.436,90.23 L 169.924,89.941 L 179.996,90.048 L 189.775,89.845 L 199.943,89.365 L 209.79,90.388 L 219.998,90.022 L 229.796,89.986 L 239.814,90.422 L 249.761,90.103 L 259.809,90.479 L 269.703,90.331 M 150.449,-30.439 L 150.022,-20.025 L 150.022,-20.025 L 149.989,-10.006 L 149.87,-0.298 L 150.03,5.8 M 150.091,8.142 L 150.135,9.81 L 150.039,20.649 L 149.99,30.002 L 150.093,40.018 L 149.844,50.137 L 150.083,60.164 L 149.547,70.097 L 150.207,79.883 L 150.712,89.795 L 149.429,99.698 L 149.845,109.865 L 150.151,119.955 M 180.112,-29.975 L 180.285,-19.954 L 180.285,-19.954 L 180.261,-19.457 M 180.23,-18.795 L 179.775,-9.276 L 180.327,0.383 L 179.767,9.924 L 179.859,20.163 L 180.6,29.679 L 179.874,40.157 L 180.015,49.944 L 180.193,60.149 L 180.208,70.587 L 180.198,79.764 L 179.801,90.005 L 179.935,99.884 L 180.05,110.294 L 180.624,120.444 M 210.17,-30.128 L 209.997,-20.001 L 209.997,-20.001 L 210.275,-9.717 L 209.446,0.24 L 210.013,10.013 L 210.822,20.208 L 210.237,29.836 L 210.649,40.387 L 210.27,50.68 L 209.76,60.661 L 209.892,70.166 L 209.898,70.598 M 209.946,73.963 L 210.029,79.842 L 209.412,89.95 L 209.76,100.162 L 209.974,109.889 L 209.96,120.227 M 239.87,-29.911 L 239.981,-25.938 M 240.067,-22.856 L 240.15,-19.915 L 240.15,-19.915 L 240.086,-9.99 L 240.152,0.458 L 239.799,9.905 L 240.606,20.047 L 240.171,30.097 L 239.849,39.838 L 239.929,50.029 L 240.1,59.99 L 239.291,69.895 L 239.823,80.119 L 239.804,89.813 L 240.369,99.98 L 239.809,109.771 L 239.438,119.794 M -60.319,210.236 L -50.03,210.173 L -50.03,210.173 L -39.793,210.23 L -29.544,210.356 L -28.749,210.341 M -28.427,210.335 L -19.944,210.175 L -10.97,210.291 L -0.303,210.133 L 10.175,210.47 L 19.806,209.78 L 29.701,210.277 L 39.82,209.986 L 49.965,209.903 L 60.051,209.431 L 69.831,209.705 L 80.24,210.096 L 90.146,210.092 M -59.999,239.973 L -49.805,240.063 L -49.805,240.063 L -40.313,239.817 L -29.924,240.119 L -19.584,240.203 L -10.154,239.483 L 0.238,240.055 L 10.11,240.023 L 20.625,240.579 L 29.185,239.585 M 32.58,239.539 L 39.841,239.696 L 50.851,240.238 L 59.988,239.802 L 69.537,240.328 L 80.352,239.799 L 90.696,240.425 M -60.011,270.154 L -49.547,270.274 L -49.547,270.274 L -39.985,270.744 L -29.949,270.005 L -19.678,269.738 L -10.373,270.673 L -2.507,270.16 M 6.246,269.64 L 10.361,269.404 L 19.836,270.135 L 29.981,269.984 L 40.515,269.615 L 49.943,269.949 L 60.569,270.468 L 70.204,270.346 L 80.07,269.82 L 90.484,269.415 M -59.849,299.925 L -50.239,299.893 L -50.239,299.893 L -40.454,300.519 L -30.708,299.87 L -20.512,300.023 L -9.679,300.183 L -0.001,299.981 L 10.147,299.995 L 20.573,300.25 L 29.001,299.929 M 37.978,300.066 L 40.354,300.114 L 50.333,299.523 L 60.216,300.202 L 70.398,300.11 L 79.834,300.36 L 90.169,300.11 M -59.964,329.961 L -49.917,329.503 L -49.917,329.503 L -39.963,329.95 L -29.883,329.45 L -20.105,329.943 L -10.234,329.954 L -0.03,330.012 L 9.831,330.511 L 19.839,330.01 L 29.933,329.63 L 39.842,329.73 L 50.426,329.137 L 52.995,329.369 M 53.929,329.453 L 60.01,330.001 L 70.007,330.006 L 79.922,330.382 L 90.123,329.972 M -30.051,180.034 L -30.633,189.886 L -30.633,189.886 L -30.349,200.25 L -29.995,210.015 L -29.934,220.232 L -29.97,230.024 L -29.978,239.482 L -30.079,245.657 M -30.154,251.673 L -30.128,260.008 L -30.304,270.574 L -30.211,279.522 L -30.159,290.093 L -30.204,299.281 L -29.31,309.573 L -30.002,320.006 L -30.146,330.296 L -29.733,339.99 L -29.859,349.782 L -29.848,360.104 M 0.03,180.048 L -0.073,189.661 L -0.073,189.661 L -0.129,199.678 L -0.181,210.147 L -0.53,218.739 M -0.273,226.243 L -0.11,229.838 L 0.16,240.519 L 0.23,249.76 L 0.682,259.56 L 0.273,269.938 L -0.15,280.155 L 0.129,290.134 L 0.246,299.878 L -0.222,310.149 L -0.15,320.381 L -0.119,329.861 L -0.051,340.063 L -0.302,349.833 L -0.02,360.765 M 29.584,180.077 L 30.354,189.971 L 30.354,189.971 L 29.888,200.057 L 29.545,210.064 L 30.016,219.84 L 30.008,229.988 L 30.015,239.368 L 30.334,250.004 L 29.99,260.414 L 29.813,270.01 L 29.981,279.98 L 30.144,289.925 L 29.919,296.874 M 29.9,305.226 L 29.977,309.611 L 29.68,320.361 L 30.081,329.928 L 29.906,340.008 L 29.979,350.14 L 30.252,359.674 M 60.481,180.418 L 60.023,189.991 L 60.023,189.991 L 59.955,200.002 L 59.96,209.679 L 59.614,219.799 L 59.919,229.806 L 60.184,239.378 L 60.081,245.391 M 60.073,245.821 L 60.001,249.998 L 59.619,260.412 L 60.175,270.422 L 59.947,280.078 L 59.357,290.446 L 60,300.003 L 60.004,310.065 L 59.823,319.937 L 59.9,329.936 L 59.978,339.992 L 60.727,350.431 L 59.924,359.965 M -179.965,-149.954 L -169.839,-150.231 L -169.839,-150.231 L -160.128,-149.841 L -149.874,-149.645 L -139.921,-149.597 L -129.921,-149.946 L -119.941,-150.085 L -109.462,-149.994 L -99.986,-149.993 L -90.099,-150.066 L -79.877,-149.962 L -74.481,-149.838 M -70.197,-149.739 L -70.027,-149.735 L -59.899,-149.947 L -49.295,-150.164 L -39.811,-150.523 L -30,-150.102 M -179.849,-120.506 L -169.947,-120.097 L -169.947,-120.097 L -159.35,-120.193 L -150.04,-119.853 L -150.023,-119.852 M -145.143,-119.818 L -140.692,-119.786 L -130.05,-119.916 L -119.887,-119.521 L -109.953,-119.973 L -100.063,-120.178 L -90.136,-120.14 L -80.107,-120.011 L -70.248,-119.982 L -60.338,-119.855 L -49.845,-119.988 L -39.917,-119.957 L -29.646,-119.528 M -179.529,-89.777 L -169.778,-89.191 L -169.778,-89.191 L -159.982,-90.138 L -149.516,-89.297 L -140.304,-89.768 L -130.322,-89.962 L -119.858,-90.222 L -112.799,-89.756 M -106.797,-89.721 L -100.182,-89.945 L -89.935,-90.198 L -79.946,-89.53 L -70.045,-89.811 L -59.651,-90.121 L -49.916,-90.024 L -40.616,-89.422 L -29.97,-89.998 M -150.049,-180.029 L -149.909,-170.048 L -149.909,-170.048 L -149.86,-168.63 M -149.653,-162.664 L -149.547,-159.609 L -149.459,-150.144 L -150.14,-139.851 L -150.27,-129.667 L -149.412,-120.188 L -150.025,-109.93 L -150.003,-99.986 L -149.088,-89.733 L -149.935,-79.929 L -150.005,-69.969 L -150.257,-59.879 M -120.065,-180.403 L -120.017,-170.115 L -120.017,-170.115 L -120.085,-159.06 L -120.629,-149.916 L -119.991,-139.977 L -119.685,-130.477 L -120.314,-120.371 L -120.29,-110.278 L -119.582,-100.317 L -120.02,-89.984 L -119.997,-79.953 L -119.981,-72.284 M -119.976,-70.07 L -119.976,-70.034 L -119.968,-60.041 M -90.074,-180.083 L -90.037,-170.71 L -90.037,-170.71 L -89.907,-159.86 L -90.241,-149.613 L -89.963,-143.786 M -89.821,-140.809 L -89.81,-140.566 L -89.882,-130.372 L -89.807,-119.821 L -89.607,-110.307 L -90.202,-99.342 L -89.837,-90.087 L -90.073,-80.023 L -90.109,-70.279 L -89.878,-59.954 M -60.002,-179.9 L -59.893,-169.928 L -59.893,-169.928 L -60.113,-159.74 L -59.716,-150.09 L -59.353,-140.275 L -60.042,-129.793 L -59.84,-124.328 M -59.775,-122.585 L -59.673,-119.836 L -59.764,-109.925 L -59.97,-99.929 L -59.522,-90.071 L -59.988,-80.57 L -59.332,-70.046 L -60.239,-59.836 M 60.495,-150.23 L 70.151,-150.003 L 70.151,-150.003 L 80.402,-149.693 L 89.469,-150.369 L 100.291,-150.304 L 110.158,-149.788 L 119.646,-149.579 L 129.551,-149.977 L 136.587,-149.928 M 138.447,-149.916 L 139.922,-149.905 L 150.038,-149.936 L 159.612,-150.586 L 170.049,-149.595 L 180.01,-150.011 L 189.68,-149.986 L 200.012,-150.006 L 210.14,-149.717 M 60.011,-119.876 L 69.617,-120.34 L 69.617,-120.34 L 80.01,-119.934 L 89.828,-119.975 L 99.953,-119.766 L 109.975,-120.012 L 120.041,-119.873 L 126.689,-119.964 M 130.818,-120.017 L 140.439,-120.097 L 149.86,-120.219 L 160.068,-119.98 L 170.63,-119.041 L 179.688,-119.97 L 189.81,-120.164 L 200.328,-120.046 L 209.557,-119.519 M 60.366,-90.13 L 70.31,-90.132 L 70.31,-90.132 L 80.807,-89.682 L 89.901,-89.874 L 99.957,-90.086 L 109.658,-89.964 L 120.298,-89.966 L 121.549,-90.006 M 123.287,-90.061 L 130.183,-90.281 L 140.023,-90.349 L 149.844,-89.621 L 159.991,-90.054 L 170.003,-89.935 L 179.986,-90.695 L 189.519,-89.747 L 200.671,-90.023 L 210.208,-90.187 M 90.12,-180.262 L 89.994,-170.015 L 89.994,-170.015 L 89.946,-160.17 L 89.92,-154.516 M 90.005,-147.583 L 90.383,-140.227 L 90.01,-130.01 L 90.149,-120.003 L 90.482,-109.867 L 89.648,-100.107 L 90.254,-90.223 L 90.106,-80.699 L 89.803,-69.999 L 90.012,-59.984 M 119.964,-180.023 L 120.762,-169.45 L 120.762,-169.45 L 120.041,-160.142 L 120.07,-150.152 L 120.189,-139.699 L 120.19,-130 L 119.94,-119.861 L 119.767,-109.877 L 120.16,-100.371 L 119.987,-90.005 L 119.961,-81.013 M 120.056,-74.638 L 120.141,-69.961 L 120.075,-60.213 M 149.399,-179.554 L 150.181,-169.549 L 150.181,-169.549 L 149.601,-159.48 L 150.732,-149.906 L 150.064,-139.715 L 149.861,-129.945 L 149.476,-119.983 L 150.103,-110.552 L 149.707,-102.062 M 149.654,-99.288 L 150.309,-89.732 L 149.788,-80.593 L 150.072,-69.131 L 149.933,-59.994 M 179.939,-180.062 L 179.899,-169.653 L 179.899,-169.653 L 179.774,-159.487 L 179.984,-149.868 L 179.55,-140.245 L 179.985,-129.502 L 179.624,-120.176 L 180,-110.001 L 180.565,-100.146 L 179.477,-90.228 L 180.052,-80.042 L 179.85,-72.187 M 179.849,-72.165 L 179.807,-70.507 L 180.732,-59.806 M -0.13,420.454 L 9.998,420.031 L 9.998,420.031 L 20.07,419.256 L 29.977,419.887 M -149.619,479.729 L -139.817,480.046 L -139.817,480.046 L -130.754,480.453 L -127.631,480.322 M -126.516,480.275 L -119.999,480.001 L -109.932,479.955 L -99.792,480.291 L -89.958,479.983 L -79.805,480.256 L -70.235,480.107 L -59.618,480.779 L -50.114,479.68 L -39.917,479.729 L -29.765,479.971 M -149.827,509.784 L -139.82,510.147 L -139.82,510.147 L -131.32,509.457 M -128.571,509.412 L -119.976,509.895 L -110.022,510.359 L -99.978,509.976 L -90.56,510.059 L -80.012,509.997 L -70.012,510.023 L -60.101,509.525 L -50.484,509.199 L -39.974,510.097 L -30.166,510.076 M -119.785,449.421 L -119.82,460.273 L -119.82,460.273 L -120.281,470.023 L -119.823,480.004 L -120.113,490.406 L -119.727,499.965 L -119.827,503.49 M -119.841,503.992 L -120.011,510.009 L -119.963,520.407 L -120.542,529.592 L -120.656,539.942 M -90.811,450.241 L -90.196,459.907 L -90.196,459.907 L -90.213,469.593 L -90.175,472.081 M -90.16,473.013 L -90.053,479.982 L -89.944,489.986 L -90.033,500.241 L -89.884,509.941 L -89.729,519.987 L -90.037,530.117 L -90.863,539.712 M -59.841,449.819 L -60.476,459.988 L -60.476,459.988 L -60.148,469.945 L -60.104,480.382 L -60.064,490.203 L -60.241,499.352 L -59.843,509.759 L -60.067,518.012 M -60.164,521.994 L -60.316,530.068 L -59.852,539.895 M 60.017,480.899 L 70.359,479.837 L 70.359,479.837 L 79.199,479.725 L 89.899,480.281 L 99.805,480.174 L 109.958,480.036 L 119.826,479.599 L 129.737,480.261 L 139.499,480.587 L 150.025,479.821 L 159.996,480.016 L 162.935,480.172 M 166.012,480.336 L 170.255,480.561 L 180.219,480.033 M 60.195,510.36 L 70.023,509.48 L 70.023,509.48 L 79.525,509.684 L 90.003,510.008 L 99.973,510.167 L 110.054,510.092 L 119.766,510.211 L 130.045,509.993 L 140.386,509.638 L 150.1,510.057 L 159.96,509.561 L 170.255,510.459 L 177.54,510.126 M 177.883,510.11 L 180.289,510 M 90.529,449.613 L 89.588,459.842 L 89.588,459.842 L 90.198,469.899 L 90.055,479.431 L 90.322,490.015 L 89.848,500.164 L 89.949,509.825 L 89.619,519.947 L 89.894,530.083 L 89.821,532.028 M 89.777,533.21 L 89.513,540.259 M 120.184,450.767 L 119.902,459.978 L 119.902,459.978 L 119.676,469.743 L 119.982,479.896 L 120.534,490.201 L 120.297,494.635 M 120.085,498.587 L 120.015,499.903 L 120.399,510.145 L 120.093,520.586 L 119.849,530.219 L 119.828,540.201 M 150.373,449.53 L 150.238,459.731 L 150.238,459.731 L 149.522,470.378 L 149.93,480.065 L 149.987,489.982 L 150.035,500.001 L 149.801,510.464 L 149.863,519.795 L 149.978,529.978 L 149.836,534.381 M 149.771,536.403 L 149.647,540.245 M 239.975,479.989 L 240.179,489.636 L 240.179,489.636 L 240.006,500.311 L 239.974,509.788 M 269.834,479.494 L 269.669,490.517 L 269.669,490.517 L 270.129,499.799 L 270.399,509.84 M 239.754,239.658 L 249.608,239.795 L 249.608,239.795 L 259.952,240.796 L 269.737,239.884 L 279.755,240.212 L 289.972,240.177 L 300.055,239.98 L 310.005,239.917 L 320.8,240.093 L 330.056,240.165 M 240.188,270.069 L 249.952,269.851 L 249.952,269.851 L 259.18,269.644 L 270.051,269.942 L 280.117,269.73 L 289.474,270.086 L 299.836,269.885 L 310.235,269.779 L 320.129,269.61 L 329.98,269.893 M 240.031,300.06 L 250.61,299.631 L 250.61,299.631 L 252.387,299.764 M 252.916,299.804 L 260.417,300.366 L 269.823,299.758 L 279.913,300.172 L 290.284,300.288 L 300.02,300.025 L 309.307,299.334 L 319.945,299.982 L 329.949,300.133 M 240.035,330.93 L 250.308,329.766 L 250.308,329.766 L 260.454,330.145 L 270.128,329.738 L 279.995,329.998 L 290.224,329.885 L 300.328,329.974 L 302.665,329.873 M 304.269,329.804 L 310.021,329.555 L 320.005,329.997 L 330.15,329.358 M 239.813,359.857 L 249.889,359.771 L 249.889,359.771 L 259.822,359.729 L 269.993,360.687 L 280.185,359.87 L 289.226,360.252 L 298.421,359.975 M 301.559,359.951 L 309.832,360.014 L 319.983,360.085 L 329.186,360.665 M 269.888,210.131 L 270.124,220.203 L 270.124,220.203 L 269.943,230.13 L 270.024,232.441 M 270.075,233.92 L 270.293,240.158 L 270.461,249.579 L 269.576,259.978 L 269.932,269.807 L 269.882,279.427 L 269.914,290.32 L 269.823,299.865 L 269.5,309.786 L 270.203,319.707 L 269.933,330.039 L 269.887,340.113 L 269.758,350.302 L 270.598,360.274 L 270.017,369.902 L 270.015,380.045 L 269.871,382.124 M 269.866,382.193 L 269.343,389.752 M 299.906,209.863 L 300.019,220.199 L 300.019,220.199 L 300.009,230.025 L 300.542,239.491 L 299.482,249.637 L 299.942,260.038 L 299.837,270.023 L 300.032,280.497 L 300.433,289.416 L 299.918,299.726 L 300.038,304.706 M 300.154,310.387 L 300.041,319.941 L 300.237,329.988 L 300.101,339.836 L 300.516,349.842 L 300.31,360.104 L 300.292,370.032 L 299.95,380.048 L 300.61,389.387 M 360.265,239.306 L 370.601,240.247 L 370.601,240.247 L 380.018,240.045 L 390.699,240.283 L 399.745,240.061 L 410.128,240.314 L 419.914,240.686 L 430.32,239.812 L 440.043,240.001 L 450.267,239.928 M 359.925,270.202 L 369.369,269.968 L 369.369,269.968 L 379.846,269.769 L 390.542,270.376 L 399.86,270.073 L 410.196,270.031 L 419.201,269.522 L 426.958,270.053 M 427.724,270.105 L 429.549,270.23 L 440.259,270.127 L 449.62,270.066 M 360.197,300.7 L 369.726,299.582 L 369.726,299.582 L 379.937,299.982 L 390.539,299.934 L 399.986,300.068 L 410.409,300.17 L 420.144,299.694 L 430.154,299.981 L 430.373,299.987 M 435.987,300.134 L 440.91,300.263 L 449.982,300 M 360.067,329.761 L 370.039,329.951 L 370.039,329.951 L 379.908,330.028 L 389.415,330.455 L 400.076,330.13 L 409.881,329.653 L 419.855,329.641 L 429.967,330.007 L 439.814,330.116 L 449.769,329.522 M 359.273,360.01 L 369.738,360.457 L 369.738,360.457 L 380.373,359.934 L 389.534,360.474 L 400.324,359.497 L 405.345,359.7 M 410.655,359.907 L 420.069,360.118 L 430.225,360.017 L 439.778,360.677 L 449.861,360.028 M 390.027,209.722 L 390.088,219.927 L 390.088,219.927 L 389.992,229.991 L 389.728,240.265 L 389.923,249.853 L 389.97,260.105 L 390.148,270.38 L 389.885,277.075 M 389.839,278.237 L 389.768,280.041 L 389.577,290.206 L 389.658,300.055 L 389.899,309.985 L 390.055,319.726 L 390.1,330.085 L 390.154,339.815 L 389.971,349.935 L 390.107,360.124 L 389.984,370.341 L 390.017,380.2 L 390.163,389.918 M 419.171,210.004 L 419.48,220.371 L 419.48,220.371 L 419.61,229.761 L 419.917,239.897 L 420.188,250.065 L 420.497,260.413 L 420.049,269.78 L 419.796,280.01 L 419.927,290.049 L 419.927,290.153 M 419.936,291.511 L 419.988,299.988 L 419.702,310.154 L 419.742,320.23 L 419.979,330.807 L 420.356,339.253 L 419.922,349.502 L 420.31,360.094 L 419.907,369.803 L 419.659,380.473 L 420.492,390.745 M 360.031,630.005 L 370.03,630.68 L 370.03,630.68 L 379.922,630.045 L 389.992,630.036 L 399.998,630.02 L 409.986,629.967 L 419.929,629.894 L 429.993,630.085 L 440.184,629.718 L 449.653,630.006 M 360.266,660.357 L 369.955,659.99 L 369.955,659.99 L 380.35,659.797 L 390.067,659.766 L 399.198,659.857 M 399.21,659.857 L 399.655,659.862 L 410.022,659.994 L 420.025,660.167 L 429.898,660.258 L 439.987,660.148 L 450.107,660.481 M 359.845,690.275 L 369.659,689.943 M 369.956,689.933 L 369.967,689.932 L 369.967,689.932 L 380.18,690.722 L 389.811,689.715 L 399.6,690.275 L 409.877,689.89 L 419.987,689.958 L 429.964,690.011 L 440.396,689.345 L 449.674,690.143 M 359.668,720.444 L 369.741,719.824 L 369.741,719.824 L 379.969,719.648 L 390.193,720.073 L 399.991,720.002 L 409.994,719.997 L 420.4,719.927 L 422.076,720.048 M 429.968,720.617 L 430.399,720.649 L 440.354,719.962 L 450.042,720.068 M 360.013,750.09 L 369.916,749.989 L 369.916,749.989 L 379.809,749.791 L 390.09,750.07 L 400.139,750.28 L 409.831,750.535 L 419.395,750.016 L 430.201,750.01 L 439.984,749.948 L 450.226,750.896 M 389.961,599.98 L 390.051,610.027 L 390.051,610.027 L 390.279,620.109 L 390.29,629.824 L 389.996,639.969 L 390.599,650.32 L 390.2,660.106 L 389.798,670.747 L 389.997,680.089 L 389.971,683.346 M 389.96,684.768 L 389.92,689.994 L 389.712,699.737 L 390.116,710.028 L 389.977,720.019 L 390.311,729.787 L 390.028,739.581 L 390.017,749.998 L 390.536,760.357 L 389.845,770.493 L 390.015,779.998 M 419.843,599.818 L 419.381,609.138 L 419.381,609.138 L 420.206,619.732 L 420.169,630.14 L 420.196,639.772 L 419.974,650.09 L 419.838,660.101 L 419.436,670.528 L 419.964,680.292 L 419.926,689.857 L 419.877,699.957 L 420.379,709.827 L 420.352,710.318 M 420.167,713.665 L 419.826,719.853 L 419.928,730.623 L 420.168,740.579 L 420.495,749.436 L 419.997,759.948 L 420.218,769.128 L 419.978,780.073 M 30.124,30.443 L 20.013,30.101 L 20.013,30.101 L 9.912,30.303 L -0.088,30.145 M -90.37,60.223 L -89.764,50.205 L -89.764,50.205 L -90.034,40.085 L -89.718,30.421 M -60.143,29.627 L -60.117,39.953 L -60.117,39.953 L -59.747,50.131 L -59.741,60.176 M 119.887,29.662 L 120.417,39.824 L 120.417,39.824 L 119.888,49.779 L 120.056,60.593 M 89.538,59.677 L 89.697,50.369 L 89.697,50.369 L 90.105,40.904 L 89.925,32.087 M 89.875,29.649 L 89.873,29.546 M 30.655,180.145 L 19.812,179.627 L 19.812,179.627 L 9.502,180.244 L 0.511,180.053 M 0.006,150.053 L 10.376,149.801 L 10.376,149.801 L 19.564,149.83 L 30.608,149.875 M -120.205,-60.238 L -109.995,-60.129 L -109.995,-60.129 L -99.965,-59.963 L -90.99,-60.472 M -89.393,-30.195 L -99.972,-30.149 L -99.972,-30.149 L -109.462,-30.124 M -110.161,-30.121 L -120.031,-29.983 M 120.326,-60.26 L 124.518,-60.306 M 125.739,-60.319 L 129.919,-60.365 L 129.919,-60.365 L 140.342,-59.872 L 150.064,-60.575 M 149.954,-30.057 L 139.836,-29.923 L 139.836,-29.923 L 129.954,-30.163 L 120.145,-29.816 M 30.045,389.972 L 19.604,390.381 L 19.604,390.381 L 9.843,389.953 L 0.255,389.617 M -0.129,360.486 L 9.702,360.299 L 9.702,360.299 L 13.707,360.392 M 17.08,360.469 L 19.824,360.533 L 30.002,360.07 M 30.049,479.57 L 19.992,479.993 L 19.992,479.993 L 10.276,479.965 L -0.112,479.403 M -0.433,450.395 L 9.506,450.15 L 9.506,450.15 L 20.27,450.144 L 26.068,450.118 M 28.743,450.105 L 29.47,450.102 M -29.731,510.132 L -30.583,499.551 L -30.583,499.551 L -30.493,490.868 L -29.729,479.99 M -0.001,480.244 L 0.409,490.189 L 0.409,490.189 L 0.446,499.706 L -0.047,509.892 M 60.489,480.087 L 59.952,490.202 L 59.952,490.202 L 60.214,499.344 L 59.856,509.734 M 29.946,510.176 L 30.383,499.573 L 30.383,499.573 L 30.082,489.827 L 29.88,480.083 M 210.388,480.281 L 210.086,490.073 L 210.086,490.073 L 209.939,495.348 M 209.831,499.207 L 209.815,499.761 L 210.086,509.855 M 180.035,509.969 L 179.716,500.728 L 179.716,500.728 L 179.745,490.642 L 179.519,480.16 M 329.738,479.861 L 329.713,489.813 L 329.713,489.813 L 330.604,500.089 L 330.015,510.232 M 300.016,510.301 L 299.981,500.121 L 299.981,500.121 L 300.15,490.025 L 300.099,480.016 M 330.005,449.957 L 339.496,450.763 L 339.496,450.763 L 350.447,449.532 L 359.961,450.056 M 360.398,479.646 L 350.223,479.925 L 350.223,479.925 L 340.203,479.956 L 329.975,480.017 M 360.261,540.257 L 355.064,540.124 M 354.956,540.121 L 350.02,539.995 L 350.02,539.995 L 339.991,539.949 L 329.594,539.808 M 299.718,450.725 L 300.237,439.649 L 300.237,439.649 L 299.692,430.646 L 299.408,420.209 M 389.249,419.928 L 389.971,429.603 L 389.971,429.603 L 389.812,440.077 L 390.061,450.247 M 389.918,539.878 L 390.818,549.809 L 390.818,549.809 L 389.925,559.632 L 389.821,570.076 M 359.968,570.003 L 360.078,560.029 L 360.078,560.029 L 359.983,550.025 L 359.981,540.143 M 269.914,389.724 L 280.016,389.908 L 280.016,389.908 L 289.866,389.935 L 299.957,389.255 M 300.003,419.996 L 289.714,419.851 L 289.714,419.851 L 279.935,420.106 L 269.91,419.989 M 390.001,390.089 L 400.268,389.979 L 400.268,389.979 L 410.015,389.9 L 420.5,389.902 M 419.444,420.482 L 409.246,419.74 L 409.246,419.74 L 400.034,420.004 L 389.792,419.979 M 419.999,600.666 L 409.884,600.311 L 409.884,600.311 L 399.978,600.155 L 390.015,599.887 M 389.785,569.917 L 400.303,570.684 L 400.303,570.684 L 408.644,570.153 M 410.726,570.06 L 420.04,569.991 M 360.414,209.894 L 359.858,220.333 L 359.858,220.333 L 360,229.976 L 359.746,240.387 M 329.714,239.77 L 329.997,229.932 L 329.997,229.932 L 329.836,220.288 L 329.739,209.857" stroke="#000000" stroke-width="0.3"/></g><g clip-path="url(#instance17)"><path d=" M 0,0"/><path d=" M 263.17,452.407 L 265.074,451.258 L 267.073,449.907 L 269.169,448.353 L 271.271,447.048 L 273.379,445.991 L 275.495,445.182 L 277.616,444.621 L 279.745,444.309 L 281.88,444.245 L 284.021,444.43 L 286.169,444.863 L 288.047,445.572 L 289.655,446.556 L 290.992,447.817 L 292.059,449.354 L 292.856,451.167 L 293.382,453.255 L 293.638,455.62 L 293.624,458.261 L 293.701,460.798 L 293.87,463.231 L 294.131,465.56 L 294.484,467.785 L 294.928,469.906 L 295.464,471.924 L 296.092,473.837 L 296.812,475.647 L 297.71,477.104 L 298.788,478.209 L 300.044,478.961 L 301.48,479.36 L 303.095,479.407 L 304.888,479.101 L 306.861,478.443 L 309.013,477.432 L 310.979,476.464 L 312.761,475.54 L 314.357,474.659 L 315.769,473.821 L 316.995,473.027 L 318.037,472.276 L 318.893,471.568 L 319.564,470.904 L 320.388,470.201 L 321.364,469.458 L 322.492,468.677 L 323.773,467.857 L 325.206,466.998 L 326.791,466.1 L 328.529,465.163 L 330.419,464.188 L 332.128,463.227 L 333.657,462.282 L 335.006,461.352 L 336.174,460.438 L 337.162,459.539 L 337.969,458.655 L 338.596,457.787 L 339.042,456.934 L 339.663,456.096 L 340.458,455.274 L 341.428,454.467 L 342.572,453.676 L 343.89,452.9 L 345.383,452.14 L 347.05,451.394 L 348.891,450.665 L 350.646,450.218 L 352.314,450.055 L 353.894,450.174 L 355.388,450.577 L 356.795,451.263 L 358.115,452.233 L 359.348,453.485 L 360.494,455.021 L 361.505,456.647 L 362.382,458.364 L 363.123,460.172 L 363.729,462.07 L 364.201,464.06 L 364.538,466.14 L 364.739,468.311 L 364.806,470.572 L 365.025,472.675 L 365.396,474.62 L 365.919,476.406 L 366.595,478.034 L 367.422,479.504 L 368.402,480.815 L 369.534,481.967 L 370.818,482.962 L 372.184,483.949 L 373.63,484.93 L 375.158,485.904 L 376.767,486.871 L 378.457,487.832 L 380.229,488.785 L 382.081,489.732 L 384.015,490.672 L 385.634,491.77 L 386.938,493.024 L 387.926,494.436 L 388.6,496.005 L 388.958,497.731 L 389.002,499.615 L 388.731,501.656 L 388.144,503.854 L 387.275,505.69 L 386.123,507.165 L 384.688,508.277 L 382.971,509.029 L 380.971,509.418 L 378.688,509.446 L 376.123,509.112 L 373.275,508.416 L 370.642,508.085 L 368.224,508.12 L 366.022,508.521 L 364.034,509.287 L 362.262,510.418 L 360.705,511.914 L 359.362,513.776 L 358.235,516.004 L 357.527,518.068 L 357.238,519.969 L 357.367,521.707 L 357.915,523.282 L 358.881,524.694 L 360.267,525.943 L 362.071,527.029 L 364.294,527.952 L 366.462,528.841 L 368.576,529.699 L 370.637,530.523 L 372.643,531.314 L 374.594,532.073 L 376.492,532.798 L 378.335,533.491 L 380.124,534.151 L 381.598,535.071 L 382.755,536.25 L 383.596,537.688 L 384.122,539.385 L 384.332,541.342 L 384.226,543.559 L 383.804,546.035 L 383.066,548.77 L 382.452,551.351 L 381.963,553.778 L 381.597,556.052 L 381.356,558.171 L 381.239,560.137 L 381.246,561.948 L 381.377,563.606 L 381.633,565.11 L 382.103,566.656 L 382.788,568.243 L 383.689,569.872 L 384.804,571.543 L 386.135,573.256 L 387.68,575.01 L 389.441,576.806 L 391.416,578.644 L 393.122,580.485 L 394.558,582.328 L 395.724,584.174 L 396.62,586.023 L 397.246,587.874 L 397.602,589.728 L 397.689,591.584 L 397.506,593.444 L 397.119,595.255 L 396.528,597.019 L 395.734,598.734 L 394.736,600.403 L 393.534,602.023 L 392.129,603.595 L 390.52,605.12 L 388.707,606.597 L 387.053,608.036 L 385.557,609.436 L 384.221,610.799 L 383.043,612.123 L 382.024,613.409 L 381.164,614.658 L 380.463,615.868 L 379.92,617.039 L 379.273,618.305 L 378.522,619.663 L 377.668,621.115 L 376.709,622.66 L 375.646,624.299 L 374.479,626.031 L 373.208,627.856 L 371.833,629.775 L 370.357,631.466 L 368.78,632.928 L 367.102,634.162 L 365.322,635.169 L 363.442,635.947 L 361.46,636.497 L 359.377,636.819 L 357.193,636.913 L 355.194,636.692 L 353.378,636.156 L 351.746,635.304 L 350.298,634.138 L 349.034,632.657 L 347.954,630.861 L 347.058,628.75 L 346.347,626.324 L 345.675,624.04 L 345.042,621.898 L 344.45,619.898 L 343.898,618.04 L 343.386,616.323 L 342.913,614.749 L 342.48,613.317 L 342.088,612.026 L 341.444,610.736 L 340.548,609.446 L 339.402,608.157 L 338.004,606.868 L 336.355,605.58 L 334.455,604.292 L 332.304,603.004 L 329.901,601.716 L 327.748,600.425 L 325.843,599.129 L 324.187,597.829 L 322.779,596.525 L 321.621,595.217 L 320.711,593.905 L 320.05,592.589 L 319.638,591.268 L 319.28,589.813 L 318.976,588.224 L 318.727,586.501 L 318.532,584.643 L 318.391,582.651 L 318.305,580.524 L 318.272,578.264 L 318.294,575.869 L 318.194,573.624 L 317.971,571.53 L 317.625,569.586 L 317.157,567.793 L 316.567,566.15 L 315.853,564.658 L 315.018,563.316 L 314.06,562.124 L 312.967,560.995 L 311.739,559.928 L 310.377,558.923 L 308.88,557.981 L 307.249,557.1 L 305.483,556.282 L 303.582,555.526 L 301.547,554.833 L 299.596,554.176 L 297.729,553.556 L 295.947,552.973 L 294.25,552.427 L 292.637,551.918 L 291.109,551.446 L 289.665,551.01 L 288.306,550.612 L 286.931,549.978 L 285.538,549.108 L 284.13,548.003 L 282.704,546.662 L 281.263,545.085 L 279.804,543.273 L 278.33,541.225 L 276.839,538.941 L 275.314,536.985 L 273.755,535.357 L 272.163,534.057 L 270.537,533.085 L 268.877,532.44 L 267.184,532.123 L 265.457,532.134 L 263.697,532.473 L 261.835,532.819 L 259.873,533.172 L 257.81,533.533 L 255.647,533.9 L 253.382,534.275 L 251.017,534.658 L 248.551,535.047 L 245.984,535.444 L 243.705,535.503 L 241.713,535.222 L 240.007,534.603 L 238.59,533.646 L 237.459,532.349 L 236.616,530.714 L 236.06,528.74 L 235.791,526.428 L 235.763,524.157 L 235.976,521.927 L 236.429,519.738 L 237.124,517.59 L 238.059,515.483 L 239.235,513.418 L 240.652,511.393 L 242.31,509.41 L 243.763,507.451 L 245.011,505.518 L 246.055,503.609 L 246.893,501.725 L 247.527,499.866 L 247.956,498.031 L 248.18,496.222 L 248.199,494.437 L 248.075,492.629 L 247.808,490.798 L 247.398,488.942 L 246.844,487.063 L 246.147,485.161 L 245.307,483.234 L 244.324,481.285 L 243.198,479.311 L 242.16,477.338 L 241.212,475.366 L 240.354,473.394 L 239.584,471.423 L 238.904,469.452 L 238.313,467.482 L 237.811,465.513 L 237.398,463.544 L 237.242,461.792 L 237.344,460.258 L 237.702,458.942 L 238.318,457.843 L 239.191,456.961 L 240.321,456.297 L 241.708,455.851 L 243.352,455.622 L 244.957,455.43 L 246.522,455.275 L 248.048,455.156 L 249.535,455.075 L 250.982,455.03 L 252.39,455.022 L 253.759,455.051 L 255.088,455.116 L 256.513,454.979 L 258.033,454.64 L 259.65,454.098 L 261.362,453.354 L 263.17,452.407 M 313.191,508.989 L 312.196,510.554 L 311.457,512.373 L 310.973,514.446 L 310.544,516.378 L 310.17,518.17 L 309.852,519.822 L 309.589,521.333 L 309.381,522.705 L 309.228,523.936 L 309.13,525.027 L 309.088,525.978 L 309.118,527.071 L 309.221,528.307 L 309.397,529.686 L 309.646,531.207 L 309.967,532.871 L 310.362,534.678 L 310.829,536.627 L 311.369,538.719 L 312.106,540.406 L 313.038,541.687 L 314.166,542.564 L 315.491,543.036 L 317.011,543.103 L 318.728,542.765 L 320.641,542.023 L 322.75,540.875 L 324.447,539.588 L 325.732,538.161 L 326.606,536.595 L 327.067,534.89 L 327.117,533.045 L 326.755,531.061 L 325.982,528.938 L 324.796,526.676 L 323.958,524.477 L 323.467,522.343 L 323.323,520.274 L 323.526,518.268 L 324.076,516.327 L 324.973,514.45 L 326.218,512.638 L 327.809,510.89 L 328.886,509.366 L 329.447,508.066 L 329.494,506.989 L 329.025,506.137 L 328.042,505.509 L 326.543,505.104 L 324.53,504.924 L 322.001,504.967 L 319.728,505.265 L 317.71,505.815 L 315.948,506.62 L 314.442,507.678 L 313.191,508.989 M 348.001,664.504 L 349.724,662.924 L 351.461,661.068 L 353.213,658.936 L 354.985,657.115 L 356.779,655.604 L 358.593,654.404 L 360.428,653.515 L 362.283,652.936 L 364.159,652.668 L 366.056,652.71 L 367.974,653.063 L 369.882,653.572 L 371.782,654.238 L 373.674,655.06 L 375.556,656.039 L 377.43,657.174 L 379.295,658.465 L 381.151,659.912 L 382.998,661.516 L 384.854,662.941 L 386.718,664.186 L 388.59,665.252 L 390.471,666.138 L 392.36,666.845 L 394.257,667.373 L 396.163,667.721 L 398.076,667.89 L 399.978,667.805 L 401.868,667.466 L 403.746,666.873 L 405.612,666.025 L 407.467,664.924 L 409.309,663.568 L 411.14,661.959 L 412.959,660.095 L 414.787,658.46 L 416.625,657.055 L 418.472,655.879 L 420.329,654.933 L 422.196,654.216 L 424.072,653.728 L 425.958,653.469 L 427.853,653.44 L 429.744,653.616 L 431.63,653.999 L 433.511,654.588 L 435.387,655.383 L 437.259,656.385 L 439.125,657.592 L 440.987,659.005 L 442.844,660.625 L 444.683,662.071 L 446.504,663.343 L 448.307,664.441 L 450.092,665.365 L 451.859,666.116 L 453.608,666.693 L 455.339,667.097 L 457.052,667.326 L 458.872,667.395 L 460.799,667.303 L 462.832,667.051 L 464.973,666.637 L 467.221,666.063 L 469.576,665.329 L 472.038,664.433 L 474.608,663.377 L 476.9,662.786 L 478.916,662.66 L 480.655,663 L 482.117,663.805 L 483.303,665.075 L 484.212,666.81 L 484.844,669.01 L 485.2,671.676 L 485.184,673.955 L 484.795,675.847 L 484.034,677.353 L 482.9,678.471 L 481.394,679.203 L 479.516,679.547 L 477.265,679.505 L 474.643,679.076 L 472.155,678.784 L 469.802,678.629 L 467.583,678.611 L 465.5,678.729 L 463.552,678.985 L 461.738,679.377 L 460.06,679.907 L 458.516,680.573 L 456.969,681.346 L 455.418,682.225 L 453.863,683.211 L 452.305,684.305 L 450.742,685.504 L 449.176,686.811 L 447.606,688.224 L 446.033,689.744 L 444.539,691.152 L 443.124,692.449 L 441.789,693.634 L 440.534,694.707 L 439.358,695.669 L 438.262,696.519 L 437.245,697.258 L 436.308,697.885 L 435.238,698.621 L 434.035,699.466 L 432.699,700.42 L 431.231,701.483 L 429.63,702.656 L 427.896,703.938 L 426.029,705.328 L 424.029,706.828 L 422.516,708.348 L 421.49,709.887 L 420.951,711.445 L 420.899,713.023 L 421.333,714.621 L 422.255,716.238 L 423.663,717.875 L 425.558,719.531 L 427.507,720.803 L 429.511,721.691 L 431.569,722.194 L 433.682,722.314 L 435.849,722.049 L 438.071,721.4 L 440.347,720.367 L 442.678,718.949 L 444.989,717.702 L 447.281,716.627 L 449.553,715.722 L 451.806,714.987 L 454.04,714.424 L 456.254,714.031 L 458.448,713.809 L 460.624,713.758 L 462.517,714.064 L 464.128,714.725 L 465.458,715.742 L 466.506,717.115 L 467.272,718.845 L 467.755,720.93 L 467.957,723.372 L 467.878,726.169 L 467.918,728.786 L 468.08,731.221 L 468.362,733.474 L 468.765,735.547 L 469.288,737.438 L 469.932,739.148 L 470.697,740.676 L 471.582,742.024 L 472.611,743.428 L 473.782,744.889 L 475.096,746.407 L 476.553,747.981 L 478.153,749.613 L 479.895,751.301 L 481.781,753.046 L 483.81,754.848 L 485.423,756.669 L 486.621,758.508 L 487.404,760.366 L 487.772,762.242 L 487.724,764.137 L 487.261,766.05 L 486.383,767.981 L 485.09,769.932 L 483.624,771.566 L 481.986,772.886 L 480.175,773.89 L 478.192,774.578 L 476.036,774.951 L 473.708,775.009 L 471.207,774.751 L 468.534,774.177 L 465.988,773.85 L 463.568,773.768 L 461.275,773.932 L 459.109,774.341 L 457.07,774.997 L 455.157,775.898 L 453.371,777.044 L 451.712,778.437 L 450.356,780.006 L 449.303,781.753 L 448.553,783.677 L 448.106,785.779 L 447.962,788.057 L 448.12,790.513 L 448.582,793.146 L 449.347,795.956 L 449.797,798.623 L 449.933,801.148 L 449.754,803.529 L 449.26,805.769 L 448.452,807.865 L 447.33,809.819 L 445.892,811.63 L 444.141,813.298 L 442.33,814.477 L 440.459,815.168 L 438.53,815.369 L 436.541,815.082 L 434.493,814.306 L 432.385,813.041 L 430.219,811.287 L 427.993,809.045 L 425.809,807.115 L 423.666,805.498 L 421.565,804.193 L 419.506,803.201 L 417.489,802.522 L 415.513,802.156 L 413.58,802.102 L 411.687,802.361 L 409.785,802.808 L 407.872,803.443 L 405.949,804.266 L 404.016,805.278 L 402.073,806.478 L 400.119,807.866 L 398.155,809.443 L 396.18,811.207 L 394.204,812.685 L 392.225,813.876 L 390.244,814.779 L 388.26,815.396 L 386.275,815.726 L 384.287,815.769 L 382.297,815.525 L 380.304,814.994 L 378.471,814.247 L 376.796,813.286 L 375.279,812.109 L 373.922,810.717 L 372.723,809.11 L 371.683,807.288 L 370.801,805.25 L 370.078,802.997 L 369.35,800.847 L 368.617,798.799 L 367.878,796.854 L 367.134,795.011 L 366.385,793.27 L 365.63,791.632 L 364.87,790.096 L 364.105,788.663 L 363.13,787.383 L 361.944,786.258 L 360.548,785.287 L 358.941,784.469 L 357.124,783.806 L 355.097,783.297 L 352.86,782.942 L 350.412,782.741 L 348.056,782.452 L 345.793,782.076 L 343.622,781.613 L 341.543,781.063 L 339.556,780.425 L 337.662,779.7 L 335.86,778.887 L 334.151,777.988 L 332.732,776.929 L 331.604,775.711 L 330.768,774.333 L 330.222,772.796 L 329.967,771.1 L 330.003,769.245 L 330.33,767.23 L 330.947,765.056 L 331.503,762.926 L 331.996,760.839 L 332.427,758.795 L 332.796,756.795 L 333.102,754.839 L 333.346,752.926 L 333.528,751.056 L 333.648,749.23 L 333.663,747.397 L 333.573,745.557 L 333.378,743.71 L 333.078,741.856 L 332.673,739.994 L 332.164,738.126 L 331.55,736.251 L 330.831,734.368 L 330.126,732.494 L 329.437,730.627 L 328.762,728.769 L 328.102,726.918 L 327.457,725.075 L 326.827,723.241 L 326.212,721.414 L 325.611,719.595 L 325.268,717.754 L 325.182,715.892 L 325.354,714.009 L 325.783,712.103 L 326.469,710.176 L 327.413,708.228 L 328.613,706.257 L 330.072,704.266 L 331.305,702.298 L 332.312,700.355 L 333.094,698.437 L 333.651,696.543 L 333.983,694.673 L 334.089,692.828 L 333.97,691.007 L 333.625,689.211 L 333.224,687.4 L 332.766,685.576 L 332.251,683.737 L 331.679,681.884 L 331.05,680.017 L 330.365,678.136 L 329.623,676.241 L 328.824,674.332 L 328.222,672.665 L 327.817,671.241 L 327.61,670.06 L 327.601,669.122 L 327.788,668.426 L 328.173,667.973 L 328.756,667.763 L 329.535,667.796 L 330.422,667.834 L 331.415,667.878 L 332.515,667.928 L 333.721,667.983 L 335.034,668.043 L 336.454,668.11 L 337.98,668.182 L 339.613,668.259 L 341.261,668.06 L 342.924,667.585 L 344.601,666.834 L 346.294,665.807 L 348.001,664.504" fill="#EEEEEE" stroke="#000000" stroke-width="1"/><path d=" M 267.151,456.867 L 269.089,455.54 L 269.089,455.54 L 271.077,454.024 L 272.391,453.121 M 277.145,450.469 L 278.22,450.023 L 279.803,449.539 L 281.305,449.261 L 282.178,449.218 M 283.673,449.286 L 284.067,449.326 L 285.223,449.735 L 285.358,449.831 M 288.447,465.385 L 288.766,467.341 L 289.108,468.787 M 292.003,476.78 L 292.055,476.895 L 293.315,479.31 L 294.758,481.287 L 296.387,482.826 L 298.199,483.927 L 300.197,484.59 L 302.379,484.815 L 304.745,484.602 L 307.296,483.952 L 308.701,483.392 M 314.636,480.885 L 314.736,480.84 L 316.706,479.905 L 318.42,479.022 L 319.493,478.411 M 323.624,475.245 L 324.581,474.521 L 324.827,474.35 M 326.311,473.352 L 327.064,472.869 L 328.542,471.979 L 330.176,471.047 L 331.967,470.073 L 333.914,469.056 L 335.67,468.063 L 337.234,467.093 L 338.605,466.148 L 339.784,465.226 L 340.333,464.727 M 342.459,462.02 L 342.58,461.777 L 343.092,460.975 L 343.705,460.2 L 344.419,459.45 L 345.234,458.725 L 346.151,458.026 L 347.168,457.352 L 348.286,456.704 L 348.744,456.47 M 359.029,469.365 L 359.1,470.343 L 359.188,472.664 L 359.464,474.863 L 359.665,475.764 M 361.505,480.876 L 362.447,482.447 L 363.662,484.04 L 364.619,485.043 M 365.716,486.063 L 366.655,486.86 L 367.092,487.204 M 381.423,495.218 L 382.138,495.673 L 383.083,496.5 L 383.799,497.404 L 383.894,497.593 M 381.169,504.109 L 380.314,504.253 L 378.479,504.266 L 376.317,504.038 L 373.827,503.57 L 371.01,502.861 L 368.349,502.638 L 365.845,502.9 L 363.497,503.648 L 361.307,504.879 M 356.916,509.544 L 355.67,511.489 L 354.279,514.308 M 352.753,519.282 L 352.556,520.335 L 352.559,520.764 M 352.571,522.552 L 352.573,522.834 L 353.118,525.108 L 354.191,527.157 L 355.792,528.981 L 357.92,530.58 L 360.576,531.954 L 363.068,533.179 L 363.712,533.476 M 366.878,534.89 L 367.562,535.183 L 369.564,535.962 L 371.403,536.593 L 373.078,537.074 L 374.589,537.407 L 374.976,537.46 M 375.855,555.512 L 375.763,556.132 L 375.568,558.349 L 375.516,560.513 L 375.577,561.938 M 376.399,567.316 L 376.788,568.66 L 377.551,570.601 L 378.33,572.154 M 379.084,573.449 L 379.659,574.387 L 380.064,574.943 M 390.959,587.263 L 391.298,587.817 L 391.925,589.189 L 392.281,590.45 M 389.305,598.123 L 388.529,598.997 L 387.194,600.306 L 385.662,601.643 L 383.932,603.006 L 382.341,604.359 L 380.889,605.7 L 379.576,607.031 L 378.401,608.35 L 377.365,609.658 L 376.468,610.955 L 375.71,612.241 L 375.376,612.929 M 372.302,618.59 L 372.003,619.098 L 371.079,620.614 L 370.094,622.179 L 369.42,623.218 M 366.348,627.431 L 365.639,628.214 L 365.312,628.514 M 363.955,629.676 L 363.217,630.225 L 361.962,630.95 L 360.677,631.487 L 359.363,631.837 L 358.018,631.999 L 356.784,631.885 L 355.66,631.493 L 354.646,630.823 L 353.742,629.877 L 352.949,628.653 L 352.265,627.152 L 351.692,625.374 L 351.671,625.285 M 350.889,621.906 L 350.747,621.316 L 350.249,619.367 L 349.733,617.472 L 349.2,615.63 L 348.649,613.842 L 348.604,613.703 M 336.028,598.411 L 333.975,597.311 L 331.852,596.079 L 330.453,595.187 M 326.216,591.776 L 326.141,591.7 L 325.408,590.742 L 324.954,589.839 L 324.778,588.99 L 324.625,587.934 L 324.525,586.975 M 324.404,585.481 L 324.384,585.201 L 324.305,583.695 M 323.035,567.305 L 322.57,565.804 L 321.853,564.048 M 317.014,557.094 L 316.999,557.077 L 315.484,555.656 L 313.854,554.343 L 312.11,553.138 L 310.25,552.042 L 308.275,551.053 L 306.184,550.172 L 303.979,549.399 L 301.915,548.693 L 299.992,548.056 L 299.054,547.756 M 292.863,545.975 L 292.498,545.886 L 291.423,545.655 L 290.28,545.156 L 289.069,544.387 L 288.062,543.571 M 284.476,539.787 L 283.542,538.626 L 283.536,538.618 M 282.478,537.177 L 281.99,536.514 L 280.37,534.133 L 278.668,532.08 L 276.885,530.355 L 275.021,528.958 L 273.075,527.889 L 271.048,527.148 L 270.126,526.967 M 266.683,526.657 L 264.478,526.893 L 262.238,527.17 L 260.03,527.481 L 258.239,527.764 M 240.453,526.349 L 240.471,525.291 L 240.697,523.775 L 241.123,522.203 L 241.75,520.574 L 241.961,520.145 M 244.752,515.47 L 244.833,515.352 L 246.262,513.499 L 247.891,511.59 L 248.026,511.405 M 248.911,510.195 L 249.323,509.632 L 249.895,508.703 M 253.767,492.957 L 253.738,492.283 L 253.491,490.048 L 253.395,489.512 M 250.969,481.372 L 250.007,479.376 L 248.86,477.342 L 247.799,475.396 L 246.824,473.538 L 245.936,471.768 L 245.133,470.086 L 244.418,468.492 L 243.788,466.986 L 243.245,465.568 L 242.787,464.239 L 242.516,463.094 L 242.491,462.807 M 246.95,460.412 L 248.098,460.526 L 249.337,460.624 L 250.646,460.703 L 252.025,460.763 L 252.39,460.774 M 257.604,460.716 L 258.214,460.647 L 259.079,460.454 M 260.801,459.978 L 261.638,459.705 L 263.426,458.949 L 265.263,458.003 M 308.076,506.949 L 306.931,509.161 L 306.931,509.161 L 306.139,511.718 L 305.781,512.942 M 304.366,518.208 L 304.325,518.373 L 303.907,520.252 L 303.583,521.962 L 303.377,523.333 M 303.219,524.824 L 303.214,524.872 L 303.171,526.072 L 303.206,526.61 M 307.704,542.418 L 308.931,544.457 L 309.688,545.239 M 317.494,547.389 L 319.214,547.004 L 322.042,545.888 L 325.126,544.229 L 327.68,542.481 L 329.703,540.641 L 331.194,538.711 L 332.155,536.69 L 332.488,535.056 M 331.248,528.85 L 330.688,527.702 L 329.858,525.343 L 329.509,523.705 M 329.36,518.511 L 329.367,518.417 L 329.673,517.045 M 330.178,515.334 L 330.706,513.923 L 331.876,511.713 L 333.378,509.529 L 334.241,507.591 L 334.464,505.9 L 334.047,504.456 L 332.989,503.259 L 331.292,502.309 L 330.365,502.03 M 326.982,501.304 L 325.978,501.15 L 322.361,500.941 L 319.098,501.078 L 318.494,501.178 M 352.621,668.155 L 354.357,666.316 L 354.357,666.316 L 356.047,664.217 L 356.868,663.316 M 360.911,659.678 L 362.25,658.877 L 363.662,658.305 L 365.018,658.038 L 365.773,658.06 M 367.238,658.33 L 367.562,658.42 L 368.885,658.923 L 368.919,658.938 M 382.381,668.381 L 384.347,669.591 L 385.382,670.114 M 393.424,672.821 L 395.809,673.164 L 398.352,673.338 L 400.809,673.255 L 403.179,672.915 L 405.462,672.319 L 407.659,671.467 L 409.768,670.358 L 411.791,668.992 L 412.656,668.268 M 417.344,663.855 L 417.352,663.847 L 419.055,662.437 L 420.684,661.26 L 421.729,660.627 M 426.603,658.892 L 427.729,658.886 L 428.099,658.94 M 429.847,659.301 L 430.456,659.473 L 431.922,660.066 L 433.456,660.86 L 435.057,661.855 L 436.726,663.049 L 438.463,664.444 L 440.268,666.039 L 442.122,667.472 L 443.486,668.382 M 446.496,670.097 L 447.981,670.8 L 450.032,671.585 L 452.134,672.209 L 454.284,672.671 L 454.568,672.71 M 474.183,668.599 L 475.309,668.102 L 476.905,667.619 L 478.268,667.462 L 479.396,667.632 L 480.289,668.128 L 480.296,668.136 M 481.278,673.23 L 481.072,673.729 L 480.389,674.409 L 479.415,674.825 L 478.15,674.975 L 476.769,674.874 M 475.296,674.595 L 474.746,674.482 L 473.572,674.128 M 457.427,674.775 L 456.429,675.189 L 454.535,676.085 L 454.278,676.223 M 447.112,680.804 L 445.631,681.997 L 443.963,683.466 L 442.332,685.03 L 440.794,686.472 L 439.349,687.792 L 437.997,688.991 L 436.737,690.067 L 435.569,691.022 L 434.494,691.855 L 433.512,692.567 L 432.622,693.156 L 431.555,693.932 L 431.479,693.991 M 426.489,698.066 L 425.512,698.903 L 423.558,700.612 L 422.384,701.656 M 418.599,705.239 L 417.664,706.411 M 416.797,707.968 L 416.34,708.886 L 415.872,711.098 L 416.019,713.355 L 416.779,715.654 L 418.153,717.997 L 420.141,720.384 L 422.119,722.23 M 424.837,724.377 L 425.346,724.758 L 427.949,726.217 L 430.553,727.191 L 432.635,727.581 M 451.56,720.781 L 452.423,720.396 L 454.242,719.658 L 455.903,719.063 L 457.407,718.611 L 457.602,718.566 M 462.092,720.384 L 462.182,720.558 L 462.55,721.996 L 462.721,723.783 L 462.702,725.529 M 462.6,727.025 L 462.478,728.405 L 462.468,728.807 M 466.358,744.544 L 466.528,744.817 L 467.696,746.496 L 468.367,747.369 M 474.146,753.61 L 474.981,754.372 L 476.728,755.843 L 478.571,757.28 L 480.083,758.675 L 481.265,760.027 L 482.115,761.336 L 482.635,762.604 L 482.824,763.828 L 482.683,765.011 L 482.21,766.151 L 481.407,767.248 L 480.383,768.133 L 479.139,768.806 L 478.995,768.851 M 472.639,769.429 L 471.959,769.372 L 469.613,768.983 L 467.283,768.437 M 462.084,768.142 L 462.03,768.143 L 460.6,768.356 M 458.852,768.715 L 457.171,769.193 L 454.801,770.201 L 452.469,771.53 L 450.177,773.182 L 447.923,775.155 L 446.048,777.232 L 445.554,777.951 M 443.803,780.934 L 443.428,781.699 L 442.684,784.088 L 442.318,786.581 L 442.329,789.177 L 442.336,789.224 M 442.394,808.994 L 442.059,809.393 L 441.01,810.072 L 439.824,810.343 L 438.501,810.207 L 437.042,809.663 L 436.554,809.372 M 432.288,806.005 L 431.84,805.582 L 429.833,803.406 L 428.61,802.305 M 427.473,801.33 L 426.027,800.277 M 410.293,797.182 L 408.786,797.456 L 406.914,797.95 M 399.188,801.454 L 397.749,802.413 L 395.81,803.946 L 393.961,805.659 L 392.189,807.115 L 390.494,808.315 L 388.875,809.259 L 387.334,809.946 L 385.87,810.377 L 384.484,810.551 L 383.174,810.469 L 381.941,810.131 L 381.66,809.996 M 377.176,805.55 L 377.031,805.304 L 376.299,803.712 L 375.652,801.911 L 375.246,800.466 M 373.578,795.52 L 373.023,794.127 M 372.307,792.488 L 372.135,792.098 L 371.223,790.206 L 370.241,788.338 L 369.19,786.493 L 368.07,784.672 L 366.765,783.046 L 365.275,781.616 L 363.601,780.381 L 362.406,779.712 M 359.222,778.358 L 357.473,777.849 L 355.062,777.396 L 352.466,777.138 L 350.842,776.951 M 335.725,767.991 L 336.091,766.576 L 336.74,764.789 L 337.323,762.966 L 337.635,761.842 M 338.799,756.518 L 338.997,755.302 L 339.251,753.294 L 339.431,751.336 M 339.522,749.839 L 339.561,749.168 L 339.568,748.052 M 336.292,731.996 L 335.87,730.878 L 335.162,729.016 L 335.061,728.754 M 331.94,720.829 L 331.377,719.454 L 331.054,717.984 L 330.984,716.446 L 331.167,714.841 L 331.602,713.167 L 332.29,711.425 L 333.231,709.616 L 334.425,707.739 L 335.871,705.794 L 337.093,703.814 L 337.854,702.276 M 339.649,696.118 L 339.738,695.537 L 339.839,693.379 L 339.716,691.185 L 339.638,690.683 M 338.7,685.548 L 338.517,684.698 L 338.365,684.086 M 337.923,682.354 L 337.456,680.706 L 336.847,678.81 L 336.186,676.981 L 335.472,675.218 L 334.707,673.523 L 334.036,672.137 L 333.461,671.063 L 332.98,670.299 L 332.595,669.846 L 332.305,669.703 L 332.11,669.872 L 332.011,670.351 L 332.006,671.14 L 332.259,671.827 L 332.418,672.008 M 335.475,673.47 L 335.848,673.551 L 337.389,673.725 L 339.188,673.797 L 341.244,673.766 L 343.255,673.477 L 343.926,673.29 M 269.228,462.475 L 271.105,461.174 L 271.105,461.174 L 272.985,459.694 L 274.104,458.835 M 287.367,478.729 L 288.018,479.952 L 289.817,482.972 L 291.806,485.469 L 293.985,487.442 L 296.355,488.893 L 298.718,489.749 M 340.256,472.249 L 340.81,471.905 L 342.204,470.943 L 343.395,470.014 L 344.381,469.117 L 344.489,468.998 M 353.876,476.864 L 353.904,477.052 L 354.461,479.263 L 355.241,481.39 L 356.244,483.432 L 357.471,485.391 L 358.921,487.264 L 360.595,489.054 L 362.492,490.759 L 363.678,491.749 M 373.998,498.643 L 373.945,498.63 L 371.531,498.028 L 369.889,497.603 M 352.249,508.747 L 351.977,509.203 L 349.973,513.322 L 349.645,514.24 M 365.801,540.348 L 366.486,540.61 L 368.211,541.113 L 369.663,541.35 L 370.843,541.323 L 371.75,541.032 L 372.444,541.042 L 372.925,541.353 L 373.193,541.967 L 373.249,542.882 L 373.092,544.099 L 372.722,545.617 L 372.139,547.437 L 371.344,549.559 L 371.24,549.915 M 386.487,590.339 L 386.603,590.505 L 386.981,591.245 L 387.11,591.833 L 386.989,592.268 L 386.678,592.805 L 386.176,593.443 L 385.483,594.184 L 384.892,594.747 M 367.167,615.767 L 366.512,616.93 L 365.709,618.327 L 364.888,619.728 L 364.05,621.131 L 363.253,622.389 L 362.497,623.499 L 361.784,624.464 L 361.112,625.281 L 360.482,625.952 L 359.894,626.477 L 359.348,626.854 L 358.843,627.086 L 358.375,627.078 L 357.942,626.83 L 357.546,626.342 L 357.187,625.616 L 356.863,624.649 L 356.726,624.074 M 348.044,600.16 L 346.458,598.556 L 344.95,597.269 M 330.056,582.795 L 330.061,582.404 L 330.072,580.627 L 330.074,578.57 L 330.067,576.709 M 313.401,547.077 L 313.25,546.983 L 311.066,545.823 L 308.787,544.817 L 306.411,543.965 L 304.234,543.211 L 302.255,542.556 L 300.474,542 L 298.891,541.542 L 298.159,541.352 M 259.876,521.834 L 257.894,522.118 L 255.765,522.508 L 254.611,522.773 M 255.109,511.429 L 256.107,509.731 L 257.14,507.527 L 257.984,505.201 L 258.64,502.751 L 259.106,500.179 L 259.383,497.483 L 259.47,494.665 L 259.453,493.985 M 251.379,469.909 L 250.683,468.749 L 249.931,467.531 L 249.263,466.49 L 249.141,466.31 M 265.541,464.518 L 267.357,463.599 M 303.955,503.344 L 302.405,505.949 L 302.405,505.949 L 301.366,508.822 M 302.605,543.091 L 303.922,545.924 L 305.757,548.508 L 307.91,550.413 L 310.381,551.639 L 313.169,552.186 L 314.725,552.12 M 335.123,520.176 L 335.209,518.566 L 335.664,515.988 L 335.985,514.915 M 325.788,497.215 L 322.722,496.915 L 318.467,496.891 L 314.664,497.306 L 311.31,498.159 L 308.408,499.449 L 308.048,499.703 M 355.519,673.387 L 357.253,671.563 L 357.253,671.563 L 358.881,669.498 L 359.489,668.781 M 388.795,677.495 L 389.586,677.707 L 392.441,678.248 L 395.455,678.607 L 398.629,678.785 L 401.64,678.704 L 404.49,678.365 L 404.982,678.255 M 443.195,675.021 L 443.649,675.263 L 445.869,676.234 L 448.146,677.033 M 474.357,672.962 L 474.895,672.578 L 475.881,671.925 L 476.674,671.459 L 477.276,671.181 L 477.685,671.09 L 477.903,671.187 L 477.928,671.471 L 477.744,671.612 L 477.349,671.61 L 476.745,671.465 L 475.93,671.178 L 474.905,670.748 L 473.671,670.175 L 472.226,669.459 L 470.572,668.6 L 468.834,667.966 L 467.013,667.555 L 465.109,667.37 L 464.931,667.373 M 441.715,677.503 L 440.319,678.707 L 438.632,680.315 L 438.584,680.359 M 421.443,695.103 L 421.394,695.149 L 419.22,697.286 L 417.121,699.388 M 423.025,728.584 L 423.186,728.713 L 426.388,730.744 L 429.536,732.187 L 432.631,733.045 L 435.672,733.315 L 438.256,733.042 M 460.461,745.934 L 461.474,747.609 L 462.781,749.563 L 463.402,750.4 M 470.855,763.874 L 470.21,763.736 L 468.018,763.215 L 465.558,762.585 L 463.05,762.353 L 460.493,762.519 L 457.888,763.083 L 455.234,764.045 L 453.254,765.041 M 436.908,784.029 L 436.674,785.104 L 436.538,787.842 L 436.583,788.236 M 436.103,802.8 L 435.037,801.659 L 433.462,799.877 L 432.073,798.24 M 398.807,794.983 L 397.482,795.644 L 395.38,796.96 L 393.466,798.449 L 391.742,800.11 L 390.174,801.546 L 388.762,802.755 L 387.507,803.739 L 386.408,804.496 L 385.859,804.806 M 358.611,772.138 L 357.264,771.85 L 354.52,771.536 L 353.316,771.406 M 344.925,755.497 L 345.155,753.662 L 345.349,751.442 L 345.474,749.105 L 345.486,746.791 L 345.383,744.502 L 345.166,742.236 L 344.835,739.994 L 344.39,737.775 L 344.289,737.379 M 337.874,713.21 L 338.112,712.675 L 339.05,711.005 L 340.012,709.557 M 345.045,688.279 L 344.714,686.187 L 344.268,683.82 L 343.93,682.297 M 347.044,678.404 L 347.516,678.274 L 349.676,677.414 L 351.73,676.312 L 353.678,674.97" stroke="#000000" stroke-width="1"/><clipPath id="instance17" fill="#FFFFFF"><path d=" M 0,0"/><path d=" M -60,150 L -60,30 L 90,30 L 90,150 L -60,150" fill="#FF0000"/><path d=" M -240,120 L -240,-30 L -90,-30 L -90,120 L -240,120" fill="#FF0000"/><path d=" M 120,120 L 120,-30 L 270,-30 L 270,120 L 120,120" fill="#FF0000"/><path d=" M -60,360 L -60,180 L 90,180 L 90,360 L -60,360" fill="#FF0000"/><path d=" M -180,-60 L -180,-180 L -30,-180 L -30,-60 L -180,-60" fill="#FF0000"/><path d=" M 60,-60 L 60,-180 L 210,-180 L 210,-60 L 60,-60" fill="#FF0000"/><path d=" M 0,450 L 0,390 L 30,390 L 30,450 L 0,450" fill="#FF0000"/><path d=" M 0,510 L 0,480 L 30,480 L 30,510 L 0,510" fill="#FF0000"/><path d=" M -150,540 L -150,450 L -30,450 L -30,540 L -150,540" fill="#FF0000"/><path d=" M 60,540 L 60,450 L 180,450 L 180,540 L 60,540" fill="#FF0000"/><path d=" M 210,510 L 210,480 L 300,480 L 300,510 L 210,510" fill="#FF0000"/><path d=" M 330,510 L 330,480 L 360,480 L 360,510 L 330,510" fill="#FF0000"/><path d=" M 330,450 L 330,420 L 360,420 L 360,450 L 330,450" fill="#FF0000"/><path d=" M 330,570 L 330,540 L 360,540 L 360,570 L 330,570" fill="#FF0000"/><path d=" M 270,450 L 270,420 L 300,420 L 300,450 L 270,450" fill="#FF0000"/><path d=" M 390,450 L 390,420 L 420,420 L 420,450 L 390,450" fill="#FF0000"/><path d=" M 390,570 L 390,540 L 420,540 L 420,570 L 390,570" fill="#FF0000"/><path d=" M 240,390 L 240,210 L 330,210 L 330,390 L 240,390" fill="#FF0000"/><path d=" M 360,390 L 360,210 L 450,210 L 450,390 L 360,390" fill="#FF0000"/><path d=" M 360,780 L 360,600 L 450,600 L 450,780 L 360,780" fill="#FF0000"/><path d=" M 0,30 L 0,0 L 30,0 L 30,30 L 0,30" fill="#FF0000"/><path d=" M -67.5,30 L -60,30 L -60,60 L -67.5,60 L -67.5,54 L -82.5,54 L -82.5,60 L -90,60 L -90,30 L -82.5,30 L -82.5,36 L -67.5,36 L -67.5,30" fill="#FF0000"/><path d=" M 97.5,60 L 90,60 L 90,30 L 97.5,30 L 97.5,36 L 112.5,36 L 112.5,30 L 120,30 L 120,60 L 112.5,60 L 112.5,54 L 97.5,54 L 97.5,60" fill="#FF0000"/><path d=" M 0,157.5 L 0,150 L 30,150 L 30,157.5 L 24,157.5 L 24,172.5 L 30,172.5 L 30,180 L 0,180 L 0,172.5 L 6,172.5 L 6,157.5 L 0,157.5" fill="#FF0000"/><path d=" M -120,-30 L -120,-60 L -90,-60 L -90,-30 L -120,-30" fill="#FF0000"/><path d=" M 120,-30 L 120,-60 L 150,-60 L 150,-30 L 120,-30" fill="#FF0000"/><path d=" M 0,367.5 L 0,360 L 30,360 L 30,367.5 L 24,367.5 L 24,382.5 L 30,382.5 L 30,390 L 0,390 L 0,382.5 L 6,382.5 L 6,367.5 L 0,367.5" fill="#FF0000"/><path d=" M 0,480 L 0,450 L 30,450 L 30,480 L 0,480" fill="#FF0000"/><path d=" M -7.5,480 L 0,480 L 0,510 L -7.5,510 L -7.5,504 L -22.5,504 L -22.5,510 L -30,510 L -30,480 L -22.5,480 L -22.5,486 L -7.5,486 L -7.5,480" fill="#FF0000"/><path d=" M 37.5,510 L 30,510 L 30,480 L 37.5,480 L 37.5,486 L 52.5,486 L 52.5,480 L 60,480 L 60,510 L 52.5,510 L 52.5,504 L 37.5,504 L 37.5,510" fill="#FF0000"/><path d=" M 187.5,510 L 180,510 L 180,480 L 187.5,480 L 187.5,486 L 202.5,486 L 202.5,480 L 210,480 L 210,510 L 202.5,510 L 202.5,504 L 187.5,504 L 187.5,510" fill="#FF0000"/><path d=" M 300,510 L 300,480 L 330,480 L 330,510 L 300,510" fill="#FF0000"/><path d=" M 330,480 L 330,450 L 360,450 L 360,480 L 330,480" fill="#FF0000"/><path d=" M 330,540 L 330,510 L 360,510 L 360,540 L 330,540" fill="#FF0000"/><path d=" M 300,450 L 300,420 L 330,420 L 330,450 L 300,450" fill="#FF0000"/><path d=" M 360,450 L 360,420 L 390,420 L 390,450 L 360,450" fill="#FF0000"/><path d=" M 360,570 L 360,540 L 390,540 L 390,570 L 360,570" fill="#FF0000"/><path d=" M 300,412.5 L 300,420 L 270,420 L 270,412.5 L 276,412.5 L 276,397.5 L 270,397.5 L 270,390 L 300,390 L 300,397.5 L 294,397.5 L 294,412.5 L 300,412.5" fill="#FF0000"/><path d=" M 420,412.5 L 420,420 L 390,420 L 390,412.5 L 396,412.5 L 396,397.5 L 390,397.5 L 390,390 L 420,390 L 420,397.5 L 414,397.5 L 414,412.5 L 420,412.5" fill="#FF0000"/><path d=" M 390,577.5 L 390,570 L 420,570 L 420,577.5 L 414,577.5 L 414,592.5 L 420,592.5 L 420,600 L 390,600 L 390,592.5 L 396,592.5 L 396,577.5 L 390,577.5" fill="#FF0000"/><path d=" M 270,210 L 270,180 L 300,180 L 300,210 L 270,210" fill="#FF0000"/><path d=" M 337.5,240 L 330,240 L 330,210 L 337.5,210 L 337.5,216 L 352.5,216 L 352.5,210 L 360,210 L 360,240 L 352.5,240 L 352.5,234 L 337.5,234 L 337.5,240" fill="#FF0000"/></clipPath></g><g><path d=" M 0,0"/><path d=" M -58.937,134.534 L -58.812,134.409 L -58.625,136.622 L -58.375,141.173 L -56.845,144.649 L -54.035,147.05 L -49.946,148.375 L -44.576,148.625 L -41.954,148.813 L -42.079,148.938 L -46.356,149 L -59,149 L -59,138.197 L -58.937,134.534 M 78.867,148.938 L 78.742,148.813 L 80.233,148.625 L 83.34,148.375 L 85.732,147.242 L 87.411,145.226 L 88.375,142.328 L 88.625,138.547 L 88.813,136.718 L 88.938,136.843 L 89,139.929 L 89,149 L 81.447,149 L 78.867,148.938" fill="#000000"/><path d=" M -231.248,-28.937 L -231.123,-28.812 L -232.217,-28.625 L -234.53,-28.375 L -236.328,-27.62 L -237.609,-26.359 L -238.375,-24.592 L -238.625,-22.32 L -238.812,-21.247 L -238.937,-21.372 L -239,-23.326 L -239,-29 L -233.233,-29 L -231.248,-28.937 M -238.937,108.593 L -238.812,108.468 L -238.625,110.004 L -238.375,113.203 L -237.463,115.664 L -235.89,117.388 L -233.656,118.375 L -230.76,118.625 L -229.374,118.813 L -229.499,118.938 L -231.921,119 L -239,119 L -239,111.242 L -238.937,108.593 M -97.976,118.938 L -98.101,118.813 L -97.136,118.625 L -95.082,118.375 L -93.478,117.363 L -92.326,115.59 L -91.625,113.055 L -91.375,109.759 L -91.187,108.173 L -91.062,108.298 L -91,111.02 L -91,119 L -96.185,119 L -97.976,118.938" fill="#000000"/><path d=" M 268.938,-19.28 L 268.813,-19.155 L 268.625,-20.577 L 268.375,-23.546 L 267.013,-25.836 L 264.539,-27.445 L 260.953,-28.375 L 256.254,-28.625 L 253.968,-28.812 L 254.093,-28.937 L 257.866,-29 L 269,-29 L 269,-21.757 L 268.938,-19.28 M 121.063,105.589 L 121.188,105.464 L 121.375,107.502 L 121.625,111.701 L 122.904,114.913 L 125.211,117.138 L 128.547,118.375 L 132.912,118.625 L 135.031,118.813 L 134.906,118.938 L 131.383,119 L 121,119 L 121,108.989 L 121.063,105.589 M 257.655,118.938 L 257.53,118.813 L 259.223,118.625 L 262.734,118.375 L 265.429,117.133 L 267.31,114.898 L 268.375,111.671 L 268.625,107.451 L 268.813,105.404 L 268.938,105.529 L 269,108.943 L 269,119 L 260.538,119 L 257.655,118.938" fill="#000000"/><path d=" M -44.764,181.063 L -44.639,181.188 L -46.814,181.375 L -51.288,181.625 L -54.707,182.52 L -57.069,184.06 L -58.375,186.245 L -58.625,189.076 L -58.812,190.428 L -58.937,190.303 L -59,187.931 L -59,181 L -48.37,181 L -44.764,181.063 M 88.938,187.055 L 88.813,187.18 L 88.625,186.369 L 88.375,184.621 L 86.866,183.248 L 84.099,182.249 L 80.072,181.625 L 74.787,181.375 L 72.207,181.188 L 72.332,181.063 L 76.546,181 L 89,181 L 89,185.495 L 88.938,187.055 M -58.937,346.412 L -58.812,346.287 L -58.625,348.187 L -58.375,352.112 L -57.679,355.119 L -56.537,357.206 L -54.949,358.375 L -52.914,358.625 L -51.96,358.813 L -52.085,358.938 L -53.86,359 L -59,359 L -59,349.606 L -58.937,346.412 M 84.034,358.938 L 83.909,358.813 L 84.539,358.625 L 85.923,358.375 L 87.024,357.676 L 87.841,356.528 L 88.375,354.931 L 88.625,352.885 L 88.813,351.925 L 88.938,352.05 L 89,353.834 L 89,359 L 85.323,359 L 84.034,358.938" fill="#000000"/><path d=" M -173.924,-178.937 L -173.799,-178.812 L -174.447,-178.625 L -175.868,-178.375 L -176.997,-177.563 L -177.832,-176.189 L -178.375,-174.253 L -178.625,-171.755 L -178.812,-170.569 L -178.937,-170.694 L -179,-172.817 L -179,-179 L -175.24,-179 L -173.924,-178.937 M -31.062,-163.527 L -31.187,-163.402 L -31.375,-165.783 L -31.625,-170.67 L -32.691,-174.397 L -34.572,-176.966 L -37.27,-178.375 L -40.783,-178.625 L -42.477,-178.812 L -42.352,-178.937 L -39.467,-179 L -31,-179 L -31,-167.442 L -31.062,-163.527 M -178.937,-66.321 L -178.812,-66.446 L -178.625,-65.757 L -178.375,-64.254 L -176.943,-63.065 L -174.328,-62.188 L -170.531,-61.625 L -165.551,-61.375 L -163.124,-61.187 L -163.249,-61.062 L -167.234,-61 L -179,-61 L -179,-64.944 L -178.937,-66.321 M -40.921,-61.062 L -41.046,-61.187 L -39.59,-61.375 L -36.554,-61.625 L -34.215,-63.092 L -32.572,-65.775 L -31.625,-69.675 L -31.375,-74.791 L -31.187,-77.287 L -31.062,-77.162 L -31,-73.075 L -31,-61 L -38.394,-61 L -40.921,-61.062" fill="#000000"/><path d=" M 66.98,-178.937 L 67.105,-178.812 L 66.307,-178.625 L 64.584,-178.375 L 63.229,-177.222 L 62.243,-175.167 L 61.625,-172.209 L 61.375,-168.348 L 61.188,-166.48 L 61.063,-166.605 L 61,-169.75 L 61,-179 L 65.438,-179 L 66.98,-178.937 M 208.938,-170.392 L 208.813,-170.267 L 208.625,-171.503 L 208.375,-174.102 L 207.541,-176.114 L 206.124,-177.538 L 204.124,-178.375 L 201.539,-178.625 L 200.31,-178.812 L 200.435,-178.937 L 202.623,-179 L 209,-179 L 209,-172.591 L 208.938,-170.392 M 61.063,-77.417 L 61.188,-77.542 L 61.375,-75.004 L 61.625,-69.802 L 63.115,-65.839 L 65.845,-63.113 L 69.814,-61.625 L 75.024,-61.375 L 77.566,-61.187 L 77.441,-61.062 L 73.284,-61 L 61,-61 L 61,-73.266 L 61.063,-77.417 M 199.462,-61.062 L 199.337,-61.187 L 200.728,-61.375 L 203.637,-61.625 L 205.881,-62.761 L 207.46,-64.783 L 208.375,-67.692 L 208.625,-71.486 L 208.813,-73.321 L 208.938,-73.196 L 209,-70.1 L 209,-61 L 201.893,-61 L 199.462,-61.062" fill="#000000"/><path d=" M -146.105,451.063 L -145.98,451.188 L -146.265,451.375 L -146.959,451.625 L -147.542,452.893 L -148.014,455.178 L -148.375,458.481 L -148.625,462.801 L -148.812,464.899 L -148.937,464.774 L -149,461.283 L -149,451 L -146.876,451 L -146.105,451.063 M -31.062,468.378 L -31.187,468.503 L -31.375,465.804 L -31.625,460.283 L -32.383,456.079 L -33.65,453.193 L -35.425,451.625 L -37.709,451.375 L -38.788,451.188 L -38.663,451.063 L -36.701,451 L -31,451 L -31,463.986 L -31.062,468.378 M -148.937,528.543 L -148.812,528.418 L -148.625,529.963 L -148.375,533.178 L -147.27,535.651 L -145.311,537.384 L -142.496,538.375 L -138.827,538.625 L -137.055,538.813 L -137.18,538.938 L -140.182,539 L -149,539 L -149,531.204 L -148.937,528.543 M -41.864,538.938 L -41.989,538.813 L -40.376,538.625 L -37.026,538.375 L -34.45,537.447 L -32.65,535.842 L -31.625,533.559 L -31.375,530.598 L -31.187,529.18 L -31.062,529.305 L -31,531.776 L -31,539 L -39.101,539 L -41.864,538.938" fill="#000000"/><path d=" M 74.025,451.063 L 74.15,451.188 L 72.177,451.375 L 68.106,451.625 L 64.991,452.738 L 62.83,454.713 L 61.625,457.55 L 61.375,461.25 L 61.188,463.038 L 61.063,462.913 L 61,459.888 L 61,451 L 70.722,451 L 74.025,451.063 M 178.938,462.475 L 178.813,462.6 L 178.625,460.886 L 178.375,457.331 L 177.612,454.603 L 176.336,452.701 L 174.547,451.625 L 172.244,451.375 L 171.156,451.188 L 171.281,451.063 L 173.257,451 L 179,451 L 179,459.56 L 178.938,462.475 M 61.063,528.984 L 61.188,528.859 L 61.375,530.33 L 61.625,533.398 L 62.815,535.762 L 64.945,537.421 L 68.016,538.375 L 72.027,538.625 L 73.969,538.813 L 73.844,538.938 L 70.586,539 L 61,539 L 61,531.535 L 61.063,528.984 M 169.719,538.938 L 169.594,538.813 L 170.943,538.625 L 173.766,538.375 L 175.945,537.068 L 177.482,534.705 L 178.375,531.285 L 178.625,526.809 L 178.813,524.633 L 178.938,524.758 L 179,528.365 L 179,539 L 172.086,539 L 169.719,538.938" fill="#000000"/><path d=" M 331.063,554.461 L 331.188,554.336 L 331.375,556.561 L 331.625,561.137 L 332.032,564.631 L 332.597,567.044 L 333.32,568.375 L 334.199,568.625 L 334.577,568.813 L 334.452,568.938 L 333.542,569 L 331,569 L 331,558.143 L 331.063,554.461" fill="#000000"/><path d=" M 271.063,441.644 L 271.188,441.519 L 271.375,442.547 L 271.625,444.728 L 272.999,446.427 L 275.497,447.642 L 279.118,448.375 L 283.864,448.625 L 286.174,448.813 L 286.049,448.938 L 282.24,449 L 271,449 L 271,443.53 L 271.063,441.644" fill="#000000"/><path d=" M 411.489,448.938 L 411.364,448.813 L 412.418,448.625 L 414.651,448.375 L 416.388,446.911 L 417.629,444.234 L 418.375,440.342 L 418.625,435.237 L 418.813,432.747 L 418.938,432.872 L 419,436.951 L 419,449 L 413.414,449 L 411.489,448.938" fill="#000000"/><path d=" M 418.938,556.014 L 418.813,556.139 L 418.625,553.835 L 418.375,549.101 L 417.646,545.488 L 416.439,542.996 L 414.753,541.625 L 412.589,541.375 L 411.569,541.188 L 411.694,541.063 L 413.567,541 L 419,541 L 419,552.214 L 418.938,556.014" fill="#000000"/><path d=" M 256.653,211.063 L 256.778,211.188 L 254.367,211.375 L 249.42,211.625 L 245.648,212.707 L 243.049,214.62 L 241.625,217.365 L 241.375,220.941 L 241.188,222.667 L 241.063,222.542 L 241,219.61 L 241,211 L 252.693,211 L 256.653,211.063 M 241.063,377.082 L 241.188,376.957 L 241.375,378.746 L 241.625,382.447 L 242.392,385.286 L 243.677,387.262 L 245.478,388.375 L 247.797,388.625 L 248.894,388.813 L 248.769,388.938 L 246.78,389 L 241,389 L 241,380.109 L 241.063,377.082 M 322.317,388.938 L 322.192,388.813 L 323.108,388.625 L 325.065,388.375 L 326.595,387.136 L 327.698,384.907 L 328.375,381.689 L 328.625,377.481 L 328.813,375.44 L 328.938,375.565 L 329,378.97 L 329,389 L 324.034,389 L 322.317,388.938" fill="#000000"/><path d=" M 448.938,221.203 L 448.813,221.328 L 448.625,219.826 L 448.375,216.695 L 447.267,214.285 L 445.302,212.595 L 442.48,211.625 L 438.799,211.375 L 437.022,211.188 L 437.147,211.063 L 440.157,211 L 449,211 L 449,218.606 L 448.938,221.203 M 361.063,375.324 L 361.188,375.199 L 361.375,377.281 L 361.625,381.568 L 362.306,384.847 L 363.417,387.116 L 364.959,388.375 L 366.932,388.625 L 367.856,388.813 L 367.731,388.938 L 366.001,389 L 361,389 L 361,378.79 L 361.063,375.324 M 433.522,388.938 L 433.397,388.813 L 435.779,388.625 L 440.667,388.375 L 444.396,387.787 L 446.965,386.86 L 448.375,385.595 L 448.625,383.992 L 448.813,383.253 L 448.938,383.378 L 449,384.83 L 449,389 L 437.438,389 L 433.522,388.938" fill="#000000"/><path d=" M 375.927,601.063 L 376.052,601.188 L 373.762,601.375 L 369.057,601.625 L 365.466,602.803 L 362.989,604.908 L 361.625,607.94 L 361.375,611.9 L 361.188,613.818 L 361.063,613.693 L 361,610.473 L 361,601 L 372.148,601 L 375.927,601.063 M 448.938,617.396 L 448.813,617.521 L 448.625,614.986 L 448.375,609.792 L 447.132,605.833 L 444.895,603.111 L 441.665,601.625 L 437.442,601.375 L 435.393,601.188 L 435.518,601.063 L 438.935,601 L 449,601 L 449,613.25 L 448.938,617.396 M 361.063,769.878 L 361.188,769.753 L 361.375,771.076 L 361.625,773.845 L 362.7,775.985 L 364.599,777.495 L 367.324,778.375 L 370.873,778.625 L 372.585,778.813 L 372.46,778.938 L 369.548,779 L 361,779 L 361,772.206 L 361.063,769.878 M 436.636,778.938 L 436.511,778.813 L 438.374,778.625 L 442.224,778.375 L 445.175,777.678 L 447.225,776.533 L 448.375,774.941 L 448.625,772.901 L 448.813,771.944 L 448.938,772.069 L 449,773.848 L 449,779 L 439.774,779 L 436.636,778.938" fill="#000000"/></g><g><path d=" M 0,0"/><path d=" M -28.735,129.603 L -28.237,129.435 L -27.6,129.625 L -26.825,130.173 L -26.373,130.718 L -26.243,131.261 L -26.436,131.801 L -26.952,132.339 L -27.459,132.692 L -27.958,132.86 L -28.448,132.844 L -28.929,132.644 L -29.235,132.272 L -29.364,131.729 L -29.318,131.015 L -29.096,130.13 L -28.735,129.603" fill="#FFFFFF" stroke="#000000" stroke-width="1"/><path d=" M -52.982,147.772 L -53.17,147.475 L -53.149,147.033 L -52.917,146.443 L -52.635,146.064 L -52.304,145.893 L -51.923,145.932 L -51.493,146.181 L -51.183,146.453 L -50.995,146.75 L -50.927,147.07 L -50.981,147.414 L -51.173,147.671 L -51.504,147.841 L -51.974,147.925 L -52.583,147.921 L -52.982,147.772" fill="#FFFFFF" stroke="#000000" stroke-width="1"/><path d=" M -20.275,45.584 L -19.912,45.654 L -19.591,45.875 L -19.312,46.246 L -19.186,46.616 L -19.215,46.984 L -19.398,47.351 L -19.735,47.716 L -20.085,47.863 L -20.448,47.793 L -20.825,47.505 L -21.215,46.999 L -21.395,46.563 L -21.367,46.195 L -21.128,45.895 L -20.681,45.664 L -20.275,45.584" fill="#FFFFFF" stroke="#000000" stroke-width="1"/><path d=" M 74.666,34.597 L 75.291,34.653 L 75.713,34.938 L 75.931,35.452 L 75.957,35.984 L 75.79,36.534 L 75.43,37.102 L 74.877,37.688 L 74.288,37.953 L 73.664,37.897 L 73.003,37.52 L 72.307,36.822 L 72.042,36.198 L 72.209,35.648 L 72.808,35.172 L 73.839,34.77 L 74.666,34.597" fill="#FFFFFF" stroke="#000000" stroke-width="1"/><path d=" M 74.708,141.065 L 74.933,140.695 L 75.238,140.521 L 75.623,140.543 L 75.96,140.689 L 76.25,140.96 L 76.492,141.356 L 76.686,141.877 L 76.67,142.322 L 76.445,142.692 L 76.01,142.986 L 75.366,143.204 L 74.899,143.178 L 74.609,142.907 L 74.497,142.391 L 74.562,141.63 L 74.708,141.065" fill="#FFFFFF" stroke="#000000" stroke-width="1"/><path d=" M -156.577,94.147 L -155.471,93.466 L -153.836,93.57 L -151.67,94.459 L -150.281,95.52 L -149.67,96.753 L -149.835,98.159 L -150.777,99.736 L -151.801,100.865 L -152.906,101.546 L -154.093,101.778 L -155.361,101.562 L -156.301,100.837 L -156.913,99.604 L -157.196,97.862 L -157.152,95.612 L -156.577,94.147" fill="#FFFFFF" stroke="#000000" stroke-width="1"/><path d=" M -120.832,102.545 L -120.489,102.107 L -120.074,101.931 L -119.586,102.015 L -119.177,102.252 L -118.848,102.642 L -118.598,103.183 L -118.428,103.877 L -118.514,104.443 L -118.857,104.881 L -119.456,105.192 L -120.311,105.374 L -120.903,105.271 L -121.232,104.881 L -121.298,104.206 L -121.101,103.245 L -120.832,102.545" fill="#FFFFFF" stroke="#000000" stroke-width="1"/><path d=" M -196.843,32.036 L -197.011,31.485 L -196.782,30.794 L -196.155,29.964 L -195.543,29.487 L -194.944,29.363 L -194.359,29.592 L -193.787,30.175 L -193.418,30.742 L -193.25,31.294 L -193.284,31.83 L -193.52,32.351 L -193.937,32.673 L -194.536,32.796 L -195.317,32.722 L -196.278,32.449 L -196.843,32.036" fill="#FFFFFF" stroke="#000000" stroke-width="1"/><path d=" M -225.73,-12.833 L -226.971,-13.401 L -227.629,-14.292 L -227.705,-15.506 L -227.372,-16.616 L -226.63,-17.624 L -225.479,-18.528 L -223.919,-19.329 L -222.519,-19.446 L -221.278,-18.878 L -220.196,-17.625 L -219.273,-15.687 L -219.183,-14.214 L -219.925,-13.207 L -221.499,-12.665 L -223.906,-12.587 L -225.73,-12.833" fill="#FFFFFF" stroke="#000000" stroke-width="1"/><path d=" M 238.262,12.629 L 238.625,12.701 L 238.945,12.923 L 239.222,13.295 L 239.345,13.665 L 239.315,14.033 L 239.131,14.398 L 238.793,14.761 L 238.443,14.907 L 238.08,14.835 L 237.705,14.546 L 237.317,14.039 L 237.139,13.602 L 237.169,13.235 L 237.409,12.936 L 237.857,12.708 L 238.262,12.629" fill="#FFFFFF" stroke="#000000" stroke-width="1"/><path d=" M 124.86,92.108 L 124.275,91.722 L 123.953,90.896 L 123.896,89.633 L 124.099,88.71 L 124.564,88.13 L 125.29,87.891 L 126.278,87.993 L 127.065,88.238 L 127.65,88.624 L 128.034,89.153 L 128.217,89.823 L 128.076,90.449 L 127.611,91.03 L 126.822,91.565 L 125.709,92.056 L 124.86,92.108" fill="#FFFFFF" stroke="#000000" stroke-width="1"/><path d=" M 265.302,-23.842 L 265.667,-23.761 L 265.984,-23.53 L 266.256,-23.148 L 266.372,-22.772 L 266.333,-22.402 L 266.139,-22.037 L 265.79,-21.678 L 265.433,-21.539 L 265.069,-21.619 L 264.697,-21.92 L 264.317,-22.44 L 264.146,-22.885 L 264.185,-23.255 L 264.433,-23.551 L 264.891,-23.772 L 265.302,-23.842" fill="#FFFFFF" stroke="#000000" stroke-width="1"/><path d=" M 47.276,191.007 L 47.772,191.072 L 48.1,191.313 L 48.258,191.73 L 48.262,192.156 L 48.111,192.589 L 47.805,193.031 L 47.345,193.482 L 46.867,193.674 L 46.37,193.61 L 45.855,193.288 L 45.321,192.708 L 45.13,192.201 L 45.281,191.768 L 45.774,191.407 L 46.609,191.119 L 47.276,191.007" fill="#FFFFFF" stroke="#000000" stroke-width="1"/><path d=" M 63.318,348.214 L 62.92,347.811 L 62.705,347.254 L 62.674,346.544 L 62.835,345.969 L 63.19,345.529 L 63.738,345.225 L 64.479,345.055 L 65.048,345.172 L 65.446,345.575 L 65.673,346.264 L 65.728,347.239 L 65.578,347.947 L 65.224,348.387 L 64.664,348.559 L 63.899,348.463 L 63.318,348.214" fill="#FFFFFF" stroke="#000000" stroke-width="1"/><path d=" M 65.847,295.08 L 66.206,294.87 L 66.641,294.819 L 67.152,294.927 L 67.531,295.147 L 67.779,295.48 L 67.896,295.926 L 67.881,296.484 L 67.694,296.867 L 67.335,297.077 L 66.803,297.112 L 66.099,296.973 L 65.623,296.737 L 65.375,296.404 L 65.355,295.974 L 65.563,295.448 L 65.847,295.08" fill="#FFFFFF" stroke="#000000" stroke-width="1"/><path d=" M -53.236,228.081 L -54.542,227.196 L -55.243,225.331 L -55.339,222.486 L -54.856,220.417 L -53.795,219.123 L -52.154,218.605 L -49.935,218.862 L -48.172,219.433 L -46.866,220.318 L -46.016,221.518 L -45.623,223.031 L -45.957,224.435 L -47.018,225.729 L -48.807,226.913 L -51.324,227.987 L -53.236,228.081" fill="#FFFFFF" stroke="#000000" stroke-width="1"/><path d=" M -57.682,197.461 L -57.984,197.177 L -58.087,196.663 L -57.993,195.921 L -57.781,195.404 L -57.451,195.113 L -57.004,195.047 L -56.439,195.207 L -56.005,195.429 L -55.703,195.714 L -55.533,196.061 L -55.494,196.47 L -55.64,196.82 L -55.97,197.112 L -56.484,197.344 L -57.182,197.517 L -57.682,197.461" fill="#FFFFFF" stroke="#000000" stroke-width="1"/><path d=" M -160.572,-63.808 L -160.745,-64.197 L -160.747,-64.645 L -160.58,-65.152 L -160.314,-65.513 L -159.948,-65.727 L -159.482,-65.796 L -158.917,-65.718 L -158.548,-65.485 L -158.375,-65.096 L -158.399,-64.551 L -158.62,-63.851 L -158.913,-63.394 L -159.279,-63.18 L -159.718,-63.208 L -160.23,-63.478 L -160.572,-63.808" fill="#FFFFFF" stroke="#000000" stroke-width="1"/><path d=" M -95.761,-168.827 L -95,-165 L -95.761,-161.173 L -97.929,-157.929 L -101.173,-155.761 L -105,-155 L -108.827,-155.761 L -112.071,-157.929 L -114.239,-161.173 L -115,-165 L -114.239,-168.827 L -112.071,-172.071 L -108.827,-174.239 L -105,-175 L -101.173,-174.239 L -97.929,-172.071 L -95.761,-168.827" fill="#FFFFFF" stroke="#000000" stroke-width="1"/><path d=" M -107.351,-168.236 L -105,-174 L -102.649,-168.236 L -96.44,-167.781 L -101.196,-163.764 L -99.71,-157.719 L -105,-161 L -110.29,-157.719 L -108.804,-163.764 L -113.56,-167.781 L -107.351,-168.236" fill="#000000"/><path d=" M 70.333,-147.765 L 70.218,-148.878 L 70.574,-149.714 L 71.4,-150.272 L 72.323,-150.499 L 73.344,-150.394 L 74.461,-149.957 L 75.676,-149.189 L 76.341,-148.248 L 76.456,-147.135 L 76.02,-145.849 L 75.035,-144.391 L 74.033,-143.715 L 73.012,-143.82 L 71.974,-144.706 L 70.919,-146.374 L 70.333,-147.765" fill="#FFFFFF" stroke="#000000" stroke-width="1"/><path d=" M 176.896,-171.737 L 177.321,-173.264 L 178.223,-174.181 L 179.601,-174.489 L 180.936,-174.309 L 182.226,-173.642 L 183.473,-172.487 L 184.676,-170.844 L 185.064,-169.26 L 184.638,-167.733 L 183.399,-166.264 L 181.344,-164.853 L 179.672,-164.481 L 178.381,-165.148 L 177.473,-166.855 L 176.946,-169.601 L 176.896,-171.737" fill="#FFFFFF" stroke="#000000" stroke-width="1"/><path d=" M 69.665,-86.721 L 69.931,-87.416 L 70.481,-87.975 L 71.314,-88.398 L 72.09,-88.517 L 72.809,-88.331 L 73.471,-87.84 L 74.077,-87.046 L 74.246,-86.301 L 73.98,-85.606 L 73.278,-84.96 L 72.14,-84.364 L 71.211,-84.159 L 70.492,-84.345 L 69.982,-84.922 L 69.682,-85.89 L 69.665,-86.721" fill="#FFFFFF" stroke="#000000" stroke-width="1"/><path d=" M 162.085,-161.627 L 161.106,-162.95 L 161.062,-165.027 L 161.952,-167.858 L 163.143,-169.726 L 164.635,-170.632 L 166.428,-170.574 L 168.522,-169.553 L 170.059,-168.381 L 171.037,-167.058 L 171.458,-165.584 L 171.321,-163.959 L 170.507,-162.694 L 169.015,-161.788 L 166.845,-161.243 L 163.998,-161.058 L 162.085,-161.627" fill="#FFFFFF" stroke="#000000" stroke-width="1"/><path d=" M 147,-156 L 123,-156 L 123,-174 L 147,-174 L 147,-156" fill="#FFFFFF" stroke="#000000" stroke-width="1"/><path d=" M 127.5,-156 L 127.5,-174" stroke="#000000" stroke-width="1"/><path d=" M 130.5,-156 L 130.5,-174" stroke="#000000" stroke-width="1"/><path d=" M 139.5,-156 L 139.5,-174" stroke="#000000" stroke-width="1"/><path d=" M 142.5,-156 L 142.5,-174" stroke="#000000" stroke-width="1"/><path d=" M 22.271,446.136 L 22.099,445.781 L 22.082,445.367 L 22.221,444.892 L 22.456,444.55 L 22.788,444.339 L 23.217,444.261 L 23.743,444.315 L 24.092,444.52 L 24.264,444.874 L 24.259,445.379 L 24.077,446.034 L 23.82,446.466 L 23.488,446.677 L 23.08,446.665 L 22.598,446.43 L 22.271,446.136" fill="#FFFFFF" stroke="#000000" stroke-width="1"/><path d=" M 18.101,486.116 L 17.942,485.614 L 18.144,484.981 L 18.707,484.216 L 19.261,483.774 L 19.807,483.655 L 20.344,483.858 L 20.872,484.384 L 21.215,484.899 L 21.374,485.401 L 21.349,485.891 L 21.139,486.368 L 20.761,486.667 L 20.215,486.786 L 19.502,486.726 L 18.621,486.487 L 18.101,486.116" fill="#FFFFFF" stroke="#000000" stroke-width="1"/><path d=" M -145.022,534.784 L -144.679,534.115 L -144.067,533.614 L -143.184,533.279 L -142.392,533.245 L -141.69,533.509 L -141.079,534.073 L -140.557,534.937 L -140.468,535.703 L -140.811,536.372 L -141.586,536.944 L -142.793,537.419 L -143.747,537.524 L -144.449,537.26 L -144.898,536.625 L -145.095,535.621 L -145.022,534.784" fill="#FFFFFF" stroke="#000000" stroke-width="1"/><path d=" M -67.778,469.257 L -68.182,468.825 L -68.299,468.359 L -68.13,467.86 L -67.813,467.47 L -67.35,467.188 L -66.74,467.015 L -65.983,466.951 L -65.402,467.135 L -64.998,467.567 L -64.771,468.247 L -64.72,469.176 L -64.926,469.781 L -65.39,470.063 L -66.11,470.021 L -67.088,469.656 L -67.778,469.257" fill="#FFFFFF" stroke="#000000" stroke-width="1"/><path d=" M -140.234,533.013 L -140.661,531.698 L -140.52,530.248 L -139.809,528.663 L -138.826,527.585 L -137.57,527.014 L -136.04,526.949 L -134.237,527.39 L -133.122,528.269 L -132.694,529.585 L -132.955,531.338 L -133.903,533.528 L -135.006,534.909 L -136.262,535.48 L -137.673,535.242 L -139.238,534.195 L -140.234,533.013" fill="#FFFFFF" stroke="#000000" stroke-width="1"/><path d=" M -139.5,508.5 L -142.5,489 L -139.5,481.5 L -130.5,481.5 L -127.5,489 L -130.5,508.5 L -139.5,508.5" fill="#FFFFFF" stroke="#000000" stroke-width="1"/><path d=" M -138.15,504.45 L -140.25,490.8 L -138.15,485.55 L -131.85,485.55 L -129.75,490.8 L -131.85,504.45 L -138.15,504.45" stroke="#000000" stroke-width="1"/><path d=" M 73.787,523.89 L 73.75,522.665 L 74.229,521.467 L 75.226,520.296 L 76.329,519.624 L 77.539,519.45 L 78.856,519.774 L 80.279,520.596 L 81.009,521.62 L 81.046,522.844 L 80.39,524.27 L 79.041,525.897 L 77.761,526.798 L 76.551,526.972 L 75.411,526.42 L 74.34,525.141 L 73.787,523.89" fill="#FFFFFF" stroke="#000000" stroke-width="1"/><path d=" M 135.642,474.098 L 136.729,473.268 L 138.127,472.925 L 139.836,473.068 L 141.163,473.631 L 142.107,474.615 L 142.669,476.02 L 142.848,477.845 L 142.395,479.172 L 141.308,480.002 L 139.589,480.333 L 137.236,480.167 L 135.588,479.592 L 134.644,478.608 L 134.403,477.215 L 134.867,475.413 L 135.642,474.098" fill="#FFFFFF" stroke="#000000" stroke-width="1"/><path d=" M 292.206,503.925 L 292.194,502.881 L 292.943,501.795 L 294.453,500.668 L 295.76,500.148 L 296.865,500.236 L 297.766,500.932 L 298.465,502.235 L 298.821,503.409 L 298.833,504.454 L 298.503,505.369 L 297.829,506.155 L 296.939,506.504 L 295.835,506.416 L 294.515,505.891 L 292.98,504.929 L 292.206,503.925" fill="#FFFFFF" stroke="#000000" stroke-width="1"/><path d=" M 349.221,500.059 L 349.451,499.675 L 349.835,499.402 L 350.373,499.238 L 350.845,499.249 L 351.252,499.434 L 351.593,499.794 L 351.868,500.327 L 351.891,500.786 L 351.661,501.17 L 351.177,501.479 L 350.441,501.714 L 349.87,501.738 L 349.463,501.553 L 349.221,501.158 L 349.144,500.554 L 349.221,500.059" fill="#FFFFFF" stroke="#000000" stroke-width="1"/><path d=" M 356.903,429.029 L 356.928,428.647 L 357.096,428.385 L 357.407,428.244 L 357.732,428.221 L 358.07,428.315 L 358.422,428.527 L 358.787,428.856 L 358.957,429.212 L 358.932,429.594 L 358.711,430.003 L 358.295,430.438 L 357.917,430.608 L 357.579,430.514 L 357.28,430.155 L 357.02,429.532 L 356.903,429.029" fill="#FFFFFF" stroke="#000000" stroke-width="1"/><path d=" M 354.513,563.785 L 354.598,563.301 L 354.884,562.87 L 355.371,562.491 L 355.859,562.317 L 356.349,562.347 L 356.84,562.581 L 357.332,563.02 L 357.535,563.482 L 357.45,563.966 L 357.076,564.473 L 356.414,565.002 L 355.838,565.252 L 355.348,565.221 L 354.945,564.912 L 354.629,564.322 L 354.513,563.785" fill="#FFFFFF" stroke="#000000" stroke-width="1"/><path d=" M 297.597,421.843 L 297.976,421.86 L 298.238,422.021 L 298.384,422.325 L 298.414,422.645 L 298.328,422.982 L 298.126,423.335 L 297.809,423.703 L 297.461,423.879 L 297.082,423.862 L 296.673,423.653 L 296.234,423.25 L 296.057,422.881 L 296.143,422.544 L 296.491,422.241 L 297.103,421.97 L 297.597,421.843" fill="#FFFFFF" stroke="#000000" stroke-width="1"/><path d=" M 407.514,439.653 L 408.038,438.136 L 409.183,436.894 L 410.947,435.924 L 412.61,435.614 L 414.173,435.964 L 415.634,436.973 L 416.993,438.642 L 417.411,440.234 L 416.887,441.751 L 415.42,443.191 L 413.011,444.554 L 411.026,445.061 L 409.464,444.712 L 408.325,443.505 L 407.609,441.442 L 407.514,439.653" fill="#FFFFFF" stroke="#000000" stroke-width="1"/><path d=" M 393.128,561.199 L 393.352,559.497 L 394.824,557.907 L 397.544,556.428 L 399.791,555.89 L 401.566,556.292 L 402.869,557.635 L 403.7,559.918 L 404.003,561.91 L 403.779,563.612 L 403.026,565.022 L 401.746,566.142 L 400.218,566.501 L 398.443,566.099 L 396.421,564.936 L 394.15,563.011 L 393.128,561.199" fill="#FFFFFF" stroke="#000000" stroke-width="1"/><path d=" M 322.161,342.577 L 322.539,342.679 L 322.767,342.9 L 322.846,343.239 L 322.804,343.569 L 322.642,343.889 L 322.359,344.199 L 321.956,344.5 L 321.565,344.599 L 321.187,344.497 L 320.822,344.193 L 320.47,343.689 L 320.375,343.277 L 320.537,342.957 L 320.956,342.729 L 321.633,342.594 L 322.161,342.577" fill="#FFFFFF" stroke="#000000" stroke-width="1"/><path d=" M 248.013,252.367 L 248.524,252.016 L 249.165,251.893 L 249.936,251.997 L 250.523,252.282 L 250.928,252.749 L 251.151,253.398 L 251.19,254.229 L 250.954,254.819 L 250.443,255.17 L 249.657,255.281 L 248.596,255.151 L 247.863,254.853 L 247.458,254.386 L 247.381,253.75 L 247.632,252.945 L 248.013,252.367" fill="#FFFFFF" stroke="#000000" stroke-width="1"/><path d=" M 294.239,296.173 L 295,300 L 294.239,303.827 L 292.071,307.071 L 288.827,309.239 L 285,310 L 281.173,309.239 L 277.929,307.071 L 275.761,303.827 L 275,300 L 275.761,296.173 L 277.929,292.929 L 281.173,290.761 L 285,290 L 288.827,290.761 L 292.071,292.929 L 294.239,296.173" fill="#FFFFFF" stroke="#000000" stroke-width="1"/><path d=" M 282.649,296.764 L 285,291 L 287.351,296.764 L 293.56,297.219 L 288.804,301.236 L 290.29,307.281 L 285,304 L 279.71,307.281 L 281.196,301.236 L 276.44,297.219 L 282.649,296.764" fill="#000000"/><path d=" M 367.85,226.476 L 367.842,226.051 L 368.144,225.607 L 368.755,225.144 L 369.286,224.929 L 369.736,224.962 L 370.104,225.242 L 370.392,225.771 L 370.54,226.248 L 370.548,226.673 L 370.416,227.046 L 370.144,227.368 L 369.783,227.512 L 369.333,227.48 L 368.795,227.269 L 368.167,226.882 L 367.85,226.476" fill="#FFFFFF" stroke="#000000" stroke-width="1"/><path d=" M 424.625,373.033 L 424.314,372.779 L 424.192,372.477 L 424.26,372.126 L 424.437,371.834 L 424.722,371.601 L 425.117,371.429 L 425.621,371.315 L 426.028,371.386 L 426.34,371.639 L 426.556,372.076 L 426.676,372.696 L 426.593,373.123 L 426.307,373.355 L 425.818,373.393 L 425.127,373.238 L 424.625,373.033" fill="#FFFFFF" stroke="#000000" stroke-width="1"/><path d=" M 446.708,230.061 L 446.893,229.764 L 447.301,229.594 L 447.93,229.55 L 448.392,229.64 L 448.687,229.865 L 448.815,230.224 L 448.776,230.717 L 448.664,231.112 L 448.479,231.409 L 448.22,231.607 L 447.888,231.706 L 447.574,231.644 L 447.279,231.419 L 447.002,231.032 L 446.744,230.484 L 446.708,230.061" fill="#FFFFFF" stroke="#000000" stroke-width="1"/><path d=" M 437.589,238.694 L 436.771,238.015 L 436.267,237.015 L 436.077,235.695 L 436.273,234.591 L 436.854,233.704 L 437.821,233.033 L 439.173,232.58 L 440.258,232.692 L 441.076,233.371 L 441.627,234.616 L 441.911,236.428 L 441.762,237.778 L 441.181,238.665 L 440.167,239.09 L 438.721,239.052 L 437.589,238.694" fill="#FFFFFF" stroke="#000000" stroke-width="1"/><path d=" M 379.723,649.416 L 379.256,649.162 L 378.959,648.56 L 378.833,647.61 L 378.927,646.9 L 379.24,646.431 L 379.773,646.203 L 380.526,646.216 L 381.136,646.349 L 381.603,646.603 L 381.927,646.977 L 382.109,647.472 L 382.044,647.953 L 381.73,648.422 L 381.17,648.878 L 380.361,649.321 L 379.723,649.416" fill="#FFFFFF" stroke="#000000" stroke-width="1"/></g><g transform="translate(4.243 4.243)" clip-path="url(#instance21)"><path d=" M 0,0"/><clipPath id="instance21" fill="#FFFFFF" transform="translate(-4.243 -4.243)"><path d=" M 0,0"/></clipPath></g><g><path d=" M 0,0"/><path d=" M 3,6 L 27,6 M 6,12 L 24,12 M 9,18 L 21,18 M 12,24 L 18,24" stroke="#000000" stroke-width="1"/><path d=" M -78.75,35 L -71.25,35 L -71.25,55 L -78.75,55 L -78.75,35" fill="#FFFFFF" stroke="#000000" stroke-width="2"/><path d=" M 101.25,35 L 108.75,35 L 108.75,55 L 101.25,55 L 101.25,35" fill="#FFFFFF" stroke="#000000" stroke-width="2"/><path d=" M 5,161.25 L 25,161.25 L 25,168.75 L 5,168.75 L 5,161.25" fill="#FFFFFF" stroke="#000000" stroke-width="2"/><path d=" M 5,371.25 L 25,371.25 L 25,378.75 L 5,378.75 L 5,371.25 M 15,371.25 L 15,378.75" fill="#FFFFFF" stroke="#000000" stroke-width="2"/><path d=" M -18.75,485 L -11.25,485 L -11.25,505 L -18.75,505 L -18.75,485" fill="#FFFFFF" stroke="#000000" stroke-width="2"/><path d=" M 41.25,485 L 48.75,485 L 48.75,505 L 41.25,505 L 41.25,485" fill="#FFFFFF" stroke="#000000" stroke-width="2"/><path d=" M 330,510 L 360,510 M 331.998,516 L 358.002,516 M 333.996,522 L 356.004,522 M 335.994,528 L 354.006,528 M 337.992,534 L 352.008,534 M 339.99,540 L 350.01,540" stroke="#000000" stroke-width="1"/><path d=" M 330,450 L 330,420 M 324,448.002 L 324,421.998 M 318,446.004 L 318,423.996 M 312,444.006 L 312,425.994 M 306,442.008 L 306,427.992 M 300,440.01 L 300,429.99" stroke="#000000" stroke-width="1"/><path d=" M 360,420 L 360,450 M 366,421.998 L 366,448.002 M 372,423.996 L 372,446.004 M 378,425.994 L 378,444.006 M 384,427.992 L 384,442.008 M 390,429.99 L 390,440.01" stroke="#000000" stroke-width="1"/><path d=" M 297,204 L 273,204 M 294,198 L 276,198 M 291,192 L 279,192 M 288,186 L 282,186" stroke="#000000" stroke-width="1"/><path d=" M 346,219 Q 346,219.414 345.707,219.707 Q 345.414,220 345,220 L 345,220 Q 344.586,220 344.293,219.707 Q 344,219.414 344,219 L 344,219 Q 344,218.586 344.293,218.293 Q 344.586,218 345,218 L 345,218 Q 345.414,218 345.707,218.293 Q 346,218.586 346,219 L 346,219 M 346,225 Q 346,225.414 345.707,225.707 Q 345.414,226 345,226 L 345,226 Q 344.586,226 344.293,225.707 Q 344,225.414 344,225 L 344,225 Q 344,224.586 344.293,224.293 Q 344.586,224 345,224 L 345,224 Q 345.414,224 345.707,224.293 Q 346,224.586 346,225 L 346,225 M 346,231 Q 346,231.414 345.707,231.707 Q 345.414,232 345,232 L 345,232 Q 344.586,232 344.293,231.707 Q 344,231.414 344,231 L 344,231 Q 344,230.586 344.293,230.293 Q 344.586,230 345,230 L 345,230 Q 345.414,230 345.707,230.293 Q 346,230.586 346,231 L 346,231" fill="#000000"/></g></g></g></svg>