<?xml version="1.0" encoding="UTF-8" standalone="no"?><svg width="1848" height="995" xmlns="http://www.w3.org/2000/svg" stroke-linejoin="round" stroke-linecap="round" fill-rule="evenodd" fill="none"><rect x="0" y="0" width="1848" height="995" fill="#FFFFFF"/><style/><defs/><g><path d=" M 0,0"/><g transform="translate(909 227.5)"><path d=" M 0,0"/><g><path d=" M 0,0"/></g><g><path d=" M 0,0"/><path d=" M -60,240 L -60,30 L 90,30 L 90,240 L -60,240 M -210,120 L -210,-30 L -90,-30 L -90,120 L -210,120 M 120,120 L 120,-30 L 240,-30 L 240,120 L 120,120 M 0,360 L 0,270 L 30,270 L 30,360 L 0,360 M 60,360 L 60,270 L 120,270 L 120,360 L 60,360 M -90,360 L -90,270 L -30,270 L -30,360 L -90,360 M -60,570 L -60,390 L 90,390 L 90,570 L -60,570 M 0,30 L 0,0 L 30,0 L 30,30 L 0,30 M -67.5,30 L -60,30 L -60,60 L -67.5,60 L -67.5,54 L -82.5,54 L -82.5,60 L -90,60 L -90,30 L -82.5,30 L -82.5,36 L -67.5,36 L -67.5,30 M 97.5,60 L 90,60 L 90,30 L 97.5,30 L 97.5,36 L 112.5,36 L 112.5,30 L 120,30 L 120,60 L 112.5,60 L 112.5,54 L 97.5,54 L 97.5,60 M 0,247.5 L 0,240 L 30,240 L 30,247.5 L 24,247.5 L 24,262.5 L 30,262.5 L 30,270 L 0,270 L 0,262.5 L 6,262.5 L 6,247.5 L 0,247.5 M 37.5,330 L 30,330 L 30,300 L 37.5,300 L 37.5,306 L 52.5,306 L 52.5,300 L 60,300 L 60,330 L 52.5,330 L 52.5,324 L 37.5,324 L 37.5,330 M -30,330 L -30,300 L 0,300 L 0,330 L -30,330 M 0,367.5 L 0,360 L 30,360 L 30,367.5 L 24,367.5 L 24,382.5 L 30,382.5 L 30,390 L 0,390 L 0,382.5 L 6,382.5 L 6,367.5 L 0,367.5" stroke="#000000" stroke-width="4"/><path d=" M -60,240 L -60,30 L 90,30 L 90,240 L -60,240" fill="#FFFFFF"/><path d=" M -210,120 L -210,-30 L -90,-30 L -90,120 L -210,120" fill="#FFFFFF"/><path d=" M 120,120 L 120,-30 L 240,-30 L 240,120 L 120,120" fill="#FFFFFF"/><path d=" M 0,360 L 0,270 L 30,270 L 30,360 L 0,360" fill="#FFFFFF"/><path d=" M 60,360 L 60,270 L 120,270 L 120,360 L 60,360" fill="#FFFFFF"/><path d=" M -90,360 L -90,270 L -30,270 L -30,360 L -90,360" fill="#FFFFFF"/><path d=" M -60,570 L -60,390 L 90,390 L 90,570 L -60,570" fill="#FFFFFF"/><path d=" M 0,30 L 0,0 L 30,0 L 30,30 L 0,30" fill="#FFFFFF"/><path d=" M -67.5,30 L -60,30 L -60,60 L -67.5,60 L -67.5,54 L -82.5,54 L -82.5,60 L -90,60 L -90,30 L -82.5,30 L -82.5,36 L -67.5,36 L -67.5,30" fill="#FFFFFF"/><path d=" M 97.5,60 L 90,60 L 90,30 L 97.5,30 L 97.5,36 L 112.5,36 L 112.5,30 L 120,30 L 120,60 L 112.5,60 L 112.5,54 L 97.5,54 L 97.5,60" fill="#FFFFFF"/><path d=" M 0,247.5 L 0,240 L 30,240 L 30,247.5 L 24,247.5 L 24,262.5 L 30,262.5 L 30,270 L 0,270 L 0,262.5 L 6,262.5 L 6,247.5 L 0,247.5" fill="#FFFFFF"/><path d=" M 37.5,330 L 30,330 L 30,300 L 37.5,300 L 37.5,306 L 52.5,306 L 52.5,300 L 60,300 L 60,330 L 52.5,330 L 52.5,324 L 37.5,324 L 37.5,330" fill="#FFFFFF"/><path d=" M -30,330 L -30,300 L 0,300 L 0,330 L -30,330" fill="#FFFFFF"/><path d=" M 0,367.5 L 0,360 L 30,360 L 30,367.5 L 24,367.5 L 24,382.5 L 30,382.5 L 30,390 L 0,390 L 0,382.5 L 6,382.5 L 6,367.5 L 0,367.5" fill="#FFFFFF"/><path d=" M 30,30 L 0,30 M -90,60 L -90,30 M -60,60 L -60,30 M 120,30 L 120,60 M 90,30 L 90,60 M 30,270 L 0,270 M 30,240 L 0,240 M 60,300 L 60,330 M 30,300 L 30,330 M -30,330 L -30,300 M 0,330 L 0,300 M 30,390 L 0,390 M 30,360 L 0,360" stroke="#FFFFFF" stroke-width="1" stroke-linejoin="round" stroke-linecap="butt"/></g><g><path d=" M 0,0"/><path d=" M -170.765,121 L -168.92,121 L -168.952,120.07 L -168.25,114.511 L -169.592,109.239 L -166.63,104.65 L -168.054,99.168 L -167.623,93.676 L -167.623,93.676 L -168.415,99.188 L -167.394,104.502 L -170.736,109.014 L -169.699,114.554 L -170.733,119.93 L -170.765,121" fill="#000000"/><path d=" M 241,53.956 L 241,52.352 L 239.793,52.384 L 235.799,54.882 L 231.468,53.162 L 226.737,54.491 L 221.949,54.027 L 217.857,56.663 L 217.857,56.663 L 222.016,54.346 L 226.773,55.117 L 231.386,54.135 L 235.878,56.26 L 240.207,53.924 L 241,53.956" fill="#000000"/><path d=" M 189.94,-31 L 188.952,-31 L 188.984,-30.175 L 185.773,-26.302 L 189.133,-22.478 L 186.569,-18.389 L 186.569,-18.389 L 189.518,-22.497 L 186.584,-26.289 L 189.909,-29.825 L 189.94,-31" fill="#000000"/><path d=" M 241,57.937 L 241,57.254 L 239.886,57.284 L 236.084,60.698 L 232.188,57.572 L 232.188,57.572 L 236.083,61.107 L 240.114,57.907 L 241,57.937" fill="#000000"/><path d=" M 89.603,361 L 90.397,361 L 90.366,359.979 L 89.52,354.14 L 93.167,349.527 L 93.167,349.527 L 89.138,354.024 L 89.634,360.021 L 89.603,361" fill="#000000"/><path d=" M -61,470.677 L -61,470.817 L -60.017,470.797 L -58.32,471.994 L -58.32,471.994 L -59.983,470.697 L -61,470.677" fill="#000000"/><path d=" M -61,470.083 L -61,471.748 L -60.309,471.716 L -56.493,474.956 L -51.526,473.872 L -47.634,477.028 L -43.475,474.041 L -39.656,477.074 L -39.656,477.074 L -43.452,473.64 L -47.585,476.224 L -51.247,472.843 L -56.103,473.581 L -59.691,470.115 L -61,470.083" fill="#000000"/><path d=" M -61,434.932 L -61,435.205 L -60.032,435.178 L -56.529,437.249 L -56.529,437.249 L -59.968,434.959 L -61,434.932" fill="#000000"/><path d=" M -60.199,59.94 L -49.946,60.043 L -49.946,60.043 L -40.036,60.085 L -29.928,59.991 L -20.449,59.881 L -12.699,59.974 M -11.081,59.993 L -10.046,60.006 L 0.157,60.006 L 10.693,59.564 L 19.675,59.55 L 29.132,60.189 L 40.442,60.784 L 50.035,59.904 L 60.3,60.115 L 69.854,59.768 L 80.089,60.032 L 89.883,59.985 M -59.849,90.095 L -50.462,90.03 L -50.462,90.03 L -40.03,90.311 L -30.054,89.944 L -19.76,89.803 L -9.955,90.02 L 0.272,90.108 L 9.944,90.16 L 19.777,90.214 L 29.572,90.419 L 39.967,89.832 L 49.525,90.423 M 51.161,90.398 L 59.768,90.16 L 70.265,89.318 L 79.847,89.891 L 90.017,90.673 M -59.729,120.265 L -50.021,120.394 L -50.021,120.394 L -40.278,119.868 L -29.822,120.238 L -20.718,120.196 L -9.832,120.214 L 0.338,119.941 L 9.319,119.521 L 19.577,120.002 L 30.192,119.829 L 39.85,120.1 L 46.263,119.933 M 47.762,119.894 L 49.614,119.845 L 59.671,120.231 L 69.859,119.989 L 79.955,120.133 L 90.01,120.014 M -59.707,149.545 L -50.215,149.971 L -50.215,149.971 L -40.398,149.632 L -30.047,150.568 L -19.911,149.895 L -13.631,149.964 M -12.219,149.98 L -9.894,150.006 L 0.058,150.082 L 9.758,149.952 L 19.681,149.747 L 30.224,150.259 L 39.462,150.102 L 49.925,150.177 L 60.284,150.835 L 69.35,149.772 L 80.504,149.805 L 89.981,149.707 M -59.998,180.018 L -50.072,179.892 L -50.072,179.892 L -40,180.006 L -29.937,180.018 L -19.89,179.832 L -9.987,180.189 L 0.051,179.751 L 10.799,180.635 L 19.681,179.691 L 29.933,179.747 L 39.874,180.142 L 50.98,179.608 L 59.447,181.06 M 60.753,181.114 L 69.659,180.947 L 80.068,180.137 L 89.983,180.004 M -59.859,209.837 L -49.767,209.981 L -49.767,209.981 L -39.377,210.069 L -30.019,210.011 L -19.915,210.036 L -9.799,209.875 L -0.187,209.67 L 9.976,209.992 L 20.017,209.964 L 30.574,209.574 L 40.516,209.828 L 50.007,210.217 L 59.143,209.78 M 66.799,209.736 L 69.541,209.733 L 79.692,209.672 L 90.072,209.809 M -29.943,30.455 L -30.01,39.969 L -30.01,39.969 L -29.992,50.214 L -29.969,52.809 M -29.937,56.45 L -29.905,60.046 L -30.156,70.17 L -29.987,80.012 L -30.206,90.164 L -29.706,100.194 L -29.621,110.132 L -29.875,119.503 L -29.409,129.706 L -29.965,139.979 L -30.424,149.673 L -29.787,160.37 L -30.29,170.032 L -30.109,179.951 L -30.098,190.057 L -30.314,199.685 L -30.349,209.479 L -30.341,220.195 L -30.034,230.056 L -29.607,239.815 M 0.402,29.912 L -0.318,39.634 L -0.318,39.634 L 0.257,49.852 L -0.367,59.96 L -0.392,69.805 L 0.298,80.19 L 0.074,90.015 L -0.264,100.877 L -0.415,109.739 L -0.345,110.88 M -0.052,115.673 L 0.206,119.896 L 0.102,130.072 L -0.617,140.304 L 0.553,150.012 L 0.169,159.72 L 0.107,170.158 L -0.423,179.307 L 0.022,189.485 L -0.112,200.487 L 0.173,210.431 L 0.046,220.156 L 0.298,229.998 L -0.564,240.015 M 29.494,30.158 L 30.134,40.317 L 30.134,40.317 L 29.977,50.002 L 29.993,59.417 L 29.587,70.266 L 29.305,79.676 L 30.065,90.15 L 30.085,100.235 L 29.804,109.977 L 30.118,117.739 M 30.149,118.508 L 30.2,119.784 L 29.951,129.288 L 29.913,140.072 L 30.009,150.076 L 29.646,159.88 L 30.129,169.948 L 29.918,180.45 L 30.01,190.019 L 30.237,199.931 L 30.016,210.133 L 30.122,219.68 L 30.344,229.694 L 30.3,240.193 M 60.082,30.039 L 59.633,40.273 L 59.633,40.273 L 59.922,50.049 L 60.215,60.177 L 59.975,69.914 L 60.111,79.872 L 60.027,89.93 L 60.025,90.5 M 60.016,94.552 L 60.004,100.003 L 59.955,109.993 L 59.49,119.898 L 60.081,130.018 L 60.465,140.097 L 59.439,150.567 L 60.191,160.46 L 60.403,169.928 L 60.142,179.972 L 60.518,189.325 L 59.986,200.032 L 59.878,210.017 L 59.903,219.884 L 60.365,230.222 L 59.971,239.881 M -210.02,-0.213 L -200.282,0.089 L -200.282,0.089 L -189.902,-0.067 L -179.832,0.193 L -170.256,-0.907 L -160.088,0.136 L -150.049,0.393 L -144.346,0.217 M -141.471,0.128 L -139.649,0.072 L -130.262,0.182 L -120.555,0.125 L -110.501,-0.197 L -99.961,-0.041 L -89.622,0.031 M -209.833,29.713 L -199.908,30.239 L -199.908,30.239 L -189.937,29.383 L -179.953,30.194 L -169.927,29.611 L -166.164,29.758 M -162.11,29.916 L -160.092,29.995 L -149.952,29.959 L -139.897,29.432 L -129.85,29.61 L -120.096,30.277 L -110.068,30.046 L -100.134,29.982 L -89.997,30.007 M -210.02,60.237 L -199.92,59.803 L -199.92,59.803 L -189.905,60.114 L -180.023,59.777 L -170.058,60.142 L -159.872,59.908 L -150.117,60.224 L -140.79,60.125 M -132.244,60.153 L -130.115,60.166 L -119.921,60.532 L -110.139,60.278 L -99.748,60.289 L -90.089,59.932 M -210.383,90.264 L -199.902,89.558 L -199.902,89.558 L -190.017,89.775 L -179.943,90.127 L -170.031,89.842 L -160.113,89.978 L -150.768,90.466 L -140.128,90.13 L -130.576,90.018 L -119.702,89.954 L -119.544,89.965 M -118.578,90.031 L -110.361,90.593 L -99.756,89.957 L -89.897,90.206 M -179.681,-29.711 L -179.796,-27.476 M -179.99,-23.709 L -180.172,-20.167 L -180.172,-20.167 L -180.212,-9.846 L -180.003,0.028 L -179.952,9.963 L -180.003,19.918 L -179.841,30.582 L -179.664,40.121 L -180.39,50.145 L -180.339,60.225 L -179.972,70.068 L -180.31,80.153 L -179.915,89.454 L -179.799,100.223 L -179.37,109.98 L -179.368,120.276 M -149.89,-29.981 L -150.032,-19.987 L -150.032,-19.987 L -149.999,-10.013 L -149.623,-0.144 L -149.932,10.974 M -149.911,11.856 L -149.683,19.695 L -150.114,29.95 L -149.697,39.765 L -150.044,49.389 L -149.829,60.024 L -149.993,70.007 L -149.839,80.178 L -149.47,90.235 L -149.675,99.922 L -150.094,109.911 L -150.005,120.05 M -119.98,-29.74 L -119.753,-20.387 L -119.753,-20.387 L -120.225,-10.115 L -120.132,0.363 L -120.017,8.964 M -119.977,14.71 L -119.947,20.103 L -120.001,30.17 L -120.096,39.926 L -120.5,50.487 L -120.279,60.143 L -120.059,69.899 L -119.963,80.065 L -119.082,89.848 L -119.157,100.063 L -119.957,110.075 L -120.002,120.028 M 119.973,0.044 L 129.737,-0.319 L 129.737,-0.319 L 139.487,-0.592 L 150.039,0.283 L 155.387,-0.109 M 158.416,-0.331 L 159.913,-0.441 L 170.044,-0.389 L 180.278,0.209 L 190.283,-0.392 L 200.086,-0.047 L 209.615,-0.145 L 219.938,0.103 L 229.975,0.179 L 240.432,-0.137 M 120.089,29.838 L 129.852,29.972 L 129.852,29.972 L 131.029,29.986 M 131.067,29.987 L 139.981,30.095 L 149.905,30.015 L 160.012,29.608 L 170.832,29.932 L 179.89,30.398 L 190.309,30.236 L 200.451,29.98 L 209.995,29.992 L 220.172,29.82 L 229.923,29.961 L 240.006,30.002 M 119.665,59.986 L 130.191,60.298 L 130.191,60.298 L 140.586,60.388 L 150.144,59.291 L 159.639,59.725 L 170.012,60.53 L 179.964,59.894 L 189.915,59.919 L 193.434,60.061 M 195.882,60.16 L 199.804,60.319 L 210.073,60.46 L 220.41,61.023 L 230.004,59.998 L 239.948,60.098 M 120.039,90.116 L 129.814,89.618 L 129.814,89.618 L 139.727,89.617 L 150,90 L 159.777,89.834 L 170.233,89.78 L 180.065,90.003 L 190.018,89.807 L 200.072,89.897 L 210.091,89.912 L 220.125,90.637 L 230.558,90.255 L 238.358,90.159 M 149.861,-29.827 L 149.937,-24.862 M 149.966,-22.98 L 150.013,-19.959 L 150.013,-19.959 L 149.513,-10.056 L 149.42,-0.131 L 150.039,10.29 L 150.517,20.412 L 150.098,30.287 L 149.995,39.92 L 150.469,50.207 L 149.668,59.954 L 150.282,69.715 L 150.146,79.902 L 150.002,89.859 L 150.519,100.798 L 149.922,110.416 L 150.008,116.774 M 180.287,-29.983 L 179.918,-19.427 L 179.918,-19.427 L 180.287,-10.458 L 180.081,-0.245 L 180.173,10.559 L 179.88,19.528 L 180.446,30.144 L 179.847,40.332 L 179.596,50.558 L 179.518,59.649 L 179.454,64.835 M 179.443,65.656 L 179.397,69.363 L 180.027,79.938 L 180.3,89.495 L 179.529,99.417 L 179.294,109.75 L 179.992,119.952 M 210.081,-30.126 L 210.312,-20.568 L 210.312,-20.568 L 209.949,-9.977 L 210.156,-0.105 L 210.391,9.753 L 209.375,20.191 L 209.233,30.26 L 209.996,39.886 L 209.838,49.906 L 209.955,53.139 M 210.129,57.931 L 210.198,59.827 L 209.878,70.161 L 210.467,79.962 L 209.411,89.878 L 210.38,100.143 L 209.435,109.848 L 210.041,119.921 M -0.446,300.066 L 9.741,300.013 L 9.741,300.013 L 19.969,300.029 L 29.888,299.926 M 0.006,329.979 L 9.996,330.038 L 9.996,330.038 L 14.987,329.831 M 19.811,329.68 L 29.945,330.134 M 60.401,299.729 L 70.595,299.861 L 70.595,299.861 L 80.296,299.857 L 89.983,300.14 L 100.09,299.81 L 110.139,300.067 L 120.507,300.055 M 60.231,330.089 L 70.02,330.082 L 70.02,330.082 L 79.998,330.029 L 84.901,330.045 M 87.269,330.053 L 90.088,330.062 L 100.156,330.15 L 110.229,329.506 L 119.894,329.806 M 90.022,270.295 L 89.514,280.451 L 89.514,280.451 L 90.003,290 L 89.782,299.666 L 90.243,309.812 L 89.862,319.479 L 89.875,330.958 L 89.93,332.463 M 89.957,333.219 L 90.188,339.589 L 89.995,349.978 L 90.444,359.934 M -90.048,299.99 L -79.994,300.031 L -79.994,300.031 L -70.657,299.919 L -59.994,299.962 L -49.484,299.55 L -39.566,300.15 L -29.579,299.552 M -89.846,329.838 L -80.151,330.233 L -80.151,330.233 L -70.107,329.904 L -65.179,329.995 M -61.624,330.062 L -60.195,330.088 L -50.122,329.884 L -39.954,330.378 L -30.181,329.774 M -60.015,270.031 L -59.288,280.318 L -59.288,280.318 L -60.027,290.067 L -59.391,299.792 L -59.651,306.039 M -59.671,306.524 L -59.81,309.876 L -59.991,320.04 L -59.595,329.675 L -59.676,339.547 L -59.963,349.967 L -60.472,360.032 M -59.943,419.953 L -51.079,420.29 M -50.304,420.319 L -50.176,420.324 L -50.176,420.324 L -39.902,420.544 L -29.987,419.893 L -19.985,420.006 L -10.204,420.659 L -0.627,420.477 L 9.875,420.06 L 19.336,420.363 L 30.054,419.864 L 40.071,419.491 L 49.871,419.675 L 59.649,419.72 L 70.43,420.283 L 80.022,420.053 L 89.977,420.928 M -59.88,449.075 L -49.843,449.811 L -49.843,449.811 L -39.722,449.933 L -33.155,450.177 M -30.801,450.264 L -29.709,450.305 L -20.008,450.003 L -10.13,449.694 L 0.104,449.927 L 9.611,449.355 L 20.01,449.795 L 29.854,449.841 L 40.01,449.973 L 50.058,450.002 L 60.014,449.971 L 70.084,450.306 L 78.958,449.704 L 89.96,449.96 M -60.306,480.396 L -50.179,480.058 L -50.179,480.058 L -40.025,479.576 L -29.62,480.272 L -19.992,480.033 L -9.854,479.934 L 0.29,479.644 L 9.672,479.878 L 20.598,479.45 L 29.947,480.003 L 39.423,479.952 M 41.678,479.878 L 50.126,479.547 L 59.704,480.765 L 69.954,480.001 L 79.895,480.063 L 89.76,480.245 M -59.916,510.01 L -49.82,510.139 L -49.82,510.139 L -40.321,510.083 L -32.062,509.666 M -29.77,509.559 L -20.063,510.102 L -9.933,510.137 L 0.014,509.987 L 10.205,509.433 L 19.712,509.801 L 29.956,510.145 L 40.169,509.783 L 50.025,510.376 L 60.48,509.627 L 69.75,510.069 L 80.004,509.887 L 89.845,510.074 M -59.838,540.482 L -50.125,539.654 L -50.125,539.654 L -39.987,540 L -30.68,539.616 L -25.621,540.242 M -23.791,540.468 L -20.138,540.92 L -9.984,540.029 L 0.289,540.04 L 10.069,539.985 L 19.726,539.96 L 30.003,539.973 L 40.178,539.838 L 50.033,540.244 L 60.105,540.079 L 70.124,540.234 L 80.043,540.333 L 89.965,541.076 M -29.919,389.987 L -29.921,397.566 M -29.942,403.583 L -29.983,410.064 L -29.996,420.058 L -29.205,429.692 L -30.228,440.021 L -30.031,449.95 L -29.861,460.24 L -29.977,469.421 L -30.06,480.007 L -30.158,490.05 L -29.263,499.952 L -29.428,509.318 L -29.812,519.862 L -30.15,529.805 L -30.397,539.973 L -30.668,550.4 L -29.778,559.787 L -29.906,569.818 M -0.144,389.71 L 0.185,400.166 L 0.185,400.166 L -0.177,410.362 L -0.21,420.234 L -0.188,430.157 L 0.191,439.789 L -0.385,450.602 M -0.057,455.648 L 0.24,459.807 L -0.021,470.092 L -0.423,480.177 L -0.214,489.874 L -0.122,499.926 L 0.404,510.77 L -0.256,520.141 L -0.268,529.847 L -0.182,540.069 L 0.016,550.366 L -0.306,559.791 L -0.353,570.625 M 30.22,389.746 L 29.826,400.028 L 29.826,400.028 L 30.093,409.819 L 30.055,419.997 L 29.937,429.953 L 30.318,439.783 L 29.629,450.32 L 29.822,460.619 L 30.26,469.893 L 29.918,480.244 L 30.058,487.28 M 30.132,493.29 L 30.171,499.835 L 30.286,509.908 L 30.006,520.125 L 29.859,530 L 29.994,540.004 L 29.93,550.042 L 30.016,560.054 L 29.717,569.862 M 59.76,390.058 L 60.216,399.754 L 60.216,399.754 L 60.468,410.704 L 60.01,419.746 L 60.033,430.04 L 59.835,440.197 L 60.116,449.575 L 59.614,459.81 L 59.701,470.612 L 59.68,479.933 L 59.646,482.167 M 59.582,486.301 L 59.521,490.352 L 59.957,499.994 L 60.119,510.567 L 59.664,519.653 L 59.724,530.129 L 60.142,539.944 L 60,549.907 L 60.037,560.042 L 59.997,570.004 M 30.102,30.173 L 19.784,30.132 L 19.784,30.132 L 9.824,30.368 L 0.061,30.165 M -90.69,60.434 L -90.044,50.108 L -90.044,50.108 L -90.175,40.148 L -90.414,30.129 M -60.179,29.968 L -59.923,40.214 L -59.923,40.214 L -60.52,50.136 L -59.947,60.187 M 119.894,29.529 L 120.106,35.102 M 120.131,35.756 L 120.284,39.755 L 120.284,39.755 L 120.369,50.201 L 120.004,60.03 M 89.783,59.836 L 89.963,50.088 L 89.963,50.088 L 89.96,39.743 L 90.027,30.485 M 29.495,269.352 L 20.939,270.169 L 20.939,270.169 L 9.871,270.006 L -0.221,269.98 M -0.087,240.495 L 9.639,240.414 L 9.639,240.414 L 19.474,239.624 L 29.992,240.218 M 59.802,299.73 L 59.702,309.967 L 59.702,309.967 L 59.999,319.998 L 59.445,329.736 M 29.993,330.186 L 29.858,325.154 M 29.819,323.683 L 29.719,319.954 L 29.719,319.954 L 30.42,310.048 L 30.22,299.476 M -29.923,329.777 L -29.432,320.458 L -29.432,320.458 L -29.971,309.979 L -30.324,300.23 M 30.108,390.016 L 19.418,389.852 L 19.418,389.852 L 10.037,390.063 L -0.026,389.97 M -0.165,359.129 L 10.285,359.62 L 10.285,359.62 L 19.594,359.795 L 30.035,359.5" stroke="#000000" stroke-width="0.3"/></g><g clip-path="url(#instance17)"><path d=" M 0,0"/><clipPath id="instance17" fill="#FFFFFF"><path d=" M 0,0"/><path d=" M -60,240 L -60,30 L 90,30 L 90,240 L -60,240" fill="#FF0000"/><path d=" M -210,120 L -210,-30 L -90,-30 L -90,120 L -210,120" fill="#FF0000"/><path d=" M 120,120 L 120,-30 L 240,-30 L 240,120 L 120,120" fill="#FF0000"/><path d=" M 0,360 L 0,270 L 30,270 L 30,360 L 0,360" fill="#FF0000"/><path d=" M 60,360 L 60,270 L 120,270 L 120,360 L 60,360" fill="#FF0000"/><path d=" M -90,360 L -90,270 L -30,270 L -30,360 L -90,360" fill="#FF0000"/><path d=" M -60,570 L -60,390 L 90,390 L 90,570 L -60,570" fill="#FF0000"/><path d=" M 0,30 L 0,0 L 30,0 L 30,30 L 0,30" fill="#FF0000"/><path d=" M -67.5,30 L -60,30 L -60,60 L -67.5,60 L -67.5,54 L -82.5,54 L -82.5,60 L -90,60 L -90,30 L -82.5,30 L -82.5,36 L -67.5,36 L -67.5,30" fill="#FF0000"/><path d=" M 97.5,60 L 90,60 L 90,30 L 97.5,30 L 97.5,36 L 112.5,36 L 112.5,30 L 120,30 L 120,60 L 112.5,60 L 112.5,54 L 97.5,54 L 97.5,60" fill="#FF0000"/><path d=" M 0,247.5 L 0,240 L 30,240 L 30,247.5 L 24,247.5 L 24,262.5 L 30,262.5 L 30,270 L 0,270 L 0,262.5 L 6,262.5 L 6,247.5 L 0,247.5" fill="#FF0000"/><path d=" M 37.5,330 L 30,330 L 30,300 L 37.5,300 L 37.5,306 L 52.5,306 L 52.5,300 L 60,300 L 60,330 L 52.5,330 L 52.5,324 L 37.5,324 L 37.5,330" fill="#FF0000"/><path d=" M -30,330 L -30,300 L 0,300 L 0,330 L -30,330" fill="#FF0000"/><path d=" M 0,367.5 L 0,360 L 30,360 L 30,367.5 L 24,367.5 L 24,382.5 L 30,382.5 L 30,390 L 0,390 L 0,382.5 L 6,382.5 L 6,367.5 L 0,367.5" fill="#FF0000"/></clipPath></g><g><path d=" M 0,0"/><path d=" M -58.937,226.292 L -58.812,226.167 L -58.625,228.087 L -58.375,232.052 L -57.765,235.089 L -56.794,237.196 L -55.462,238.375 L -53.77,238.625 L -52.987,238.813 L -53.112,238.938 L -54.631,239 L -59,239 L -59,229.516 L -58.937,226.292 M 77.474,238.938 L 77.349,238.813 L 79.072,238.625 L 82.643,238.375 L 85.384,237.164 L 87.295,234.991 L 88.375,231.856 L 88.625,227.761 L 88.813,225.775 L 88.938,225.9 L 89,229.222 L 89,239 L 80.402,239 L 77.474,238.938" fill="#000000"/><path d=" M -198.345,-28.937 L -198.22,-28.812 L -199.798,-28.625 L -203.079,-28.375 L -205.602,-26.85 L -207.367,-24.051 L -208.375,-19.978 L -208.625,-14.63 L -208.812,-12.018 L -208.937,-12.143 L -209,-16.404 L -209,-29 L -201.056,-29 L -198.345,-28.937 M -91.062,-21.773 L -91.187,-21.648 L -91.375,-22.655 L -91.625,-24.793 L -92.557,-26.459 L -94.172,-27.653 L -96.47,-28.375 L -99.449,-28.625 L -100.877,-28.812 L -100.752,-28.937 L -98.267,-29 L -91,-29 L -91,-23.627 L -91.062,-21.773 M -208.937,110.671 L -208.812,110.546 L -208.625,111.736 L -208.375,114.242 L -207.292,116.183 L -205.377,117.561 L -202.628,118.375 L -199.047,118.625 L -197.319,118.813 L -197.444,118.938 L -200.38,119 L -209,119 L -209,112.8 L -208.937,110.671 M -100.892,118.938 L -101.017,118.813 L -99.566,118.625 L -96.54,118.375 L -94.207,117.393 L -92.569,115.678 L -91.625,113.23 L -91.375,110.05 L -91.187,108.523 L -91.062,108.648 L -91,111.283 L -91,119 L -98.372,119 L -100.892,118.938" fill="#000000"/><path d=" M 133.118,-28.937 L 133.243,-28.812 L 131.421,-28.625 L 127.653,-28.375 L 124.764,-27.248 L 122.755,-25.245 L 121.625,-22.365 L 121.375,-18.609 L 121.188,-16.793 L 121.063,-16.918 L 121,-19.985 L 121,-29 L 130.042,-29 L 133.118,-28.937 M 238.938,-18.902 L 238.813,-18.777 L 238.625,-20.262 L 238.375,-23.357 L 237.901,-25.741 L 237.204,-27.414 L 236.283,-28.375 L 235.138,-28.625 L 234.628,-28.812 L 234.753,-28.937 L 235.862,-29 L 239,-29 L 239,-21.473 L 238.938,-18.902 M 121.063,106.284 L 121.188,106.159 L 121.375,108.081 L 121.625,112.048 L 122.595,115.087 L 124.286,117.196 L 126.696,118.375 L 129.827,118.625 L 131.33,118.813 L 131.205,118.938 L 128.607,119 L 121,119 L 121,109.51 L 121.063,106.284 M 226.304,118.938 L 226.179,118.813 L 228.097,118.625 L 232.058,118.375 L 235.092,117.179 L 237.197,115.036 L 238.375,111.947 L 238.625,107.912 L 238.813,105.957 L 238.938,106.082 L 239,109.358 L 239,119 L 229.525,119 L 226.304,118.938" fill="#000000"/><path d=" M 74.613,271.063 L 74.738,271.188 L 72.667,271.375 L 68.4,271.625 L 65.138,272.241 L 62.879,273.224 L 61.625,274.574 L 61.375,276.29 L 61.188,277.085 L 61.063,276.96 L 61,275.423 L 61,271 L 71.163,271 L 74.613,271.063 M 118.938,284.867 L 118.813,284.992 L 118.625,282.878 L 118.375,278.527 L 117.213,275.201 L 115.138,272.9 L 112.151,271.625 L 108.252,271.375 L 106.365,271.188 L 106.49,271.063 L 109.664,271 L 119,271 L 119,281.353 L 118.938,284.867 M 61.063,351.727 L 61.188,351.602 L 61.375,352.616 L 61.625,354.77 L 62.581,356.447 L 64.243,357.649 L 66.611,358.375 L 69.686,358.625 L 71.16,358.813 L 71.035,358.938 L 68.48,359 L 61,359 L 61,353.592 L 61.063,351.727 M 110.76,358.938 L 110.635,358.813 L 111.811,358.625 L 114.286,358.375 L 116.206,357.345 L 117.569,355.534 L 118.375,352.942 L 118.625,349.571 L 118.813,347.947 L 118.938,348.072 L 119,350.851 L 119,359 L 112.867,359 L 110.76,358.938" fill="#000000"/><path d=" M -80.469,271.063 L -80.344,271.188 L -81.568,271.375 L -84.141,271.625 L -86.133,273.136 L -87.544,275.908 L -88.375,279.94 L -88.625,285.234 L -88.812,287.818 L -88.937,287.693 L -89,283.473 L -89,271 L -82.649,271 L -80.469,271.063 M -31.062,282.85 L -31.187,282.975 L -31.375,281.198 L -31.625,277.519 L -32.683,274.697 L -34.549,272.732 L -37.223,271.625 L -40.704,271.375 L -42.383,271.188 L -42.258,271.063 L -39.396,271 L -31,271 L -31,279.84 L -31.062,282.85 M -88.937,349.526 L -88.812,349.401 L -88.625,350.782 L -88.375,353.669 L -87.229,355.897 L -85.186,357.466 L -82.246,358.375 L -78.41,358.625 L -76.555,358.813 L -76.68,358.938 L -79.807,359 L -89,359 L -89,351.941 L -88.937,349.526 M -38.724,358.938 L -38.849,358.813 L -37.759,358.625 L -35.456,358.375 L -33.665,357.659 L -32.388,356.477 L -31.625,354.828 L -31.375,352.714 L -31.187,351.719 L -31.062,351.844 L -31,353.68 L -31,359 L -36.746,359 L -38.724,358.938" fill="#000000"/><path d=" M -47.43,391.063 L -47.305,391.188 L -49.036,391.375 L -52.621,391.625 L -55.373,392.277 L -57.291,393.332 L -58.375,394.788 L -58.625,396.647 L -58.812,397.514 L -58.937,397.389 L -59,395.745 L -59,391 L -50.37,391 L -47.43,391.063 M 88.938,402.164 L 88.813,402.289 L 88.625,400.626 L 88.375,397.176 L 87.586,394.525 L 86.259,392.675 L 84.393,391.625 L 81.989,391.375 L 80.849,391.188 L 80.974,391.063 L 83.028,391 L 89,391 L 89,399.326 L 88.938,402.164 M -58.937,551.473 L -58.812,551.348 L -58.625,554.072 L -58.375,559.643 L -57.71,563.884 L -56.629,566.795 L -55.134,568.375 L -53.223,568.625 L -52.33,568.813 L -52.455,568.938 L -54.138,569 L -59,569 L -59,555.902 L -58.937,551.473 M 72.17,568.938 L 72.045,568.813 L 74.652,568.625 L 79.991,568.375 L 84.058,567.041 L 86.853,564.623 L 88.375,561.122 L 88.625,556.537 L 88.813,554.306 L 88.938,554.431 L 89,558.12 L 89,569 L 76.424,569 L 72.17,568.938" fill="#000000"/></g><g><path d=" M 0,0"/><path d=" M 75.074,192.786 L 76.278,192.823 L 77.773,193.458 L 79.562,194.69 L 80.573,195.872 L 80.807,197.004 L 80.263,198.086 L 78.942,199.117 L 77.68,199.614 L 76.476,199.577 L 75.332,199.004 L 74.247,197.897 L 73.587,196.778 L 73.354,195.646 L 73.546,194.502 L 74.164,193.345 L 75.074,192.786" fill="#FFFFFF" stroke="#000000" stroke-width="1"/><path d=" M 85.166,177.719 L 84.693,177.377 L 84.41,176.838 L 84.316,176.101 L 84.479,175.531 L 84.9,175.126 L 85.577,174.888 L 86.513,174.815 L 87.216,174.95 L 87.689,175.291 L 87.93,175.84 L 87.939,176.596 L 87.734,177.176 L 87.313,177.581 L 86.678,177.81 L 85.827,177.863 L 85.166,177.719" fill="#FFFFFF" stroke="#000000" stroke-width="1"/><path d=" M -44.083,70.627 L -42.485,70.018 L -40.47,69.989 L -38.039,70.541 L -36.351,71.546 L -35.406,73.007 L -35.205,74.921 L -35.747,77.291 L -36.817,78.78 L -38.414,79.389 L -40.54,79.118 L -43.193,77.967 L -44.991,76.661 L -45.936,75.201 L -46.027,73.586 L -45.263,71.817 L -44.083,70.627" fill="#FFFFFF" stroke="#000000" stroke-width="1"/><path d=" M -51.766,235.001 L -52.261,233.068 L -52.029,230.727 L -51.069,227.979 L -49.68,226.153 L -47.861,225.25 L -45.613,225.269 L -42.936,226.21 L -41.35,227.648 L -40.854,229.581 L -41.449,232.011 L -43.134,234.937 L -44.885,236.851 L -46.704,237.755 L -48.589,237.647 L -50.541,236.528 L -51.766,235.001" fill="#FFFFFF" stroke="#000000" stroke-width="1"/><path d=" M -48.499,32.189 L -48.295,31.716 L -47.886,31.369 L -47.27,31.146 L -46.747,31.176 L -46.317,31.46 L -45.981,31.998 L -45.739,32.79 L -45.719,33.422 L -45.922,33.894 L -46.348,34.208 L -46.998,34.361 L -47.537,34.296 L -47.966,34.012 L -48.286,33.509 L -48.495,32.787 L -48.499,32.189" fill="#FFFFFF" stroke="#000000" stroke-width="1"/><path d=" M -176.353,103.605 L -174.575,104.043 L -173.114,105.279 L -171.971,107.314 L -171.774,109.168 L -172.522,110.842 L -174.215,112.336 L -176.854,113.65 L -179.062,114.088 L -180.841,113.65 L -182.19,112.335 L -183.109,110.145 L -183.195,108.212 L -182.447,106.538 L -180.865,105.122 L -178.45,103.965 L -176.353,103.605" fill="#FFFFFF" stroke="#000000" stroke-width="1"/><path d=" M -185.528,-21.643 L -185.302,-22.966 L -184.372,-24.521 L -182.738,-26.307 L -181.278,-27.243 L -179.992,-27.328 L -178.881,-26.562 L -177.944,-24.945 L -177.588,-23.475 L -177.814,-22.152 L -178.621,-20.976 L -180.01,-19.947 L -181.347,-19.39 L -182.633,-19.305 L -183.867,-19.692 L -185.05,-20.552 L -185.528,-21.643" fill="#FFFFFF" stroke="#000000" stroke-width="1"/><path d=" M -104.503,82.443 L -103.764,82.592 L -103.005,83.056 L -102.227,83.834 L -101.834,84.607 L -101.826,85.375 L -102.201,86.137 L -102.962,86.894 L -103.712,87.197 L -104.452,87.048 L -105.181,86.447 L -105.9,85.392 L -106.264,84.481 L -106.273,83.714 L -105.926,83.09 L -105.224,82.609 L -104.503,82.443" fill="#FFFFFF" stroke="#000000" stroke-width="1"/><path d=" M -169.023,-19.04 L -168.54,-18.866 L -168.169,-18.478 L -167.909,-17.878 L -167.908,-17.355 L -168.165,-16.909 L -168.681,-16.542 L -169.455,-16.252 L -170.084,-16.194 L -170.567,-16.368 L -170.905,-16.774 L -171.098,-17.412 L -171.066,-17.953 L -170.808,-18.399 L -170.326,-18.748 L -169.619,-19 L -169.023,-19.04" fill="#FFFFFF" stroke="#000000" stroke-width="1"/><path d=" M -206.926,-4.759 L -206.533,-4.687 L -206.075,-4.405 L -205.55,-3.913 L -205.277,-3.476 L -205.256,-3.094 L -205.488,-2.766 L -205.972,-2.494 L -206.41,-2.393 L -206.802,-2.465 L -207.148,-2.709 L -207.449,-3.125 L -207.61,-3.524 L -207.63,-3.907 L -207.511,-4.272 L -207.252,-4.62 L -206.926,-4.759" fill="#FFFFFF" stroke="#000000" stroke-width="1"/><path d=" M -180.696,91.246 L -179.881,88.908 L -178.032,87.099 L -175.149,85.819 L -172.629,85.788 L -170.471,87.007 L -168.675,89.475 L -167.241,93.192 L -166.931,96.22 L -167.746,98.558 L -169.686,100.207 L -172.751,101.167 L -175.362,101.037 L -177.521,99.818 L -179.226,97.511 L -180.478,94.114 L -180.696,91.246" fill="#FFFFFF" stroke="#000000" stroke-width="1"/><path d=" M -192.2,79.783 L -190.29,79.521 L -187.759,80.124 L -184.606,81.591 L -182.694,83.187 L -182.023,84.911 L -182.592,86.764 L -184.403,88.746 L -186.263,89.868 L -188.172,90.13 L -190.132,89.532 L -192.141,88.074 L -193.481,86.483 L -194.152,84.758 L -194.154,82.901 L -193.488,80.909 L -192.2,79.783" fill="#FFFFFF" stroke="#000000" stroke-width="1"/><path d=" M -96.052,82.01 L -95.69,82.191 L -95.323,82.596 L -94.951,83.225 L -94.809,83.728 L -94.897,84.107 L -95.216,84.361 L -95.765,84.489 L -96.221,84.463 L -96.583,84.281 L -96.851,83.945 L -97.027,83.454 L -97.07,83.019 L -96.982,82.64 L -96.761,82.318 L -96.409,82.052 L -96.052,82.01" fill="#FFFFFF" stroke="#000000" stroke-width="1"/><path d=" M -109.627,101.826 L -109.403,101.339 L -108.959,100.891 L -108.295,100.48 L -107.697,100.334 L -107.165,100.454 L -106.7,100.837 L -106.301,101.486 L -106.213,102.054 L -106.437,102.54 L -106.971,102.946 L -107.817,103.271 L -108.505,103.374 L -109.037,103.255 L -109.412,102.914 L -109.629,102.351 L -109.627,101.826" fill="#FFFFFF" stroke="#000000" stroke-width="1"/><path d=" M 218.159,101.36 L 218.49,101.18 L 218.883,101.167 L 219.338,101.319 L 219.624,101.574 L 219.742,101.932 L 219.69,102.393 L 219.47,102.958 L 219.195,103.33 L 218.863,103.509 L 218.476,103.495 L 218.034,103.288 L 217.754,103.006 L 217.636,102.648 L 217.681,102.214 L 217.889,101.704 L 218.159,101.36" fill="#FFFFFF" stroke="#000000" stroke-width="1"/><path d=" M 234.792,-17.461 L 235.727,-16.803 L 236.584,-15.519 L 237.362,-13.608 L 237.548,-12.143 L 237.144,-11.122 L 236.148,-10.547 L 234.561,-10.416 L 233.299,-10.68 L 232.363,-11.337 L 231.753,-12.388 L 231.469,-13.833 L 231.529,-15.066 L 231.934,-16.087 L 232.683,-16.895 L 233.777,-17.491 L 234.792,-17.461" fill="#FFFFFF" stroke="#000000" stroke-width="1"/><path d=" M 205.095,38.276 L 205.981,45 L 205.095,51.724 L 202.5,57.99 L 198.371,63.371 L 192.99,67.5 L 186.724,70.095 L 180,70.981 L 173.276,70.095 L 167.01,67.5 L 161.629,63.371 L 157.5,57.99 L 154.905,51.724 L 154.019,45 L 154.905,38.276 L 157.5,32.01 L 161.629,26.629 L 167.01,22.5 L 173.276,19.905 L 180,19.019 L 186.724,19.905 L 192.99,22.5 L 198.371,26.629 L 202.5,32.01 L 205.095,38.276" fill="#FFFFFF" stroke="#000000" stroke-width="1"/><path d=" M 200.076,39.621 L 200.785,45 L 200.076,50.379 L 198,55.392 L 194.697,59.697 L 190.392,63 L 185.379,65.076 L 180,65.785 L 174.621,65.076 L 169.608,63 L 165.303,59.697 L 162,55.392 L 159.924,50.379 L 159.215,45 L 159.924,39.621 L 162,34.608 L 165.303,30.303 L 169.608,27 L 174.621,24.924 L 180,24.215 L 185.379,24.924 L 190.392,27 L 194.697,30.303 L 198,34.608 L 200.076,39.621" fill="#EEEEEE" stroke="#000000" stroke-width="1"/><path d=" M 184.5,42.402 L 185.196,45 L 184.5,47.598 L 182.598,49.5 L 180,50.196 L 177.402,49.5 L 175.5,47.598 L 174.804,45 L 175.5,42.402 L 177.402,40.5 L 180,39.804 L 182.598,40.5 L 184.5,42.402" fill="#FFFFFF" stroke="#000000" stroke-width="1"/><path d=" M 28.136,355.583 L 28.631,355.91 L 28.943,356.447 L 29.07,357.192 L 28.929,357.78 L 28.518,358.21 L 27.838,358.482 L 26.89,358.596 L 26.167,358.489 L 25.672,358.162 L 25.403,357.614 L 25.361,356.845 L 25.545,356.245 L 25.956,355.815 L 26.593,355.555 L 27.456,355.464 L 28.136,355.583" fill="#FFFFFF" stroke="#000000" stroke-width="1"/><path d=" M 21.184,287.677 L 20.96,286.938 L 21.038,285.897 L 21.42,284.556 L 21.93,283.698 L 22.571,283.324 L 23.34,283.432 L 24.239,284.023 L 24.801,284.688 L 25.026,285.428 L 24.913,286.241 L 24.463,287.129 L 23.918,287.76 L 23.278,288.135 L 22.542,288.254 L 21.712,288.116 L 21.184,287.677" fill="#FFFFFF" stroke="#000000" stroke-width="1"/><path d=" M 94.618,342.737 L 94.579,340.384 L 95.636,338.165 L 97.788,336.079 L 100.026,335.226 L 102.35,335.606 L 104.76,337.219 L 107.257,340.065 L 108.525,342.665 L 108.564,345.018 L 107.373,347.124 L 104.954,348.983 L 102.582,349.723 L 100.258,349.343 L 97.981,347.843 L 95.752,345.223 L 94.618,342.737" fill="#FFFFFF" stroke="#000000" stroke-width="1"/><path d=" M 72.4,282.825 L 71.697,282.291 L 71.134,281.417 L 70.712,280.201 L 70.692,279.186 L 71.074,278.374 L 71.858,277.763 L 73.044,277.354 L 73.989,277.416 L 74.692,277.95 L 75.153,278.955 L 75.373,280.432 L 75.292,281.576 L 74.91,282.389 L 74.227,282.869 L 73.243,283.018 L 72.4,282.825" fill="#FFFFFF" stroke="#000000" stroke-width="1"/><path d=" M 67.789,353.587 L 68.112,353.782 L 68.323,354.115 L 68.423,354.585 L 68.347,354.962 L 68.097,355.245 L 67.673,355.434 L 67.073,355.53 L 66.612,355.481 L 66.29,355.285 L 66.105,354.944 L 66.059,354.457 L 66.161,354.072 L 66.411,353.789 L 66.809,353.608 L 67.355,353.528 L 67.789,353.587" fill="#FFFFFF" stroke="#000000" stroke-width="1"/><path d=" M -84.852,283.256 L -84.922,282.871 L -84.822,282.352 L -84.552,281.699 L -84.245,281.297 L -83.901,281.146 L -83.52,281.245 L -83.102,281.595 L -82.858,281.963 L -82.788,282.348 L -82.892,282.751 L -83.17,283.171 L -83.481,283.457 L -83.825,283.609 L -84.202,283.626 L -84.612,283.508 L -84.852,283.256" fill="#FFFFFF" stroke="#000000" stroke-width="1"/><path d=" M -51.639,293.504 L -51.855,291.755 L -51.388,289.732 L -50.237,287.434 L -48.814,285.992 L -47.12,285.406 L -45.154,285.677 L -42.916,286.803 L -41.689,288.241 L -41.473,289.99 L -42.268,292.05 L -44.073,294.422 L -45.823,295.901 L -47.518,296.486 L -49.156,296.179 L -50.739,294.979 L -51.639,293.504" fill="#FFFFFF" stroke="#000000" stroke-width="1"/><path d=" M -51.868,281.542 L -39.395,274.671 L -32.524,287.144 L -44.997,294.014 L -51.868,281.542" fill="#FFFFFF" stroke="#000000" stroke-width="1"/><path d=" M -37.105,278.828 L -49.577,285.699" stroke="#000000" stroke-width="1"/><path d=" M -34.815,282.986 L -47.287,289.857" stroke="#000000" stroke-width="1"/><path d=" M -43.435,450.263 L -44.108,449.102 L -44.385,447.544 L -44.265,445.59 L -43.699,444.155 L -42.686,443.238 L -41.228,442.84 L -39.323,442.961 L -38.034,443.602 L -37.36,444.763 L -37.302,446.445 L -37.859,448.646 L -38.643,450.205 L -39.656,451.121 L -40.896,451.396 L -42.364,451.027 L -43.435,450.263" fill="#FFFFFF" stroke="#000000" stroke-width="1"/><path d=" M 60,570 L -30,570 L -29.135,561.221 L -26.575,552.779 L -22.416,544.999 L -16.82,538.18 L -10.001,532.584 L -2.221,528.425 L 6.221,525.865 L 15,525 L 23.779,525.865 L 32.221,528.425 L 40.001,532.584 L 46.82,538.18 L 52.416,544.999 L 56.575,552.779 L 59.135,561.221 L 60,570" fill="#FFFFFF"/><path d=" M -30,570 L -29.135,561.221 L -26.575,552.779 L -22.416,544.999 L -16.82,538.18 L -10.001,532.584 L -2.221,528.425 L 6.221,525.865 L 15,525 L 23.779,525.865 L 32.221,528.425 L 40.001,532.584 L 46.82,538.18 L 52.416,544.999 L 56.575,552.779 L 59.135,561.221 L 60,570" stroke="#000000" stroke-width="1"/><path d=" M -22.5,570 L -21.779,562.684 L -19.645,555.649 L -16.18,549.166 L -11.517,543.483 L -5.834,538.82 L 0.649,535.355 L 7.684,533.221 L 15,532.5 L 22.316,533.221 L 29.351,535.355 L 35.834,538.82 L 41.517,543.483 L 46.18,549.166 L 49.645,555.649 L 51.779,562.684 L 52.5,570" stroke="#000000" stroke-width="1"/><path d=" M 7.5,549 L 22.5,549 L 22.5,561 L 7.5,561 L 7.5,549" fill="#FFFFFF" stroke="#000000" stroke-width="1"/><path d=" M 10.5,547.5 L 19.5,547.5 L 19.5,556.5 L 10.5,556.5 L 10.5,547.5" fill="#FFFFFF" stroke="#000000" stroke-width="1"/></g><g transform="translate(4.243 4.243)" clip-path="url(#instance21)"><path d=" M 0,0"/><clipPath id="instance21" fill="#FFFFFF" transform="translate(-4.243 -4.243)"><path d=" M 0,0"/></clipPath></g><g><path d=" M 0,0"/><path d=" M 3,6 L 27,6 M 6,12 L 24,12 M 9,18 L 21,18 M 12,24 L 18,24" stroke="#000000" stroke-width="1"/><path d=" M 5,251.25 L 25,251.25 L 25,258.75 L 5,258.75 L 5,251.25 M 15,251.25 L 15,258.75" fill="#FFFFFF" stroke="#000000" stroke-width="2"/><path d=" M 41.25,305 L 48.75,305 L 48.75,325 L 41.25,325 L 41.25,305" fill="#FFFFFF" stroke="#000000" stroke-width="2"/><path d=" M 0,330 L 0,300 M -6,328.002 L -6,301.998 M -12,326.004 L -12,303.996 M -18,324.006 L -18,305.994 M -24,322.008 L -24,307.992 M -30,320.01 L -30,309.99" stroke="#000000" stroke-width="1"/><path d=" M 5,371.25 L 25,371.25 L 25,378.75 L 5,378.75 L 5,371.25" fill="#FFFFFF" stroke="#000000" stroke-width="2"/></g></g></g></svg>