<?xml version="1.0" encoding="UTF-8" standalone="no"?><svg width="1848" height="995" xmlns="http://www.w3.org/2000/svg" stroke-linejoin="round" stroke-linecap="round" fill-rule="evenodd" fill="none"><rect x="0" y="0" width="1848" height="995" fill="#FFFFFF"/><style/><defs/><g><path d=" M 0,0"/><g transform="translate(707.468 916.129) scale(0.962 0.962)"><path d=" M 0,0"/><g><path d=" M 0,0"/></g><g><path d=" M 0,0"/><path d=" M -60,0 L -60,-120 L 90,-120 L 90,0 L -60,0 M 30,-150 L 30,-180 L 60,-180 L 60,-150 L 30,-150 M 30,-210 L 30,-300 L 60,-300 L 60,-210 L 30,-210 M 0,-330 L 0,-510 L 90,-510 L 90,-330 L 0,-330 M 0,-540 L 0,-750 L 90,-750 L 90,-540 L 0,-540 M 30,-780 L 30,-810 L 60,-810 L 60,-780 L 30,-780 M 90,-780 L 90,-810 L 120,-810 L 120,-780 L 90,-780 M 150,-720 L 150,-870 L 240,-870 L 240,-720 L 150,-720 M 270,-720 L 270,-870 L 330,-870 L 330,-720 L 270,-720 M 360,-720 L 360,-870 L 510,-870 L 510,-720 L 360,-720 M 0,30 L 0,0 L 30,0 L 30,30 L 0,30 M 60,-127.5 L 60,-120 L 30,-120 L 30,-127.5 L 36,-127.5 L 36,-142.5 L 30,-142.5 L 30,-150 L 60,-150 L 60,-142.5 L 54,-142.5 L 54,-127.5 L 60,-127.5 M 30,-180 L 30,-210 L 60,-210 L 60,-180 L 30,-180 M 60,-307.5 L 60,-300 L 30,-300 L 30,-307.5 L 36,-307.5 L 36,-322.5 L 30,-322.5 L 30,-330 L 60,-330 L 60,-322.5 L 54,-322.5 L 54,-307.5 L 60,-307.5 M 60,-517.5 L 60,-510 L 30,-510 L 30,-517.5 L 36,-517.5 L 36,-532.5 L 30,-532.5 L 30,-540 L 60,-540 L 60,-532.5 L 54,-532.5 L 54,-517.5 L 60,-517.5 M 30,-750 L 30,-780 L 60,-780 L 60,-750 L 30,-750 M 60,-780 L 60,-810 L 90,-810 L 90,-780 L 60,-780 M 120,-780 L 120,-810 L 150,-810 L 150,-780 L 120,-780 M 247.5,-780 L 240,-780 L 240,-810 L 247.5,-810 L 247.5,-804 L 262.5,-804 L 262.5,-810 L 270,-810 L 270,-780 L 262.5,-780 L 262.5,-786 L 247.5,-786 L 247.5,-780 M 330,-780 L 330,-810 L 360,-810 L 360,-780 L 330,-780" stroke="#000000" stroke-width="4"/><path d=" M -60,0 L -60,-120 L 90,-120 L 90,0 L -60,0" fill="#FFFFFF"/><path d=" M 30,-150 L 30,-180 L 60,-180 L 60,-150 L 30,-150" fill="#FFFFFF"/><path d=" M 30,-210 L 30,-300 L 60,-300 L 60,-210 L 30,-210" fill="#FFFFFF"/><path d=" M 0,-330 L 0,-510 L 90,-510 L 90,-330 L 0,-330" fill="#FFFFFF"/><path d=" M 0,-540 L 0,-750 L 90,-750 L 90,-540 L 0,-540" fill="#FFFFFF"/><path d=" M 30,-780 L 30,-810 L 60,-810 L 60,-780 L 30,-780" fill="#FFFFFF"/><path d=" M 90,-780 L 90,-810 L 120,-810 L 120,-780 L 90,-780" fill="#FFFFFF"/><path d=" M 150,-720 L 150,-870 L 240,-870 L 240,-720 L 150,-720" fill="#FFFFFF"/><path d=" M 270,-720 L 270,-870 L 330,-870 L 330,-720 L 270,-720" fill="#FFFFFF"/><path d=" M 360,-720 L 360,-870 L 510,-870 L 510,-720 L 360,-720" fill="#FFFFFF"/><path d=" M 0,30 L 0,0 L 30,0 L 30,30 L 0,30" fill="#FFFFFF"/><path d=" M 60,-127.5 L 60,-120 L 30,-120 L 30,-127.5 L 36,-127.5 L 36,-142.5 L 30,-142.5 L 30,-150 L 60,-150 L 60,-142.5 L 54,-142.5 L 54,-127.5 L 60,-127.5" fill="#FFFFFF"/><path d=" M 30,-180 L 30,-210 L 60,-210 L 60,-180 L 30,-180" fill="#FFFFFF"/><path d=" M 60,-307.5 L 60,-300 L 30,-300 L 30,-307.5 L 36,-307.5 L 36,-322.5 L 30,-322.5 L 30,-330 L 60,-330 L 60,-322.5 L 54,-322.5 L 54,-307.5 L 60,-307.5" fill="#FFFFFF"/><path d=" M 60,-517.5 L 60,-510 L 30,-510 L 30,-517.5 L 36,-517.5 L 36,-532.5 L 30,-532.5 L 30,-540 L 60,-540 L 60,-532.5 L 54,-532.5 L 54,-517.5 L 60,-517.5" fill="#FFFFFF"/><path d=" M 30,-750 L 30,-780 L 60,-780 L 60,-750 L 30,-750" fill="#FFFFFF"/><path d=" M 60,-780 L 60,-810 L 90,-810 L 90,-780 L 60,-780" fill="#FFFFFF"/><path d=" M 120,-780 L 120,-810 L 150,-810 L 150,-780 L 120,-780" fill="#FFFFFF"/><path d=" M 247.5,-780 L 240,-780 L 240,-810 L 247.5,-810 L 247.5,-804 L 262.5,-804 L 262.5,-810 L 270,-810 L 270,-780 L 262.5,-780 L 262.5,-786 L 247.5,-786 L 247.5,-780" fill="#FFFFFF"/><path d=" M 330,-780 L 330,-810 L 360,-810 L 360,-780 L 330,-780" fill="#FFFFFF"/><path d=" M 0,0 L 30,0 M 30,-150 L 60,-150 M 30,-120 L 60,-120 M 30,-210 L 60,-210 M 30,-180 L 60,-180 M 30,-330 L 60,-330 M 30,-300 L 60,-300 M 30,-540 L 60,-540 M 30,-510 L 60,-510 M 30,-780 L 60,-780 M 30,-750 L 60,-750 M 90,-810 L 90,-780 M 60,-810 L 60,-780 M 150,-810 L 150,-780 M 120,-810 L 120,-780 M 270,-810 L 270,-780 M 240,-810 L 240,-780 M 360,-810 L 360,-780 M 330,-810 L 330,-780" stroke="#FFFFFF" stroke-width="1" stroke-linejoin="round" stroke-linecap="butt"/></g><g><path d=" M 0,0"/><path d=" M -61,-88.926 L -61,-87.412 L -60.069,-87.443 L -54.287,-86.522 L -49.901,-90.034 L -45.785,-86.393 L -40.494,-88.771 L -40.494,-88.771 L -45.706,-86.818 L -49.847,-90.981 L -54.554,-87.681 L -59.931,-88.894 L -61,-88.926" fill="#000000"/><path d=" M -1,-468.497 L -1,-467.01 L -0.243,-467.042 L 4.442,-463.655 L 8.688,-467.683 L 14.068,-466.978 L 19.658,-467.208 L 19.658,-467.208 L 14.095,-467.334 L 8.468,-468.44 L 4.392,-465.042 L 0.243,-468.466 L -1,-468.497" fill="#000000"/><path d=" M 183.761,-719 L 184.166,-719 L 184.137,-719.974 L 184.935,-722.906 L 183.976,-725.816 L 183.976,-725.816 L 184.753,-722.906 L 183.789,-720.026 L 183.761,-719" fill="#000000"/><path d=" M 444.845,-871 L 444.443,-871 L 444.472,-870.041 L 443.213,-867.323 L 443.527,-864.304 L 443.527,-864.304 L 443.388,-867.289 L 444.816,-869.959 L 444.845,-871" fill="#000000"/><path d=" M -60.057,-90.095 L -50.003,-90.006 L -50.003,-90.006 L -39.963,-90.223 L -29.719,-90.085 L -20.859,-90.16 L -9.971,-90.193 L -0.063,-89.87 L 9.403,-90.08 M 10.527,-90.096 L 19.649,-90.06 L 29.953,-89.963 L 40.086,-90.025 L 49.482,-90.143 L 60.179,-89.996 L 70.267,-89.95 L 79.912,-89.428 L 90.374,-89.443 M -60.231,-59.473 L -50.024,-60.384 L -50.024,-60.384 L -39.985,-60.025 L -29.946,-59.751 L -19.829,-59.641 L -15.106,-59.809 M -12.36,-59.907 L -10.065,-59.989 L -0.184,-59.619 L 10.057,-59.97 L 20.013,-59.981 L 29.722,-60.124 L 39.253,-59.86 L 49.634,-60.676 L 60.096,-59.974 L 69.999,-59.445 L 79.946,-60.102 L 90.577,-60.553 M -60.02,-29.988 L -50.4,-30.298 L -50.4,-30.298 L -39.847,-29.703 L -29.78,-30.241 L -19.988,-30.013 L -10.04,-29.974 L -0.03,-30.254 L 10.502,-29.817 L 19.655,-29.851 L 30.237,-29.542 L 39.995,-29.53 L 50.081,-29.808 L 51.38,-29.805 M 54.955,-29.798 L 59.5,-29.789 L 70.584,-29.795 L 80.406,-30.121 L 90.005,-30.002 M -29.413,-119.973 L -29.519,-109.776 L -29.519,-109.776 L -29.68,-100.197 L -29.866,-90.082 L -29.982,-80.252 L -30.03,-70.52 M -30.077,-68.076 L -30.248,-59.852 L -29.88,-50.03 L -30.027,-40.088 L -29.612,-30.276 L -29.97,-20.002 L -30.027,-9.984 L -30.212,-0.249 M 0.229,-120.368 L 0.887,-110.053 L 0.887,-110.053 L 0.005,-100.313 L 0.316,-89.848 L 0.006,-80.066 L -0.5,-69.364 L -0.168,-60.096 L -0.131,-50.362 L -0.192,-45.765 M -0.252,-41.205 L -0.271,-39.801 L 0.375,-29.918 L 0.007,-19.911 L 0.238,-9.763 L 0.144,0.387 M 29.521,-120.298 L 29.901,-109.896 L 29.901,-109.896 L 29.982,-99.981 L 29.651,-90.071 L 29.982,-79.291 M 29.982,-79.271 L 29.987,-79.118 L 30.141,-69.919 L 30.015,-59.955 L 29.959,-50.004 L 29.648,-39.859 L 30.181,-30.199 L 29.783,-19.479 L 30.111,-10.157 L 30.407,0.536 M 60.491,-120.341 L 60.189,-115.596 M 59.881,-110.742 L 59.833,-109.984 L 59.833,-109.984 L 59.866,-99.573 L 59.921,-89.412 L 59.999,-80.001 L 59.235,-69.698 L 59.348,-59.392 L 60.086,-50.224 L 59.743,-40.174 L 60.056,-29.997 L 59.809,-20.241 L 60.029,-10.176 L 59.944,0.138 M 29.819,-270.236 L 40.383,-270.294 L 40.383,-270.294 L 50.338,-270.375 L 60.04,-269.979 M 30.434,-240.283 L 39.729,-239.739 L 39.729,-239.739 L 50.002,-240.078 L 59.742,-240.667 M 0.666,-479.878 L 9.984,-480.106 L 9.984,-480.106 L 20.511,-479.618 L 29.879,-479.354 L 39.986,-480.041 L 43.044,-479.981 M 45.271,-479.937 L 49.909,-479.847 L 59.991,-479.863 L 69.731,-479.801 L 80.027,-480.071 L 89.928,-479.6 M -0.728,-449.703 L 9.642,-449.697 L 9.642,-449.697 L 20.054,-449.983 L 29.252,-449.874 L 39.671,-449.983 L 49.946,-449.988 L 59.999,-450.013 L 70.093,-449.958 L 80.025,-450.098 L 90.036,-449.946 M 0.041,-419.974 L 9.815,-420.613 L 9.815,-420.613 L 19.987,-420.453 L 30.001,-420.179 L 40.485,-419.223 L 49.692,-420.188 L 59.945,-420.146 L 69.801,-419.865 L 79.741,-420.453 L 90.183,-419.803 M 0.106,-390.222 L 9.961,-390.131 L 9.961,-390.131 L 20.261,-390.05 L 30.019,-389.831 L 40.069,-390.023 L 49.7,-389.879 L 59.18,-390.565 L 59.641,-390.55 M 62.882,-390.449 L 69.095,-390.256 L 80.291,-390.186 L 89.813,-390.065 M -0.183,-360.179 L 10.596,-360.289 L 10.596,-360.289 L 15.431,-359.9 M 18.845,-359.626 L 20.177,-359.518 L 30.43,-360.082 L 40.321,-360.445 L 49.872,-360.161 L 60.715,-359.619 L 70.124,-360.082 L 79.783,-360.269 L 90.08,-360.037 M 29.941,-509.835 L 30.049,-499.978 L 30.049,-499.978 L 29.703,-489.641 L 29.7,-479.858 L 30.045,-470.041 L 30.002,-460.052 L 29.942,-450.094 L 29.938,-441.071 M 29.938,-440.393 L 29.937,-439.727 L 30.067,-429.486 L 30.005,-419.281 L 29.981,-409.986 L 29.73,-399.624 L 30.147,-389.904 L 29.866,-380.404 L 29.82,-370.314 L 30.21,-359.594 L 30.681,-350.09 L 29.946,-339.972 L 30.081,-329.779 M 60.047,-510.043 L 59.495,-499.655 L 59.495,-499.655 L 60.291,-490.574 L 60.143,-479.494 L 59.953,-470.534 L 59.904,-460.151 L 59.759,-449.807 L 59.928,-440.307 L 60.222,-429.92 L 60.083,-419.799 L 60.754,-409.905 L 59.971,-400.026 L 60.124,-397.243 M 60.529,-389.781 L 60.2,-380.327 L 60.102,-370.063 L 60.066,-359.652 L 60.173,-349.868 L 60.135,-339.604 L 59.408,-330.562 M 0.205,-719.591 L 9.967,-719.993 L 9.967,-719.993 L 19.868,-720.078 L 29.883,-720.059 L 39.475,-720.486 L 49.973,-720.087 L 60.086,-720.11 L 70.004,-720.025 L 80,-720 L 90.094,-720.057 M 0.459,-690.316 L 10.485,-689.944 L 10.485,-689.944 L 19.64,-689.921 L 29.843,-690.081 L 39.887,-690.79 L 50.003,-690.017 L 60.282,-689.947 L 69.947,-690.345 L 80.247,-690.021 L 83.507,-690.108 M 85.284,-690.156 L 89.672,-690.273 M -0.423,-659.617 L 10.27,-659.311 L 10.27,-659.311 L 17.617,-659.66 M 19.335,-659.741 L 20.124,-659.778 L 29.882,-659.772 L 40.157,-659.963 L 50.192,-659.987 L 59.972,-659.936 L 69.732,-659.936 L 79.969,-659.944 L 90.827,-660.061 M 0.03,-629.975 L 10.494,-629.899 L 10.494,-629.899 L 20.286,-629.691 L 29.933,-629.972 L 39.44,-629.894 L 50.761,-630.069 L 51.23,-630.066 M 51.515,-630.064 L 59.996,-630.008 L 69.985,-630.019 L 79.964,-629.906 L 90.391,-630.145 M 0.135,-599.998 L 10.186,-600.033 L 10.186,-600.033 L 20.081,-599.808 L 30.021,-600.087 L 39.874,-600.052 L 50.172,-600.036 L 60.086,-600.066 L 70.198,-600.262 L 79.74,-600.396 L 90.074,-599.689 M 0.048,-570.286 L 9.869,-570.269 L 9.869,-570.269 L 19.632,-569.918 L 23.286,-569.816 M 23.724,-569.804 L 30.226,-569.622 L 40.134,-569.997 L 50.459,-570.61 L 60.124,-570.155 L 70.13,-569.951 L 80.067,-569.553 L 89.899,-570.119 M 29.9,-749.733 L 29.537,-739.57 L 29.537,-739.57 L 30.006,-730.006 L 30.482,-719.822 L 29.695,-710.032 L 29.991,-700.238 L 30.026,-689.951 L 29.957,-679.858 L 29.584,-670.351 L 29.613,-669.648 M 29.785,-665.512 L 30.014,-659.983 L 29.845,-649.451 L 29.913,-639.972 L 30.369,-630.291 L 30.026,-620.557 L 29.904,-610.111 L 29.764,-600.181 L 29.736,-590.072 L 30.032,-580.32 L 30.188,-570.334 L 29.6,-559.807 L 30.205,-549.744 L 29.759,-540.148 M 60.659,-750.088 L 59.656,-740.452 L 59.656,-740.452 L 60.054,-729.914 L 59.78,-720.181 L 60.115,-710.031 L 60.219,-700.322 L 60.005,-690.003 L 59.643,-680.028 L 60.02,-669.97 L 59.909,-662.902 M 59.832,-658.121 L 59.701,-650.219 L 59.702,-639.632 L 60.167,-630.131 L 60.053,-620.034 L 60.138,-609.933 L 59.877,-599.9 L 59.979,-590.599 L 59.911,-580.105 L 60.195,-569.916 L 60.058,-559.781 L 59.998,-549.996 L 59.794,-539.682 M 149.923,-839.601 L 159.842,-839.941 L 159.842,-839.941 L 169.867,-839.628 L 180.013,-839.972 L 189.643,-839.624 L 200.161,-839.926 L 202.402,-839.968 M 209.963,-840.11 L 210.196,-840.114 L 220.225,-839.84 L 230.014,-839.795 L 240.684,-840.134 M 149.724,-810.241 L 159.954,-809.94 L 159.954,-809.94 L 170.492,-810.125 L 180.141,-809.981 L 190.094,-810.279 L 200.034,-810.728 L 210.059,-810.105 L 219.922,-810.449 L 230.017,-809.991 L 239.993,-810.125 M 150.169,-780.349 L 159.874,-780.472 L 159.874,-780.472 L 170.594,-780.429 L 180.376,-780.065 L 183.984,-780.043 M 188.418,-780.017 L 190.083,-780.007 L 200.051,-780.025 L 209.995,-779.998 L 219.852,-780.359 L 230.062,-780.03 L 240.073,-779.247 M 150.178,-749.894 L 159.869,-749.911 L 159.869,-749.911 L 169.851,-749.816 L 179.821,-750.378 L 185.373,-749.964 M 188.451,-749.734 L 190.082,-749.612 L 200.087,-750.125 L 209.903,-749.676 L 220.32,-750.114 L 230.161,-749.737 L 239.904,-749.161 M 179.845,-869.695 L 180.043,-859.995 L 180.043,-859.995 L 180.107,-849.949 L 180.53,-839.759 L 179.919,-830.743 L 179.958,-819.977 L 179.653,-809.832 L 179.921,-800.271 L 180.051,-790.072 L 180.638,-779.659 L 179.822,-771.128 M 179.85,-762.258 L 179.904,-760.012 L 180.003,-749.996 L 180.558,-740.559 L 179.969,-729.85 L 179.909,-720.122 M 209.626,-870.079 L 210.525,-860.444 L 210.525,-860.444 L 210.082,-849.85 L 210.463,-839.823 L 209.908,-829.716 L 209.929,-819.993 L 210.269,-812.222 M 210.278,-812.015 L 210.389,-809.474 L 210.405,-800.289 L 210.297,-790.056 L 210.274,-780.511 L 210.199,-769.946 L 209.954,-760.309 L 211.069,-750.071 L 210.312,-739.99 L 210.013,-730.02 L 209.923,-720.132 M 270.066,-840.46 L 274.745,-840.205 M 283.408,-839.978 L 290.158,-840.104 L 299.947,-840.035 L 309.581,-839.706 L 320.372,-840.243 L 329.988,-840.02 M 269.37,-810.532 L 279.789,-810.11 L 279.789,-810.11 L 289.776,-810.171 L 299.899,-809.852 L 309.041,-809.942 L 320.228,-809.816 L 330.234,-809.833 M 270.76,-779.672 L 280.102,-779.922 L 280.102,-779.922 L 290.044,-779.943 L 299.616,-779.467 L 310.699,-780.265 L 320.211,-780.256 L 329.524,-780.266 M 270.109,-750.144 L 279.832,-749.728 L 279.832,-749.728 L 290.241,-749.303 L 299.956,-749.999 L 309.906,-750.194 L 319.242,-749.824 L 330.004,-749.999 M 300.627,-870.665 L 300.13,-859.643 L 300.13,-859.643 L 299.396,-849.909 L 300.197,-840.032 L 300.484,-830.719 L 299.987,-819.45 L 300.055,-810.126 L 300.351,-799.897 L 300.009,-790.086 L 299.989,-779.988 L 300.457,-769.572 L 300.007,-760.016 L 300.03,-754.862 M 300.034,-754.066 L 300.055,-749.311 L 300.549,-740.144 L 299.962,-730.005 L 300.344,-720.057 M 360.005,-839.96 L 369.66,-839.992 L 369.66,-839.992 L 379.593,-840.019 L 390.147,-839.531 L 400.114,-839.741 L 409.982,-840.072 L 419.749,-840.253 L 425.839,-840.013 M 425.881,-840.012 L 430.161,-839.844 L 439.975,-840.076 L 450.477,-839.869 L 459.71,-839.461 L 470.208,-840 L 480.416,-840.35 L 489.586,-839.599 L 500.538,-840.095 L 510.028,-839.964 M 359.99,-809.993 L 369.996,-810.009 L 369.996,-810.009 L 380.12,-809.723 L 390.172,-810.512 L 400.353,-810.442 L 409.589,-810.257 L 419.97,-810.053 L 429.602,-810.008 L 439.897,-809.894 L 449.771,-808.965 L 459.999,-809.957 L 464.979,-809.872 M 465.17,-809.869 L 470,-809.786 L 480.424,-810.453 L 490.097,-810.024 L 500.068,-809.984 L 509.739,-809.802 M 360.058,-780.13 L 370.612,-779.991 L 370.612,-779.991 L 380.196,-779.966 L 389.947,-779.879 L 399.769,-780.334 L 403.402,-780.055 M 405.863,-779.866 L 409.592,-779.58 L 420.126,-780.134 L 429.968,-780 L 439.854,-780.152 L 449.811,-780.004 L 459.32,-780.539 L 469.877,-779.761 L 480.336,-779.959 L 489.923,-779.89 L 500.548,-780.622 L 510.571,-779.956 M 360.235,-749.936 L 369.667,-750.256 L 369.667,-750.256 L 380.349,-750.159 L 390.323,-749.836 L 399.417,-750.11 L 403.81,-749.899 M 404.266,-749.877 L 409.496,-749.625 L 420.01,-749.611 L 430.312,-749.564 L 439.984,-750.035 L 450.232,-750.228 L 460.361,-750.806 L 469.652,-749.208 L 480.543,-750.368 L 490.224,-750.136 L 499.505,-749.858 L 510.483,-750.145 M 390.577,-870.812 L 390.143,-859.935 L 390.143,-859.935 L 390.138,-850.243 L 390.314,-839.966 L 389.927,-830.47 L 389.776,-820.118 L 389.803,-809.645 L 389.889,-800.211 L 389.711,-789.946 L 389.99,-780.482 M 390.003,-771.61 L 390.002,-769.671 L 390.279,-759.945 L 390.341,-750.234 L 389.892,-740.019 L 389.973,-729.91 L 390.35,-720.049 M 420.306,-869.927 L 419.841,-859.928 L 419.841,-859.928 L 420.341,-850.546 L 419.679,-839.87 L 419.73,-830.101 L 419.664,-819.917 L 419.441,-809.669 L 419.664,-807.559 M 420.172,-802.755 L 420.445,-800.169 L 419.812,-789.827 L 420.199,-780.149 L 420.046,-770.203 L 420.188,-760.429 L 419.638,-749.558 L 420.135,-739.554 L 419.752,-730.241 L 420.303,-719.71 M 449.893,-870.084 L 449.887,-859.879 L 449.887,-859.879 L 449.892,-849.786 L 449.892,-839.789 L 449.524,-829.909 L 449.535,-820.224 L 449.791,-814.496 M 449.977,-810.352 L 449.992,-810.023 L 449.932,-799.985 L 450.575,-789.786 L 449.794,-779.97 L 449.953,-769.906 L 449.998,-759.999 L 450.132,-750.138 L 450.642,-739.837 L 450.088,-730.028 L 449.781,-719.772 M 479.98,-869.981 L 479.749,-860.005 L 479.749,-860.005 L 480.571,-850.031 L 479.712,-840.288 L 479.8,-837.127 M 479.836,-835.834 L 479.998,-830.022 L 479.983,-819.606 L 480.492,-810.119 L 480.239,-800.067 L 480.586,-789.234 L 479.762,-780.078 L 480.332,-769.913 L 479.656,-759.78 L 480.339,-750.416 L 479.953,-739.948 L 479.518,-730.077 L 480.304,-720.445 M 0.022,0.055 L 9.804,-0.099 L 9.804,-0.099 L 20.175,-0.373 L 30.225,0.471 M 29.814,-150.182 L 39.735,-149.867 L 39.735,-149.867 L 49.943,-150.092 L 60.274,-149.654 M 60.575,-120.154 L 52.088,-120.16 M 51.556,-120.161 L 49.832,-120.162 L 49.832,-120.162 L 40.287,-120.032 L 30.102,-120.208 M 30.386,-210.021 L 40.002,-210.004 L 40.002,-210.004 L 49.26,-209.416 L 60.491,-210.468 M 59.99,-180.413 L 50.763,-179.475 L 50.763,-179.475 L 40.203,-180.103 L 30.236,-180.222 M 29.833,-329.686 L 40.028,-330.212 L 40.028,-330.212 L 49.315,-329.631 L 60.018,-330.007 M 59.858,-299.495 L 50.032,-299.914 L 50.032,-299.914 L 40.378,-299.572 L 29.8,-299.702 M 30.005,-540.063 L 40.04,-540.013 L 40.04,-540.013 L 50.234,-540.056 L 59.597,-539.831 M 60,-509.999 L 50.258,-510.193 L 50.258,-510.193 L 39.988,-509.698 L 30.246,-509.924 M 30.094,-780.182 L 39.982,-779.998 L 39.982,-779.998 L 50.169,-780.232 L 60.246,-780.197 M 89.999,-809.833 L 89.612,-799.887 L 89.612,-799.887 L 89.638,-798.179 M 89.719,-792.94 L 89.765,-790.006 L 89.866,-780.357 M 150.435,-810.501 L 150.168,-800.583 L 150.168,-800.583 L 150.004,-790.013 L 150.768,-780.676 M 269.967,-810.114 L 269.859,-803.792 M 269.844,-802.892 L 269.794,-799.944 L 269.794,-799.944 L 269.671,-789.97 L 269.505,-780.106 M 239.808,-780.284 L 240.324,-790.597 L 240.324,-790.597 L 239.994,-800.014 L 240.51,-809.559 M 359.637,-809.658 L 360.128,-800.232 L 360.128,-800.232 L 360.052,-790.258 L 360.094,-779.977" stroke="#000000" stroke-width="0.3"/></g><g clip-path="url(#instance17)"><path d=" M 0,0"/><clipPath id="instance17" fill="#FFFFFF"><path d=" M 0,0"/><path d=" M -60,0 L -60,-120 L 90,-120 L 90,0 L -60,0" fill="#FF0000"/><path d=" M 30,-150 L 30,-180 L 60,-180 L 60,-150 L 30,-150" fill="#FF0000"/><path d=" M 30,-210 L 30,-300 L 60,-300 L 60,-210 L 30,-210" fill="#FF0000"/><path d=" M 0,-330 L 0,-510 L 90,-510 L 90,-330 L 0,-330" fill="#FF0000"/><path d=" M 0,-540 L 0,-750 L 90,-750 L 90,-540 L 0,-540" fill="#FF0000"/><path d=" M 30,-780 L 30,-810 L 60,-810 L 60,-780 L 30,-780" fill="#FF0000"/><path d=" M 90,-780 L 90,-810 L 120,-810 L 120,-780 L 90,-780" fill="#FF0000"/><path d=" M 150,-720 L 150,-870 L 240,-870 L 240,-720 L 150,-720" fill="#FF0000"/><path d=" M 270,-720 L 270,-870 L 330,-870 L 330,-720 L 270,-720" fill="#FF0000"/><path d=" M 360,-720 L 360,-870 L 510,-870 L 510,-720 L 360,-720" fill="#FF0000"/><path d=" M 0,30 L 0,0 L 30,0 L 30,30 L 0,30" fill="#FF0000"/><path d=" M 60,-127.5 L 60,-120 L 30,-120 L 30,-127.5 L 36,-127.5 L 36,-142.5 L 30,-142.5 L 30,-150 L 60,-150 L 60,-142.5 L 54,-142.5 L 54,-127.5 L 60,-127.5" fill="#FF0000"/><path d=" M 30,-180 L 30,-210 L 60,-210 L 60,-180 L 30,-180" fill="#FF0000"/><path d=" M 60,-307.5 L 60,-300 L 30,-300 L 30,-307.5 L 36,-307.5 L 36,-322.5 L 30,-322.5 L 30,-330 L 60,-330 L 60,-322.5 L 54,-322.5 L 54,-307.5 L 60,-307.5" fill="#FF0000"/><path d=" M 60,-517.5 L 60,-510 L 30,-510 L 30,-517.5 L 36,-517.5 L 36,-532.5 L 30,-532.5 L 30,-540 L 60,-540 L 60,-532.5 L 54,-532.5 L 54,-517.5 L 60,-517.5" fill="#FF0000"/><path d=" M 30,-750 L 30,-780 L 60,-780 L 60,-750 L 30,-750" fill="#FF0000"/><path d=" M 60,-780 L 60,-810 L 90,-810 L 90,-780 L 60,-780" fill="#FF0000"/><path d=" M 120,-780 L 120,-810 L 150,-810 L 150,-780 L 120,-780" fill="#FF0000"/><path d=" M 247.5,-780 L 240,-780 L 240,-810 L 247.5,-810 L 247.5,-804 L 262.5,-804 L 262.5,-810 L 270,-810 L 270,-780 L 262.5,-780 L 262.5,-786 L 247.5,-786 L 247.5,-780" fill="#FF0000"/><path d=" M 330,-780 L 330,-810 L 360,-810 L 360,-780 L 330,-780" fill="#FF0000"/></clipPath></g><g><path d=" M 0,0"/><path d=" M -46.792,-118.937 L -46.667,-118.812 L -48.503,-118.625 L -52.302,-118.375 L -55.214,-117.096 L -57.238,-114.789 L -58.375,-111.452 L -58.625,-107.087 L -58.812,-104.967 L -58.937,-105.092 L -59,-108.616 L -59,-119 L -49.891,-119 L -46.792,-118.937 M 88.938,-101.729 L 88.813,-101.604 L 88.625,-104.284 L 88.375,-109.771 L 87.006,-113.948 L 84.518,-116.816 L 80.911,-118.375 L 76.184,-118.625 L 73.884,-118.812 L 74.009,-118.937 L 77.803,-119 L 89,-119 L 89,-106.093 L 88.938,-101.729 M -58.937,-9.966 L -58.812,-10.091 L -58.625,-8.794 L -58.375,-6.077 L -57.784,-3.976 L -56.851,-2.492 L -55.578,-1.625 L -53.963,-1.375 L -53.218,-1.187 L -53.343,-1.062 L -54.804,-1 L -59,-1 L -59,-7.677 L -58.937,-9.966 M 76.722,-1.062 L 76.597,-1.187 L 78.445,-1.375 L 82.267,-1.625 L 85.196,-2.317 L 87.232,-3.45 L 88.375,-5.025 L 88.625,-7.042 L 88.813,-7.988 L 88.938,-7.863 L 89,-6.1 L 89,-1 L 79.838,-1 L 76.722,-1.062" fill="#000000"/><path d=" M 14.918,-508.937 L 15.043,-508.812 L 12.921,-508.625 L 8.553,-508.375 L 5.214,-507.514 L 2.905,-506.042 L 1.625,-503.958 L 1.375,-501.263 L 1.188,-499.979 L 1.063,-500.104 L 1,-502.375 L 1,-509 L 11.392,-509 L 14.918,-508.937 M 88.938,-498.387 L 88.813,-498.262 L 88.625,-499.833 L 88.375,-503.1 L 86.845,-505.612 L 84.034,-507.371 L 79.944,-508.375 L 74.573,-508.625 L 71.95,-508.812 L 72.075,-508.937 L 76.353,-509 L 89,-509 L 89,-501.087 L 88.938,-498.387 M 1.063,-341.25 L 1.188,-341.375 L 1.375,-339.865 L 1.625,-336.719 L 2.904,-334.297 L 5.213,-332.599 L 8.551,-331.625 L 12.918,-331.375 L 15.039,-331.187 L 14.914,-331.062 L 11.389,-331 L 1,-331 L 1,-338.641 L 1.063,-341.25 M 73.243,-331.062 L 73.118,-331.187 L 75.546,-331.375 L 80.528,-331.625 L 84.326,-332.751 L 86.942,-334.752 L 88.375,-337.629 L 88.625,-341.381 L 88.813,-343.195 L 88.938,-343.07 L 89,-340.005 L 89,-331 L 77.229,-331 L 73.243,-331.062" fill="#000000"/><path d=" M 9.764,-748.937 L 9.889,-748.812 L 8.626,-748.625 L 5.976,-748.375 L 3.925,-747.179 L 2.475,-745.038 L 1.625,-741.951 L 1.375,-737.918 L 1.188,-735.964 L 1.063,-736.089 L 1,-739.364 L 1,-749 L 7.526,-749 L 9.764,-748.937 M 88.938,-736.831 L 88.813,-736.706 L 88.625,-738.536 L 88.375,-742.322 L 87.692,-745.223 L 86.575,-747.241 L 85.024,-748.375 L 83.041,-748.625 L 82.111,-748.812 L 82.236,-748.937 L 83.974,-749 L 89,-749 L 89,-739.92 L 88.938,-736.831 M 1.063,-554.64 L 1.188,-554.765 L 1.375,-552.69 L 1.625,-548.414 L 2.784,-545.144 L 4.853,-542.881 L 7.831,-541.625 L 11.719,-541.375 L 13.6,-541.187 L 13.475,-541.062 L 10.309,-541 L 1,-541 L 1,-551.183 L 1.063,-554.64 M 77.565,-541.062 L 77.44,-541.187 L 79.148,-541.375 L 82.689,-541.625 L 85.407,-542.572 L 87.302,-544.215 L 88.375,-546.554 L 88.625,-549.591 L 88.813,-551.046 L 88.938,-550.921 L 89,-548.394 L 89,-541 L 80.471,-541 L 77.565,-541.062" fill="#000000"/><path d=" M 38.606,-808.937 L 38.731,-808.812 L 37.661,-808.625 L 35.397,-808.375 L 33.636,-806.83 L 32.379,-803.99 L 31.625,-799.856 L 31.375,-794.426 L 31.188,-791.774 L 31.063,-791.899 L 31,-796.221 L 31,-809 L 36.657,-809 L 38.606,-808.937" fill="#000000"/><path d=" M 159.425,-868.937 L 159.55,-868.812 L 158.344,-868.625 L 155.806,-868.375 L 153.841,-867.399 L 152.447,-865.698 L 151.625,-863.27 L 151.375,-860.117 L 151.188,-858.603 L 151.063,-858.728 L 151,-861.343 L 151,-869 L 157.272,-869 L 159.425,-868.937 M 238.938,-859.453 L 238.813,-859.328 L 238.625,-860.721 L 238.375,-863.633 L 237.382,-865.879 L 235.647,-867.46 L 233.17,-868.375 L 229.949,-868.625 L 228.402,-868.812 L 228.527,-868.937 L 231.192,-869 L 239,-869 L 239,-861.887 L 238.938,-859.453 M 151.063,-732.482 L 151.188,-732.607 L 151.375,-730.891 L 151.625,-727.335 L 153.342,-724.605 L 156.527,-722.702 L 161.18,-721.625 L 167.299,-721.375 L 170.297,-721.187 L 170.172,-721.062 L 165.332,-721 L 151,-721 L 151,-729.564 L 151.063,-732.482 M 228.787,-721.062 L 228.662,-721.187 L 230.166,-721.375 L 233.3,-721.625 L 235.712,-722.92 L 237.404,-725.259 L 238.375,-728.644 L 238.625,-733.073 L 238.813,-735.225 L 238.938,-735.1 L 239,-731.528 L 239,-721 L 231.387,-721 L 228.787,-721.062" fill="#000000"/><path d=" M 281.477,-868.937 L 281.602,-868.812 L 280.054,-868.625 L 276.832,-868.375 L 274.354,-867.927 L 272.618,-867.28 L 271.625,-866.435 L 271.375,-865.391 L 271.188,-864.932 L 271.063,-865.057 L 271,-866.09 L 271,-869 L 278.811,-869 L 281.477,-868.937 M 328.938,-854.745 L 328.813,-854.62 L 328.625,-856.798 L 328.375,-861.279 L 327.604,-864.702 L 326.313,-867.067 L 324.502,-868.375 L 322.17,-868.625 L 321.066,-868.812 L 321.191,-868.937 L 323.19,-869 L 329,-869 L 329,-858.355 L 328.938,-854.745 M 271.063,-730.76 L 271.188,-730.885 L 271.375,-729.457 L 271.625,-726.474 L 272.399,-724.174 L 273.698,-722.558 L 275.522,-721.625 L 277.869,-721.375 L 278.981,-721.187 L 278.856,-721.062 L 276.845,-721 L 271,-721 L 271,-728.273 L 271.063,-730.76 M 311.019,-721.062 L 310.894,-721.187 L 313.693,-721.375 L 319.416,-721.625 L 323.77,-722.356 L 326.757,-723.569 L 328.375,-725.263 L 328.625,-727.439 L 328.813,-728.464 L 328.938,-728.339 L 329,-726.457 L 329,-721 L 315.561,-721 L 311.019,-721.062" fill="#000000"/><path d=" M 379.127,-868.937 L 379.252,-868.812 L 376.429,-868.625 L 370.657,-868.375 L 366.266,-867.392 L 363.255,-865.675 L 361.625,-863.226 L 361.375,-860.043 L 361.188,-858.514 L 361.063,-858.639 L 361,-861.276 L 361,-869 L 374.549,-869 L 379.127,-868.937 M 508.938,-852.983 L 508.813,-852.858 L 508.625,-855.33 L 508.375,-860.398 L 507.614,-864.261 L 506.341,-866.92 L 504.556,-868.375 L 502.26,-868.625 L 501.175,-868.812 L 501.3,-868.937 L 503.272,-869 L 509,-869 L 509,-857.034 L 508.938,-852.983 M 361.063,-736.121 L 361.188,-736.246 L 361.375,-733.924 L 361.625,-729.154 L 363.107,-725.515 L 365.822,-723.005 L 369.769,-721.625 L 374.949,-721.375 L 377.476,-721.187 L 377.351,-721.062 L 373.216,-721 L 361,-721 L 361,-732.294 L 361.063,-736.121 M 493.385,-721.062 L 493.26,-721.187 L 495.665,-721.375 L 500.599,-721.625 L 504.362,-722.151 L 506.954,-722.952 L 508.375,-724.03 L 508.625,-725.383 L 508.813,-725.997 L 508.938,-725.872 L 509,-724.607 L 509,-721 L 497.336,-721 L 493.385,-721.062" fill="#000000"/></g><g><path d=" M 0,0"/><path d=" M -49.433,-106.651 L -48.2,-107.585 L -46.402,-108.075 L -44.039,-108.122 L -42.385,-107.553 L -41.441,-106.367 L -41.207,-104.564 L -41.682,-102.145 L -42.536,-100.469 L -43.769,-99.535 L -45.38,-99.343 L -47.371,-99.894 L -48.838,-100.763 L -49.782,-101.949 L -50.203,-103.452 L -50.1,-105.273 L -49.433,-106.651" fill="#FFFFFF" stroke="#000000" stroke-width="1"/><path d=" M -34.952,-15.13 L -33.344,-15.136 L -31.688,-14.299 L -29.986,-12.617 L -29.192,-10.979 L -29.307,-9.387 L -30.33,-7.839 L -32.261,-6.335 L -34.031,-5.58 L -35.639,-5.573 L -37.086,-6.315 L -38.371,-7.806 L -38.957,-9.347 L -38.842,-10.94 L -38.028,-12.584 L -36.513,-14.279 L -34.952,-15.13" fill="#FFFFFF" stroke="#000000" stroke-width="1"/><path d=" M 76.723,-103.133 L 77.89,-103.298 L 78.953,-102.996 L 79.914,-102.225 L 80.537,-101.303 L 80.823,-100.229 L 80.772,-99.003 L 80.384,-97.626 L 79.606,-96.855 L 78.439,-96.69 L 76.883,-97.13 L 74.937,-98.176 L 73.82,-99.236 L 73.534,-100.31 L 74.078,-101.398 L 75.452,-102.499 L 76.723,-103.133" fill="#FFFFFF" stroke="#000000" stroke-width="1"/><path d=" M 51.431,-162.518 L 52.06,-163.136 L 53.031,-163.44 L 54.344,-163.431 L 55.283,-163.091 L 55.848,-162.422 L 56.039,-161.422 L 55.855,-160.091 L 55.448,-159.117 L 54.819,-158.499 L 53.966,-158.236 L 52.89,-158.33 L 52.07,-158.712 L 51.505,-159.382 L 51.196,-160.339 L 51.143,-161.585 L 51.431,-162.518" fill="#FFFFFF" stroke="#000000" stroke-width="1"/><path d=" M 32.491,-276.025 L 32.157,-276.195 L 31.904,-276.545 L 31.73,-277.075 L 31.741,-277.498 L 31.934,-277.816 L 32.311,-278.027 L 32.871,-278.133 L 33.318,-278.101 L 33.652,-277.93 L 33.872,-277.623 L 33.98,-277.177 L 33.936,-276.796 L 33.743,-276.478 L 33.399,-276.224 L 32.905,-276.035 L 32.491,-276.025" fill="#FFFFFF" stroke="#000000" stroke-width="1"/><path d=" M 1.203,-340.161 L 0.967,-340.697 L 1.008,-341.371 L 1.323,-342.183 L 1.755,-342.686 L 2.303,-342.878 L 2.968,-342.761 L 3.75,-342.333 L 4.259,-341.852 L 4.494,-341.315 L 4.456,-340.725 L 4.144,-340.079 L 3.714,-339.661 L 3.165,-339.468 L 2.498,-339.502 L 1.713,-339.763 L 1.203,-340.161" fill="#FFFFFF" stroke="#000000" stroke-width="1"/><path d=" M 5.753,-349.758 L 16.018,-349.125 L 15.385,-338.86 L 5.12,-339.493 L 5.753,-349.758" fill="#FFFFFF" stroke="#000000" stroke-width="1"/><path d=" M 15.807,-345.703 L 5.542,-346.336" stroke="#000000" stroke-width="1"/><path d=" M 15.596,-342.281 L 5.331,-342.914" stroke="#000000" stroke-width="1"/><path d=" M 81.873,-743.669 L 82.071,-744.752 L 82.653,-745.606 L 83.619,-746.229 L 84.62,-746.509 L 85.656,-746.446 L 86.726,-746.039 L 87.832,-745.289 L 88.286,-744.373 L 88.088,-743.29 L 87.239,-742.04 L 85.738,-740.625 L 84.47,-739.948 L 83.434,-740.012 L 82.63,-740.814 L 82.06,-742.357 L 81.873,-743.669" fill="#FFFFFF" stroke="#000000" stroke-width="1"/><path d=" M 12.921,-549.704 L 12.187,-549.894 L 11.533,-550.475 L 10.958,-551.446 L 10.793,-552.288 L 11.036,-553 L 11.689,-553.584 L 12.75,-554.037 L 13.647,-554.169 L 14.381,-553.979 L 14.952,-553.467 L 15.359,-552.633 L 15.441,-551.86 L 15.198,-551.148 L 14.629,-550.496 L 13.735,-549.905 L 12.921,-549.704" fill="#FFFFFF" stroke="#000000" stroke-width="1"/><path d=" M 13.431,-586.264 L 13.852,-586.62 L 14.482,-586.829 L 15.323,-586.891 L 15.922,-586.72 L 16.281,-586.316 L 16.399,-585.678 L 16.276,-584.808 L 16.004,-584.195 L 15.583,-583.839 L 15.013,-583.74 L 14.293,-583.898 L 13.755,-584.179 L 13.396,-584.584 L 13.217,-585.111 L 13.219,-585.761 L 13.431,-586.264" fill="#FFFFFF" stroke="#000000" stroke-width="1"/><path d=" M 1.948,-726.067 L 2.274,-726.272 L 2.716,-726.313 L 3.275,-726.188 L 3.645,-725.956 L 3.824,-725.618 L 3.813,-725.174 L 3.612,-724.623 L 3.348,-724.245 L 3.023,-724.039 L 2.635,-724.006 L 2.184,-724.145 L 1.87,-724.384 L 1.691,-724.722 L 1.647,-725.159 L 1.739,-725.696 L 1.948,-726.067" fill="#FFFFFF" stroke="#000000" stroke-width="1"/><path d=" M 74.707,-557.134 L 74.919,-557.468 L 75.227,-557.673 L 75.632,-557.751 L 76.003,-557.71 L 76.339,-557.55 L 76.641,-557.271 L 76.908,-556.872 L 76.936,-556.506 L 76.725,-556.173 L 76.274,-555.871 L 75.585,-555.601 L 75.072,-555.547 L 74.735,-555.707 L 74.576,-556.082 L 74.593,-556.672 L 74.707,-557.134" fill="#FFFFFF" stroke="#000000" stroke-width="1"/><path d=" M 85.537,-696.896 L 85.398,-697.244 L 85.411,-697.596 L 85.576,-697.951 L 85.814,-698.213 L 86.124,-698.383 L 86.506,-698.46 L 86.961,-698.445 L 87.258,-698.263 L 87.398,-697.915 L 87.38,-697.401 L 87.204,-696.72 L 86.962,-696.295 L 86.652,-696.125 L 86.274,-696.211 L 85.83,-696.551 L 85.537,-696.896" fill="#FFFFFF" stroke="#000000" stroke-width="1"/><path d=" M 7.051,-688.087 L 6.737,-688.354 L 6.554,-688.793 L 6.503,-689.405 L 6.621,-689.856 L 6.909,-690.147 L 7.367,-690.278 L 7.994,-690.249 L 8.464,-690.101 L 8.779,-689.834 L 8.937,-689.448 L 8.939,-688.943 L 8.795,-688.545 L 8.507,-688.254 L 8.075,-688.07 L 7.497,-687.992 L 7.051,-688.087" fill="#FFFFFF" stroke="#000000" stroke-width="1"/><path d=" M 7.391,-562.358 L 7.148,-562.732 L 7.083,-563.145 L 7.194,-563.597 L 7.411,-563.957 L 7.734,-564.226 L 8.162,-564.404 L 8.696,-564.49 L 9.085,-564.346 L 9.327,-563.972 L 9.424,-563.368 L 9.375,-562.535 L 9.19,-561.983 L 8.867,-561.714 L 8.407,-561.727 L 7.811,-562.023 L 7.391,-562.358" fill="#FFFFFF" stroke="#000000" stroke-width="1"/><path d=" M 61.552,-581.597 L 72.51,-590.424 L 81.337,-579.466 L 70.379,-570.639 L 61.552,-581.597" fill="#FFFFFF" stroke="#000000" stroke-width="1"/><path d=" M 75.452,-586.772 L 64.494,-577.945" stroke="#000000" stroke-width="1"/><path d=" M 78.395,-583.119 L 67.436,-574.292" stroke="#000000" stroke-width="1"/><path d=" M 69.927,-717.035 L 70.386,-729.891 L 83.242,-729.432 L 82.783,-716.575 L 69.927,-717.035" fill="#FFFFFF" stroke="#000000" stroke-width="1"/><path d=" M 74.671,-729.738 L 74.212,-716.882" stroke="#000000" stroke-width="1"/><path d=" M 78.957,-729.585 L 78.497,-716.728" stroke="#000000" stroke-width="1"/><path d=" M 36.352,-806.132 L 36.737,-806.255 L 37.197,-806.179 L 37.732,-805.904 L 38.046,-805.571 L 38.139,-805.181 L 38.01,-804.733 L 37.66,-804.226 L 37.293,-803.912 L 36.908,-803.789 L 36.505,-803.858 L 36.084,-804.118 L 35.828,-804.444 L 35.735,-804.834 L 35.807,-805.29 L 36.042,-805.81 L 36.352,-806.132" fill="#FFFFFF" stroke="#000000" stroke-width="1"/><path d=" M 101.052,-786.206 L 100.901,-786.581 L 100.915,-786.96 L 101.092,-787.343 L 101.348,-787.626 L 101.682,-787.809 L 102.094,-787.893 L 102.584,-787.876 L 102.904,-787.681 L 103.055,-787.306 L 103.036,-786.752 L 102.848,-786.019 L 102.587,-785.56 L 102.253,-785.377 L 101.847,-785.469 L 101.367,-785.835 L 101.052,-786.206" fill="#FFFFFF" stroke="#000000" stroke-width="1"/><path d=" M 211.189,-816.296 L 210.823,-816.491 L 210.55,-816.884 L 210.37,-817.474 L 210.391,-817.943 L 210.612,-818.29 L 211.034,-818.516 L 211.656,-818.62 L 212.15,-818.575 L 212.516,-818.379 L 212.753,-818.033 L 212.862,-817.538 L 212.806,-817.116 L 212.585,-816.769 L 212.198,-816.496 L 211.647,-816.297 L 211.189,-816.296" fill="#FFFFFF" stroke="#000000" stroke-width="1"/><path d=" M 157.03,-741.493 L 155.838,-742.606 L 155.004,-744.385 L 154.529,-746.832 L 154.822,-748.653 L 155.884,-749.847 L 157.714,-750.416 L 160.313,-750.359 L 162.209,-749.774 L 163.402,-748.661 L 163.892,-747.022 L 163.678,-744.854 L 163.04,-743.173 L 161.978,-741.979 L 160.492,-741.27 L 158.582,-741.048 L 157.03,-741.493" fill="#FFFFFF" stroke="#000000" stroke-width="1"/><path d=" M 151.445,-754.917 L 151.367,-755.284 L 151.479,-755.701 L 151.781,-756.17 L 152.117,-756.429 L 152.486,-756.479 L 152.888,-756.319 L 153.323,-755.95 L 153.58,-755.583 L 153.658,-755.216 L 153.558,-754.85 L 153.279,-754.486 L 152.955,-754.279 L 152.586,-754.229 L 152.172,-754.337 L 151.713,-754.601 L 151.445,-754.917" fill="#FFFFFF" stroke="#000000" stroke-width="1"/><path d=" M 319.328,-732.206 L 320.887,-731.508 L 321.958,-730.317 L 322.541,-728.63 L 322.593,-727.018 L 322.115,-725.481 L 321.107,-724.017 L 319.569,-722.628 L 318.02,-722.282 L 316.461,-722.98 L 314.892,-724.721 L 313.313,-727.506 L 312.762,-729.667 L 313.24,-731.205 L 314.746,-732.119 L 317.281,-732.41 L 319.328,-732.206" fill="#FFFFFF" stroke="#000000" stroke-width="1"/><path d=" M 322.629,-743.562 L 321.808,-744.301 L 321.353,-745.49 L 321.264,-747.131 L 321.616,-748.329 L 322.409,-749.086 L 323.643,-749.401 L 325.319,-749.274 L 326.567,-748.841 L 327.388,-748.103 L 327.781,-747.058 L 327.747,-745.707 L 327.333,-744.653 L 326.54,-743.897 L 325.367,-743.437 L 323.815,-743.274 L 322.629,-743.562" fill="#FFFFFF" stroke="#000000" stroke-width="1"/><path d=" M 377.422,-755.513 L 377.345,-756.043 L 377.497,-756.669 L 377.877,-757.392 L 378.326,-757.797 L 378.843,-757.884 L 379.427,-757.654 L 380.08,-757.106 L 380.445,-756.568 L 380.521,-756.039 L 380.31,-755.519 L 379.811,-755.009 L 379.303,-754.71 L 378.786,-754.622 L 378.261,-754.746 L 377.727,-755.081 L 377.422,-755.513" fill="#FFFFFF" stroke="#000000" stroke-width="1"/><path d=" M 363.241,-732.842 L 363.067,-733.251 L 363.056,-733.785 L 363.207,-734.447 L 363.481,-734.868 L 363.877,-735.048 L 364.395,-734.988 L 365.036,-734.687 L 365.443,-734.333 L 365.617,-733.924 L 365.559,-733.462 L 365.267,-732.946 L 364.923,-732.598 L 364.527,-732.418 L 364.079,-732.405 L 363.579,-732.56 L 363.241,-732.842" fill="#FFFFFF" stroke="#000000" stroke-width="1"/><path d=" M 480.72,-735.812 L 481.681,-735.798 L 482.499,-735.421 L 483.176,-734.679 L 483.561,-733.858 L 483.657,-732.957 L 483.462,-731.977 L 482.976,-730.917 L 482.253,-730.394 L 481.292,-730.407 L 480.094,-730.958 L 478.659,-732.045 L 477.893,-733.039 L 477.798,-733.939 L 478.373,-734.747 L 479.618,-735.461 L 480.72,-735.812" fill="#FFFFFF" stroke="#000000" stroke-width="1"/><path d=" M 510,-840 L 510,-750 L 501.221,-750.865 L 492.779,-753.425 L 484.999,-757.584 L 478.18,-763.18 L 472.584,-769.999 L 468.425,-777.779 L 465.865,-786.221 L 465,-795 L 465.865,-803.779 L 468.425,-812.221 L 472.584,-820.001 L 478.18,-826.82 L 484.999,-832.416 L 492.779,-836.575 L 501.221,-839.135 L 510,-840" fill="#FFFFFF"/><path d=" M 510,-750 L 501.221,-750.865 L 492.779,-753.425 L 484.999,-757.584 L 478.18,-763.18 L 472.584,-769.999 L 468.425,-777.779 L 465.865,-786.221 L 465,-795 L 465.865,-803.779 L 468.425,-812.221 L 472.584,-820.001 L 478.18,-826.82 L 484.999,-832.416 L 492.779,-836.575 L 501.221,-839.135 L 510,-840" stroke="#000000" stroke-width="1"/><path d=" M 510,-757.5 L 502.684,-758.221 L 495.649,-760.355 L 489.166,-763.82 L 483.483,-768.483 L 478.82,-774.166 L 475.355,-780.649 L 473.221,-787.684 L 472.5,-795 L 473.221,-802.316 L 475.355,-809.351 L 478.82,-815.834 L 483.483,-821.517 L 489.166,-826.18 L 495.649,-829.645 L 502.684,-831.779 L 510,-832.5" stroke="#000000" stroke-width="1"/><path d=" M 490.5,-781.5 L 487.5,-801 L 490.5,-808.5 L 499.5,-808.5 L 502.5,-801 L 499.5,-781.5 L 490.5,-781.5" fill="#FFFFFF" stroke="#000000" stroke-width="1"/><path d=" M 491.85,-785.55 L 489.75,-799.2 L 491.85,-804.45 L 498.15,-804.45 L 500.25,-799.2 L 498.15,-785.55 L 491.85,-785.55" stroke="#000000" stroke-width="1"/></g><g transform="translate(4.243 4.243)" clip-path="url(#instance21)"><path d=" M 0,0"/><clipPath id="instance21" fill="#FFFFFF" transform="translate(-4.243 -4.243)"><path d=" M 0,0"/></clipPath></g><g><path d=" M 0,0"/><path d=" M 27,24 L 3,24 M 24,18 L 6,18 M 21,12 L 9,12 M 18,6 L 12,6" stroke="#000000" stroke-width="1"/><path d=" M 35,-138.75 L 55,-138.75 L 55,-131.25 L 35,-131.25 L 35,-138.75" fill="#FFFFFF" stroke="#000000" stroke-width="2"/><path d=" M 35,-318.75 L 55,-318.75 L 55,-311.25 L 35,-311.25 L 35,-318.75" fill="#FFFFFF" stroke="#000000" stroke-width="2"/><path d=" M 35,-528.75 L 55,-528.75 L 55,-521.25 L 35,-521.25 L 35,-528.75" fill="#FFFFFF" stroke="#000000" stroke-width="2"/><path d=" M 60,-750 L 30,-750 M 58.002,-756 L 31.998,-756 M 56.004,-762 L 33.996,-762 M 54.006,-768 L 35.994,-768 M 52.008,-774 L 37.992,-774 M 50.01,-780 L 39.99,-780" stroke="#000000" stroke-width="1"/><path d=" M 60,-810 L 60,-780 M 66,-808.002 L 66,-781.998 M 72,-806.004 L 72,-783.996 M 78,-804.006 L 78,-785.994 M 84,-802.008 L 84,-787.992 M 90,-800.01 L 90,-789.99" stroke="#000000" stroke-width="1"/><path d=" M 120,-810 L 120,-780 M 126,-808.002 L 126,-781.998 M 132,-806.004 L 132,-783.996 M 138,-804.006 L 138,-785.994 M 144,-802.008 L 144,-787.992 M 150,-800.01 L 150,-789.99" stroke="#000000" stroke-width="1"/><path d=" M 251.25,-805 L 258.75,-805 L 258.75,-785 L 251.25,-785 L 251.25,-805 M 251.25,-795 L 258.75,-795" fill="#FFFFFF" stroke="#000000" stroke-width="2"/><path d=" M 330,-810 L 330,-780 M 336,-808.002 L 336,-781.998 M 342,-806.004 L 342,-783.996 M 348,-804.006 L 348,-785.994 M 354,-802.008 L 354,-787.992 M 360,-800.01 L 360,-789.99" stroke="#000000" stroke-width="1"/></g></g></g></svg>